<?xml version="1.0" encoding="utf-8" standalone="no"?>
<!DOCTYPE svg PUBLIC "-//W3C//DTD SVG 1.1//EN"
  "http://www.w3.org/Graphics/SVG/1.1/DTD/svg11.dtd">
<svg xmlns:xlink="http://www.w3.org/1999/xlink" width="460.8pt" height="345.6pt" viewBox="0 0 460.8 345.6" xmlns="http://www.w3.org/2000/svg" version="1.1">
 <metadata>
  <rdf:RDF xmlns:dc="http://purl.org/dc/elements/1.1/" xmlns:cc="http://creativecommons.org/ns#" xmlns:rdf="http://www.w3.org/1999/02/22-rdf-syntax-ns#">
   <cc:Work>
    <dc:type rdf:resource="http://purl.org/dc/dcmitype/StillImage"/>
    <dc:date>2023-06-02T11:31:29.243322</dc:date>
    <dc:format>image/svg+xml</dc:format>
    <dc:creator>
     <cc:Agent>
      <dc:title>Matplotlib v3.7.0, https://matplotlib.org/</dc:title>
     </cc:Agent>
    </dc:creator>
   </cc:Work>
  </rdf:RDF>
 </metadata>
 <defs>
  <style type="text/css">*{stroke-linejoin: round; stroke-linecap: butt}</style>
 </defs>
 <g id="figure_1">
  <g id="patch_1">
   <path d="M 0 345.6 
L 460.8 345.6 
L 460.8 0 
L 0 0 
z
" style="fill: #ffffff"/>
  </g>
  <g id="axes_1">
   <g id="patch_2">
    <path d="M 57.6 307.584 
L 414.72 307.584 
L 414.72 41.472 
L 57.6 41.472 
z
" style="fill: #ffffff"/>
   </g>
   <g id="patch_3">
    <path d="M 139.535603 307.584 
L 143.851464 307.584 
L 143.851464 301.085538 
L 139.535603 301.085538 
z
" clip-path="url(#pd9a8e7a45e)" style="fill: #ff0000; opacity: 0.4; stroke: #000000; stroke-linejoin: miter"/>
   </g>
   <g id="patch_4">
    <path d="M 143.851464 307.584 
L 148.167325 307.584 
L 148.167325 301.085538 
L 143.851464 301.085538 
z
" clip-path="url(#pd9a8e7a45e)" style="fill: #ff0000; opacity: 0.4; stroke: #000000; stroke-linejoin: miter"/>
   </g>
   <g id="patch_5">
    <path d="M 148.167325 307.584 
L 152.483186 307.584 
L 152.483186 307.584 
L 148.167325 307.584 
z
" clip-path="url(#pd9a8e7a45e)" style="fill: #ff0000; opacity: 0.4; stroke: #000000; stroke-linejoin: miter"/>
   </g>
   <g id="patch_6">
    <path d="M 152.483186 307.584 
L 156.799048 307.584 
L 156.799048 301.085538 
L 152.483186 301.085538 
z
" clip-path="url(#pd9a8e7a45e)" style="fill: #ff0000; opacity: 0.4; stroke: #000000; stroke-linejoin: miter"/>
   </g>
   <g id="patch_7">
    <path d="M 156.799048 307.584 
L 161.114909 307.584 
L 161.114909 288.088615 
L 156.799048 288.088615 
z
" clip-path="url(#pd9a8e7a45e)" style="fill: #ff0000; opacity: 0.4; stroke: #000000; stroke-linejoin: miter"/>
   </g>
   <g id="patch_8">
    <path d="M 161.114909 307.584 
L 165.43077 307.584 
L 165.43077 288.088615 
L 161.114909 288.088615 
z
" clip-path="url(#pd9a8e7a45e)" style="fill: #ff0000; opacity: 0.4; stroke: #000000; stroke-linejoin: miter"/>
   </g>
   <g id="patch_9">
    <path d="M 165.43077 307.584 
L 169.746631 307.584 
L 169.746631 288.088615 
L 165.43077 288.088615 
z
" clip-path="url(#pd9a8e7a45e)" style="fill: #ff0000; opacity: 0.4; stroke: #000000; stroke-linejoin: miter"/>
   </g>
   <g id="patch_10">
    <path d="M 169.746631 307.584 
L 174.062492 307.584 
L 174.062492 281.590154 
L 169.746631 281.590154 
z
" clip-path="url(#pd9a8e7a45e)" style="fill: #ff0000; opacity: 0.4; stroke: #000000; stroke-linejoin: miter"/>
   </g>
   <g id="patch_11">
    <path d="M 174.062492 307.584 
L 178.378353 307.584 
L 178.378353 294.587077 
L 174.062492 294.587077 
z
" clip-path="url(#pd9a8e7a45e)" style="fill: #ff0000; opacity: 0.4; stroke: #000000; stroke-linejoin: miter"/>
   </g>
   <g id="patch_12">
    <path d="M 178.378353 307.584 
L 182.694215 307.584 
L 182.694215 281.590154 
L 178.378353 281.590154 
z
" clip-path="url(#pd9a8e7a45e)" style="fill: #ff0000; opacity: 0.4; stroke: #000000; stroke-linejoin: miter"/>
   </g>
   <g id="patch_13">
    <path d="M 182.694215 307.584 
L 187.010076 307.584 
L 187.010076 288.088615 
L 182.694215 288.088615 
z
" clip-path="url(#pd9a8e7a45e)" style="fill: #ff0000; opacity: 0.4; stroke: #000000; stroke-linejoin: miter"/>
   </g>
   <g id="patch_14">
    <path d="M 187.010076 307.584 
L 191.325937 307.584 
L 191.325937 288.088615 
L 187.010076 288.088615 
z
" clip-path="url(#pd9a8e7a45e)" style="fill: #ff0000; opacity: 0.4; stroke: #000000; stroke-linejoin: miter"/>
   </g>
   <g id="patch_15">
    <path d="M 191.325937 307.584 
L 195.641798 307.584 
L 195.641798 268.593231 
L 191.325937 268.593231 
z
" clip-path="url(#pd9a8e7a45e)" style="fill: #ff0000; opacity: 0.4; stroke: #000000; stroke-linejoin: miter"/>
   </g>
   <g id="patch_16">
    <path d="M 195.641798 307.584 
L 199.957659 307.584 
L 199.957659 229.602462 
L 195.641798 229.602462 
z
" clip-path="url(#pd9a8e7a45e)" style="fill: #ff0000; opacity: 0.4; stroke: #000000; stroke-linejoin: miter"/>
   </g>
   <g id="patch_17">
    <path d="M 199.957659 307.584 
L 204.27352 307.584 
L 204.27352 242.599385 
L 199.957659 242.599385 
z
" clip-path="url(#pd9a8e7a45e)" style="fill: #ff0000; opacity: 0.4; stroke: #000000; stroke-linejoin: miter"/>
   </g>
   <g id="patch_18">
    <path d="M 204.27352 307.584 
L 208.589382 307.584 
L 208.589382 249.097846 
L 204.27352 249.097846 
z
" clip-path="url(#pd9a8e7a45e)" style="fill: #ff0000; opacity: 0.4; stroke: #000000; stroke-linejoin: miter"/>
   </g>
   <g id="patch_19">
    <path d="M 208.589382 307.584 
L 212.905243 307.584 
L 212.905243 164.617846 
L 208.589382 164.617846 
z
" clip-path="url(#pd9a8e7a45e)" style="fill: #ff0000; opacity: 0.4; stroke: #000000; stroke-linejoin: miter"/>
   </g>
   <g id="patch_20">
    <path d="M 212.905243 307.584 
L 217.221104 307.584 
L 217.221104 216.605538 
L 212.905243 216.605538 
z
" clip-path="url(#pd9a8e7a45e)" style="fill: #ff0000; opacity: 0.4; stroke: #000000; stroke-linejoin: miter"/>
   </g>
   <g id="patch_21">
    <path d="M 217.221104 307.584 
L 221.536965 307.584 
L 221.536965 216.605538 
L 217.221104 216.605538 
z
" clip-path="url(#pd9a8e7a45e)" style="fill: #ff0000; opacity: 0.4; stroke: #000000; stroke-linejoin: miter"/>
   </g>
   <g id="patch_22">
    <path d="M 221.536965 307.584 
L 225.852826 307.584 
L 225.852826 145.122462 
L 221.536965 145.122462 
z
" clip-path="url(#pd9a8e7a45e)" style="fill: #ff0000; opacity: 0.4; stroke: #000000; stroke-linejoin: miter"/>
   </g>
   <g id="patch_23">
    <path d="M 225.852826 307.584 
L 230.168687 307.584 
L 230.168687 119.128615 
L 225.852826 119.128615 
z
" clip-path="url(#pd9a8e7a45e)" style="fill: #ff0000; opacity: 0.4; stroke: #000000; stroke-linejoin: miter"/>
   </g>
   <g id="patch_24">
    <path d="M 230.168687 307.584 
L 234.484549 307.584 
L 234.484549 203.608615 
L 230.168687 203.608615 
z
" clip-path="url(#pd9a8e7a45e)" style="fill: #ff0000; opacity: 0.4; stroke: #000000; stroke-linejoin: miter"/>
   </g>
   <g id="patch_25">
    <path d="M 234.484549 307.584 
L 238.80041 307.584 
L 238.80041 151.620923 
L 234.484549 151.620923 
z
" clip-path="url(#pd9a8e7a45e)" style="fill: #ff0000; opacity: 0.4; stroke: #000000; stroke-linejoin: miter"/>
   </g>
   <g id="patch_26">
    <path d="M 238.80041 307.584 
L 243.116271 307.584 
L 243.116271 112.630154 
L 238.80041 112.630154 
z
" clip-path="url(#pd9a8e7a45e)" style="fill: #ff0000; opacity: 0.4; stroke: #000000; stroke-linejoin: miter"/>
   </g>
   <g id="patch_27">
    <path d="M 243.116271 307.584 
L 247.432132 307.584 
L 247.432132 119.128615 
L 243.116271 119.128615 
z
" clip-path="url(#pd9a8e7a45e)" style="fill: #ff0000; opacity: 0.4; stroke: #000000; stroke-linejoin: miter"/>
   </g>
   <g id="patch_28">
    <path d="M 247.432132 307.584 
L 251.747993 307.584 
L 251.747993 138.624 
L 247.432132 138.624 
z
" clip-path="url(#pd9a8e7a45e)" style="fill: #ff0000; opacity: 0.4; stroke: #000000; stroke-linejoin: miter"/>
   </g>
   <g id="patch_29">
    <path d="M 251.747993 307.584 
L 256.063854 307.584 
L 256.063854 203.608615 
L 251.747993 203.608615 
z
" clip-path="url(#pd9a8e7a45e)" style="fill: #ff0000; opacity: 0.4; stroke: #000000; stroke-linejoin: miter"/>
   </g>
   <g id="patch_30">
    <path d="M 256.063854 307.584 
L 260.379716 307.584 
L 260.379716 119.128615 
L 256.063854 119.128615 
z
" clip-path="url(#pd9a8e7a45e)" style="fill: #ff0000; opacity: 0.4; stroke: #000000; stroke-linejoin: miter"/>
   </g>
   <g id="patch_31">
    <path d="M 260.379716 307.584 
L 264.695577 307.584 
L 264.695577 106.131692 
L 260.379716 106.131692 
z
" clip-path="url(#pd9a8e7a45e)" style="fill: #ff0000; opacity: 0.4; stroke: #000000; stroke-linejoin: miter"/>
   </g>
   <g id="patch_32">
    <path d="M 264.695577 307.584 
L 269.011438 307.584 
L 269.011438 112.630154 
L 264.695577 112.630154 
z
" clip-path="url(#pd9a8e7a45e)" style="fill: #ff0000; opacity: 0.4; stroke: #000000; stroke-linejoin: miter"/>
   </g>
   <g id="patch_33">
    <path d="M 269.011438 307.584 
L 273.327299 307.584 
L 273.327299 93.134769 
L 269.011438 93.134769 
z
" clip-path="url(#pd9a8e7a45e)" style="fill: #ff0000; opacity: 0.4; stroke: #000000; stroke-linejoin: miter"/>
   </g>
   <g id="patch_34">
    <path d="M 273.327299 307.584 
L 277.64316 307.584 
L 277.64316 54.144 
L 273.327299 54.144 
z
" clip-path="url(#pd9a8e7a45e)" style="fill: #ff0000; opacity: 0.4; stroke: #000000; stroke-linejoin: miter"/>
   </g>
   <g id="patch_35">
    <path d="M 277.64316 307.584 
L 281.959021 307.584 
L 281.959021 171.116308 
L 277.64316 171.116308 
z
" clip-path="url(#pd9a8e7a45e)" style="fill: #ff0000; opacity: 0.4; stroke: #000000; stroke-linejoin: miter"/>
   </g>
   <g id="patch_36">
    <path d="M 281.959021 307.584 
L 286.274882 307.584 
L 286.274882 125.627077 
L 281.959021 125.627077 
z
" clip-path="url(#pd9a8e7a45e)" style="fill: #ff0000; opacity: 0.4; stroke: #000000; stroke-linejoin: miter"/>
   </g>
   <g id="patch_37">
    <path d="M 286.274882 307.584 
L 290.590744 307.584 
L 290.590744 151.620923 
L 286.274882 151.620923 
z
" clip-path="url(#pd9a8e7a45e)" style="fill: #ff0000; opacity: 0.4; stroke: #000000; stroke-linejoin: miter"/>
   </g>
   <g id="patch_38">
    <path d="M 290.590744 307.584 
L 294.906605 307.584 
L 294.906605 171.116308 
L 290.590744 171.116308 
z
" clip-path="url(#pd9a8e7a45e)" style="fill: #ff0000; opacity: 0.4; stroke: #000000; stroke-linejoin: miter"/>
   </g>
   <g id="patch_39">
    <path d="M 294.906605 307.584 
L 299.222466 307.584 
L 299.222466 197.110154 
L 294.906605 197.110154 
z
" clip-path="url(#pd9a8e7a45e)" style="fill: #ff0000; opacity: 0.4; stroke: #000000; stroke-linejoin: miter"/>
   </g>
   <g id="patch_40">
    <path d="M 299.222466 307.584 
L 303.538327 307.584 
L 303.538327 138.624 
L 299.222466 138.624 
z
" clip-path="url(#pd9a8e7a45e)" style="fill: #ff0000; opacity: 0.4; stroke: #000000; stroke-linejoin: miter"/>
   </g>
   <g id="patch_41">
    <path d="M 303.538327 307.584 
L 307.854188 307.584 
L 307.854188 229.602462 
L 303.538327 229.602462 
z
" clip-path="url(#pd9a8e7a45e)" style="fill: #ff0000; opacity: 0.4; stroke: #000000; stroke-linejoin: miter"/>
   </g>
   <g id="patch_42">
    <path d="M 307.854188 307.584 
L 312.170049 307.584 
L 312.170049 216.605538 
L 307.854188 216.605538 
z
" clip-path="url(#pd9a8e7a45e)" style="fill: #ff0000; opacity: 0.4; stroke: #000000; stroke-linejoin: miter"/>
   </g>
   <g id="patch_43">
    <path d="M 312.170049 307.584 
L 316.485911 307.584 
L 316.485911 223.104 
L 312.170049 223.104 
z
" clip-path="url(#pd9a8e7a45e)" style="fill: #ff0000; opacity: 0.4; stroke: #000000; stroke-linejoin: miter"/>
   </g>
   <g id="patch_44">
    <path d="M 316.485911 307.584 
L 320.801772 307.584 
L 320.801772 223.104 
L 316.485911 223.104 
z
" clip-path="url(#pd9a8e7a45e)" style="fill: #ff0000; opacity: 0.4; stroke: #000000; stroke-linejoin: miter"/>
   </g>
   <g id="patch_45">
    <path d="M 320.801772 307.584 
L 325.117633 307.584 
L 325.117633 236.100923 
L 320.801772 236.100923 
z
" clip-path="url(#pd9a8e7a45e)" style="fill: #ff0000; opacity: 0.4; stroke: #000000; stroke-linejoin: miter"/>
   </g>
   <g id="patch_46">
    <path d="M 325.117633 307.584 
L 329.433494 307.584 
L 329.433494 268.593231 
L 325.117633 268.593231 
z
" clip-path="url(#pd9a8e7a45e)" style="fill: #ff0000; opacity: 0.4; stroke: #000000; stroke-linejoin: miter"/>
   </g>
   <g id="patch_47">
    <path d="M 329.433494 307.584 
L 333.749355 307.584 
L 333.749355 255.596308 
L 329.433494 255.596308 
z
" clip-path="url(#pd9a8e7a45e)" style="fill: #ff0000; opacity: 0.4; stroke: #000000; stroke-linejoin: miter"/>
   </g>
   <g id="patch_48">
    <path d="M 333.749355 307.584 
L 338.065216 307.584 
L 338.065216 255.596308 
L 333.749355 255.596308 
z
" clip-path="url(#pd9a8e7a45e)" style="fill: #ff0000; opacity: 0.4; stroke: #000000; stroke-linejoin: miter"/>
   </g>
   <g id="patch_49">
    <path d="M 338.065216 307.584 
L 342.381078 307.584 
L 342.381078 275.091692 
L 338.065216 275.091692 
z
" clip-path="url(#pd9a8e7a45e)" style="fill: #ff0000; opacity: 0.4; stroke: #000000; stroke-linejoin: miter"/>
   </g>
   <g id="patch_50">
    <path d="M 342.381078 307.584 
L 346.696939 307.584 
L 346.696939 275.091692 
L 342.381078 275.091692 
z
" clip-path="url(#pd9a8e7a45e)" style="fill: #ff0000; opacity: 0.4; stroke: #000000; stroke-linejoin: miter"/>
   </g>
   <g id="patch_51">
    <path d="M 346.696939 307.584 
L 351.0128 307.584 
L 351.0128 262.094769 
L 346.696939 262.094769 
z
" clip-path="url(#pd9a8e7a45e)" style="fill: #ff0000; opacity: 0.4; stroke: #000000; stroke-linejoin: miter"/>
   </g>
   <g id="patch_52">
    <path d="M 351.0128 307.584 
L 355.328661 307.584 
L 355.328661 288.088615 
L 351.0128 288.088615 
z
" clip-path="url(#pd9a8e7a45e)" style="fill: #ff0000; opacity: 0.4; stroke: #000000; stroke-linejoin: miter"/>
   </g>
   <g id="patch_53">
    <path d="M 355.328661 307.584 
L 359.644522 307.584 
L 359.644522 307.584 
L 355.328661 307.584 
z
" clip-path="url(#pd9a8e7a45e)" style="fill: #ff0000; opacity: 0.4; stroke: #000000; stroke-linejoin: miter"/>
   </g>
   <g id="patch_54">
    <path d="M 359.644522 307.584 
L 363.960383 307.584 
L 363.960383 301.085538 
L 359.644522 301.085538 
z
" clip-path="url(#pd9a8e7a45e)" style="fill: #ff0000; opacity: 0.4; stroke: #000000; stroke-linejoin: miter"/>
   </g>
   <g id="patch_55">
    <path d="M 363.960383 307.584 
L 368.276245 307.584 
L 368.276245 307.584 
L 363.960383 307.584 
z
" clip-path="url(#pd9a8e7a45e)" style="fill: #ff0000; opacity: 0.4; stroke: #000000; stroke-linejoin: miter"/>
   </g>
   <g id="patch_56">
    <path d="M 368.276245 307.584 
L 372.592106 307.584 
L 372.592106 294.587077 
L 368.276245 294.587077 
z
" clip-path="url(#pd9a8e7a45e)" style="fill: #ff0000; opacity: 0.4; stroke: #000000; stroke-linejoin: miter"/>
   </g>
   <g id="patch_57">
    <path d="M 372.592106 307.584 
L 376.907967 307.584 
L 376.907967 307.584 
L 372.592106 307.584 
z
" clip-path="url(#pd9a8e7a45e)" style="fill: #ff0000; opacity: 0.4; stroke: #000000; stroke-linejoin: miter"/>
   </g>
   <g id="patch_58">
    <path d="M 376.907967 307.584 
L 381.223828 307.584 
L 381.223828 307.584 
L 376.907967 307.584 
z
" clip-path="url(#pd9a8e7a45e)" style="fill: #ff0000; opacity: 0.4; stroke: #000000; stroke-linejoin: miter"/>
   </g>
   <g id="patch_59">
    <path d="M 381.223828 307.584 
L 385.539689 307.584 
L 385.539689 307.584 
L 381.223828 307.584 
z
" clip-path="url(#pd9a8e7a45e)" style="fill: #ff0000; opacity: 0.4; stroke: #000000; stroke-linejoin: miter"/>
   </g>
   <g id="patch_60">
    <path d="M 385.539689 307.584 
L 389.85555 307.584 
L 389.85555 301.085538 
L 385.539689 301.085538 
z
" clip-path="url(#pd9a8e7a45e)" style="fill: #ff0000; opacity: 0.4; stroke: #000000; stroke-linejoin: miter"/>
   </g>
   <g id="patch_61">
    <path d="M 389.85555 307.584 
L 394.171412 307.584 
L 394.171412 307.584 
L 389.85555 307.584 
z
" clip-path="url(#pd9a8e7a45e)" style="fill: #ff0000; opacity: 0.4; stroke: #000000; stroke-linejoin: miter"/>
   </g>
   <g id="patch_62">
    <path d="M 394.171412 307.584 
L 398.487273 307.584 
L 398.487273 294.587077 
L 394.171412 294.587077 
z
" clip-path="url(#pd9a8e7a45e)" style="fill: #ff0000; opacity: 0.4; stroke: #000000; stroke-linejoin: miter"/>
   </g>
   <g id="patch_63">
    <path d="M 73.832727 307.584 
L 79.00512 307.584 
L 79.00512 305.260141 
L 73.832727 305.260141 
z
" clip-path="url(#pd9a8e7a45e)" style="fill: #0000ff; opacity: 0.4; stroke: #000000; stroke-linejoin: miter"/>
   </g>
   <g id="patch_64">
    <path d="M 79.00512 307.584 
L 84.177513 307.584 
L 84.177513 307.584 
L 79.00512 307.584 
z
" clip-path="url(#pd9a8e7a45e)" style="fill: #0000ff; opacity: 0.4; stroke: #000000; stroke-linejoin: miter"/>
   </g>
   <g id="patch_65">
    <path d="M 84.177513 307.584 
L 89.349905 307.584 
L 89.349905 307.584 
L 84.177513 307.584 
z
" clip-path="url(#pd9a8e7a45e)" style="fill: #0000ff; opacity: 0.4; stroke: #000000; stroke-linejoin: miter"/>
   </g>
   <g id="patch_66">
    <path d="M 89.349905 307.584 
L 94.522298 307.584 
L 94.522298 307.584 
L 89.349905 307.584 
z
" clip-path="url(#pd9a8e7a45e)" style="fill: #0000ff; opacity: 0.4; stroke: #000000; stroke-linejoin: miter"/>
   </g>
   <g id="patch_67">
    <path d="M 94.522298 307.584 
L 99.694691 307.584 
L 99.694691 307.584 
L 94.522298 307.584 
z
" clip-path="url(#pd9a8e7a45e)" style="fill: #0000ff; opacity: 0.4; stroke: #000000; stroke-linejoin: miter"/>
   </g>
   <g id="patch_68">
    <path d="M 99.694691 307.584 
L 104.867084 307.584 
L 104.867084 305.260141 
L 99.694691 305.260141 
z
" clip-path="url(#pd9a8e7a45e)" style="fill: #0000ff; opacity: 0.4; stroke: #000000; stroke-linejoin: miter"/>
   </g>
   <g id="patch_69">
    <path d="M 104.867084 307.584 
L 110.039476 307.584 
L 110.039476 305.260141 
L 104.867084 305.260141 
z
" clip-path="url(#pd9a8e7a45e)" style="fill: #0000ff; opacity: 0.4; stroke: #000000; stroke-linejoin: miter"/>
   </g>
   <g id="patch_70">
    <path d="M 110.039476 307.584 
L 115.211869 307.584 
L 115.211869 302.936282 
L 110.039476 302.936282 
z
" clip-path="url(#pd9a8e7a45e)" style="fill: #0000ff; opacity: 0.4; stroke: #000000; stroke-linejoin: miter"/>
   </g>
   <g id="patch_71">
    <path d="M 115.211869 307.584 
L 120.384262 307.584 
L 120.384262 293.640847 
L 115.211869 293.640847 
z
" clip-path="url(#pd9a8e7a45e)" style="fill: #0000ff; opacity: 0.4; stroke: #000000; stroke-linejoin: miter"/>
   </g>
   <g id="patch_72">
    <path d="M 120.384262 307.584 
L 125.556654 307.584 
L 125.556654 302.936282 
L 120.384262 302.936282 
z
" clip-path="url(#pd9a8e7a45e)" style="fill: #0000ff; opacity: 0.4; stroke: #000000; stroke-linejoin: miter"/>
   </g>
   <g id="patch_73">
    <path d="M 125.556654 307.584 
L 130.729047 307.584 
L 130.729047 295.964706 
L 125.556654 295.964706 
z
" clip-path="url(#pd9a8e7a45e)" style="fill: #0000ff; opacity: 0.4; stroke: #000000; stroke-linejoin: miter"/>
   </g>
   <g id="patch_74">
    <path d="M 130.729047 307.584 
L 135.90144 307.584 
L 135.90144 305.260141 
L 130.729047 305.260141 
z
" clip-path="url(#pd9a8e7a45e)" style="fill: #0000ff; opacity: 0.4; stroke: #000000; stroke-linejoin: miter"/>
   </g>
   <g id="patch_75">
    <path d="M 135.90144 307.584 
L 141.073833 307.584 
L 141.073833 293.640847 
L 135.90144 293.640847 
z
" clip-path="url(#pd9a8e7a45e)" style="fill: #0000ff; opacity: 0.4; stroke: #000000; stroke-linejoin: miter"/>
   </g>
   <g id="patch_76">
    <path d="M 141.073833 307.584 
L 146.246225 307.584 
L 146.246225 298.288565 
L 141.073833 298.288565 
z
" clip-path="url(#pd9a8e7a45e)" style="fill: #0000ff; opacity: 0.4; stroke: #000000; stroke-linejoin: miter"/>
   </g>
   <g id="patch_77">
    <path d="M 146.246225 307.584 
L 151.418618 307.584 
L 151.418618 275.049976 
L 146.246225 275.049976 
z
" clip-path="url(#pd9a8e7a45e)" style="fill: #0000ff; opacity: 0.4; stroke: #000000; stroke-linejoin: miter"/>
   </g>
   <g id="patch_78">
    <path d="M 151.418618 307.584 
L 156.591011 307.584 
L 156.591011 284.345412 
L 151.418618 284.345412 
z
" clip-path="url(#pd9a8e7a45e)" style="fill: #0000ff; opacity: 0.4; stroke: #000000; stroke-linejoin: miter"/>
   </g>
   <g id="patch_79">
    <path d="M 156.591011 307.584 
L 161.763403 307.584 
L 161.763403 268.0784 
L 156.591011 268.0784 
z
" clip-path="url(#pd9a8e7a45e)" style="fill: #0000ff; opacity: 0.4; stroke: #000000; stroke-linejoin: miter"/>
   </g>
   <g id="patch_80">
    <path d="M 161.763403 307.584 
L 166.935796 307.584 
L 166.935796 261.106823 
L 161.763403 261.106823 
z
" clip-path="url(#pd9a8e7a45e)" style="fill: #0000ff; opacity: 0.4; stroke: #000000; stroke-linejoin: miter"/>
   </g>
   <g id="patch_81">
    <path d="M 166.935796 307.584 
L 172.108189 307.584 
L 172.108189 254.135247 
L 166.935796 254.135247 
z
" clip-path="url(#pd9a8e7a45e)" style="fill: #0000ff; opacity: 0.4; stroke: #000000; stroke-linejoin: miter"/>
   </g>
   <g id="patch_82">
    <path d="M 172.108189 307.584 
L 177.280581 307.584 
L 177.280581 233.220517 
L 172.108189 233.220517 
z
" clip-path="url(#pd9a8e7a45e)" style="fill: #0000ff; opacity: 0.4; stroke: #000000; stroke-linejoin: miter"/>
   </g>
   <g id="patch_83">
    <path d="M 177.280581 307.584 
L 182.452974 307.584 
L 182.452974 235.544376 
L 177.280581 235.544376 
z
" clip-path="url(#pd9a8e7a45e)" style="fill: #0000ff; opacity: 0.4; stroke: #000000; stroke-linejoin: miter"/>
   </g>
   <g id="patch_84">
    <path d="M 182.452974 307.584 
L 187.625367 307.584 
L 187.625367 219.277364 
L 182.452974 219.277364 
z
" clip-path="url(#pd9a8e7a45e)" style="fill: #0000ff; opacity: 0.4; stroke: #000000; stroke-linejoin: miter"/>
   </g>
   <g id="patch_85">
    <path d="M 187.625367 307.584 
L 192.79776 307.584 
L 192.79776 212.305788 
L 187.625367 212.305788 
z
" clip-path="url(#pd9a8e7a45e)" style="fill: #0000ff; opacity: 0.4; stroke: #000000; stroke-linejoin: miter"/>
   </g>
   <g id="patch_86">
    <path d="M 192.79776 307.584 
L 197.970152 307.584 
L 197.970152 191.391058 
L 192.79776 191.391058 
z
" clip-path="url(#pd9a8e7a45e)" style="fill: #0000ff; opacity: 0.4; stroke: #000000; stroke-linejoin: miter"/>
   </g>
   <g id="patch_87">
    <path d="M 197.970152 307.584 
L 203.142545 307.584 
L 203.142545 182.095623 
L 197.970152 182.095623 
z
" clip-path="url(#pd9a8e7a45e)" style="fill: #0000ff; opacity: 0.4; stroke: #000000; stroke-linejoin: miter"/>
   </g>
   <g id="patch_88">
    <path d="M 203.142545 307.584 
L 208.314938 307.584 
L 208.314938 161.180894 
L 203.142545 161.180894 
z
" clip-path="url(#pd9a8e7a45e)" style="fill: #0000ff; opacity: 0.4; stroke: #000000; stroke-linejoin: miter"/>
   </g>
   <g id="patch_89">
    <path d="M 208.314938 307.584 
L 213.48733 307.584 
L 213.48733 161.180894 
L 208.314938 161.180894 
z
" clip-path="url(#pd9a8e7a45e)" style="fill: #0000ff; opacity: 0.4; stroke: #000000; stroke-linejoin: miter"/>
   </g>
   <g id="patch_90">
    <path d="M 213.48733 307.584 
L 218.659723 307.584 
L 218.659723 121.675294 
L 213.48733 121.675294 
z
" clip-path="url(#pd9a8e7a45e)" style="fill: #0000ff; opacity: 0.4; stroke: #000000; stroke-linejoin: miter"/>
   </g>
   <g id="patch_91">
    <path d="M 218.659723 307.584 
L 223.832116 307.584 
L 223.832116 114.703717 
L 218.659723 114.703717 
z
" clip-path="url(#pd9a8e7a45e)" style="fill: #0000ff; opacity: 0.4; stroke: #000000; stroke-linejoin: miter"/>
   </g>
   <g id="patch_92">
    <path d="M 223.832116 307.584 
L 229.004509 307.584 
L 229.004509 142.590023 
L 223.832116 142.590023 
z
" clip-path="url(#pd9a8e7a45e)" style="fill: #0000ff; opacity: 0.4; stroke: #000000; stroke-linejoin: miter"/>
   </g>
   <g id="patch_93">
    <path d="M 229.004509 307.584 
L 234.176901 307.584 
L 234.176901 61.254964 
L 229.004509 61.254964 
z
" clip-path="url(#pd9a8e7a45e)" style="fill: #0000ff; opacity: 0.4; stroke: #000000; stroke-linejoin: miter"/>
   </g>
   <g id="patch_94">
    <path d="M 234.176901 307.584 
L 239.349294 307.584 
L 239.349294 119.351435 
L 234.176901 119.351435 
z
" clip-path="url(#pd9a8e7a45e)" style="fill: #0000ff; opacity: 0.4; stroke: #000000; stroke-linejoin: miter"/>
   </g>
   <g id="patch_95">
    <path d="M 239.349294 307.584 
L 244.521687 307.584 
L 244.521687 107.732141 
L 239.349294 107.732141 
z
" clip-path="url(#pd9a8e7a45e)" style="fill: #0000ff; opacity: 0.4; stroke: #000000; stroke-linejoin: miter"/>
   </g>
   <g id="patch_96">
    <path d="M 244.521687 307.584 
L 249.694079 307.584 
L 249.694079 123.999152 
L 244.521687 123.999152 
z
" clip-path="url(#pd9a8e7a45e)" style="fill: #0000ff; opacity: 0.4; stroke: #000000; stroke-linejoin: miter"/>
   </g>
   <g id="patch_97">
    <path d="M 249.694079 307.584 
L 254.866472 307.584 
L 254.866472 135.618447 
L 249.694079 135.618447 
z
" clip-path="url(#pd9a8e7a45e)" style="fill: #0000ff; opacity: 0.4; stroke: #000000; stroke-linejoin: miter"/>
   </g>
   <g id="patch_98">
    <path d="M 254.866472 307.584 
L 260.038865 307.584 
L 260.038865 158.857035 
L 254.866472 158.857035 
z
" clip-path="url(#pd9a8e7a45e)" style="fill: #0000ff; opacity: 0.4; stroke: #000000; stroke-linejoin: miter"/>
   </g>
   <g id="patch_99">
    <path d="M 260.038865 307.584 
L 265.211258 307.584 
L 265.211258 133.294588 
L 260.038865 133.294588 
z
" clip-path="url(#pd9a8e7a45e)" style="fill: #0000ff; opacity: 0.4; stroke: #000000; stroke-linejoin: miter"/>
   </g>
   <g id="patch_100">
    <path d="M 265.211258 307.584 
L 270.38365 307.584 
L 270.38365 144.913882 
L 265.211258 144.913882 
z
" clip-path="url(#pd9a8e7a45e)" style="fill: #0000ff; opacity: 0.4; stroke: #000000; stroke-linejoin: miter"/>
   </g>
   <g id="patch_101">
    <path d="M 270.38365 307.584 
L 275.556043 307.584 
L 275.556043 175.124047 
L 270.38365 175.124047 
z
" clip-path="url(#pd9a8e7a45e)" style="fill: #0000ff; opacity: 0.4; stroke: #000000; stroke-linejoin: miter"/>
   </g>
   <g id="patch_102">
    <path d="M 275.556043 307.584 
L 280.728436 307.584 
L 280.728436 189.0672 
L 275.556043 189.0672 
z
" clip-path="url(#pd9a8e7a45e)" style="fill: #0000ff; opacity: 0.4; stroke: #000000; stroke-linejoin: miter"/>
   </g>
   <g id="patch_103">
    <path d="M 280.728436 307.584 
L 285.900828 307.584 
L 285.900828 193.714917 
L 280.728436 193.714917 
z
" clip-path="url(#pd9a8e7a45e)" style="fill: #0000ff; opacity: 0.4; stroke: #000000; stroke-linejoin: miter"/>
   </g>
   <g id="patch_104">
    <path d="M 285.900828 307.584 
L 291.073221 307.584 
L 291.073221 221.601223 
L 285.900828 221.601223 
z
" clip-path="url(#pd9a8e7a45e)" style="fill: #0000ff; opacity: 0.4; stroke: #000000; stroke-linejoin: miter"/>
   </g>
   <g id="patch_105">
    <path d="M 291.073221 307.584 
L 296.245614 307.584 
L 296.245614 261.106823 
L 291.073221 261.106823 
z
" clip-path="url(#pd9a8e7a45e)" style="fill: #0000ff; opacity: 0.4; stroke: #000000; stroke-linejoin: miter"/>
   </g>
   <g id="patch_106">
    <path d="M 296.245614 307.584 
L 301.418007 307.584 
L 301.418007 263.430682 
L 296.245614 263.430682 
z
" clip-path="url(#pd9a8e7a45e)" style="fill: #0000ff; opacity: 0.4; stroke: #000000; stroke-linejoin: miter"/>
   </g>
   <g id="patch_107">
    <path d="M 301.418007 307.584 
L 306.590399 307.584 
L 306.590399 275.049976 
L 301.418007 275.049976 
z
" clip-path="url(#pd9a8e7a45e)" style="fill: #0000ff; opacity: 0.4; stroke: #000000; stroke-linejoin: miter"/>
   </g>
   <g id="patch_108">
    <path d="M 306.590399 307.584 
L 311.762792 307.584 
L 311.762792 261.106823 
L 306.590399 261.106823 
z
" clip-path="url(#pd9a8e7a45e)" style="fill: #0000ff; opacity: 0.4; stroke: #000000; stroke-linejoin: miter"/>
   </g>
   <g id="patch_109">
    <path d="M 311.762792 307.584 
L 316.935185 307.584 
L 316.935185 270.402259 
L 311.762792 270.402259 
z
" clip-path="url(#pd9a8e7a45e)" style="fill: #0000ff; opacity: 0.4; stroke: #000000; stroke-linejoin: miter"/>
   </g>
   <g id="patch_110">
    <path d="M 316.935185 307.584 
L 322.107577 307.584 
L 322.107577 279.697694 
L 316.935185 279.697694 
z
" clip-path="url(#pd9a8e7a45e)" style="fill: #0000ff; opacity: 0.4; stroke: #000000; stroke-linejoin: miter"/>
   </g>
   <g id="patch_111">
    <path d="M 322.107577 307.584 
L 327.27997 307.584 
L 327.27997 288.993129 
L 322.107577 288.993129 
z
" clip-path="url(#pd9a8e7a45e)" style="fill: #0000ff; opacity: 0.4; stroke: #000000; stroke-linejoin: miter"/>
   </g>
   <g id="patch_112">
    <path d="M 327.27997 307.584 
L 332.452363 307.584 
L 332.452363 293.640847 
L 327.27997 293.640847 
z
" clip-path="url(#pd9a8e7a45e)" style="fill: #0000ff; opacity: 0.4; stroke: #000000; stroke-linejoin: miter"/>
   </g>
   <g id="patch_113">
    <path d="M 332.452363 307.584 
L 337.624756 307.584 
L 337.624756 298.288565 
L 332.452363 298.288565 
z
" clip-path="url(#pd9a8e7a45e)" style="fill: #0000ff; opacity: 0.4; stroke: #000000; stroke-linejoin: miter"/>
   </g>
   <g id="patch_114">
    <path d="M 337.624756 307.584 
L 342.797148 307.584 
L 342.797148 295.964706 
L 337.624756 295.964706 
z
" clip-path="url(#pd9a8e7a45e)" style="fill: #0000ff; opacity: 0.4; stroke: #000000; stroke-linejoin: miter"/>
   </g>
   <g id="patch_115">
    <path d="M 342.797148 307.584 
L 347.969541 307.584 
L 347.969541 302.936282 
L 342.797148 302.936282 
z
" clip-path="url(#pd9a8e7a45e)" style="fill: #0000ff; opacity: 0.4; stroke: #000000; stroke-linejoin: miter"/>
   </g>
   <g id="patch_116">
    <path d="M 347.969541 307.584 
L 353.141934 307.584 
L 353.141934 305.260141 
L 347.969541 305.260141 
z
" clip-path="url(#pd9a8e7a45e)" style="fill: #0000ff; opacity: 0.4; stroke: #000000; stroke-linejoin: miter"/>
   </g>
   <g id="patch_117">
    <path d="M 353.141934 307.584 
L 358.314326 307.584 
L 358.314326 307.584 
L 353.141934 307.584 
z
" clip-path="url(#pd9a8e7a45e)" style="fill: #0000ff; opacity: 0.4; stroke: #000000; stroke-linejoin: miter"/>
   </g>
   <g id="patch_118">
    <path d="M 358.314326 307.584 
L 363.486719 307.584 
L 363.486719 305.260141 
L 358.314326 305.260141 
z
" clip-path="url(#pd9a8e7a45e)" style="fill: #0000ff; opacity: 0.4; stroke: #000000; stroke-linejoin: miter"/>
   </g>
   <g id="patch_119">
    <path d="M 363.486719 307.584 
L 368.659112 307.584 
L 368.659112 305.260141 
L 363.486719 305.260141 
z
" clip-path="url(#pd9a8e7a45e)" style="fill: #0000ff; opacity: 0.4; stroke: #000000; stroke-linejoin: miter"/>
   </g>
   <g id="patch_120">
    <path d="M 368.659112 307.584 
L 373.831504 307.584 
L 373.831504 305.260141 
L 368.659112 305.260141 
z
" clip-path="url(#pd9a8e7a45e)" style="fill: #0000ff; opacity: 0.4; stroke: #000000; stroke-linejoin: miter"/>
   </g>
   <g id="patch_121">
    <path d="M 373.831504 307.584 
L 379.003897 307.584 
L 379.003897 307.584 
L 373.831504 307.584 
z
" clip-path="url(#pd9a8e7a45e)" style="fill: #0000ff; opacity: 0.4; stroke: #000000; stroke-linejoin: miter"/>
   </g>
   <g id="patch_122">
    <path d="M 379.003897 307.584 
L 384.17629 307.584 
L 384.17629 302.936282 
L 379.003897 302.936282 
z
" clip-path="url(#pd9a8e7a45e)" style="fill: #0000ff; opacity: 0.4; stroke: #000000; stroke-linejoin: miter"/>
   </g>
   <g id="matplotlib.axis_1">
    <g id="xtick_1">
     <g id="line2d_1">
      <defs>
       <path id="m4fb5b35a6e" d="M 0 0 
L 0 3.5 
" style="stroke: #000000; stroke-width: 0.8"/>
      </defs>
      <g>
       <use xlink:href="#m4fb5b35a6e" x="81.276467" y="307.584" style="stroke: #000000; stroke-width: 0.8"/>
      </g>
     </g>
     <g id="text_1">
      <!-- −5 -->
      <g transform="translate(73.905373 322.182437) scale(0.1 -0.1)">
       <defs>
        <path id="DejaVuSans-2212" d="M 678 2272 
L 4684 2272 
L 4684 1741 
L 678 1741 
L 678 2272 
z
" transform="scale(0.015625)"/>
        <path id="DejaVuSans-35" d="M 691 4666 
L 3169 4666 
L 3169 4134 
L 1269 4134 
L 1269 2991 
Q 1406 3038 1543 3061 
Q 1681 3084 1819 3084 
Q 2600 3084 3056 2656 
Q 3513 2228 3513 1497 
Q 3513 744 3044 326 
Q 2575 -91 1722 -91 
Q 1428 -91 1123 -41 
Q 819 9 494 109 
L 494 744 
Q 775 591 1075 516 
Q 1375 441 1709 441 
Q 2250 441 2565 725 
Q 2881 1009 2881 1497 
Q 2881 1984 2565 2268 
Q 2250 2553 1709 2553 
Q 1456 2553 1204 2497 
Q 953 2441 691 2322 
L 691 4666 
z
" transform="scale(0.015625)"/>
       </defs>
       <use xlink:href="#DejaVuSans-2212"/>
       <use xlink:href="#DejaVuSans-35" x="83.789062"/>
      </g>
     </g>
    </g>
    <g id="xtick_2">
     <g id="line2d_2">
      <g>
       <use xlink:href="#m4fb5b35a6e" x="125.698937" y="307.584" style="stroke: #000000; stroke-width: 0.8"/>
      </g>
     </g>
     <g id="text_2">
      <!-- 0 -->
      <g transform="translate(122.517687 322.182437) scale(0.1 -0.1)">
       <defs>
        <path id="DejaVuSans-30" d="M 2034 4250 
Q 1547 4250 1301 3770 
Q 1056 3291 1056 2328 
Q 1056 1369 1301 889 
Q 1547 409 2034 409 
Q 2525 409 2770 889 
Q 3016 1369 3016 2328 
Q 3016 3291 2770 3770 
Q 2525 4250 2034 4250 
z
M 2034 4750 
Q 2819 4750 3233 4129 
Q 3647 3509 3647 2328 
Q 3647 1150 3233 529 
Q 2819 -91 2034 -91 
Q 1250 -91 836 529 
Q 422 1150 422 2328 
Q 422 3509 836 4129 
Q 1250 4750 2034 4750 
z
" transform="scale(0.015625)"/>
       </defs>
       <use xlink:href="#DejaVuSans-30"/>
      </g>
     </g>
    </g>
    <g id="xtick_3">
     <g id="line2d_3">
      <g>
       <use xlink:href="#m4fb5b35a6e" x="170.121406" y="307.584" style="stroke: #000000; stroke-width: 0.8"/>
      </g>
     </g>
     <g id="text_3">
      <!-- 5 -->
      <g transform="translate(166.940156 322.182437) scale(0.1 -0.1)">
       <use xlink:href="#DejaVuSans-35"/>
      </g>
     </g>
    </g>
    <g id="xtick_4">
     <g id="line2d_4">
      <g>
       <use xlink:href="#m4fb5b35a6e" x="214.543875" y="307.584" style="stroke: #000000; stroke-width: 0.8"/>
      </g>
     </g>
     <g id="text_4">
      <!-- 10 -->
      <g transform="translate(208.181375 322.182437) scale(0.1 -0.1)">
       <defs>
        <path id="DejaVuSans-31" d="M 794 531 
L 1825 531 
L 1825 4091 
L 703 3866 
L 703 4441 
L 1819 4666 
L 2450 4666 
L 2450 531 
L 3481 531 
L 3481 0 
L 794 0 
L 794 531 
z
" transform="scale(0.015625)"/>
       </defs>
       <use xlink:href="#DejaVuSans-31"/>
       <use xlink:href="#DejaVuSans-30" x="63.623047"/>
      </g>
     </g>
    </g>
    <g id="xtick_5">
     <g id="line2d_5">
      <g>
       <use xlink:href="#m4fb5b35a6e" x="258.966345" y="307.584" style="stroke: #000000; stroke-width: 0.8"/>
      </g>
     </g>
     <g id="text_5">
      <!-- 15 -->
      <g transform="translate(252.603845 322.182437) scale(0.1 -0.1)">
       <use xlink:href="#DejaVuSans-31"/>
       <use xlink:href="#DejaVuSans-35" x="63.623047"/>
      </g>
     </g>
    </g>
    <g id="xtick_6">
     <g id="line2d_6">
      <g>
       <use xlink:href="#m4fb5b35a6e" x="303.388814" y="307.584" style="stroke: #000000; stroke-width: 0.8"/>
      </g>
     </g>
     <g id="text_6">
      <!-- 20 -->
      <g transform="translate(297.026314 322.182437) scale(0.1 -0.1)">
       <defs>
        <path id="DejaVuSans-32" d="M 1228 531 
L 3431 531 
L 3431 0 
L 469 0 
L 469 531 
Q 828 903 1448 1529 
Q 2069 2156 2228 2338 
Q 2531 2678 2651 2914 
Q 2772 3150 2772 3378 
Q 2772 3750 2511 3984 
Q 2250 4219 1831 4219 
Q 1534 4219 1204 4116 
Q 875 4013 500 3803 
L 500 4441 
Q 881 4594 1212 4672 
Q 1544 4750 1819 4750 
Q 2544 4750 2975 4387 
Q 3406 4025 3406 3419 
Q 3406 3131 3298 2873 
Q 3191 2616 2906 2266 
Q 2828 2175 2409 1742 
Q 1991 1309 1228 531 
z
" transform="scale(0.015625)"/>
       </defs>
       <use xlink:href="#DejaVuSans-32"/>
       <use xlink:href="#DejaVuSans-30" x="63.623047"/>
      </g>
     </g>
    </g>
    <g id="xtick_7">
     <g id="line2d_7">
      <g>
       <use xlink:href="#m4fb5b35a6e" x="347.811284" y="307.584" style="stroke: #000000; stroke-width: 0.8"/>
      </g>
     </g>
     <g id="text_7">
      <!-- 25 -->
      <g transform="translate(341.448784 322.182437) scale(0.1 -0.1)">
       <use xlink:href="#DejaVuSans-32"/>
       <use xlink:href="#DejaVuSans-35" x="63.623047"/>
      </g>
     </g>
    </g>
    <g id="xtick_8">
     <g id="line2d_8">
      <g>
       <use xlink:href="#m4fb5b35a6e" x="392.233753" y="307.584" style="stroke: #000000; stroke-width: 0.8"/>
      </g>
     </g>
     <g id="text_8">
      <!-- 30 -->
      <g transform="translate(385.871253 322.182437) scale(0.1 -0.1)">
       <defs>
        <path id="DejaVuSans-33" d="M 2597 2516 
Q 3050 2419 3304 2112 
Q 3559 1806 3559 1356 
Q 3559 666 3084 287 
Q 2609 -91 1734 -91 
Q 1441 -91 1130 -33 
Q 819 25 488 141 
L 488 750 
Q 750 597 1062 519 
Q 1375 441 1716 441 
Q 2309 441 2620 675 
Q 2931 909 2931 1356 
Q 2931 1769 2642 2001 
Q 2353 2234 1838 2234 
L 1294 2234 
L 1294 2753 
L 1863 2753 
Q 2328 2753 2575 2939 
Q 2822 3125 2822 3475 
Q 2822 3834 2567 4026 
Q 2313 4219 1838 4219 
Q 1578 4219 1281 4162 
Q 984 4106 628 3988 
L 628 4550 
Q 988 4650 1302 4700 
Q 1616 4750 1894 4750 
Q 2613 4750 3031 4423 
Q 3450 4097 3450 3541 
Q 3450 3153 3228 2886 
Q 3006 2619 2597 2516 
z
" transform="scale(0.015625)"/>
       </defs>
       <use xlink:href="#DejaVuSans-33"/>
       <use xlink:href="#DejaVuSans-30" x="63.623047"/>
      </g>
     </g>
    </g>
   </g>
   <g id="matplotlib.axis_2">
    <g id="ytick_1">
     <g id="line2d_9">
      <defs>
       <path id="ma5514c2665" d="M 0 0 
L -3.5 0 
" style="stroke: #000000; stroke-width: 0.8"/>
      </defs>
      <g>
       <use xlink:href="#ma5514c2665" x="57.6" y="307.584" style="stroke: #000000; stroke-width: 0.8"/>
      </g>
     </g>
     <g id="text_9">
      <!-- 0.00 -->
      <g transform="translate(28.334375 311.383219) scale(0.1 -0.1)">
       <defs>
        <path id="DejaVuSans-2e" d="M 684 794 
L 1344 794 
L 1344 0 
L 684 0 
L 684 794 
z
" transform="scale(0.015625)"/>
       </defs>
       <use xlink:href="#DejaVuSans-30"/>
       <use xlink:href="#DejaVuSans-2e" x="63.623047"/>
       <use xlink:href="#DejaVuSans-30" x="95.410156"/>
       <use xlink:href="#DejaVuSans-30" x="159.033203"/>
      </g>
     </g>
    </g>
    <g id="ytick_2">
     <g id="line2d_10">
      <g>
       <use xlink:href="#ma5514c2665" x="57.6" y="262.126262" style="stroke: #000000; stroke-width: 0.8"/>
      </g>
     </g>
     <g id="text_10">
      <!-- 0.02 -->
      <g transform="translate(28.334375 265.925481) scale(0.1 -0.1)">
       <use xlink:href="#DejaVuSans-30"/>
       <use xlink:href="#DejaVuSans-2e" x="63.623047"/>
       <use xlink:href="#DejaVuSans-30" x="95.410156"/>
       <use xlink:href="#DejaVuSans-32" x="159.033203"/>
      </g>
     </g>
    </g>
    <g id="ytick_3">
     <g id="line2d_11">
      <g>
       <use xlink:href="#ma5514c2665" x="57.6" y="216.668525" style="stroke: #000000; stroke-width: 0.8"/>
      </g>
     </g>
     <g id="text_11">
      <!-- 0.04 -->
      <g transform="translate(28.334375 220.467743) scale(0.1 -0.1)">
       <defs>
        <path id="DejaVuSans-34" d="M 2419 4116 
L 825 1625 
L 2419 1625 
L 2419 4116 
z
M 2253 4666 
L 3047 4666 
L 3047 1625 
L 3713 1625 
L 3713 1100 
L 3047 1100 
L 3047 0 
L 2419 0 
L 2419 1100 
L 313 1100 
L 313 1709 
L 2253 4666 
z
" transform="scale(0.015625)"/>
       </defs>
       <use xlink:href="#DejaVuSans-30"/>
       <use xlink:href="#DejaVuSans-2e" x="63.623047"/>
       <use xlink:href="#DejaVuSans-30" x="95.410156"/>
       <use xlink:href="#DejaVuSans-34" x="159.033203"/>
      </g>
     </g>
    </g>
    <g id="ytick_4">
     <g id="line2d_12">
      <g>
       <use xlink:href="#ma5514c2665" x="57.6" y="171.210787" style="stroke: #000000; stroke-width: 0.8"/>
      </g>
     </g>
     <g id="text_12">
      <!-- 0.06 -->
      <g transform="translate(28.334375 175.010006) scale(0.1 -0.1)">
       <defs>
        <path id="DejaVuSans-36" d="M 2113 2584 
Q 1688 2584 1439 2293 
Q 1191 2003 1191 1497 
Q 1191 994 1439 701 
Q 1688 409 2113 409 
Q 2538 409 2786 701 
Q 3034 994 3034 1497 
Q 3034 2003 2786 2293 
Q 2538 2584 2113 2584 
z
M 3366 4563 
L 3366 3988 
Q 3128 4100 2886 4159 
Q 2644 4219 2406 4219 
Q 1781 4219 1451 3797 
Q 1122 3375 1075 2522 
Q 1259 2794 1537 2939 
Q 1816 3084 2150 3084 
Q 2853 3084 3261 2657 
Q 3669 2231 3669 1497 
Q 3669 778 3244 343 
Q 2819 -91 2113 -91 
Q 1303 -91 875 529 
Q 447 1150 447 2328 
Q 447 3434 972 4092 
Q 1497 4750 2381 4750 
Q 2619 4750 2861 4703 
Q 3103 4656 3366 4563 
z
" transform="scale(0.015625)"/>
       </defs>
       <use xlink:href="#DejaVuSans-30"/>
       <use xlink:href="#DejaVuSans-2e" x="63.623047"/>
       <use xlink:href="#DejaVuSans-30" x="95.410156"/>
       <use xlink:href="#DejaVuSans-36" x="159.033203"/>
      </g>
     </g>
    </g>
    <g id="ytick_5">
     <g id="line2d_13">
      <g>
       <use xlink:href="#ma5514c2665" x="57.6" y="125.753049" style="stroke: #000000; stroke-width: 0.8"/>
      </g>
     </g>
     <g id="text_13">
      <!-- 0.08 -->
      <g transform="translate(28.334375 129.552268) scale(0.1 -0.1)">
       <defs>
        <path id="DejaVuSans-38" d="M 2034 2216 
Q 1584 2216 1326 1975 
Q 1069 1734 1069 1313 
Q 1069 891 1326 650 
Q 1584 409 2034 409 
Q 2484 409 2743 651 
Q 3003 894 3003 1313 
Q 3003 1734 2745 1975 
Q 2488 2216 2034 2216 
z
M 1403 2484 
Q 997 2584 770 2862 
Q 544 3141 544 3541 
Q 544 4100 942 4425 
Q 1341 4750 2034 4750 
Q 2731 4750 3128 4425 
Q 3525 4100 3525 3541 
Q 3525 3141 3298 2862 
Q 3072 2584 2669 2484 
Q 3125 2378 3379 2068 
Q 3634 1759 3634 1313 
Q 3634 634 3220 271 
Q 2806 -91 2034 -91 
Q 1263 -91 848 271 
Q 434 634 434 1313 
Q 434 1759 690 2068 
Q 947 2378 1403 2484 
z
M 1172 3481 
Q 1172 3119 1398 2916 
Q 1625 2713 2034 2713 
Q 2441 2713 2670 2916 
Q 2900 3119 2900 3481 
Q 2900 3844 2670 4047 
Q 2441 4250 2034 4250 
Q 1625 4250 1398 4047 
Q 1172 3844 1172 3481 
z
" transform="scale(0.015625)"/>
       </defs>
       <use xlink:href="#DejaVuSans-30"/>
       <use xlink:href="#DejaVuSans-2e" x="63.623047"/>
       <use xlink:href="#DejaVuSans-30" x="95.410156"/>
       <use xlink:href="#DejaVuSans-38" x="159.033203"/>
      </g>
     </g>
    </g>
    <g id="ytick_6">
     <g id="line2d_14">
      <g>
       <use xlink:href="#ma5514c2665" x="57.6" y="80.295312" style="stroke: #000000; stroke-width: 0.8"/>
      </g>
     </g>
     <g id="text_14">
      <!-- 0.10 -->
      <g transform="translate(28.334375 84.09453) scale(0.1 -0.1)">
       <use xlink:href="#DejaVuSans-30"/>
       <use xlink:href="#DejaVuSans-2e" x="63.623047"/>
       <use xlink:href="#DejaVuSans-31" x="95.410156"/>
       <use xlink:href="#DejaVuSans-30" x="159.033203"/>
      </g>
     </g>
    </g>
   </g>
   <g id="patch_123">
    <path d="M 57.6 307.584 
L 57.6 41.472 
" style="fill: none; stroke: #000000; stroke-width: 0.8; stroke-linejoin: miter; stroke-linecap: square"/>
   </g>
   <g id="patch_124">
    <path d="M 414.72 307.584 
L 414.72 41.472 
" style="fill: none; stroke: #000000; stroke-width: 0.8; stroke-linejoin: miter; stroke-linecap: square"/>
   </g>
   <g id="patch_125">
    <path d="M 57.6 307.584 
L 414.72 307.584 
" style="fill: none; stroke: #000000; stroke-width: 0.8; stroke-linejoin: miter; stroke-linecap: square"/>
   </g>
   <g id="patch_126">
    <path d="M 57.6 41.472 
L 414.72 41.472 
" style="fill: none; stroke: #000000; stroke-width: 0.8; stroke-linejoin: miter; stroke-linecap: square"/>
   </g>
   <g id="text_15">
    <!-- RAW_feature_1 -->
    <g transform="translate(191.0475 35.472) scale(0.12 -0.12)">
     <defs>
      <path id="DejaVuSans-52" d="M 2841 2188 
Q 3044 2119 3236 1894 
Q 3428 1669 3622 1275 
L 4263 0 
L 3584 0 
L 2988 1197 
Q 2756 1666 2539 1819 
Q 2322 1972 1947 1972 
L 1259 1972 
L 1259 0 
L 628 0 
L 628 4666 
L 2053 4666 
Q 2853 4666 3247 4331 
Q 3641 3997 3641 3322 
Q 3641 2881 3436 2590 
Q 3231 2300 2841 2188 
z
M 1259 4147 
L 1259 2491 
L 2053 2491 
Q 2509 2491 2742 2702 
Q 2975 2913 2975 3322 
Q 2975 3731 2742 3939 
Q 2509 4147 2053 4147 
L 1259 4147 
z
" transform="scale(0.015625)"/>
      <path id="DejaVuSans-41" d="M 2188 4044 
L 1331 1722 
L 3047 1722 
L 2188 4044 
z
M 1831 4666 
L 2547 4666 
L 4325 0 
L 3669 0 
L 3244 1197 
L 1141 1197 
L 716 0 
L 50 0 
L 1831 4666 
z
" transform="scale(0.015625)"/>
      <path id="DejaVuSans-57" d="M 213 4666 
L 850 4666 
L 1831 722 
L 2809 4666 
L 3519 4666 
L 4500 722 
L 5478 4666 
L 6119 4666 
L 4947 0 
L 4153 0 
L 3169 4050 
L 2175 0 
L 1381 0 
L 213 4666 
z
" transform="scale(0.015625)"/>
      <path id="DejaVuSans-5f" d="M 3263 -1063 
L 3263 -1509 
L -63 -1509 
L -63 -1063 
L 3263 -1063 
z
" transform="scale(0.015625)"/>
      <path id="DejaVuSans-66" d="M 2375 4863 
L 2375 4384 
L 1825 4384 
Q 1516 4384 1395 4259 
Q 1275 4134 1275 3809 
L 1275 3500 
L 2222 3500 
L 2222 3053 
L 1275 3053 
L 1275 0 
L 697 0 
L 697 3053 
L 147 3053 
L 147 3500 
L 697 3500 
L 697 3744 
Q 697 4328 969 4595 
Q 1241 4863 1831 4863 
L 2375 4863 
z
" transform="scale(0.015625)"/>
      <path id="DejaVuSans-65" d="M 3597 1894 
L 3597 1613 
L 953 1613 
Q 991 1019 1311 708 
Q 1631 397 2203 397 
Q 2534 397 2845 478 
Q 3156 559 3463 722 
L 3463 178 
Q 3153 47 2828 -22 
Q 2503 -91 2169 -91 
Q 1331 -91 842 396 
Q 353 884 353 1716 
Q 353 2575 817 3079 
Q 1281 3584 2069 3584 
Q 2775 3584 3186 3129 
Q 3597 2675 3597 1894 
z
M 3022 2063 
Q 3016 2534 2758 2815 
Q 2500 3097 2075 3097 
Q 1594 3097 1305 2825 
Q 1016 2553 972 2059 
L 3022 2063 
z
" transform="scale(0.015625)"/>
      <path id="DejaVuSans-61" d="M 2194 1759 
Q 1497 1759 1228 1600 
Q 959 1441 959 1056 
Q 959 750 1161 570 
Q 1363 391 1709 391 
Q 2188 391 2477 730 
Q 2766 1069 2766 1631 
L 2766 1759 
L 2194 1759 
z
M 3341 1997 
L 3341 0 
L 2766 0 
L 2766 531 
Q 2569 213 2275 61 
Q 1981 -91 1556 -91 
Q 1019 -91 701 211 
Q 384 513 384 1019 
Q 384 1609 779 1909 
Q 1175 2209 1959 2209 
L 2766 2209 
L 2766 2266 
Q 2766 2663 2505 2880 
Q 2244 3097 1772 3097 
Q 1472 3097 1187 3025 
Q 903 2953 641 2809 
L 641 3341 
Q 956 3463 1253 3523 
Q 1550 3584 1831 3584 
Q 2591 3584 2966 3190 
Q 3341 2797 3341 1997 
z
" transform="scale(0.015625)"/>
      <path id="DejaVuSans-74" d="M 1172 4494 
L 1172 3500 
L 2356 3500 
L 2356 3053 
L 1172 3053 
L 1172 1153 
Q 1172 725 1289 603 
Q 1406 481 1766 481 
L 2356 481 
L 2356 0 
L 1766 0 
Q 1100 0 847 248 
Q 594 497 594 1153 
L 594 3053 
L 172 3053 
L 172 3500 
L 594 3500 
L 594 4494 
L 1172 4494 
z
" transform="scale(0.015625)"/>
      <path id="DejaVuSans-75" d="M 544 1381 
L 544 3500 
L 1119 3500 
L 1119 1403 
Q 1119 906 1312 657 
Q 1506 409 1894 409 
Q 2359 409 2629 706 
Q 2900 1003 2900 1516 
L 2900 3500 
L 3475 3500 
L 3475 0 
L 2900 0 
L 2900 538 
Q 2691 219 2414 64 
Q 2138 -91 1772 -91 
Q 1169 -91 856 284 
Q 544 659 544 1381 
z
M 1991 3584 
L 1991 3584 
z
" transform="scale(0.015625)"/>
      <path id="DejaVuSans-72" d="M 2631 2963 
Q 2534 3019 2420 3045 
Q 2306 3072 2169 3072 
Q 1681 3072 1420 2755 
Q 1159 2438 1159 1844 
L 1159 0 
L 581 0 
L 581 3500 
L 1159 3500 
L 1159 2956 
Q 1341 3275 1631 3429 
Q 1922 3584 2338 3584 
Q 2397 3584 2469 3576 
Q 2541 3569 2628 3553 
L 2631 2963 
z
" transform="scale(0.015625)"/>
     </defs>
     <use xlink:href="#DejaVuSans-52"/>
     <use xlink:href="#DejaVuSans-41" x="65.482422"/>
     <use xlink:href="#DejaVuSans-57" x="128.390625"/>
     <use xlink:href="#DejaVuSans-5f" x="227.267578"/>
     <use xlink:href="#DejaVuSans-66" x="277.267578"/>
     <use xlink:href="#DejaVuSans-65" x="312.472656"/>
     <use xlink:href="#DejaVuSans-61" x="373.996094"/>
     <use xlink:href="#DejaVuSans-74" x="435.275391"/>
     <use xlink:href="#DejaVuSans-75" x="474.484375"/>
     <use xlink:href="#DejaVuSans-72" x="537.863281"/>
     <use xlink:href="#DejaVuSans-65" x="576.726562"/>
     <use xlink:href="#DejaVuSans-5f" x="638.25"/>
     <use xlink:href="#DejaVuSans-31" x="688.25"/>
    </g>
   </g>
   <g id="legend_1">
    <g id="patch_127">
     <path d="M 341.246563 78.82825 
L 407.72 78.82825 
Q 409.72 78.82825 409.72 76.82825 
L 409.72 48.472 
Q 409.72 46.472 407.72 46.472 
L 341.246563 46.472 
Q 339.246563 46.472 339.246563 48.472 
L 339.246563 76.82825 
Q 339.246563 78.82825 341.246563 78.82825 
z
" style="fill: #ffffff; opacity: 0.8; stroke: #cccccc; stroke-linejoin: miter"/>
    </g>
    <g id="patch_128">
     <path d="M 343.246563 58.070437 
L 363.246563 58.070437 
L 363.246563 51.070437 
L 343.246563 51.070437 
z
" style="fill: #ff0000; opacity: 0.4; stroke: #000000; stroke-linejoin: miter"/>
    </g>
    <g id="text_16">
     <!-- male -->
     <g transform="translate(371.246563 58.070437) scale(0.1 -0.1)">
      <defs>
       <path id="DejaVuSans-6d" d="M 3328 2828 
Q 3544 3216 3844 3400 
Q 4144 3584 4550 3584 
Q 5097 3584 5394 3201 
Q 5691 2819 5691 2113 
L 5691 0 
L 5113 0 
L 5113 2094 
Q 5113 2597 4934 2840 
Q 4756 3084 4391 3084 
Q 3944 3084 3684 2787 
Q 3425 2491 3425 1978 
L 3425 0 
L 2847 0 
L 2847 2094 
Q 2847 2600 2669 2842 
Q 2491 3084 2119 3084 
Q 1678 3084 1418 2786 
Q 1159 2488 1159 1978 
L 1159 0 
L 581 0 
L 581 3500 
L 1159 3500 
L 1159 2956 
Q 1356 3278 1631 3431 
Q 1906 3584 2284 3584 
Q 2666 3584 2933 3390 
Q 3200 3197 3328 2828 
z
" transform="scale(0.015625)"/>
       <path id="DejaVuSans-6c" d="M 603 4863 
L 1178 4863 
L 1178 0 
L 603 0 
L 603 4863 
z
" transform="scale(0.015625)"/>
      </defs>
      <use xlink:href="#DejaVuSans-6d"/>
      <use xlink:href="#DejaVuSans-61" x="97.412109"/>
      <use xlink:href="#DejaVuSans-6c" x="158.691406"/>
      <use xlink:href="#DejaVuSans-65" x="186.474609"/>
     </g>
    </g>
    <g id="patch_129">
     <path d="M 343.246563 72.748562 
L 363.246563 72.748562 
L 363.246563 65.748562 
L 343.246563 65.748562 
z
" style="fill: #0000ff; opacity: 0.4; stroke: #000000; stroke-linejoin: miter"/>
    </g>
    <g id="text_17">
     <!-- female -->
     <g transform="translate(371.246563 72.748562) scale(0.1 -0.1)">
      <use xlink:href="#DejaVuSans-66"/>
      <use xlink:href="#DejaVuSans-65" x="35.205078"/>
      <use xlink:href="#DejaVuSans-6d" x="96.728516"/>
      <use xlink:href="#DejaVuSans-61" x="194.140625"/>
      <use xlink:href="#DejaVuSans-6c" x="255.419922"/>
      <use xlink:href="#DejaVuSans-65" x="283.203125"/>
     </g>
    </g>
   </g>
  </g>
 </g>
 <defs>
  <clipPath id="pd9a8e7a45e">
   <rect x="57.6" y="41.472" width="357.12" height="266.112"/>
  </clipPath>
 </defs>
</svg>
