<?xml version="1.0" encoding="utf-8" standalone="no"?>
<!DOCTYPE svg PUBLIC "-//W3C//DTD SVG 1.1//EN"
  "http://www.w3.org/Graphics/SVG/1.1/DTD/svg11.dtd">
<svg xmlns:xlink="http://www.w3.org/1999/xlink" width="460.8pt" height="345.6pt" viewBox="0 0 460.8 345.6" xmlns="http://www.w3.org/2000/svg" version="1.1">
 <metadata>
  <rdf:RDF xmlns:dc="http://purl.org/dc/elements/1.1/" xmlns:cc="http://creativecommons.org/ns#" xmlns:rdf="http://www.w3.org/1999/02/22-rdf-syntax-ns#">
   <cc:Work>
    <dc:type rdf:resource="http://purl.org/dc/dcmitype/StillImage"/>
    <dc:date>2023-06-02T11:47:00.995907</dc:date>
    <dc:format>image/svg+xml</dc:format>
    <dc:creator>
     <cc:Agent>
      <dc:title>Matplotlib v3.7.0, https://matplotlib.org/</dc:title>
     </cc:Agent>
    </dc:creator>
   </cc:Work>
  </rdf:RDF>
 </metadata>
 <defs>
  <style type="text/css">*{stroke-linejoin: round; stroke-linecap: butt}</style>
 </defs>
 <g id="figure_1">
  <g id="patch_1">
   <path d="M 0 345.6 
L 460.8 345.6 
L 460.8 0 
L 0 0 
z
" style="fill: #ffffff"/>
  </g>
  <g id="axes_1">
   <g id="patch_2">
    <path d="M 57.6 307.584 
L 414.72 307.584 
L 414.72 41.472 
L 57.6 41.472 
z
" style="fill: #ffffff"/>
   </g>
   <g id="patch_3">
    <path d="M 73.832727 307.584 
L 78.561582 307.584 
L 78.561582 299.448631 
L 73.832727 299.448631 
z
" clip-path="url(#pb4ffd6c4b9)" style="fill: #ff0000; opacity: 0.4; stroke: #000000; stroke-linejoin: miter"/>
   </g>
   <g id="patch_4">
    <path d="M 78.561582 307.584 
L 83.290436 307.584 
L 83.290436 307.584 
L 78.561582 307.584 
z
" clip-path="url(#pb4ffd6c4b9)" style="fill: #ff0000; opacity: 0.4; stroke: #000000; stroke-linejoin: miter"/>
   </g>
   <g id="patch_5">
    <path d="M 83.290436 307.584 
L 88.01929 307.584 
L 88.01929 299.448631 
L 83.290436 299.448631 
z
" clip-path="url(#pb4ffd6c4b9)" style="fill: #ff0000; opacity: 0.4; stroke: #000000; stroke-linejoin: miter"/>
   </g>
   <g id="patch_6">
    <path d="M 88.01929 307.584 
L 92.748144 307.584 
L 92.748144 299.448631 
L 88.01929 299.448631 
z
" clip-path="url(#pb4ffd6c4b9)" style="fill: #ff0000; opacity: 0.4; stroke: #000000; stroke-linejoin: miter"/>
   </g>
   <g id="patch_7">
    <path d="M 92.748144 307.584 
L 97.476999 307.584 
L 97.476999 299.448631 
L 92.748144 299.448631 
z
" clip-path="url(#pb4ffd6c4b9)" style="fill: #ff0000; opacity: 0.4; stroke: #000000; stroke-linejoin: miter"/>
   </g>
   <g id="patch_8">
    <path d="M 97.476999 307.584 
L 102.205853 307.584 
L 102.205853 291.313262 
L 97.476999 291.313262 
z
" clip-path="url(#pb4ffd6c4b9)" style="fill: #ff0000; opacity: 0.4; stroke: #000000; stroke-linejoin: miter"/>
   </g>
   <g id="patch_9">
    <path d="M 102.205853 307.584 
L 106.934707 307.584 
L 106.934707 291.313262 
L 102.205853 291.313262 
z
" clip-path="url(#pb4ffd6c4b9)" style="fill: #ff0000; opacity: 0.4; stroke: #000000; stroke-linejoin: miter"/>
   </g>
   <g id="patch_10">
    <path d="M 106.934707 307.584 
L 111.663562 307.584 
L 111.663562 283.177893 
L 106.934707 283.177893 
z
" clip-path="url(#pb4ffd6c4b9)" style="fill: #ff0000; opacity: 0.4; stroke: #000000; stroke-linejoin: miter"/>
   </g>
   <g id="patch_11">
    <path d="M 111.663562 307.584 
L 116.392416 307.584 
L 116.392416 283.177893 
L 111.663562 283.177893 
z
" clip-path="url(#pb4ffd6c4b9)" style="fill: #ff0000; opacity: 0.4; stroke: #000000; stroke-linejoin: miter"/>
   </g>
   <g id="patch_12">
    <path d="M 116.392416 307.584 
L 121.12127 307.584 
L 121.12127 283.177893 
L 116.392416 283.177893 
z
" clip-path="url(#pb4ffd6c4b9)" style="fill: #ff0000; opacity: 0.4; stroke: #000000; stroke-linejoin: miter"/>
   </g>
   <g id="patch_13">
    <path d="M 121.12127 307.584 
L 125.850125 307.584 
L 125.850125 275.042525 
L 121.12127 275.042525 
z
" clip-path="url(#pb4ffd6c4b9)" style="fill: #ff0000; opacity: 0.4; stroke: #000000; stroke-linejoin: miter"/>
   </g>
   <g id="patch_14">
    <path d="M 125.850125 307.584 
L 130.578979 307.584 
L 130.578979 258.771787 
L 125.850125 258.771787 
z
" clip-path="url(#pb4ffd6c4b9)" style="fill: #ff0000; opacity: 0.4; stroke: #000000; stroke-linejoin: miter"/>
   </g>
   <g id="patch_15">
    <path d="M 130.578979 307.584 
L 135.307833 307.584 
L 135.307833 242.501049 
L 130.578979 242.501049 
z
" clip-path="url(#pb4ffd6c4b9)" style="fill: #ff0000; opacity: 0.4; stroke: #000000; stroke-linejoin: miter"/>
   </g>
   <g id="patch_16">
    <path d="M 135.307833 307.584 
L 140.036687 307.584 
L 140.036687 250.636418 
L 135.307833 250.636418 
z
" clip-path="url(#pb4ffd6c4b9)" style="fill: #ff0000; opacity: 0.4; stroke: #000000; stroke-linejoin: miter"/>
   </g>
   <g id="patch_17">
    <path d="M 140.036687 307.584 
L 144.765542 307.584 
L 144.765542 218.094943 
L 140.036687 218.094943 
z
" clip-path="url(#pb4ffd6c4b9)" style="fill: #ff0000; opacity: 0.4; stroke: #000000; stroke-linejoin: miter"/>
   </g>
   <g id="patch_18">
    <path d="M 144.765542 307.584 
L 149.494396 307.584 
L 149.494396 218.094943 
L 144.765542 218.094943 
z
" clip-path="url(#pb4ffd6c4b9)" style="fill: #ff0000; opacity: 0.4; stroke: #000000; stroke-linejoin: miter"/>
   </g>
   <g id="patch_19">
    <path d="M 149.494396 307.584 
L 154.22325 307.584 
L 154.22325 201.824205 
L 149.494396 201.824205 
z
" clip-path="url(#pb4ffd6c4b9)" style="fill: #ff0000; opacity: 0.4; stroke: #000000; stroke-linejoin: miter"/>
   </g>
   <g id="patch_20">
    <path d="M 154.22325 307.584 
L 158.952105 307.584 
L 158.952105 209.959574 
L 154.22325 209.959574 
z
" clip-path="url(#pb4ffd6c4b9)" style="fill: #ff0000; opacity: 0.4; stroke: #000000; stroke-linejoin: miter"/>
   </g>
   <g id="patch_21">
    <path d="M 158.952105 307.584 
L 163.680959 307.584 
L 163.680959 177.418098 
L 158.952105 177.418098 
z
" clip-path="url(#pb4ffd6c4b9)" style="fill: #ff0000; opacity: 0.4; stroke: #000000; stroke-linejoin: miter"/>
   </g>
   <g id="patch_22">
    <path d="M 163.680959 307.584 
L 168.409813 307.584 
L 168.409813 185.553467 
L 163.680959 185.553467 
z
" clip-path="url(#pb4ffd6c4b9)" style="fill: #ff0000; opacity: 0.4; stroke: #000000; stroke-linejoin: miter"/>
   </g>
   <g id="patch_23">
    <path d="M 168.409813 307.584 
L 173.138667 307.584 
L 173.138667 177.418098 
L 168.409813 177.418098 
z
" clip-path="url(#pb4ffd6c4b9)" style="fill: #ff0000; opacity: 0.4; stroke: #000000; stroke-linejoin: miter"/>
   </g>
   <g id="patch_24">
    <path d="M 173.138667 307.584 
L 177.867522 307.584 
L 177.867522 153.011992 
L 173.138667 153.011992 
z
" clip-path="url(#pb4ffd6c4b9)" style="fill: #ff0000; opacity: 0.4; stroke: #000000; stroke-linejoin: miter"/>
   </g>
   <g id="patch_25">
    <path d="M 177.867522 307.584 
L 182.596376 307.584 
L 182.596376 120.470517 
L 177.867522 120.470517 
z
" clip-path="url(#pb4ffd6c4b9)" style="fill: #ff0000; opacity: 0.4; stroke: #000000; stroke-linejoin: miter"/>
   </g>
   <g id="patch_26">
    <path d="M 182.596376 307.584 
L 187.32523 307.584 
L 187.32523 169.28273 
L 182.596376 169.28273 
z
" clip-path="url(#pb4ffd6c4b9)" style="fill: #ff0000; opacity: 0.4; stroke: #000000; stroke-linejoin: miter"/>
   </g>
   <g id="patch_27">
    <path d="M 187.32523 307.584 
L 192.054085 307.584 
L 192.054085 177.418098 
L 187.32523 177.418098 
z
" clip-path="url(#pb4ffd6c4b9)" style="fill: #ff0000; opacity: 0.4; stroke: #000000; stroke-linejoin: miter"/>
   </g>
   <g id="patch_28">
    <path d="M 192.054085 307.584 
L 196.782939 307.584 
L 196.782939 87.929041 
L 192.054085 87.929041 
z
" clip-path="url(#pb4ffd6c4b9)" style="fill: #ff0000; opacity: 0.4; stroke: #000000; stroke-linejoin: miter"/>
   </g>
   <g id="patch_29">
    <path d="M 196.782939 307.584 
L 201.511793 307.584 
L 201.511793 144.876623 
L 196.782939 144.876623 
z
" clip-path="url(#pb4ffd6c4b9)" style="fill: #ff0000; opacity: 0.4; stroke: #000000; stroke-linejoin: miter"/>
   </g>
   <g id="patch_30">
    <path d="M 201.511793 307.584 
L 206.240648 307.584 
L 206.240648 71.658303 
L 201.511793 71.658303 
z
" clip-path="url(#pb4ffd6c4b9)" style="fill: #ff0000; opacity: 0.4; stroke: #000000; stroke-linejoin: miter"/>
   </g>
   <g id="patch_31">
    <path d="M 206.240648 307.584 
L 210.969502 307.584 
L 210.969502 120.470517 
L 206.240648 120.470517 
z
" clip-path="url(#pb4ffd6c4b9)" style="fill: #ff0000; opacity: 0.4; stroke: #000000; stroke-linejoin: miter"/>
   </g>
   <g id="patch_32">
    <path d="M 210.969502 307.584 
L 215.698356 307.584 
L 215.698356 128.605885 
L 210.969502 128.605885 
z
" clip-path="url(#pb4ffd6c4b9)" style="fill: #ff0000; opacity: 0.4; stroke: #000000; stroke-linejoin: miter"/>
   </g>
   <g id="patch_33">
    <path d="M 215.698356 307.584 
L 220.42721 307.584 
L 220.42721 120.470517 
L 215.698356 120.470517 
z
" clip-path="url(#pb4ffd6c4b9)" style="fill: #ff0000; opacity: 0.4; stroke: #000000; stroke-linejoin: miter"/>
   </g>
   <g id="patch_34">
    <path d="M 220.42721 307.584 
L 225.156065 307.584 
L 225.156065 96.06441 
L 220.42721 96.06441 
z
" clip-path="url(#pb4ffd6c4b9)" style="fill: #ff0000; opacity: 0.4; stroke: #000000; stroke-linejoin: miter"/>
   </g>
   <g id="patch_35">
    <path d="M 225.156065 307.584 
L 229.884919 307.584 
L 229.884919 153.011992 
L 225.156065 153.011992 
z
" clip-path="url(#pb4ffd6c4b9)" style="fill: #ff0000; opacity: 0.4; stroke: #000000; stroke-linejoin: miter"/>
   </g>
   <g id="patch_36">
    <path d="M 229.884919 307.584 
L 234.613773 307.584 
L 234.613773 201.824205 
L 229.884919 201.824205 
z
" clip-path="url(#pb4ffd6c4b9)" style="fill: #ff0000; opacity: 0.4; stroke: #000000; stroke-linejoin: miter"/>
   </g>
   <g id="patch_37">
    <path d="M 234.613773 307.584 
L 239.342628 307.584 
L 239.342628 185.553467 
L 234.613773 185.553467 
z
" clip-path="url(#pb4ffd6c4b9)" style="fill: #ff0000; opacity: 0.4; stroke: #000000; stroke-linejoin: miter"/>
   </g>
   <g id="patch_38">
    <path d="M 239.342628 307.584 
L 244.071482 307.584 
L 244.071482 128.605885 
L 239.342628 128.605885 
z
" clip-path="url(#pb4ffd6c4b9)" style="fill: #ff0000; opacity: 0.4; stroke: #000000; stroke-linejoin: miter"/>
   </g>
   <g id="patch_39">
    <path d="M 244.071482 307.584 
L 248.800336 307.584 
L 248.800336 169.28273 
L 244.071482 169.28273 
z
" clip-path="url(#pb4ffd6c4b9)" style="fill: #ff0000; opacity: 0.4; stroke: #000000; stroke-linejoin: miter"/>
   </g>
   <g id="patch_40">
    <path d="M 248.800336 307.584 
L 253.529191 307.584 
L 253.529191 144.876623 
L 248.800336 144.876623 
z
" clip-path="url(#pb4ffd6c4b9)" style="fill: #ff0000; opacity: 0.4; stroke: #000000; stroke-linejoin: miter"/>
   </g>
   <g id="patch_41">
    <path d="M 253.529191 307.584 
L 258.258045 307.584 
L 258.258045 79.793672 
L 253.529191 79.793672 
z
" clip-path="url(#pb4ffd6c4b9)" style="fill: #ff0000; opacity: 0.4; stroke: #000000; stroke-linejoin: miter"/>
   </g>
   <g id="patch_42">
    <path d="M 258.258045 307.584 
L 262.986899 307.584 
L 262.986899 71.658303 
L 258.258045 71.658303 
z
" clip-path="url(#pb4ffd6c4b9)" style="fill: #ff0000; opacity: 0.4; stroke: #000000; stroke-linejoin: miter"/>
   </g>
   <g id="patch_43">
    <path d="M 262.986899 307.584 
L 267.715753 307.584 
L 267.715753 55.387566 
L 262.986899 55.387566 
z
" clip-path="url(#pb4ffd6c4b9)" style="fill: #ff0000; opacity: 0.4; stroke: #000000; stroke-linejoin: miter"/>
   </g>
   <g id="patch_44">
    <path d="M 267.715753 307.584 
L 272.444608 307.584 
L 272.444608 112.335148 
L 267.715753 112.335148 
z
" clip-path="url(#pb4ffd6c4b9)" style="fill: #ff0000; opacity: 0.4; stroke: #000000; stroke-linejoin: miter"/>
   </g>
   <g id="patch_45">
    <path d="M 272.444608 307.584 
L 277.173462 307.584 
L 277.173462 87.929041 
L 272.444608 87.929041 
z
" clip-path="url(#pb4ffd6c4b9)" style="fill: #ff0000; opacity: 0.4; stroke: #000000; stroke-linejoin: miter"/>
   </g>
   <g id="patch_46">
    <path d="M 277.173462 307.584 
L 281.902316 307.584 
L 281.902316 104.199779 
L 277.173462 104.199779 
z
" clip-path="url(#pb4ffd6c4b9)" style="fill: #ff0000; opacity: 0.4; stroke: #000000; stroke-linejoin: miter"/>
   </g>
   <g id="patch_47">
    <path d="M 281.902316 307.584 
L 286.631171 307.584 
L 286.631171 177.418098 
L 281.902316 177.418098 
z
" clip-path="url(#pb4ffd6c4b9)" style="fill: #ff0000; opacity: 0.4; stroke: #000000; stroke-linejoin: miter"/>
   </g>
   <g id="patch_48">
    <path d="M 286.631171 307.584 
L 291.360025 307.584 
L 291.360025 226.230312 
L 286.631171 226.230312 
z
" clip-path="url(#pb4ffd6c4b9)" style="fill: #ff0000; opacity: 0.4; stroke: #000000; stroke-linejoin: miter"/>
   </g>
   <g id="patch_49">
    <path d="M 291.360025 307.584 
L 296.088879 307.584 
L 296.088879 234.36568 
L 291.360025 234.36568 
z
" clip-path="url(#pb4ffd6c4b9)" style="fill: #ff0000; opacity: 0.4; stroke: #000000; stroke-linejoin: miter"/>
   </g>
   <g id="patch_50">
    <path d="M 296.088879 307.584 
L 300.817733 307.584 
L 300.817733 209.959574 
L 296.088879 209.959574 
z
" clip-path="url(#pb4ffd6c4b9)" style="fill: #ff0000; opacity: 0.4; stroke: #000000; stroke-linejoin: miter"/>
   </g>
   <g id="patch_51">
    <path d="M 300.817733 307.584 
L 305.546588 307.584 
L 305.546588 226.230312 
L 300.817733 226.230312 
z
" clip-path="url(#pb4ffd6c4b9)" style="fill: #ff0000; opacity: 0.4; stroke: #000000; stroke-linejoin: miter"/>
   </g>
   <g id="patch_52">
    <path d="M 305.546588 307.584 
L 310.275442 307.584 
L 310.275442 258.771787 
L 305.546588 258.771787 
z
" clip-path="url(#pb4ffd6c4b9)" style="fill: #ff0000; opacity: 0.4; stroke: #000000; stroke-linejoin: miter"/>
   </g>
   <g id="patch_53">
    <path d="M 310.275442 307.584 
L 315.004296 307.584 
L 315.004296 307.584 
L 310.275442 307.584 
z
" clip-path="url(#pb4ffd6c4b9)" style="fill: #ff0000; opacity: 0.4; stroke: #000000; stroke-linejoin: miter"/>
   </g>
   <g id="patch_54">
    <path d="M 315.004296 307.584 
L 319.733151 307.584 
L 319.733151 291.313262 
L 315.004296 291.313262 
z
" clip-path="url(#pb4ffd6c4b9)" style="fill: #ff0000; opacity: 0.4; stroke: #000000; stroke-linejoin: miter"/>
   </g>
   <g id="patch_55">
    <path d="M 319.733151 307.584 
L 324.462005 307.584 
L 324.462005 307.584 
L 319.733151 307.584 
z
" clip-path="url(#pb4ffd6c4b9)" style="fill: #ff0000; opacity: 0.4; stroke: #000000; stroke-linejoin: miter"/>
   </g>
   <g id="patch_56">
    <path d="M 324.462005 307.584 
L 329.190859 307.584 
L 329.190859 291.313262 
L 324.462005 291.313262 
z
" clip-path="url(#pb4ffd6c4b9)" style="fill: #ff0000; opacity: 0.4; stroke: #000000; stroke-linejoin: miter"/>
   </g>
   <g id="patch_57">
    <path d="M 329.190859 307.584 
L 333.919714 307.584 
L 333.919714 307.584 
L 329.190859 307.584 
z
" clip-path="url(#pb4ffd6c4b9)" style="fill: #ff0000; opacity: 0.4; stroke: #000000; stroke-linejoin: miter"/>
   </g>
   <g id="patch_58">
    <path d="M 333.919714 307.584 
L 338.648568 307.584 
L 338.648568 299.448631 
L 333.919714 299.448631 
z
" clip-path="url(#pb4ffd6c4b9)" style="fill: #ff0000; opacity: 0.4; stroke: #000000; stroke-linejoin: miter"/>
   </g>
   <g id="patch_59">
    <path d="M 338.648568 307.584 
L 343.377422 307.584 
L 343.377422 307.584 
L 338.648568 307.584 
z
" clip-path="url(#pb4ffd6c4b9)" style="fill: #ff0000; opacity: 0.4; stroke: #000000; stroke-linejoin: miter"/>
   </g>
   <g id="patch_60">
    <path d="M 343.377422 307.584 
L 348.106276 307.584 
L 348.106276 307.584 
L 343.377422 307.584 
z
" clip-path="url(#pb4ffd6c4b9)" style="fill: #ff0000; opacity: 0.4; stroke: #000000; stroke-linejoin: miter"/>
   </g>
   <g id="patch_61">
    <path d="M 348.106276 307.584 
L 352.835131 307.584 
L 352.835131 307.584 
L 348.106276 307.584 
z
" clip-path="url(#pb4ffd6c4b9)" style="fill: #ff0000; opacity: 0.4; stroke: #000000; stroke-linejoin: miter"/>
   </g>
   <g id="patch_62">
    <path d="M 352.835131 307.584 
L 357.563985 307.584 
L 357.563985 299.448631 
L 352.835131 299.448631 
z
" clip-path="url(#pb4ffd6c4b9)" style="fill: #ff0000; opacity: 0.4; stroke: #000000; stroke-linejoin: miter"/>
   </g>
   <g id="patch_63">
    <path d="M 113.546009 307.584 
L 118.29503 307.584 
L 118.29503 304.112219 
L 113.546009 304.112219 
z
" clip-path="url(#pb4ffd6c4b9)" style="fill: #0000ff; opacity: 0.4; stroke: #000000; stroke-linejoin: miter"/>
   </g>
   <g id="patch_64">
    <path d="M 118.29503 307.584 
L 123.044051 307.584 
L 123.044051 300.640438 
L 118.29503 300.640438 
z
" clip-path="url(#pb4ffd6c4b9)" style="fill: #0000ff; opacity: 0.4; stroke: #000000; stroke-linejoin: miter"/>
   </g>
   <g id="patch_65">
    <path d="M 123.044051 307.584 
L 127.793072 307.584 
L 127.793072 304.112219 
L 123.044051 304.112219 
z
" clip-path="url(#pb4ffd6c4b9)" style="fill: #0000ff; opacity: 0.4; stroke: #000000; stroke-linejoin: miter"/>
   </g>
   <g id="patch_66">
    <path d="M 127.793072 307.584 
L 132.542093 307.584 
L 132.542093 300.640438 
L 127.793072 300.640438 
z
" clip-path="url(#pb4ffd6c4b9)" style="fill: #0000ff; opacity: 0.4; stroke: #000000; stroke-linejoin: miter"/>
   </g>
   <g id="patch_67">
    <path d="M 132.542093 307.584 
L 137.291114 307.584 
L 137.291114 300.640438 
L 132.542093 300.640438 
z
" clip-path="url(#pb4ffd6c4b9)" style="fill: #0000ff; opacity: 0.4; stroke: #000000; stroke-linejoin: miter"/>
   </g>
   <g id="patch_68">
    <path d="M 137.291114 307.584 
L 142.040135 307.584 
L 142.040135 300.640438 
L 137.291114 300.640438 
z
" clip-path="url(#pb4ffd6c4b9)" style="fill: #0000ff; opacity: 0.4; stroke: #000000; stroke-linejoin: miter"/>
   </g>
   <g id="patch_69">
    <path d="M 142.040135 307.584 
L 146.789156 307.584 
L 146.789156 293.696877 
L 142.040135 293.696877 
z
" clip-path="url(#pb4ffd6c4b9)" style="fill: #0000ff; opacity: 0.4; stroke: #000000; stroke-linejoin: miter"/>
   </g>
   <g id="patch_70">
    <path d="M 146.789156 307.584 
L 151.538177 307.584 
L 151.538177 293.696877 
L 146.789156 293.696877 
z
" clip-path="url(#pb4ffd6c4b9)" style="fill: #0000ff; opacity: 0.4; stroke: #000000; stroke-linejoin: miter"/>
   </g>
   <g id="patch_71">
    <path d="M 151.538177 307.584 
L 156.287198 307.584 
L 156.287198 279.809753 
L 151.538177 279.809753 
z
" clip-path="url(#pb4ffd6c4b9)" style="fill: #0000ff; opacity: 0.4; stroke: #000000; stroke-linejoin: miter"/>
   </g>
   <g id="patch_72">
    <path d="M 156.287198 307.584 
L 161.03622 307.584 
L 161.03622 269.394411 
L 156.287198 269.394411 
z
" clip-path="url(#pb4ffd6c4b9)" style="fill: #0000ff; opacity: 0.4; stroke: #000000; stroke-linejoin: miter"/>
   </g>
   <g id="patch_73">
    <path d="M 161.03622 307.584 
L 165.785241 307.584 
L 165.785241 262.450849 
L 161.03622 262.450849 
z
" clip-path="url(#pb4ffd6c4b9)" style="fill: #0000ff; opacity: 0.4; stroke: #000000; stroke-linejoin: miter"/>
   </g>
   <g id="patch_74">
    <path d="M 165.785241 307.584 
L 170.534262 307.584 
L 170.534262 265.92263 
L 165.785241 265.92263 
z
" clip-path="url(#pb4ffd6c4b9)" style="fill: #0000ff; opacity: 0.4; stroke: #000000; stroke-linejoin: miter"/>
   </g>
   <g id="patch_75">
    <path d="M 170.534262 307.584 
L 175.283283 307.584 
L 175.283283 241.620164 
L 170.534262 241.620164 
z
" clip-path="url(#pb4ffd6c4b9)" style="fill: #0000ff; opacity: 0.4; stroke: #000000; stroke-linejoin: miter"/>
   </g>
   <g id="patch_76">
    <path d="M 175.283283 307.584 
L 180.032304 307.584 
L 180.032304 234.676603 
L 175.283283 234.676603 
z
" clip-path="url(#pb4ffd6c4b9)" style="fill: #0000ff; opacity: 0.4; stroke: #000000; stroke-linejoin: miter"/>
   </g>
   <g id="patch_77">
    <path d="M 180.032304 307.584 
L 184.781325 307.584 
L 184.781325 213.845918 
L 180.032304 213.845918 
z
" clip-path="url(#pb4ffd6c4b9)" style="fill: #0000ff; opacity: 0.4; stroke: #000000; stroke-linejoin: miter"/>
   </g>
   <g id="patch_78">
    <path d="M 184.781325 307.584 
L 189.530346 307.584 
L 189.530346 199.958795 
L 184.781325 199.958795 
z
" clip-path="url(#pb4ffd6c4b9)" style="fill: #0000ff; opacity: 0.4; stroke: #000000; stroke-linejoin: miter"/>
   </g>
   <g id="patch_79">
    <path d="M 189.530346 307.584 
L 194.279367 307.584 
L 194.279367 179.12811 
L 189.530346 179.12811 
z
" clip-path="url(#pb4ffd6c4b9)" style="fill: #0000ff; opacity: 0.4; stroke: #000000; stroke-linejoin: miter"/>
   </g>
   <g id="patch_80">
    <path d="M 194.279367 307.584 
L 199.028388 307.584 
L 199.028388 182.59989 
L 194.279367 182.59989 
z
" clip-path="url(#pb4ffd6c4b9)" style="fill: #0000ff; opacity: 0.4; stroke: #000000; stroke-linejoin: miter"/>
   </g>
   <g id="patch_81">
    <path d="M 199.028388 307.584 
L 203.777409 307.584 
L 203.777409 175.656329 
L 199.028388 175.656329 
z
" clip-path="url(#pb4ffd6c4b9)" style="fill: #0000ff; opacity: 0.4; stroke: #000000; stroke-linejoin: miter"/>
   </g>
   <g id="patch_82">
    <path d="M 203.777409 307.584 
L 208.52643 307.584 
L 208.52643 120.107836 
L 203.777409 120.107836 
z
" clip-path="url(#pb4ffd6c4b9)" style="fill: #0000ff; opacity: 0.4; stroke: #000000; stroke-linejoin: miter"/>
   </g>
   <g id="patch_83">
    <path d="M 208.52643 307.584 
L 213.275451 307.584 
L 213.275451 137.46674 
L 208.52643 137.46674 
z
" clip-path="url(#pb4ffd6c4b9)" style="fill: #0000ff; opacity: 0.4; stroke: #000000; stroke-linejoin: miter"/>
   </g>
   <g id="patch_84">
    <path d="M 213.275451 307.584 
L 218.024472 307.584 
L 218.024472 120.107836 
L 213.275451 120.107836 
z
" clip-path="url(#pb4ffd6c4b9)" style="fill: #0000ff; opacity: 0.4; stroke: #000000; stroke-linejoin: miter"/>
   </g>
   <g id="patch_85">
    <path d="M 218.024472 307.584 
L 222.773493 307.584 
L 222.773493 109.692493 
L 218.024472 109.692493 
z
" clip-path="url(#pb4ffd6c4b9)" style="fill: #0000ff; opacity: 0.4; stroke: #000000; stroke-linejoin: miter"/>
   </g>
   <g id="patch_86">
    <path d="M 222.773493 307.584 
L 227.522514 307.584 
L 227.522514 64.559342 
L 222.773493 64.559342 
z
" clip-path="url(#pb4ffd6c4b9)" style="fill: #0000ff; opacity: 0.4; stroke: #000000; stroke-linejoin: miter"/>
   </g>
   <g id="patch_87">
    <path d="M 227.522514 307.584 
L 232.271535 307.584 
L 232.271535 57.615781 
L 227.522514 57.615781 
z
" clip-path="url(#pb4ffd6c4b9)" style="fill: #0000ff; opacity: 0.4; stroke: #000000; stroke-linejoin: miter"/>
   </g>
   <g id="patch_88">
    <path d="M 232.271535 307.584 
L 237.020557 307.584 
L 237.020557 54.144 
L 232.271535 54.144 
z
" clip-path="url(#pb4ffd6c4b9)" style="fill: #0000ff; opacity: 0.4; stroke: #000000; stroke-linejoin: miter"/>
   </g>
   <g id="patch_89">
    <path d="M 237.020557 307.584 
L 241.769578 307.584 
L 241.769578 54.144 
L 237.020557 54.144 
z
" clip-path="url(#pb4ffd6c4b9)" style="fill: #0000ff; opacity: 0.4; stroke: #000000; stroke-linejoin: miter"/>
   </g>
   <g id="patch_90">
    <path d="M 241.769578 307.584 
L 246.518599 307.584 
L 246.518599 54.144 
L 241.769578 54.144 
z
" clip-path="url(#pb4ffd6c4b9)" style="fill: #0000ff; opacity: 0.4; stroke: #000000; stroke-linejoin: miter"/>
   </g>
   <g id="patch_91">
    <path d="M 246.518599 307.584 
L 251.26762 307.584 
L 251.26762 61.087562 
L 246.518599 61.087562 
z
" clip-path="url(#pb4ffd6c4b9)" style="fill: #0000ff; opacity: 0.4; stroke: #000000; stroke-linejoin: miter"/>
   </g>
   <g id="patch_92">
    <path d="M 251.26762 307.584 
L 256.016641 307.584 
L 256.016641 85.390027 
L 251.26762 85.390027 
z
" clip-path="url(#pb4ffd6c4b9)" style="fill: #0000ff; opacity: 0.4; stroke: #000000; stroke-linejoin: miter"/>
   </g>
   <g id="patch_93">
    <path d="M 256.016641 307.584 
L 260.765662 307.584 
L 260.765662 106.220712 
L 256.016641 106.220712 
z
" clip-path="url(#pb4ffd6c4b9)" style="fill: #0000ff; opacity: 0.4; stroke: #000000; stroke-linejoin: miter"/>
   </g>
   <g id="patch_94">
    <path d="M 260.765662 307.584 
L 265.514683 307.584 
L 265.514683 137.46674 
L 260.765662 137.46674 
z
" clip-path="url(#pb4ffd6c4b9)" style="fill: #0000ff; opacity: 0.4; stroke: #000000; stroke-linejoin: miter"/>
   </g>
   <g id="patch_95">
    <path d="M 265.514683 307.584 
L 270.263704 307.584 
L 270.263704 120.107836 
L 265.514683 120.107836 
z
" clip-path="url(#pb4ffd6c4b9)" style="fill: #0000ff; opacity: 0.4; stroke: #000000; stroke-linejoin: miter"/>
   </g>
   <g id="patch_96">
    <path d="M 270.263704 307.584 
L 275.012725 307.584 
L 275.012725 137.46674 
L 270.263704 137.46674 
z
" clip-path="url(#pb4ffd6c4b9)" style="fill: #0000ff; opacity: 0.4; stroke: #000000; stroke-linejoin: miter"/>
   </g>
   <g id="patch_97">
    <path d="M 275.012725 307.584 
L 279.761746 307.584 
L 279.761746 151.353863 
L 275.012725 151.353863 
z
" clip-path="url(#pb4ffd6c4b9)" style="fill: #0000ff; opacity: 0.4; stroke: #000000; stroke-linejoin: miter"/>
   </g>
   <g id="patch_98">
    <path d="M 279.761746 307.584 
L 284.510767 307.584 
L 284.510767 154.825644 
L 279.761746 154.825644 
z
" clip-path="url(#pb4ffd6c4b9)" style="fill: #0000ff; opacity: 0.4; stroke: #000000; stroke-linejoin: miter"/>
   </g>
   <g id="patch_99">
    <path d="M 284.510767 307.584 
L 289.259788 307.584 
L 289.259788 151.353863 
L 284.510767 151.353863 
z
" clip-path="url(#pb4ffd6c4b9)" style="fill: #0000ff; opacity: 0.4; stroke: #000000; stroke-linejoin: miter"/>
   </g>
   <g id="patch_100">
    <path d="M 289.259788 307.584 
L 294.008809 307.584 
L 294.008809 144.410301 
L 289.259788 144.410301 
z
" clip-path="url(#pb4ffd6c4b9)" style="fill: #0000ff; opacity: 0.4; stroke: #000000; stroke-linejoin: miter"/>
   </g>
   <g id="patch_101">
    <path d="M 294.008809 307.584 
L 298.75783 307.584 
L 298.75783 175.656329 
L 294.008809 175.656329 
z
" clip-path="url(#pb4ffd6c4b9)" style="fill: #0000ff; opacity: 0.4; stroke: #000000; stroke-linejoin: miter"/>
   </g>
   <g id="patch_102">
    <path d="M 298.75783 307.584 
L 303.506851 307.584 
L 303.506851 193.015233 
L 298.75783 193.015233 
z
" clip-path="url(#pb4ffd6c4b9)" style="fill: #0000ff; opacity: 0.4; stroke: #000000; stroke-linejoin: miter"/>
   </g>
   <g id="patch_103">
    <path d="M 303.506851 307.584 
L 308.255873 307.584 
L 308.255873 196.487014 
L 303.506851 196.487014 
z
" clip-path="url(#pb4ffd6c4b9)" style="fill: #0000ff; opacity: 0.4; stroke: #000000; stroke-linejoin: miter"/>
   </g>
   <g id="patch_104">
    <path d="M 308.255873 307.584 
L 313.004894 307.584 
L 313.004894 199.958795 
L 308.255873 199.958795 
z
" clip-path="url(#pb4ffd6c4b9)" style="fill: #0000ff; opacity: 0.4; stroke: #000000; stroke-linejoin: miter"/>
   </g>
   <g id="patch_105">
    <path d="M 313.004894 307.584 
L 317.753915 307.584 
L 317.753915 203.430575 
L 313.004894 203.430575 
z
" clip-path="url(#pb4ffd6c4b9)" style="fill: #0000ff; opacity: 0.4; stroke: #000000; stroke-linejoin: miter"/>
   </g>
   <g id="patch_106">
    <path d="M 317.753915 307.584 
L 322.502936 307.584 
L 322.502936 220.789479 
L 317.753915 220.789479 
z
" clip-path="url(#pb4ffd6c4b9)" style="fill: #0000ff; opacity: 0.4; stroke: #000000; stroke-linejoin: miter"/>
   </g>
   <g id="patch_107">
    <path d="M 322.502936 307.584 
L 327.251957 307.584 
L 327.251957 238.148384 
L 322.502936 238.148384 
z
" clip-path="url(#pb4ffd6c4b9)" style="fill: #0000ff; opacity: 0.4; stroke: #000000; stroke-linejoin: miter"/>
   </g>
   <g id="patch_108">
    <path d="M 327.251957 307.584 
L 332.000978 307.584 
L 332.000978 241.620164 
L 327.251957 241.620164 
z
" clip-path="url(#pb4ffd6c4b9)" style="fill: #0000ff; opacity: 0.4; stroke: #000000; stroke-linejoin: miter"/>
   </g>
   <g id="patch_109">
    <path d="M 332.000978 307.584 
L 336.749999 307.584 
L 336.749999 252.035507 
L 332.000978 252.035507 
z
" clip-path="url(#pb4ffd6c4b9)" style="fill: #0000ff; opacity: 0.4; stroke: #000000; stroke-linejoin: miter"/>
   </g>
   <g id="patch_110">
    <path d="M 336.749999 307.584 
L 341.49902 307.584 
L 341.49902 262.450849 
L 336.749999 262.450849 
z
" clip-path="url(#pb4ffd6c4b9)" style="fill: #0000ff; opacity: 0.4; stroke: #000000; stroke-linejoin: miter"/>
   </g>
   <g id="patch_111">
    <path d="M 341.49902 307.584 
L 346.248041 307.584 
L 346.248041 269.394411 
L 341.49902 269.394411 
z
" clip-path="url(#pb4ffd6c4b9)" style="fill: #0000ff; opacity: 0.4; stroke: #000000; stroke-linejoin: miter"/>
   </g>
   <g id="patch_112">
    <path d="M 346.248041 307.584 
L 350.997062 307.584 
L 350.997062 276.337973 
L 346.248041 276.337973 
z
" clip-path="url(#pb4ffd6c4b9)" style="fill: #0000ff; opacity: 0.4; stroke: #000000; stroke-linejoin: miter"/>
   </g>
   <g id="patch_113">
    <path d="M 350.997062 307.584 
L 355.746083 307.584 
L 355.746083 283.281534 
L 350.997062 283.281534 
z
" clip-path="url(#pb4ffd6c4b9)" style="fill: #0000ff; opacity: 0.4; stroke: #000000; stroke-linejoin: miter"/>
   </g>
   <g id="patch_114">
    <path d="M 355.746083 307.584 
L 360.495104 307.584 
L 360.495104 290.225096 
L 355.746083 290.225096 
z
" clip-path="url(#pb4ffd6c4b9)" style="fill: #0000ff; opacity: 0.4; stroke: #000000; stroke-linejoin: miter"/>
   </g>
   <g id="patch_115">
    <path d="M 360.495104 307.584 
L 365.244125 307.584 
L 365.244125 290.225096 
L 360.495104 290.225096 
z
" clip-path="url(#pb4ffd6c4b9)" style="fill: #0000ff; opacity: 0.4; stroke: #000000; stroke-linejoin: miter"/>
   </g>
   <g id="patch_116">
    <path d="M 365.244125 307.584 
L 369.993146 307.584 
L 369.993146 297.168658 
L 365.244125 297.168658 
z
" clip-path="url(#pb4ffd6c4b9)" style="fill: #0000ff; opacity: 0.4; stroke: #000000; stroke-linejoin: miter"/>
   </g>
   <g id="patch_117">
    <path d="M 369.993146 307.584 
L 374.742167 307.584 
L 374.742167 297.168658 
L 369.993146 297.168658 
z
" clip-path="url(#pb4ffd6c4b9)" style="fill: #0000ff; opacity: 0.4; stroke: #000000; stroke-linejoin: miter"/>
   </g>
   <g id="patch_118">
    <path d="M 374.742167 307.584 
L 379.491188 307.584 
L 379.491188 297.168658 
L 374.742167 297.168658 
z
" clip-path="url(#pb4ffd6c4b9)" style="fill: #0000ff; opacity: 0.4; stroke: #000000; stroke-linejoin: miter"/>
   </g>
   <g id="patch_119">
    <path d="M 379.491188 307.584 
L 384.24021 307.584 
L 384.24021 304.112219 
L 379.491188 304.112219 
z
" clip-path="url(#pb4ffd6c4b9)" style="fill: #0000ff; opacity: 0.4; stroke: #000000; stroke-linejoin: miter"/>
   </g>
   <g id="patch_120">
    <path d="M 384.24021 307.584 
L 388.989231 307.584 
L 388.989231 300.640438 
L 384.24021 300.640438 
z
" clip-path="url(#pb4ffd6c4b9)" style="fill: #0000ff; opacity: 0.4; stroke: #000000; stroke-linejoin: miter"/>
   </g>
   <g id="patch_121">
    <path d="M 388.989231 307.584 
L 393.738252 307.584 
L 393.738252 304.112219 
L 388.989231 304.112219 
z
" clip-path="url(#pb4ffd6c4b9)" style="fill: #0000ff; opacity: 0.4; stroke: #000000; stroke-linejoin: miter"/>
   </g>
   <g id="patch_122">
    <path d="M 393.738252 307.584 
L 398.487273 307.584 
L 398.487273 304.112219 
L 393.738252 304.112219 
z
" clip-path="url(#pb4ffd6c4b9)" style="fill: #0000ff; opacity: 0.4; stroke: #000000; stroke-linejoin: miter"/>
   </g>
   <g id="matplotlib.axis_1">
    <g id="xtick_1">
     <g id="line2d_1">
      <defs>
       <path id="m8bd9402412" d="M 0 0 
L 0 3.5 
" style="stroke: #000000; stroke-width: 0.8"/>
      </defs>
      <g>
       <use xlink:href="#m8bd9402412" x="90.937089" y="307.584" style="stroke: #000000; stroke-width: 0.8"/>
      </g>
     </g>
     <g id="text_1">
      <!-- −3 -->
      <g transform="translate(83.565996 322.182437) scale(0.1 -0.1)">
       <defs>
        <path id="DejaVuSans-2212" d="M 678 2272 
L 4684 2272 
L 4684 1741 
L 678 1741 
L 678 2272 
z
" transform="scale(0.015625)"/>
        <path id="DejaVuSans-33" d="M 2597 2516 
Q 3050 2419 3304 2112 
Q 3559 1806 3559 1356 
Q 3559 666 3084 287 
Q 2609 -91 1734 -91 
Q 1441 -91 1130 -33 
Q 819 25 488 141 
L 488 750 
Q 750 597 1062 519 
Q 1375 441 1716 441 
Q 2309 441 2620 675 
Q 2931 909 2931 1356 
Q 2931 1769 2642 2001 
Q 2353 2234 1838 2234 
L 1294 2234 
L 1294 2753 
L 1863 2753 
Q 2328 2753 2575 2939 
Q 2822 3125 2822 3475 
Q 2822 3834 2567 4026 
Q 2313 4219 1838 4219 
Q 1578 4219 1281 4162 
Q 984 4106 628 3988 
L 628 4550 
Q 988 4650 1302 4700 
Q 1616 4750 1894 4750 
Q 2613 4750 3031 4423 
Q 3450 4097 3450 3541 
Q 3450 3153 3228 2886 
Q 3006 2619 2597 2516 
z
" transform="scale(0.015625)"/>
       </defs>
       <use xlink:href="#DejaVuSans-2212"/>
       <use xlink:href="#DejaVuSans-33" x="83.789062"/>
      </g>
     </g>
    </g>
    <g id="xtick_2">
     <g id="line2d_2">
      <g>
       <use xlink:href="#m8bd9402412" x="140.99226" y="307.584" style="stroke: #000000; stroke-width: 0.8"/>
      </g>
     </g>
     <g id="text_2">
      <!-- −2 -->
      <g transform="translate(133.621166 322.182437) scale(0.1 -0.1)">
       <defs>
        <path id="DejaVuSans-32" d="M 1228 531 
L 3431 531 
L 3431 0 
L 469 0 
L 469 531 
Q 828 903 1448 1529 
Q 2069 2156 2228 2338 
Q 2531 2678 2651 2914 
Q 2772 3150 2772 3378 
Q 2772 3750 2511 3984 
Q 2250 4219 1831 4219 
Q 1534 4219 1204 4116 
Q 875 4013 500 3803 
L 500 4441 
Q 881 4594 1212 4672 
Q 1544 4750 1819 4750 
Q 2544 4750 2975 4387 
Q 3406 4025 3406 3419 
Q 3406 3131 3298 2873 
Q 3191 2616 2906 2266 
Q 2828 2175 2409 1742 
Q 1991 1309 1228 531 
z
" transform="scale(0.015625)"/>
       </defs>
       <use xlink:href="#DejaVuSans-2212"/>
       <use xlink:href="#DejaVuSans-32" x="83.789062"/>
      </g>
     </g>
    </g>
    <g id="xtick_3">
     <g id="line2d_3">
      <g>
       <use xlink:href="#m8bd9402412" x="191.047431" y="307.584" style="stroke: #000000; stroke-width: 0.8"/>
      </g>
     </g>
     <g id="text_3">
      <!-- −1 -->
      <g transform="translate(183.676337 322.182437) scale(0.1 -0.1)">
       <defs>
        <path id="DejaVuSans-31" d="M 794 531 
L 1825 531 
L 1825 4091 
L 703 3866 
L 703 4441 
L 1819 4666 
L 2450 4666 
L 2450 531 
L 3481 531 
L 3481 0 
L 794 0 
L 794 531 
z
" transform="scale(0.015625)"/>
       </defs>
       <use xlink:href="#DejaVuSans-2212"/>
       <use xlink:href="#DejaVuSans-31" x="83.789062"/>
      </g>
     </g>
    </g>
    <g id="xtick_4">
     <g id="line2d_4">
      <g>
       <use xlink:href="#m8bd9402412" x="241.102602" y="307.584" style="stroke: #000000; stroke-width: 0.8"/>
      </g>
     </g>
     <g id="text_4">
      <!-- 0 -->
      <g transform="translate(237.921352 322.182437) scale(0.1 -0.1)">
       <defs>
        <path id="DejaVuSans-30" d="M 2034 4250 
Q 1547 4250 1301 3770 
Q 1056 3291 1056 2328 
Q 1056 1369 1301 889 
Q 1547 409 2034 409 
Q 2525 409 2770 889 
Q 3016 1369 3016 2328 
Q 3016 3291 2770 3770 
Q 2525 4250 2034 4250 
z
M 2034 4750 
Q 2819 4750 3233 4129 
Q 3647 3509 3647 2328 
Q 3647 1150 3233 529 
Q 2819 -91 2034 -91 
Q 1250 -91 836 529 
Q 422 1150 422 2328 
Q 422 3509 836 4129 
Q 1250 4750 2034 4750 
z
" transform="scale(0.015625)"/>
       </defs>
       <use xlink:href="#DejaVuSans-30"/>
      </g>
     </g>
    </g>
    <g id="xtick_5">
     <g id="line2d_5">
      <g>
       <use xlink:href="#m8bd9402412" x="291.157772" y="307.584" style="stroke: #000000; stroke-width: 0.8"/>
      </g>
     </g>
     <g id="text_5">
      <!-- 1 -->
      <g transform="translate(287.976522 322.182437) scale(0.1 -0.1)">
       <use xlink:href="#DejaVuSans-31"/>
      </g>
     </g>
    </g>
    <g id="xtick_6">
     <g id="line2d_6">
      <g>
       <use xlink:href="#m8bd9402412" x="341.212943" y="307.584" style="stroke: #000000; stroke-width: 0.8"/>
      </g>
     </g>
     <g id="text_6">
      <!-- 2 -->
      <g transform="translate(338.031693 322.182437) scale(0.1 -0.1)">
       <use xlink:href="#DejaVuSans-32"/>
      </g>
     </g>
    </g>
    <g id="xtick_7">
     <g id="line2d_7">
      <g>
       <use xlink:href="#m8bd9402412" x="391.268114" y="307.584" style="stroke: #000000; stroke-width: 0.8"/>
      </g>
     </g>
     <g id="text_7">
      <!-- 3 -->
      <g transform="translate(388.086864 322.182437) scale(0.1 -0.1)">
       <use xlink:href="#DejaVuSans-33"/>
      </g>
     </g>
    </g>
   </g>
   <g id="matplotlib.axis_2">
    <g id="ytick_1">
     <g id="line2d_8">
      <defs>
       <path id="m3ae4100609" d="M 0 0 
L -3.5 0 
" style="stroke: #000000; stroke-width: 0.8"/>
      </defs>
      <g>
       <use xlink:href="#m3ae4100609" x="57.6" y="307.584" style="stroke: #000000; stroke-width: 0.8"/>
      </g>
     </g>
     <g id="text_8">
      <!-- 0.0 -->
      <g transform="translate(34.696875 311.383219) scale(0.1 -0.1)">
       <defs>
        <path id="DejaVuSans-2e" d="M 684 794 
L 1344 794 
L 1344 0 
L 684 0 
L 684 794 
z
" transform="scale(0.015625)"/>
       </defs>
       <use xlink:href="#DejaVuSans-30"/>
       <use xlink:href="#DejaVuSans-2e" x="63.623047"/>
       <use xlink:href="#DejaVuSans-30" x="95.410156"/>
      </g>
     </g>
    </g>
    <g id="ytick_2">
     <g id="line2d_9">
      <g>
       <use xlink:href="#m3ae4100609" x="57.6" y="252.246857" style="stroke: #000000; stroke-width: 0.8"/>
      </g>
     </g>
     <g id="text_9">
      <!-- 0.1 -->
      <g transform="translate(34.696875 256.046076) scale(0.1 -0.1)">
       <use xlink:href="#DejaVuSans-30"/>
       <use xlink:href="#DejaVuSans-2e" x="63.623047"/>
       <use xlink:href="#DejaVuSans-31" x="95.410156"/>
      </g>
     </g>
    </g>
    <g id="ytick_3">
     <g id="line2d_10">
      <g>
       <use xlink:href="#m3ae4100609" x="57.6" y="196.909715" style="stroke: #000000; stroke-width: 0.8"/>
      </g>
     </g>
     <g id="text_10">
      <!-- 0.2 -->
      <g transform="translate(34.696875 200.708934) scale(0.1 -0.1)">
       <use xlink:href="#DejaVuSans-30"/>
       <use xlink:href="#DejaVuSans-2e" x="63.623047"/>
       <use xlink:href="#DejaVuSans-32" x="95.410156"/>
      </g>
     </g>
    </g>
    <g id="ytick_4">
     <g id="line2d_11">
      <g>
       <use xlink:href="#m3ae4100609" x="57.6" y="141.572572" style="stroke: #000000; stroke-width: 0.8"/>
      </g>
     </g>
     <g id="text_11">
      <!-- 0.3 -->
      <g transform="translate(34.696875 145.371791) scale(0.1 -0.1)">
       <use xlink:href="#DejaVuSans-30"/>
       <use xlink:href="#DejaVuSans-2e" x="63.623047"/>
       <use xlink:href="#DejaVuSans-33" x="95.410156"/>
      </g>
     </g>
    </g>
    <g id="ytick_5">
     <g id="line2d_12">
      <g>
       <use xlink:href="#m3ae4100609" x="57.6" y="86.23543" style="stroke: #000000; stroke-width: 0.8"/>
      </g>
     </g>
     <g id="text_12">
      <!-- 0.4 -->
      <g transform="translate(34.696875 90.034648) scale(0.1 -0.1)">
       <defs>
        <path id="DejaVuSans-34" d="M 2419 4116 
L 825 1625 
L 2419 1625 
L 2419 4116 
z
M 2253 4666 
L 3047 4666 
L 3047 1625 
L 3713 1625 
L 3713 1100 
L 3047 1100 
L 3047 0 
L 2419 0 
L 2419 1100 
L 313 1100 
L 313 1709 
L 2253 4666 
z
" transform="scale(0.015625)"/>
       </defs>
       <use xlink:href="#DejaVuSans-30"/>
       <use xlink:href="#DejaVuSans-2e" x="63.623047"/>
       <use xlink:href="#DejaVuSans-34" x="95.410156"/>
      </g>
     </g>
    </g>
   </g>
   <g id="patch_123">
    <path d="M 57.6 307.584 
L 57.6 41.472 
" style="fill: none; stroke: #000000; stroke-width: 0.8; stroke-linejoin: miter; stroke-linecap: square"/>
   </g>
   <g id="patch_124">
    <path d="M 414.72 307.584 
L 414.72 41.472 
" style="fill: none; stroke: #000000; stroke-width: 0.8; stroke-linejoin: miter; stroke-linecap: square"/>
   </g>
   <g id="patch_125">
    <path d="M 57.6 307.584 
L 414.72 307.584 
" style="fill: none; stroke: #000000; stroke-width: 0.8; stroke-linejoin: miter; stroke-linecap: square"/>
   </g>
   <g id="patch_126">
    <path d="M 57.6 41.472 
L 414.72 41.472 
" style="fill: none; stroke: #000000; stroke-width: 0.8; stroke-linejoin: miter; stroke-linecap: square"/>
   </g>
   <g id="text_13">
    <!-- GAUSSIANIZED_feature_9 -->
    <g transform="translate(159.26625 35.472) scale(0.12 -0.12)">
     <defs>
      <path id="DejaVuSans-47" d="M 3809 666 
L 3809 1919 
L 2778 1919 
L 2778 2438 
L 4434 2438 
L 4434 434 
Q 4069 175 3628 42 
Q 3188 -91 2688 -91 
Q 1594 -91 976 548 
Q 359 1188 359 2328 
Q 359 3472 976 4111 
Q 1594 4750 2688 4750 
Q 3144 4750 3555 4637 
Q 3966 4525 4313 4306 
L 4313 3634 
Q 3963 3931 3569 4081 
Q 3175 4231 2741 4231 
Q 1884 4231 1454 3753 
Q 1025 3275 1025 2328 
Q 1025 1384 1454 906 
Q 1884 428 2741 428 
Q 3075 428 3337 486 
Q 3600 544 3809 666 
z
" transform="scale(0.015625)"/>
      <path id="DejaVuSans-41" d="M 2188 4044 
L 1331 1722 
L 3047 1722 
L 2188 4044 
z
M 1831 4666 
L 2547 4666 
L 4325 0 
L 3669 0 
L 3244 1197 
L 1141 1197 
L 716 0 
L 50 0 
L 1831 4666 
z
" transform="scale(0.015625)"/>
      <path id="DejaVuSans-55" d="M 556 4666 
L 1191 4666 
L 1191 1831 
Q 1191 1081 1462 751 
Q 1734 422 2344 422 
Q 2950 422 3222 751 
Q 3494 1081 3494 1831 
L 3494 4666 
L 4128 4666 
L 4128 1753 
Q 4128 841 3676 375 
Q 3225 -91 2344 -91 
Q 1459 -91 1007 375 
Q 556 841 556 1753 
L 556 4666 
z
" transform="scale(0.015625)"/>
      <path id="DejaVuSans-53" d="M 3425 4513 
L 3425 3897 
Q 3066 4069 2747 4153 
Q 2428 4238 2131 4238 
Q 1616 4238 1336 4038 
Q 1056 3838 1056 3469 
Q 1056 3159 1242 3001 
Q 1428 2844 1947 2747 
L 2328 2669 
Q 3034 2534 3370 2195 
Q 3706 1856 3706 1288 
Q 3706 609 3251 259 
Q 2797 -91 1919 -91 
Q 1588 -91 1214 -16 
Q 841 59 441 206 
L 441 856 
Q 825 641 1194 531 
Q 1563 422 1919 422 
Q 2459 422 2753 634 
Q 3047 847 3047 1241 
Q 3047 1584 2836 1778 
Q 2625 1972 2144 2069 
L 1759 2144 
Q 1053 2284 737 2584 
Q 422 2884 422 3419 
Q 422 4038 858 4394 
Q 1294 4750 2059 4750 
Q 2388 4750 2728 4690 
Q 3069 4631 3425 4513 
z
" transform="scale(0.015625)"/>
      <path id="DejaVuSans-49" d="M 628 4666 
L 1259 4666 
L 1259 0 
L 628 0 
L 628 4666 
z
" transform="scale(0.015625)"/>
      <path id="DejaVuSans-4e" d="M 628 4666 
L 1478 4666 
L 3547 763 
L 3547 4666 
L 4159 4666 
L 4159 0 
L 3309 0 
L 1241 3903 
L 1241 0 
L 628 0 
L 628 4666 
z
" transform="scale(0.015625)"/>
      <path id="DejaVuSans-5a" d="M 359 4666 
L 4025 4666 
L 4025 4184 
L 1075 531 
L 4097 531 
L 4097 0 
L 288 0 
L 288 481 
L 3238 4134 
L 359 4134 
L 359 4666 
z
" transform="scale(0.015625)"/>
      <path id="DejaVuSans-45" d="M 628 4666 
L 3578 4666 
L 3578 4134 
L 1259 4134 
L 1259 2753 
L 3481 2753 
L 3481 2222 
L 1259 2222 
L 1259 531 
L 3634 531 
L 3634 0 
L 628 0 
L 628 4666 
z
" transform="scale(0.015625)"/>
      <path id="DejaVuSans-44" d="M 1259 4147 
L 1259 519 
L 2022 519 
Q 2988 519 3436 956 
Q 3884 1394 3884 2338 
Q 3884 3275 3436 3711 
Q 2988 4147 2022 4147 
L 1259 4147 
z
M 628 4666 
L 1925 4666 
Q 3281 4666 3915 4102 
Q 4550 3538 4550 2338 
Q 4550 1131 3912 565 
Q 3275 0 1925 0 
L 628 0 
L 628 4666 
z
" transform="scale(0.015625)"/>
      <path id="DejaVuSans-5f" d="M 3263 -1063 
L 3263 -1509 
L -63 -1509 
L -63 -1063 
L 3263 -1063 
z
" transform="scale(0.015625)"/>
      <path id="DejaVuSans-66" d="M 2375 4863 
L 2375 4384 
L 1825 4384 
Q 1516 4384 1395 4259 
Q 1275 4134 1275 3809 
L 1275 3500 
L 2222 3500 
L 2222 3053 
L 1275 3053 
L 1275 0 
L 697 0 
L 697 3053 
L 147 3053 
L 147 3500 
L 697 3500 
L 697 3744 
Q 697 4328 969 4595 
Q 1241 4863 1831 4863 
L 2375 4863 
z
" transform="scale(0.015625)"/>
      <path id="DejaVuSans-65" d="M 3597 1894 
L 3597 1613 
L 953 1613 
Q 991 1019 1311 708 
Q 1631 397 2203 397 
Q 2534 397 2845 478 
Q 3156 559 3463 722 
L 3463 178 
Q 3153 47 2828 -22 
Q 2503 -91 2169 -91 
Q 1331 -91 842 396 
Q 353 884 353 1716 
Q 353 2575 817 3079 
Q 1281 3584 2069 3584 
Q 2775 3584 3186 3129 
Q 3597 2675 3597 1894 
z
M 3022 2063 
Q 3016 2534 2758 2815 
Q 2500 3097 2075 3097 
Q 1594 3097 1305 2825 
Q 1016 2553 972 2059 
L 3022 2063 
z
" transform="scale(0.015625)"/>
      <path id="DejaVuSans-61" d="M 2194 1759 
Q 1497 1759 1228 1600 
Q 959 1441 959 1056 
Q 959 750 1161 570 
Q 1363 391 1709 391 
Q 2188 391 2477 730 
Q 2766 1069 2766 1631 
L 2766 1759 
L 2194 1759 
z
M 3341 1997 
L 3341 0 
L 2766 0 
L 2766 531 
Q 2569 213 2275 61 
Q 1981 -91 1556 -91 
Q 1019 -91 701 211 
Q 384 513 384 1019 
Q 384 1609 779 1909 
Q 1175 2209 1959 2209 
L 2766 2209 
L 2766 2266 
Q 2766 2663 2505 2880 
Q 2244 3097 1772 3097 
Q 1472 3097 1187 3025 
Q 903 2953 641 2809 
L 641 3341 
Q 956 3463 1253 3523 
Q 1550 3584 1831 3584 
Q 2591 3584 2966 3190 
Q 3341 2797 3341 1997 
z
" transform="scale(0.015625)"/>
      <path id="DejaVuSans-74" d="M 1172 4494 
L 1172 3500 
L 2356 3500 
L 2356 3053 
L 1172 3053 
L 1172 1153 
Q 1172 725 1289 603 
Q 1406 481 1766 481 
L 2356 481 
L 2356 0 
L 1766 0 
Q 1100 0 847 248 
Q 594 497 594 1153 
L 594 3053 
L 172 3053 
L 172 3500 
L 594 3500 
L 594 4494 
L 1172 4494 
z
" transform="scale(0.015625)"/>
      <path id="DejaVuSans-75" d="M 544 1381 
L 544 3500 
L 1119 3500 
L 1119 1403 
Q 1119 906 1312 657 
Q 1506 409 1894 409 
Q 2359 409 2629 706 
Q 2900 1003 2900 1516 
L 2900 3500 
L 3475 3500 
L 3475 0 
L 2900 0 
L 2900 538 
Q 2691 219 2414 64 
Q 2138 -91 1772 -91 
Q 1169 -91 856 284 
Q 544 659 544 1381 
z
M 1991 3584 
L 1991 3584 
z
" transform="scale(0.015625)"/>
      <path id="DejaVuSans-72" d="M 2631 2963 
Q 2534 3019 2420 3045 
Q 2306 3072 2169 3072 
Q 1681 3072 1420 2755 
Q 1159 2438 1159 1844 
L 1159 0 
L 581 0 
L 581 3500 
L 1159 3500 
L 1159 2956 
Q 1341 3275 1631 3429 
Q 1922 3584 2338 3584 
Q 2397 3584 2469 3576 
Q 2541 3569 2628 3553 
L 2631 2963 
z
" transform="scale(0.015625)"/>
      <path id="DejaVuSans-39" d="M 703 97 
L 703 672 
Q 941 559 1184 500 
Q 1428 441 1663 441 
Q 2288 441 2617 861 
Q 2947 1281 2994 2138 
Q 2813 1869 2534 1725 
Q 2256 1581 1919 1581 
Q 1219 1581 811 2004 
Q 403 2428 403 3163 
Q 403 3881 828 4315 
Q 1253 4750 1959 4750 
Q 2769 4750 3195 4129 
Q 3622 3509 3622 2328 
Q 3622 1225 3098 567 
Q 2575 -91 1691 -91 
Q 1453 -91 1209 -44 
Q 966 3 703 97 
z
M 1959 2075 
Q 2384 2075 2632 2365 
Q 2881 2656 2881 3163 
Q 2881 3666 2632 3958 
Q 2384 4250 1959 4250 
Q 1534 4250 1286 3958 
Q 1038 3666 1038 3163 
Q 1038 2656 1286 2365 
Q 1534 2075 1959 2075 
z
" transform="scale(0.015625)"/>
     </defs>
     <use xlink:href="#DejaVuSans-47"/>
     <use xlink:href="#DejaVuSans-41" x="77.490234"/>
     <use xlink:href="#DejaVuSans-55" x="145.898438"/>
     <use xlink:href="#DejaVuSans-53" x="219.091797"/>
     <use xlink:href="#DejaVuSans-53" x="282.568359"/>
     <use xlink:href="#DejaVuSans-49" x="346.044922"/>
     <use xlink:href="#DejaVuSans-41" x="375.537109"/>
     <use xlink:href="#DejaVuSans-4e" x="443.945312"/>
     <use xlink:href="#DejaVuSans-49" x="518.75"/>
     <use xlink:href="#DejaVuSans-5a" x="548.242188"/>
     <use xlink:href="#DejaVuSans-45" x="616.748047"/>
     <use xlink:href="#DejaVuSans-44" x="679.931641"/>
     <use xlink:href="#DejaVuSans-5f" x="756.933594"/>
     <use xlink:href="#DejaVuSans-66" x="806.933594"/>
     <use xlink:href="#DejaVuSans-65" x="842.138672"/>
     <use xlink:href="#DejaVuSans-61" x="903.662109"/>
     <use xlink:href="#DejaVuSans-74" x="964.941406"/>
     <use xlink:href="#DejaVuSans-75" x="1004.150391"/>
     <use xlink:href="#DejaVuSans-72" x="1067.529297"/>
     <use xlink:href="#DejaVuSans-65" x="1106.392578"/>
     <use xlink:href="#DejaVuSans-5f" x="1167.916016"/>
     <use xlink:href="#DejaVuSans-39" x="1217.916016"/>
    </g>
   </g>
   <g id="legend_1">
    <g id="patch_127">
     <path d="M 341.246563 78.82825 
L 407.72 78.82825 
Q 409.72 78.82825 409.72 76.82825 
L 409.72 48.472 
Q 409.72 46.472 407.72 46.472 
L 341.246563 46.472 
Q 339.246563 46.472 339.246563 48.472 
L 339.246563 76.82825 
Q 339.246563 78.82825 341.246563 78.82825 
z
" style="fill: #ffffff; opacity: 0.8; stroke: #cccccc; stroke-linejoin: miter"/>
    </g>
    <g id="patch_128">
     <path d="M 343.246563 58.070437 
L 363.246563 58.070437 
L 363.246563 51.070437 
L 343.246563 51.070437 
z
" style="fill: #ff0000; opacity: 0.4; stroke: #000000; stroke-linejoin: miter"/>
    </g>
    <g id="text_14">
     <!-- male -->
     <g transform="translate(371.246563 58.070437) scale(0.1 -0.1)">
      <defs>
       <path id="DejaVuSans-6d" d="M 3328 2828 
Q 3544 3216 3844 3400 
Q 4144 3584 4550 3584 
Q 5097 3584 5394 3201 
Q 5691 2819 5691 2113 
L 5691 0 
L 5113 0 
L 5113 2094 
Q 5113 2597 4934 2840 
Q 4756 3084 4391 3084 
Q 3944 3084 3684 2787 
Q 3425 2491 3425 1978 
L 3425 0 
L 2847 0 
L 2847 2094 
Q 2847 2600 2669 2842 
Q 2491 3084 2119 3084 
Q 1678 3084 1418 2786 
Q 1159 2488 1159 1978 
L 1159 0 
L 581 0 
L 581 3500 
L 1159 3500 
L 1159 2956 
Q 1356 3278 1631 3431 
Q 1906 3584 2284 3584 
Q 2666 3584 2933 3390 
Q 3200 3197 3328 2828 
z
" transform="scale(0.015625)"/>
       <path id="DejaVuSans-6c" d="M 603 4863 
L 1178 4863 
L 1178 0 
L 603 0 
L 603 4863 
z
" transform="scale(0.015625)"/>
      </defs>
      <use xlink:href="#DejaVuSans-6d"/>
      <use xlink:href="#DejaVuSans-61" x="97.412109"/>
      <use xlink:href="#DejaVuSans-6c" x="158.691406"/>
      <use xlink:href="#DejaVuSans-65" x="186.474609"/>
     </g>
    </g>
    <g id="patch_129">
     <path d="M 343.246563 72.748562 
L 363.246563 72.748562 
L 363.246563 65.748562 
L 343.246563 65.748562 
z
" style="fill: #0000ff; opacity: 0.4; stroke: #000000; stroke-linejoin: miter"/>
    </g>
    <g id="text_15">
     <!-- female -->
     <g transform="translate(371.246563 72.748562) scale(0.1 -0.1)">
      <use xlink:href="#DejaVuSans-66"/>
      <use xlink:href="#DejaVuSans-65" x="35.205078"/>
      <use xlink:href="#DejaVuSans-6d" x="96.728516"/>
      <use xlink:href="#DejaVuSans-61" x="194.140625"/>
      <use xlink:href="#DejaVuSans-6c" x="255.419922"/>
      <use xlink:href="#DejaVuSans-65" x="283.203125"/>
     </g>
    </g>
   </g>
  </g>
 </g>
 <defs>
  <clipPath id="pb4ffd6c4b9">
   <rect x="57.6" y="41.472" width="357.12" height="266.112"/>
  </clipPath>
 </defs>
</svg>
