<?xml version="1.0" encoding="utf-8" standalone="no"?>
<!DOCTYPE svg PUBLIC "-//W3C//DTD SVG 1.1//EN"
  "http://www.w3.org/Graphics/SVG/1.1/DTD/svg11.dtd">
<svg xmlns:xlink="http://www.w3.org/1999/xlink" width="460.8pt" height="345.6pt" viewBox="0 0 460.8 345.6" xmlns="http://www.w3.org/2000/svg" version="1.1">
 <metadata>
  <rdf:RDF xmlns:dc="http://purl.org/dc/elements/1.1/" xmlns:cc="http://creativecommons.org/ns#" xmlns:rdf="http://www.w3.org/1999/02/22-rdf-syntax-ns#">
   <cc:Work>
    <dc:type rdf:resource="http://purl.org/dc/dcmitype/StillImage"/>
    <dc:date>2023-06-02T11:46:54.250366</dc:date>
    <dc:format>image/svg+xml</dc:format>
    <dc:creator>
     <cc:Agent>
      <dc:title>Matplotlib v3.7.0, https://matplotlib.org/</dc:title>
     </cc:Agent>
    </dc:creator>
   </cc:Work>
  </rdf:RDF>
 </metadata>
 <defs>
  <style type="text/css">*{stroke-linejoin: round; stroke-linecap: butt}</style>
 </defs>
 <g id="figure_1">
  <g id="patch_1">
   <path d="M 0 345.6 
L 460.8 345.6 
L 460.8 0 
L 0 0 
z
" style="fill: #ffffff"/>
  </g>
  <g id="axes_1">
   <g id="patch_2">
    <path d="M 57.6 307.584 
L 414.72 307.584 
L 414.72 41.472 
L 57.6 41.472 
z
" style="fill: #ffffff"/>
   </g>
   <g id="patch_3">
    <path d="M 73.832727 307.584 
L 78.962558 307.584 
L 78.962558 299.904 
L 73.832727 299.904 
z
" clip-path="url(#p53c8b421ea)" style="fill: #ff0000; opacity: 0.4; stroke: #000000; stroke-linejoin: miter"/>
   </g>
   <g id="patch_4">
    <path d="M 78.962558 307.584 
L 84.092389 307.584 
L 84.092389 307.584 
L 78.962558 307.584 
z
" clip-path="url(#p53c8b421ea)" style="fill: #ff0000; opacity: 0.4; stroke: #000000; stroke-linejoin: miter"/>
   </g>
   <g id="patch_5">
    <path d="M 84.092389 307.584 
L 89.22222 307.584 
L 89.22222 307.584 
L 84.092389 307.584 
z
" clip-path="url(#p53c8b421ea)" style="fill: #ff0000; opacity: 0.4; stroke: #000000; stroke-linejoin: miter"/>
   </g>
   <g id="patch_6">
    <path d="M 89.22222 307.584 
L 94.352051 307.584 
L 94.352051 299.904 
L 89.22222 299.904 
z
" clip-path="url(#p53c8b421ea)" style="fill: #ff0000; opacity: 0.4; stroke: #000000; stroke-linejoin: miter"/>
   </g>
   <g id="patch_7">
    <path d="M 94.352051 307.584 
L 99.481882 307.584 
L 99.481882 307.584 
L 94.352051 307.584 
z
" clip-path="url(#p53c8b421ea)" style="fill: #ff0000; opacity: 0.4; stroke: #000000; stroke-linejoin: miter"/>
   </g>
   <g id="patch_8">
    <path d="M 99.481882 307.584 
L 104.611713 307.584 
L 104.611713 307.584 
L 99.481882 307.584 
z
" clip-path="url(#p53c8b421ea)" style="fill: #ff0000; opacity: 0.4; stroke: #000000; stroke-linejoin: miter"/>
   </g>
   <g id="patch_9">
    <path d="M 104.611713 307.584 
L 109.741544 307.584 
L 109.741544 299.904 
L 104.611713 299.904 
z
" clip-path="url(#p53c8b421ea)" style="fill: #ff0000; opacity: 0.4; stroke: #000000; stroke-linejoin: miter"/>
   </g>
   <g id="patch_10">
    <path d="M 109.741544 307.584 
L 114.871375 307.584 
L 114.871375 299.904 
L 109.741544 299.904 
z
" clip-path="url(#p53c8b421ea)" style="fill: #ff0000; opacity: 0.4; stroke: #000000; stroke-linejoin: miter"/>
   </g>
   <g id="patch_11">
    <path d="M 114.871375 307.584 
L 120.001206 307.584 
L 120.001206 299.904 
L 114.871375 299.904 
z
" clip-path="url(#p53c8b421ea)" style="fill: #ff0000; opacity: 0.4; stroke: #000000; stroke-linejoin: miter"/>
   </g>
   <g id="patch_12">
    <path d="M 120.001206 307.584 
L 125.131037 307.584 
L 125.131037 292.224 
L 120.001206 292.224 
z
" clip-path="url(#p53c8b421ea)" style="fill: #ff0000; opacity: 0.4; stroke: #000000; stroke-linejoin: miter"/>
   </g>
   <g id="patch_13">
    <path d="M 125.131037 307.584 
L 130.260868 307.584 
L 130.260868 284.544 
L 125.131037 284.544 
z
" clip-path="url(#p53c8b421ea)" style="fill: #ff0000; opacity: 0.4; stroke: #000000; stroke-linejoin: miter"/>
   </g>
   <g id="patch_14">
    <path d="M 130.260868 307.584 
L 135.390699 307.584 
L 135.390699 284.544 
L 130.260868 284.544 
z
" clip-path="url(#p53c8b421ea)" style="fill: #ff0000; opacity: 0.4; stroke: #000000; stroke-linejoin: miter"/>
   </g>
   <g id="patch_15">
    <path d="M 135.390699 307.584 
L 140.52053 307.584 
L 140.52053 284.544 
L 135.390699 284.544 
z
" clip-path="url(#p53c8b421ea)" style="fill: #ff0000; opacity: 0.4; stroke: #000000; stroke-linejoin: miter"/>
   </g>
   <g id="patch_16">
    <path d="M 140.52053 307.584 
L 145.650361 307.584 
L 145.650361 269.184 
L 140.52053 269.184 
z
" clip-path="url(#p53c8b421ea)" style="fill: #ff0000; opacity: 0.4; stroke: #000000; stroke-linejoin: miter"/>
   </g>
   <g id="patch_17">
    <path d="M 145.650361 307.584 
L 150.780192 307.584 
L 150.780192 253.824 
L 145.650361 253.824 
z
" clip-path="url(#p53c8b421ea)" style="fill: #ff0000; opacity: 0.4; stroke: #000000; stroke-linejoin: miter"/>
   </g>
   <g id="patch_18">
    <path d="M 150.780192 307.584 
L 155.910023 307.584 
L 155.910023 269.184 
L 150.780192 269.184 
z
" clip-path="url(#p53c8b421ea)" style="fill: #ff0000; opacity: 0.4; stroke: #000000; stroke-linejoin: miter"/>
   </g>
   <g id="patch_19">
    <path d="M 155.910023 307.584 
L 161.039854 307.584 
L 161.039854 230.784 
L 155.910023 230.784 
z
" clip-path="url(#p53c8b421ea)" style="fill: #ff0000; opacity: 0.4; stroke: #000000; stroke-linejoin: miter"/>
   </g>
   <g id="patch_20">
    <path d="M 161.039854 307.584 
L 166.169685 307.584 
L 166.169685 200.064 
L 161.039854 200.064 
z
" clip-path="url(#p53c8b421ea)" style="fill: #ff0000; opacity: 0.4; stroke: #000000; stroke-linejoin: miter"/>
   </g>
   <g id="patch_21">
    <path d="M 166.169685 307.584 
L 171.299516 307.584 
L 171.299516 230.784 
L 166.169685 230.784 
z
" clip-path="url(#p53c8b421ea)" style="fill: #ff0000; opacity: 0.4; stroke: #000000; stroke-linejoin: miter"/>
   </g>
   <g id="patch_22">
    <path d="M 171.299516 307.584 
L 176.429347 307.584 
L 176.429347 238.464 
L 171.299516 238.464 
z
" clip-path="url(#p53c8b421ea)" style="fill: #ff0000; opacity: 0.4; stroke: #000000; stroke-linejoin: miter"/>
   </g>
   <g id="patch_23">
    <path d="M 176.429347 307.584 
L 181.559178 307.584 
L 181.559178 215.424 
L 176.429347 215.424 
z
" clip-path="url(#p53c8b421ea)" style="fill: #ff0000; opacity: 0.4; stroke: #000000; stroke-linejoin: miter"/>
   </g>
   <g id="patch_24">
    <path d="M 181.559178 307.584 
L 186.689009 307.584 
L 186.689009 192.384 
L 181.559178 192.384 
z
" clip-path="url(#p53c8b421ea)" style="fill: #ff0000; opacity: 0.4; stroke: #000000; stroke-linejoin: miter"/>
   </g>
   <g id="patch_25">
    <path d="M 186.689009 307.584 
L 191.81884 307.584 
L 191.81884 207.744 
L 186.689009 207.744 
z
" clip-path="url(#p53c8b421ea)" style="fill: #ff0000; opacity: 0.4; stroke: #000000; stroke-linejoin: miter"/>
   </g>
   <g id="patch_26">
    <path d="M 191.81884 307.584 
L 196.948671 307.584 
L 196.948671 161.664 
L 191.81884 161.664 
z
" clip-path="url(#p53c8b421ea)" style="fill: #ff0000; opacity: 0.4; stroke: #000000; stroke-linejoin: miter"/>
   </g>
   <g id="patch_27">
    <path d="M 196.948671 307.584 
L 202.078502 307.584 
L 202.078502 115.584 
L 196.948671 115.584 
z
" clip-path="url(#p53c8b421ea)" style="fill: #ff0000; opacity: 0.4; stroke: #000000; stroke-linejoin: miter"/>
   </g>
   <g id="patch_28">
    <path d="M 202.078502 307.584 
L 207.208333 307.584 
L 207.208333 123.264 
L 202.078502 123.264 
z
" clip-path="url(#p53c8b421ea)" style="fill: #ff0000; opacity: 0.4; stroke: #000000; stroke-linejoin: miter"/>
   </g>
   <g id="patch_29">
    <path d="M 207.208333 307.584 
L 212.338164 307.584 
L 212.338164 84.864 
L 207.208333 84.864 
z
" clip-path="url(#p53c8b421ea)" style="fill: #ff0000; opacity: 0.4; stroke: #000000; stroke-linejoin: miter"/>
   </g>
   <g id="patch_30">
    <path d="M 212.338164 307.584 
L 217.467995 307.584 
L 217.467995 115.584 
L 212.338164 115.584 
z
" clip-path="url(#p53c8b421ea)" style="fill: #ff0000; opacity: 0.4; stroke: #000000; stroke-linejoin: miter"/>
   </g>
   <g id="patch_31">
    <path d="M 217.467995 307.584 
L 222.597826 307.584 
L 222.597826 107.904 
L 217.467995 107.904 
z
" clip-path="url(#p53c8b421ea)" style="fill: #ff0000; opacity: 0.4; stroke: #000000; stroke-linejoin: miter"/>
   </g>
   <g id="patch_32">
    <path d="M 222.597826 307.584 
L 227.727657 307.584 
L 227.727657 115.584 
L 222.597826 115.584 
z
" clip-path="url(#p53c8b421ea)" style="fill: #ff0000; opacity: 0.4; stroke: #000000; stroke-linejoin: miter"/>
   </g>
   <g id="patch_33">
    <path d="M 227.727657 307.584 
L 232.857488 307.584 
L 232.857488 84.864 
L 227.727657 84.864 
z
" clip-path="url(#p53c8b421ea)" style="fill: #ff0000; opacity: 0.4; stroke: #000000; stroke-linejoin: miter"/>
   </g>
   <g id="patch_34">
    <path d="M 232.857488 307.584 
L 237.987319 307.584 
L 237.987319 61.824 
L 232.857488 61.824 
z
" clip-path="url(#p53c8b421ea)" style="fill: #ff0000; opacity: 0.4; stroke: #000000; stroke-linejoin: miter"/>
   </g>
   <g id="patch_35">
    <path d="M 237.987319 307.584 
L 243.11715 307.584 
L 243.11715 54.144 
L 237.987319 54.144 
z
" clip-path="url(#p53c8b421ea)" style="fill: #ff0000; opacity: 0.4; stroke: #000000; stroke-linejoin: miter"/>
   </g>
   <g id="patch_36">
    <path d="M 243.11715 307.584 
L 248.246981 307.584 
L 248.246981 153.984 
L 243.11715 153.984 
z
" clip-path="url(#p53c8b421ea)" style="fill: #ff0000; opacity: 0.4; stroke: #000000; stroke-linejoin: miter"/>
   </g>
   <g id="patch_37">
    <path d="M 248.246981 307.584 
L 253.376812 307.584 
L 253.376812 69.504 
L 248.246981 69.504 
z
" clip-path="url(#p53c8b421ea)" style="fill: #ff0000; opacity: 0.4; stroke: #000000; stroke-linejoin: miter"/>
   </g>
   <g id="patch_38">
    <path d="M 253.376812 307.584 
L 258.506643 307.584 
L 258.506643 77.184 
L 253.376812 77.184 
z
" clip-path="url(#p53c8b421ea)" style="fill: #ff0000; opacity: 0.4; stroke: #000000; stroke-linejoin: miter"/>
   </g>
   <g id="patch_39">
    <path d="M 258.506643 307.584 
L 263.636474 307.584 
L 263.636474 107.904 
L 258.506643 107.904 
z
" clip-path="url(#p53c8b421ea)" style="fill: #ff0000; opacity: 0.4; stroke: #000000; stroke-linejoin: miter"/>
   </g>
   <g id="patch_40">
    <path d="M 263.636474 307.584 
L 268.766305 307.584 
L 268.766305 123.264 
L 263.636474 123.264 
z
" clip-path="url(#p53c8b421ea)" style="fill: #ff0000; opacity: 0.4; stroke: #000000; stroke-linejoin: miter"/>
   </g>
   <g id="patch_41">
    <path d="M 268.766305 307.584 
L 273.896136 307.584 
L 273.896136 92.544 
L 268.766305 92.544 
z
" clip-path="url(#p53c8b421ea)" style="fill: #ff0000; opacity: 0.4; stroke: #000000; stroke-linejoin: miter"/>
   </g>
   <g id="patch_42">
    <path d="M 273.896136 307.584 
L 279.025967 307.584 
L 279.025967 177.024 
L 273.896136 177.024 
z
" clip-path="url(#p53c8b421ea)" style="fill: #ff0000; opacity: 0.4; stroke: #000000; stroke-linejoin: miter"/>
   </g>
   <g id="patch_43">
    <path d="M 279.025967 307.584 
L 284.155798 307.584 
L 284.155798 123.264 
L 279.025967 123.264 
z
" clip-path="url(#p53c8b421ea)" style="fill: #ff0000; opacity: 0.4; stroke: #000000; stroke-linejoin: miter"/>
   </g>
   <g id="patch_44">
    <path d="M 284.155798 307.584 
L 289.285629 307.584 
L 289.285629 215.424 
L 284.155798 215.424 
z
" clip-path="url(#p53c8b421ea)" style="fill: #ff0000; opacity: 0.4; stroke: #000000; stroke-linejoin: miter"/>
   </g>
   <g id="patch_45">
    <path d="M 289.285629 307.584 
L 294.41546 307.584 
L 294.41546 192.384 
L 289.285629 192.384 
z
" clip-path="url(#p53c8b421ea)" style="fill: #ff0000; opacity: 0.4; stroke: #000000; stroke-linejoin: miter"/>
   </g>
   <g id="patch_46">
    <path d="M 294.41546 307.584 
L 299.545291 307.584 
L 299.545291 200.064 
L 294.41546 200.064 
z
" clip-path="url(#p53c8b421ea)" style="fill: #ff0000; opacity: 0.4; stroke: #000000; stroke-linejoin: miter"/>
   </g>
   <g id="patch_47">
    <path d="M 299.545291 307.584 
L 304.675122 307.584 
L 304.675122 169.344 
L 299.545291 169.344 
z
" clip-path="url(#p53c8b421ea)" style="fill: #ff0000; opacity: 0.4; stroke: #000000; stroke-linejoin: miter"/>
   </g>
   <g id="patch_48">
    <path d="M 304.675122 307.584 
L 309.804953 307.584 
L 309.804953 184.704 
L 304.675122 184.704 
z
" clip-path="url(#p53c8b421ea)" style="fill: #ff0000; opacity: 0.4; stroke: #000000; stroke-linejoin: miter"/>
   </g>
   <g id="patch_49">
    <path d="M 309.804953 307.584 
L 314.934784 307.584 
L 314.934784 223.104 
L 309.804953 223.104 
z
" clip-path="url(#p53c8b421ea)" style="fill: #ff0000; opacity: 0.4; stroke: #000000; stroke-linejoin: miter"/>
   </g>
   <g id="patch_50">
    <path d="M 314.934784 307.584 
L 320.064615 307.584 
L 320.064615 246.144 
L 314.934784 246.144 
z
" clip-path="url(#p53c8b421ea)" style="fill: #ff0000; opacity: 0.4; stroke: #000000; stroke-linejoin: miter"/>
   </g>
   <g id="patch_51">
    <path d="M 320.064615 307.584 
L 325.194446 307.584 
L 325.194446 253.824 
L 320.064615 253.824 
z
" clip-path="url(#p53c8b421ea)" style="fill: #ff0000; opacity: 0.4; stroke: #000000; stroke-linejoin: miter"/>
   </g>
   <g id="patch_52">
    <path d="M 325.194446 307.584 
L 330.324277 307.584 
L 330.324277 223.104 
L 325.194446 223.104 
z
" clip-path="url(#p53c8b421ea)" style="fill: #ff0000; opacity: 0.4; stroke: #000000; stroke-linejoin: miter"/>
   </g>
   <g id="patch_53">
    <path d="M 330.324277 307.584 
L 335.454108 307.584 
L 335.454108 276.864 
L 330.324277 276.864 
z
" clip-path="url(#p53c8b421ea)" style="fill: #ff0000; opacity: 0.4; stroke: #000000; stroke-linejoin: miter"/>
   </g>
   <g id="patch_54">
    <path d="M 335.454108 307.584 
L 340.583939 307.584 
L 340.583939 253.824 
L 335.454108 253.824 
z
" clip-path="url(#p53c8b421ea)" style="fill: #ff0000; opacity: 0.4; stroke: #000000; stroke-linejoin: miter"/>
   </g>
   <g id="patch_55">
    <path d="M 340.583939 307.584 
L 345.71377 307.584 
L 345.71377 292.224 
L 340.583939 292.224 
z
" clip-path="url(#p53c8b421ea)" style="fill: #ff0000; opacity: 0.4; stroke: #000000; stroke-linejoin: miter"/>
   </g>
   <g id="patch_56">
    <path d="M 345.71377 307.584 
L 350.843601 307.584 
L 350.843601 299.904 
L 345.71377 299.904 
z
" clip-path="url(#p53c8b421ea)" style="fill: #ff0000; opacity: 0.4; stroke: #000000; stroke-linejoin: miter"/>
   </g>
   <g id="patch_57">
    <path d="M 350.843601 307.584 
L 355.973432 307.584 
L 355.973432 292.224 
L 350.843601 292.224 
z
" clip-path="url(#p53c8b421ea)" style="fill: #ff0000; opacity: 0.4; stroke: #000000; stroke-linejoin: miter"/>
   </g>
   <g id="patch_58">
    <path d="M 355.973432 307.584 
L 361.103263 307.584 
L 361.103263 292.224 
L 355.973432 292.224 
z
" clip-path="url(#p53c8b421ea)" style="fill: #ff0000; opacity: 0.4; stroke: #000000; stroke-linejoin: miter"/>
   </g>
   <g id="patch_59">
    <path d="M 361.103263 307.584 
L 366.233094 307.584 
L 366.233094 284.544 
L 361.103263 284.544 
z
" clip-path="url(#p53c8b421ea)" style="fill: #ff0000; opacity: 0.4; stroke: #000000; stroke-linejoin: miter"/>
   </g>
   <g id="patch_60">
    <path d="M 366.233094 307.584 
L 371.362925 307.584 
L 371.362925 292.224 
L 366.233094 292.224 
z
" clip-path="url(#p53c8b421ea)" style="fill: #ff0000; opacity: 0.4; stroke: #000000; stroke-linejoin: miter"/>
   </g>
   <g id="patch_61">
    <path d="M 371.362925 307.584 
L 376.492756 307.584 
L 376.492756 307.584 
L 371.362925 307.584 
z
" clip-path="url(#p53c8b421ea)" style="fill: #ff0000; opacity: 0.4; stroke: #000000; stroke-linejoin: miter"/>
   </g>
   <g id="patch_62">
    <path d="M 376.492756 307.584 
L 381.622587 307.584 
L 381.622587 292.224 
L 376.492756 292.224 
z
" clip-path="url(#p53c8b421ea)" style="fill: #ff0000; opacity: 0.4; stroke: #000000; stroke-linejoin: miter"/>
   </g>
   <g id="patch_63">
    <path d="M 83.71793 307.584 
L 88.964086 307.584 
L 88.964086 304.365553 
L 83.71793 304.365553 
z
" clip-path="url(#p53c8b421ea)" style="fill: #0000ff; opacity: 0.4; stroke: #000000; stroke-linejoin: miter"/>
   </g>
   <g id="patch_64">
    <path d="M 88.964086 307.584 
L 94.210242 307.584 
L 94.210242 304.365553 
L 88.964086 304.365553 
z
" clip-path="url(#p53c8b421ea)" style="fill: #0000ff; opacity: 0.4; stroke: #000000; stroke-linejoin: miter"/>
   </g>
   <g id="patch_65">
    <path d="M 94.210242 307.584 
L 99.456398 307.584 
L 99.456398 304.365553 
L 94.210242 304.365553 
z
" clip-path="url(#p53c8b421ea)" style="fill: #0000ff; opacity: 0.4; stroke: #000000; stroke-linejoin: miter"/>
   </g>
   <g id="patch_66">
    <path d="M 99.456398 307.584 
L 104.702553 307.584 
L 104.702553 301.147107 
L 99.456398 301.147107 
z
" clip-path="url(#p53c8b421ea)" style="fill: #0000ff; opacity: 0.4; stroke: #000000; stroke-linejoin: miter"/>
   </g>
   <g id="patch_67">
    <path d="M 104.702553 307.584 
L 109.948709 307.584 
L 109.948709 301.147107 
L 104.702553 301.147107 
z
" clip-path="url(#p53c8b421ea)" style="fill: #0000ff; opacity: 0.4; stroke: #000000; stroke-linejoin: miter"/>
   </g>
   <g id="patch_68">
    <path d="M 109.948709 307.584 
L 115.194865 307.584 
L 115.194865 297.92866 
L 109.948709 297.92866 
z
" clip-path="url(#p53c8b421ea)" style="fill: #0000ff; opacity: 0.4; stroke: #000000; stroke-linejoin: miter"/>
   </g>
   <g id="patch_69">
    <path d="M 115.194865 307.584 
L 120.44102 307.584 
L 120.44102 294.710213 
L 115.194865 294.710213 
z
" clip-path="url(#p53c8b421ea)" style="fill: #0000ff; opacity: 0.4; stroke: #000000; stroke-linejoin: miter"/>
   </g>
   <g id="patch_70">
    <path d="M 120.44102 307.584 
L 125.687176 307.584 
L 125.687176 297.92866 
L 120.44102 297.92866 
z
" clip-path="url(#p53c8b421ea)" style="fill: #0000ff; opacity: 0.4; stroke: #000000; stroke-linejoin: miter"/>
   </g>
   <g id="patch_71">
    <path d="M 125.687176 307.584 
L 130.933332 307.584 
L 130.933332 288.27332 
L 125.687176 288.27332 
z
" clip-path="url(#p53c8b421ea)" style="fill: #0000ff; opacity: 0.4; stroke: #000000; stroke-linejoin: miter"/>
   </g>
   <g id="patch_72">
    <path d="M 130.933332 307.584 
L 136.179487 307.584 
L 136.179487 285.054873 
L 130.933332 285.054873 
z
" clip-path="url(#p53c8b421ea)" style="fill: #0000ff; opacity: 0.4; stroke: #000000; stroke-linejoin: miter"/>
   </g>
   <g id="patch_73">
    <path d="M 136.179487 307.584 
L 141.425643 307.584 
L 141.425643 281.836427 
L 136.179487 281.836427 
z
" clip-path="url(#p53c8b421ea)" style="fill: #0000ff; opacity: 0.4; stroke: #000000; stroke-linejoin: miter"/>
   </g>
   <g id="patch_74">
    <path d="M 141.425643 307.584 
L 146.671799 307.584 
L 146.671799 272.181087 
L 141.425643 272.181087 
z
" clip-path="url(#p53c8b421ea)" style="fill: #0000ff; opacity: 0.4; stroke: #000000; stroke-linejoin: miter"/>
   </g>
   <g id="patch_75">
    <path d="M 146.671799 307.584 
L 151.917955 307.584 
L 151.917955 268.96264 
L 146.671799 268.96264 
z
" clip-path="url(#p53c8b421ea)" style="fill: #0000ff; opacity: 0.4; stroke: #000000; stroke-linejoin: miter"/>
   </g>
   <g id="patch_76">
    <path d="M 151.917955 307.584 
L 157.16411 307.584 
L 157.16411 252.870407 
L 151.917955 252.870407 
z
" clip-path="url(#p53c8b421ea)" style="fill: #0000ff; opacity: 0.4; stroke: #000000; stroke-linejoin: miter"/>
   </g>
   <g id="patch_77">
    <path d="M 157.16411 307.584 
L 162.410266 307.584 
L 162.410266 256.088853 
L 157.16411 256.088853 
z
" clip-path="url(#p53c8b421ea)" style="fill: #0000ff; opacity: 0.4; stroke: #000000; stroke-linejoin: miter"/>
   </g>
   <g id="patch_78">
    <path d="M 162.410266 307.584 
L 167.656422 307.584 
L 167.656422 249.65196 
L 162.410266 249.65196 
z
" clip-path="url(#p53c8b421ea)" style="fill: #0000ff; opacity: 0.4; stroke: #000000; stroke-linejoin: miter"/>
   </g>
   <g id="patch_79">
    <path d="M 167.656422 307.584 
L 172.902577 307.584 
L 172.902577 223.904387 
L 167.656422 223.904387 
z
" clip-path="url(#p53c8b421ea)" style="fill: #0000ff; opacity: 0.4; stroke: #000000; stroke-linejoin: miter"/>
   </g>
   <g id="patch_80">
    <path d="M 172.902577 307.584 
L 178.148733 307.584 
L 178.148733 204.593707 
L 172.902577 204.593707 
z
" clip-path="url(#p53c8b421ea)" style="fill: #0000ff; opacity: 0.4; stroke: #000000; stroke-linejoin: miter"/>
   </g>
   <g id="patch_81">
    <path d="M 178.148733 307.584 
L 183.394889 307.584 
L 183.394889 198.156814 
L 178.148733 198.156814 
z
" clip-path="url(#p53c8b421ea)" style="fill: #0000ff; opacity: 0.4; stroke: #000000; stroke-linejoin: miter"/>
   </g>
   <g id="patch_82">
    <path d="M 183.394889 307.584 
L 188.641045 307.584 
L 188.641045 169.190794 
L 183.394889 169.190794 
z
" clip-path="url(#p53c8b421ea)" style="fill: #0000ff; opacity: 0.4; stroke: #000000; stroke-linejoin: miter"/>
   </g>
   <g id="patch_83">
    <path d="M 188.641045 307.584 
L 193.8872 307.584 
L 193.8872 165.972347 
L 188.641045 165.972347 
z
" clip-path="url(#p53c8b421ea)" style="fill: #0000ff; opacity: 0.4; stroke: #000000; stroke-linejoin: miter"/>
   </g>
   <g id="patch_84">
    <path d="M 193.8872 307.584 
L 199.133356 307.584 
L 199.133356 165.972347 
L 193.8872 165.972347 
z
" clip-path="url(#p53c8b421ea)" style="fill: #0000ff; opacity: 0.4; stroke: #000000; stroke-linejoin: miter"/>
   </g>
   <g id="patch_85">
    <path d="M 199.133356 307.584 
L 204.379512 307.584 
L 204.379512 149.880114 
L 199.133356 149.880114 
z
" clip-path="url(#p53c8b421ea)" style="fill: #0000ff; opacity: 0.4; stroke: #000000; stroke-linejoin: miter"/>
   </g>
   <g id="patch_86">
    <path d="M 204.379512 307.584 
L 209.625667 307.584 
L 209.625667 153.09856 
L 204.379512 153.09856 
z
" clip-path="url(#p53c8b421ea)" style="fill: #0000ff; opacity: 0.4; stroke: #000000; stroke-linejoin: miter"/>
   </g>
   <g id="patch_87">
    <path d="M 209.625667 307.584 
L 214.871823 307.584 
L 214.871823 91.948074 
L 209.625667 91.948074 
z
" clip-path="url(#p53c8b421ea)" style="fill: #0000ff; opacity: 0.4; stroke: #000000; stroke-linejoin: miter"/>
   </g>
   <g id="patch_88">
    <path d="M 214.871823 307.584 
L 220.117979 307.584 
L 220.117979 111.258754 
L 214.871823 111.258754 
z
" clip-path="url(#p53c8b421ea)" style="fill: #0000ff; opacity: 0.4; stroke: #000000; stroke-linejoin: miter"/>
   </g>
   <g id="patch_89">
    <path d="M 220.117979 307.584 
L 225.364134 307.584 
L 225.364134 91.948074 
L 220.117979 91.948074 
z
" clip-path="url(#p53c8b421ea)" style="fill: #0000ff; opacity: 0.4; stroke: #000000; stroke-linejoin: miter"/>
   </g>
   <g id="patch_90">
    <path d="M 225.364134 307.584 
L 230.61029 307.584 
L 230.61029 88.729627 
L 225.364134 88.729627 
z
" clip-path="url(#p53c8b421ea)" style="fill: #0000ff; opacity: 0.4; stroke: #000000; stroke-linejoin: miter"/>
   </g>
   <g id="patch_91">
    <path d="M 230.61029 307.584 
L 235.856446 307.584 
L 235.856446 75.855841 
L 230.61029 75.855841 
z
" clip-path="url(#p53c8b421ea)" style="fill: #0000ff; opacity: 0.4; stroke: #000000; stroke-linejoin: miter"/>
   </g>
   <g id="patch_92">
    <path d="M 235.856446 307.584 
L 241.102602 307.584 
L 241.102602 104.821861 
L 235.856446 104.821861 
z
" clip-path="url(#p53c8b421ea)" style="fill: #0000ff; opacity: 0.4; stroke: #000000; stroke-linejoin: miter"/>
   </g>
   <g id="patch_93">
    <path d="M 241.102602 307.584 
L 246.348757 307.584 
L 246.348757 69.418947 
L 241.102602 69.418947 
z
" clip-path="url(#p53c8b421ea)" style="fill: #0000ff; opacity: 0.4; stroke: #000000; stroke-linejoin: miter"/>
   </g>
   <g id="patch_94">
    <path d="M 246.348757 307.584 
L 251.594913 307.584 
L 251.594913 72.637394 
L 246.348757 72.637394 
z
" clip-path="url(#p53c8b421ea)" style="fill: #0000ff; opacity: 0.4; stroke: #000000; stroke-linejoin: miter"/>
   </g>
   <g id="patch_95">
    <path d="M 251.594913 307.584 
L 256.841069 307.584 
L 256.841069 101.603414 
L 251.594913 101.603414 
z
" clip-path="url(#p53c8b421ea)" style="fill: #0000ff; opacity: 0.4; stroke: #000000; stroke-linejoin: miter"/>
   </g>
   <g id="patch_96">
    <path d="M 256.841069 307.584 
L 262.087224 307.584 
L 262.087224 82.292734 
L 256.841069 82.292734 
z
" clip-path="url(#p53c8b421ea)" style="fill: #0000ff; opacity: 0.4; stroke: #000000; stroke-linejoin: miter"/>
   </g>
   <g id="patch_97">
    <path d="M 262.087224 307.584 
L 267.33338 307.584 
L 267.33338 114.477201 
L 262.087224 114.477201 
z
" clip-path="url(#p53c8b421ea)" style="fill: #0000ff; opacity: 0.4; stroke: #000000; stroke-linejoin: miter"/>
   </g>
   <g id="patch_98">
    <path d="M 267.33338 307.584 
L 272.579536 307.584 
L 272.579536 127.350987 
L 267.33338 127.350987 
z
" clip-path="url(#p53c8b421ea)" style="fill: #0000ff; opacity: 0.4; stroke: #000000; stroke-linejoin: miter"/>
   </g>
   <g id="patch_99">
    <path d="M 272.579536 307.584 
L 277.825692 307.584 
L 277.825692 104.821861 
L 272.579536 104.821861 
z
" clip-path="url(#p53c8b421ea)" style="fill: #0000ff; opacity: 0.4; stroke: #000000; stroke-linejoin: miter"/>
   </g>
   <g id="patch_100">
    <path d="M 277.825692 307.584 
L 283.071847 307.584 
L 283.071847 140.224774 
L 277.825692 140.224774 
z
" clip-path="url(#p53c8b421ea)" style="fill: #0000ff; opacity: 0.4; stroke: #000000; stroke-linejoin: miter"/>
   </g>
   <g id="patch_101">
    <path d="M 283.071847 307.584 
L 288.318003 307.584 
L 288.318003 140.224774 
L 283.071847 140.224774 
z
" clip-path="url(#p53c8b421ea)" style="fill: #0000ff; opacity: 0.4; stroke: #000000; stroke-linejoin: miter"/>
   </g>
   <g id="patch_102">
    <path d="M 288.318003 307.584 
L 293.564159 307.584 
L 293.564159 156.317007 
L 288.318003 156.317007 
z
" clip-path="url(#p53c8b421ea)" style="fill: #0000ff; opacity: 0.4; stroke: #000000; stroke-linejoin: miter"/>
   </g>
   <g id="patch_103">
    <path d="M 293.564159 307.584 
L 298.810314 307.584 
L 298.810314 182.06458 
L 293.564159 182.06458 
z
" clip-path="url(#p53c8b421ea)" style="fill: #0000ff; opacity: 0.4; stroke: #000000; stroke-linejoin: miter"/>
   </g>
   <g id="patch_104">
    <path d="M 298.810314 307.584 
L 304.05647 307.584 
L 304.05647 204.593707 
L 298.810314 204.593707 
z
" clip-path="url(#p53c8b421ea)" style="fill: #0000ff; opacity: 0.4; stroke: #000000; stroke-linejoin: miter"/>
   </g>
   <g id="patch_105">
    <path d="M 304.05647 307.584 
L 309.302626 307.584 
L 309.302626 223.904387 
L 304.05647 223.904387 
z
" clip-path="url(#p53c8b421ea)" style="fill: #0000ff; opacity: 0.4; stroke: #000000; stroke-linejoin: miter"/>
   </g>
   <g id="patch_106">
    <path d="M 309.302626 307.584 
L 314.548781 307.584 
L 314.548781 223.904387 
L 309.302626 223.904387 
z
" clip-path="url(#p53c8b421ea)" style="fill: #0000ff; opacity: 0.4; stroke: #000000; stroke-linejoin: miter"/>
   </g>
   <g id="patch_107">
    <path d="M 314.548781 307.584 
L 319.794937 307.584 
L 319.794937 239.99662 
L 314.548781 239.99662 
z
" clip-path="url(#p53c8b421ea)" style="fill: #0000ff; opacity: 0.4; stroke: #000000; stroke-linejoin: miter"/>
   </g>
   <g id="patch_108">
    <path d="M 319.794937 307.584 
L 325.041093 307.584 
L 325.041093 243.215067 
L 319.794937 243.215067 
z
" clip-path="url(#p53c8b421ea)" style="fill: #0000ff; opacity: 0.4; stroke: #000000; stroke-linejoin: miter"/>
   </g>
   <g id="patch_109">
    <path d="M 325.041093 307.584 
L 330.287249 307.584 
L 330.287249 268.96264 
L 325.041093 268.96264 
z
" clip-path="url(#p53c8b421ea)" style="fill: #0000ff; opacity: 0.4; stroke: #000000; stroke-linejoin: miter"/>
   </g>
   <g id="patch_110">
    <path d="M 330.287249 307.584 
L 335.533404 307.584 
L 335.533404 262.525747 
L 330.287249 262.525747 
z
" clip-path="url(#p53c8b421ea)" style="fill: #0000ff; opacity: 0.4; stroke: #000000; stroke-linejoin: miter"/>
   </g>
   <g id="patch_111">
    <path d="M 335.533404 307.584 
L 340.77956 307.584 
L 340.77956 281.836427 
L 335.533404 281.836427 
z
" clip-path="url(#p53c8b421ea)" style="fill: #0000ff; opacity: 0.4; stroke: #000000; stroke-linejoin: miter"/>
   </g>
   <g id="patch_112">
    <path d="M 340.77956 307.584 
L 346.025716 307.584 
L 346.025716 272.181087 
L 340.77956 272.181087 
z
" clip-path="url(#p53c8b421ea)" style="fill: #0000ff; opacity: 0.4; stroke: #000000; stroke-linejoin: miter"/>
   </g>
   <g id="patch_113">
    <path d="M 346.025716 307.584 
L 351.271871 307.584 
L 351.271871 278.61798 
L 346.025716 278.61798 
z
" clip-path="url(#p53c8b421ea)" style="fill: #0000ff; opacity: 0.4; stroke: #000000; stroke-linejoin: miter"/>
   </g>
   <g id="patch_114">
    <path d="M 351.271871 307.584 
L 356.518027 307.584 
L 356.518027 288.27332 
L 351.271871 288.27332 
z
" clip-path="url(#p53c8b421ea)" style="fill: #0000ff; opacity: 0.4; stroke: #000000; stroke-linejoin: miter"/>
   </g>
   <g id="patch_115">
    <path d="M 356.518027 307.584 
L 361.764183 307.584 
L 361.764183 294.710213 
L 356.518027 294.710213 
z
" clip-path="url(#p53c8b421ea)" style="fill: #0000ff; opacity: 0.4; stroke: #000000; stroke-linejoin: miter"/>
   </g>
   <g id="patch_116">
    <path d="M 361.764183 307.584 
L 367.010338 307.584 
L 367.010338 301.147107 
L 361.764183 301.147107 
z
" clip-path="url(#p53c8b421ea)" style="fill: #0000ff; opacity: 0.4; stroke: #000000; stroke-linejoin: miter"/>
   </g>
   <g id="patch_117">
    <path d="M 367.010338 307.584 
L 372.256494 307.584 
L 372.256494 301.147107 
L 367.010338 301.147107 
z
" clip-path="url(#p53c8b421ea)" style="fill: #0000ff; opacity: 0.4; stroke: #000000; stroke-linejoin: miter"/>
   </g>
   <g id="patch_118">
    <path d="M 372.256494 307.584 
L 377.50265 307.584 
L 377.50265 301.147107 
L 372.256494 301.147107 
z
" clip-path="url(#p53c8b421ea)" style="fill: #0000ff; opacity: 0.4; stroke: #000000; stroke-linejoin: miter"/>
   </g>
   <g id="patch_119">
    <path d="M 377.50265 307.584 
L 382.748806 307.584 
L 382.748806 304.365553 
L 377.50265 304.365553 
z
" clip-path="url(#p53c8b421ea)" style="fill: #0000ff; opacity: 0.4; stroke: #000000; stroke-linejoin: miter"/>
   </g>
   <g id="patch_120">
    <path d="M 382.748806 307.584 
L 387.994961 307.584 
L 387.994961 304.365553 
L 382.748806 304.365553 
z
" clip-path="url(#p53c8b421ea)" style="fill: #0000ff; opacity: 0.4; stroke: #000000; stroke-linejoin: miter"/>
   </g>
   <g id="patch_121">
    <path d="M 387.994961 307.584 
L 393.241117 307.584 
L 393.241117 301.147107 
L 387.994961 301.147107 
z
" clip-path="url(#p53c8b421ea)" style="fill: #0000ff; opacity: 0.4; stroke: #000000; stroke-linejoin: miter"/>
   </g>
   <g id="patch_122">
    <path d="M 393.241117 307.584 
L 398.487273 307.584 
L 398.487273 304.365553 
L 393.241117 304.365553 
z
" clip-path="url(#p53c8b421ea)" style="fill: #0000ff; opacity: 0.4; stroke: #000000; stroke-linejoin: miter"/>
   </g>
   <g id="matplotlib.axis_1">
    <g id="xtick_1">
     <g id="line2d_1">
      <defs>
       <path id="mc6cc6b8738" d="M 0 0 
L 0 3.5 
" style="stroke: #000000; stroke-width: 0.8"/>
      </defs>
      <g>
       <use xlink:href="#mc6cc6b8738" x="90.937089" y="307.584" style="stroke: #000000; stroke-width: 0.8"/>
      </g>
     </g>
     <g id="text_1">
      <!-- −3 -->
      <g transform="translate(83.565996 322.182437) scale(0.1 -0.1)">
       <defs>
        <path id="DejaVuSans-2212" d="M 678 2272 
L 4684 2272 
L 4684 1741 
L 678 1741 
L 678 2272 
z
" transform="scale(0.015625)"/>
        <path id="DejaVuSans-33" d="M 2597 2516 
Q 3050 2419 3304 2112 
Q 3559 1806 3559 1356 
Q 3559 666 3084 287 
Q 2609 -91 1734 -91 
Q 1441 -91 1130 -33 
Q 819 25 488 141 
L 488 750 
Q 750 597 1062 519 
Q 1375 441 1716 441 
Q 2309 441 2620 675 
Q 2931 909 2931 1356 
Q 2931 1769 2642 2001 
Q 2353 2234 1838 2234 
L 1294 2234 
L 1294 2753 
L 1863 2753 
Q 2328 2753 2575 2939 
Q 2822 3125 2822 3475 
Q 2822 3834 2567 4026 
Q 2313 4219 1838 4219 
Q 1578 4219 1281 4162 
Q 984 4106 628 3988 
L 628 4550 
Q 988 4650 1302 4700 
Q 1616 4750 1894 4750 
Q 2613 4750 3031 4423 
Q 3450 4097 3450 3541 
Q 3450 3153 3228 2886 
Q 3006 2619 2597 2516 
z
" transform="scale(0.015625)"/>
       </defs>
       <use xlink:href="#DejaVuSans-2212"/>
       <use xlink:href="#DejaVuSans-33" x="83.789062"/>
      </g>
     </g>
    </g>
    <g id="xtick_2">
     <g id="line2d_2">
      <g>
       <use xlink:href="#mc6cc6b8738" x="140.99226" y="307.584" style="stroke: #000000; stroke-width: 0.8"/>
      </g>
     </g>
     <g id="text_2">
      <!-- −2 -->
      <g transform="translate(133.621166 322.182437) scale(0.1 -0.1)">
       <defs>
        <path id="DejaVuSans-32" d="M 1228 531 
L 3431 531 
L 3431 0 
L 469 0 
L 469 531 
Q 828 903 1448 1529 
Q 2069 2156 2228 2338 
Q 2531 2678 2651 2914 
Q 2772 3150 2772 3378 
Q 2772 3750 2511 3984 
Q 2250 4219 1831 4219 
Q 1534 4219 1204 4116 
Q 875 4013 500 3803 
L 500 4441 
Q 881 4594 1212 4672 
Q 1544 4750 1819 4750 
Q 2544 4750 2975 4387 
Q 3406 4025 3406 3419 
Q 3406 3131 3298 2873 
Q 3191 2616 2906 2266 
Q 2828 2175 2409 1742 
Q 1991 1309 1228 531 
z
" transform="scale(0.015625)"/>
       </defs>
       <use xlink:href="#DejaVuSans-2212"/>
       <use xlink:href="#DejaVuSans-32" x="83.789062"/>
      </g>
     </g>
    </g>
    <g id="xtick_3">
     <g id="line2d_3">
      <g>
       <use xlink:href="#mc6cc6b8738" x="191.047431" y="307.584" style="stroke: #000000; stroke-width: 0.8"/>
      </g>
     </g>
     <g id="text_3">
      <!-- −1 -->
      <g transform="translate(183.676337 322.182437) scale(0.1 -0.1)">
       <defs>
        <path id="DejaVuSans-31" d="M 794 531 
L 1825 531 
L 1825 4091 
L 703 3866 
L 703 4441 
L 1819 4666 
L 2450 4666 
L 2450 531 
L 3481 531 
L 3481 0 
L 794 0 
L 794 531 
z
" transform="scale(0.015625)"/>
       </defs>
       <use xlink:href="#DejaVuSans-2212"/>
       <use xlink:href="#DejaVuSans-31" x="83.789062"/>
      </g>
     </g>
    </g>
    <g id="xtick_4">
     <g id="line2d_4">
      <g>
       <use xlink:href="#mc6cc6b8738" x="241.102602" y="307.584" style="stroke: #000000; stroke-width: 0.8"/>
      </g>
     </g>
     <g id="text_4">
      <!-- 0 -->
      <g transform="translate(237.921352 322.182437) scale(0.1 -0.1)">
       <defs>
        <path id="DejaVuSans-30" d="M 2034 4250 
Q 1547 4250 1301 3770 
Q 1056 3291 1056 2328 
Q 1056 1369 1301 889 
Q 1547 409 2034 409 
Q 2525 409 2770 889 
Q 3016 1369 3016 2328 
Q 3016 3291 2770 3770 
Q 2525 4250 2034 4250 
z
M 2034 4750 
Q 2819 4750 3233 4129 
Q 3647 3509 3647 2328 
Q 3647 1150 3233 529 
Q 2819 -91 2034 -91 
Q 1250 -91 836 529 
Q 422 1150 422 2328 
Q 422 3509 836 4129 
Q 1250 4750 2034 4750 
z
" transform="scale(0.015625)"/>
       </defs>
       <use xlink:href="#DejaVuSans-30"/>
      </g>
     </g>
    </g>
    <g id="xtick_5">
     <g id="line2d_5">
      <g>
       <use xlink:href="#mc6cc6b8738" x="291.157772" y="307.584" style="stroke: #000000; stroke-width: 0.8"/>
      </g>
     </g>
     <g id="text_5">
      <!-- 1 -->
      <g transform="translate(287.976522 322.182437) scale(0.1 -0.1)">
       <use xlink:href="#DejaVuSans-31"/>
      </g>
     </g>
    </g>
    <g id="xtick_6">
     <g id="line2d_6">
      <g>
       <use xlink:href="#mc6cc6b8738" x="341.212943" y="307.584" style="stroke: #000000; stroke-width: 0.8"/>
      </g>
     </g>
     <g id="text_6">
      <!-- 2 -->
      <g transform="translate(338.031693 322.182437) scale(0.1 -0.1)">
       <use xlink:href="#DejaVuSans-32"/>
      </g>
     </g>
    </g>
    <g id="xtick_7">
     <g id="line2d_7">
      <g>
       <use xlink:href="#mc6cc6b8738" x="391.268114" y="307.584" style="stroke: #000000; stroke-width: 0.8"/>
      </g>
     </g>
     <g id="text_7">
      <!-- 3 -->
      <g transform="translate(388.086864 322.182437) scale(0.1 -0.1)">
       <use xlink:href="#DejaVuSans-33"/>
      </g>
     </g>
    </g>
   </g>
   <g id="matplotlib.axis_2">
    <g id="ytick_1">
     <g id="line2d_8">
      <defs>
       <path id="mad6f2545b2" d="M 0 0 
L -3.5 0 
" style="stroke: #000000; stroke-width: 0.8"/>
      </defs>
      <g>
       <use xlink:href="#mad6f2545b2" x="57.6" y="307.584" style="stroke: #000000; stroke-width: 0.8"/>
      </g>
     </g>
     <g id="text_8">
      <!-- 0.0 -->
      <g transform="translate(34.696875 311.383219) scale(0.1 -0.1)">
       <defs>
        <path id="DejaVuSans-2e" d="M 684 794 
L 1344 794 
L 1344 0 
L 684 0 
L 684 794 
z
" transform="scale(0.015625)"/>
       </defs>
       <use xlink:href="#DejaVuSans-30"/>
       <use xlink:href="#DejaVuSans-2e" x="63.623047"/>
       <use xlink:href="#DejaVuSans-30" x="95.410156"/>
      </g>
     </g>
    </g>
    <g id="ytick_2">
     <g id="line2d_9">
      <g>
       <use xlink:href="#mad6f2545b2" x="57.6" y="250.914703" style="stroke: #000000; stroke-width: 0.8"/>
      </g>
     </g>
     <g id="text_9">
      <!-- 0.1 -->
      <g transform="translate(34.696875 254.713922) scale(0.1 -0.1)">
       <use xlink:href="#DejaVuSans-30"/>
       <use xlink:href="#DejaVuSans-2e" x="63.623047"/>
       <use xlink:href="#DejaVuSans-31" x="95.410156"/>
      </g>
     </g>
    </g>
    <g id="ytick_3">
     <g id="line2d_10">
      <g>
       <use xlink:href="#mad6f2545b2" x="57.6" y="194.245406" style="stroke: #000000; stroke-width: 0.8"/>
      </g>
     </g>
     <g id="text_10">
      <!-- 0.2 -->
      <g transform="translate(34.696875 198.044624) scale(0.1 -0.1)">
       <use xlink:href="#DejaVuSans-30"/>
       <use xlink:href="#DejaVuSans-2e" x="63.623047"/>
       <use xlink:href="#DejaVuSans-32" x="95.410156"/>
      </g>
     </g>
    </g>
    <g id="ytick_4">
     <g id="line2d_11">
      <g>
       <use xlink:href="#mad6f2545b2" x="57.6" y="137.576109" style="stroke: #000000; stroke-width: 0.8"/>
      </g>
     </g>
     <g id="text_11">
      <!-- 0.3 -->
      <g transform="translate(34.696875 141.375327) scale(0.1 -0.1)">
       <use xlink:href="#DejaVuSans-30"/>
       <use xlink:href="#DejaVuSans-2e" x="63.623047"/>
       <use xlink:href="#DejaVuSans-33" x="95.410156"/>
      </g>
     </g>
    </g>
    <g id="ytick_5">
     <g id="line2d_12">
      <g>
       <use xlink:href="#mad6f2545b2" x="57.6" y="80.906811" style="stroke: #000000; stroke-width: 0.8"/>
      </g>
     </g>
     <g id="text_12">
      <!-- 0.4 -->
      <g transform="translate(34.696875 84.70603) scale(0.1 -0.1)">
       <defs>
        <path id="DejaVuSans-34" d="M 2419 4116 
L 825 1625 
L 2419 1625 
L 2419 4116 
z
M 2253 4666 
L 3047 4666 
L 3047 1625 
L 3713 1625 
L 3713 1100 
L 3047 1100 
L 3047 0 
L 2419 0 
L 2419 1100 
L 313 1100 
L 313 1709 
L 2253 4666 
z
" transform="scale(0.015625)"/>
       </defs>
       <use xlink:href="#DejaVuSans-30"/>
       <use xlink:href="#DejaVuSans-2e" x="63.623047"/>
       <use xlink:href="#DejaVuSans-34" x="95.410156"/>
      </g>
     </g>
    </g>
   </g>
   <g id="patch_123">
    <path d="M 57.6 307.584 
L 57.6 41.472 
" style="fill: none; stroke: #000000; stroke-width: 0.8; stroke-linejoin: miter; stroke-linecap: square"/>
   </g>
   <g id="patch_124">
    <path d="M 414.72 307.584 
L 414.72 41.472 
" style="fill: none; stroke: #000000; stroke-width: 0.8; stroke-linejoin: miter; stroke-linecap: square"/>
   </g>
   <g id="patch_125">
    <path d="M 57.6 307.584 
L 414.72 307.584 
" style="fill: none; stroke: #000000; stroke-width: 0.8; stroke-linejoin: miter; stroke-linecap: square"/>
   </g>
   <g id="patch_126">
    <path d="M 57.6 41.472 
L 414.72 41.472 
" style="fill: none; stroke: #000000; stroke-width: 0.8; stroke-linejoin: miter; stroke-linecap: square"/>
   </g>
   <g id="text_13">
    <!-- GAUSSIANIZED_feature_4 -->
    <g transform="translate(159.26625 35.472) scale(0.12 -0.12)">
     <defs>
      <path id="DejaVuSans-47" d="M 3809 666 
L 3809 1919 
L 2778 1919 
L 2778 2438 
L 4434 2438 
L 4434 434 
Q 4069 175 3628 42 
Q 3188 -91 2688 -91 
Q 1594 -91 976 548 
Q 359 1188 359 2328 
Q 359 3472 976 4111 
Q 1594 4750 2688 4750 
Q 3144 4750 3555 4637 
Q 3966 4525 4313 4306 
L 4313 3634 
Q 3963 3931 3569 4081 
Q 3175 4231 2741 4231 
Q 1884 4231 1454 3753 
Q 1025 3275 1025 2328 
Q 1025 1384 1454 906 
Q 1884 428 2741 428 
Q 3075 428 3337 486 
Q 3600 544 3809 666 
z
" transform="scale(0.015625)"/>
      <path id="DejaVuSans-41" d="M 2188 4044 
L 1331 1722 
L 3047 1722 
L 2188 4044 
z
M 1831 4666 
L 2547 4666 
L 4325 0 
L 3669 0 
L 3244 1197 
L 1141 1197 
L 716 0 
L 50 0 
L 1831 4666 
z
" transform="scale(0.015625)"/>
      <path id="DejaVuSans-55" d="M 556 4666 
L 1191 4666 
L 1191 1831 
Q 1191 1081 1462 751 
Q 1734 422 2344 422 
Q 2950 422 3222 751 
Q 3494 1081 3494 1831 
L 3494 4666 
L 4128 4666 
L 4128 1753 
Q 4128 841 3676 375 
Q 3225 -91 2344 -91 
Q 1459 -91 1007 375 
Q 556 841 556 1753 
L 556 4666 
z
" transform="scale(0.015625)"/>
      <path id="DejaVuSans-53" d="M 3425 4513 
L 3425 3897 
Q 3066 4069 2747 4153 
Q 2428 4238 2131 4238 
Q 1616 4238 1336 4038 
Q 1056 3838 1056 3469 
Q 1056 3159 1242 3001 
Q 1428 2844 1947 2747 
L 2328 2669 
Q 3034 2534 3370 2195 
Q 3706 1856 3706 1288 
Q 3706 609 3251 259 
Q 2797 -91 1919 -91 
Q 1588 -91 1214 -16 
Q 841 59 441 206 
L 441 856 
Q 825 641 1194 531 
Q 1563 422 1919 422 
Q 2459 422 2753 634 
Q 3047 847 3047 1241 
Q 3047 1584 2836 1778 
Q 2625 1972 2144 2069 
L 1759 2144 
Q 1053 2284 737 2584 
Q 422 2884 422 3419 
Q 422 4038 858 4394 
Q 1294 4750 2059 4750 
Q 2388 4750 2728 4690 
Q 3069 4631 3425 4513 
z
" transform="scale(0.015625)"/>
      <path id="DejaVuSans-49" d="M 628 4666 
L 1259 4666 
L 1259 0 
L 628 0 
L 628 4666 
z
" transform="scale(0.015625)"/>
      <path id="DejaVuSans-4e" d="M 628 4666 
L 1478 4666 
L 3547 763 
L 3547 4666 
L 4159 4666 
L 4159 0 
L 3309 0 
L 1241 3903 
L 1241 0 
L 628 0 
L 628 4666 
z
" transform="scale(0.015625)"/>
      <path id="DejaVuSans-5a" d="M 359 4666 
L 4025 4666 
L 4025 4184 
L 1075 531 
L 4097 531 
L 4097 0 
L 288 0 
L 288 481 
L 3238 4134 
L 359 4134 
L 359 4666 
z
" transform="scale(0.015625)"/>
      <path id="DejaVuSans-45" d="M 628 4666 
L 3578 4666 
L 3578 4134 
L 1259 4134 
L 1259 2753 
L 3481 2753 
L 3481 2222 
L 1259 2222 
L 1259 531 
L 3634 531 
L 3634 0 
L 628 0 
L 628 4666 
z
" transform="scale(0.015625)"/>
      <path id="DejaVuSans-44" d="M 1259 4147 
L 1259 519 
L 2022 519 
Q 2988 519 3436 956 
Q 3884 1394 3884 2338 
Q 3884 3275 3436 3711 
Q 2988 4147 2022 4147 
L 1259 4147 
z
M 628 4666 
L 1925 4666 
Q 3281 4666 3915 4102 
Q 4550 3538 4550 2338 
Q 4550 1131 3912 565 
Q 3275 0 1925 0 
L 628 0 
L 628 4666 
z
" transform="scale(0.015625)"/>
      <path id="DejaVuSans-5f" d="M 3263 -1063 
L 3263 -1509 
L -63 -1509 
L -63 -1063 
L 3263 -1063 
z
" transform="scale(0.015625)"/>
      <path id="DejaVuSans-66" d="M 2375 4863 
L 2375 4384 
L 1825 4384 
Q 1516 4384 1395 4259 
Q 1275 4134 1275 3809 
L 1275 3500 
L 2222 3500 
L 2222 3053 
L 1275 3053 
L 1275 0 
L 697 0 
L 697 3053 
L 147 3053 
L 147 3500 
L 697 3500 
L 697 3744 
Q 697 4328 969 4595 
Q 1241 4863 1831 4863 
L 2375 4863 
z
" transform="scale(0.015625)"/>
      <path id="DejaVuSans-65" d="M 3597 1894 
L 3597 1613 
L 953 1613 
Q 991 1019 1311 708 
Q 1631 397 2203 397 
Q 2534 397 2845 478 
Q 3156 559 3463 722 
L 3463 178 
Q 3153 47 2828 -22 
Q 2503 -91 2169 -91 
Q 1331 -91 842 396 
Q 353 884 353 1716 
Q 353 2575 817 3079 
Q 1281 3584 2069 3584 
Q 2775 3584 3186 3129 
Q 3597 2675 3597 1894 
z
M 3022 2063 
Q 3016 2534 2758 2815 
Q 2500 3097 2075 3097 
Q 1594 3097 1305 2825 
Q 1016 2553 972 2059 
L 3022 2063 
z
" transform="scale(0.015625)"/>
      <path id="DejaVuSans-61" d="M 2194 1759 
Q 1497 1759 1228 1600 
Q 959 1441 959 1056 
Q 959 750 1161 570 
Q 1363 391 1709 391 
Q 2188 391 2477 730 
Q 2766 1069 2766 1631 
L 2766 1759 
L 2194 1759 
z
M 3341 1997 
L 3341 0 
L 2766 0 
L 2766 531 
Q 2569 213 2275 61 
Q 1981 -91 1556 -91 
Q 1019 -91 701 211 
Q 384 513 384 1019 
Q 384 1609 779 1909 
Q 1175 2209 1959 2209 
L 2766 2209 
L 2766 2266 
Q 2766 2663 2505 2880 
Q 2244 3097 1772 3097 
Q 1472 3097 1187 3025 
Q 903 2953 641 2809 
L 641 3341 
Q 956 3463 1253 3523 
Q 1550 3584 1831 3584 
Q 2591 3584 2966 3190 
Q 3341 2797 3341 1997 
z
" transform="scale(0.015625)"/>
      <path id="DejaVuSans-74" d="M 1172 4494 
L 1172 3500 
L 2356 3500 
L 2356 3053 
L 1172 3053 
L 1172 1153 
Q 1172 725 1289 603 
Q 1406 481 1766 481 
L 2356 481 
L 2356 0 
L 1766 0 
Q 1100 0 847 248 
Q 594 497 594 1153 
L 594 3053 
L 172 3053 
L 172 3500 
L 594 3500 
L 594 4494 
L 1172 4494 
z
" transform="scale(0.015625)"/>
      <path id="DejaVuSans-75" d="M 544 1381 
L 544 3500 
L 1119 3500 
L 1119 1403 
Q 1119 906 1312 657 
Q 1506 409 1894 409 
Q 2359 409 2629 706 
Q 2900 1003 2900 1516 
L 2900 3500 
L 3475 3500 
L 3475 0 
L 2900 0 
L 2900 538 
Q 2691 219 2414 64 
Q 2138 -91 1772 -91 
Q 1169 -91 856 284 
Q 544 659 544 1381 
z
M 1991 3584 
L 1991 3584 
z
" transform="scale(0.015625)"/>
      <path id="DejaVuSans-72" d="M 2631 2963 
Q 2534 3019 2420 3045 
Q 2306 3072 2169 3072 
Q 1681 3072 1420 2755 
Q 1159 2438 1159 1844 
L 1159 0 
L 581 0 
L 581 3500 
L 1159 3500 
L 1159 2956 
Q 1341 3275 1631 3429 
Q 1922 3584 2338 3584 
Q 2397 3584 2469 3576 
Q 2541 3569 2628 3553 
L 2631 2963 
z
" transform="scale(0.015625)"/>
     </defs>
     <use xlink:href="#DejaVuSans-47"/>
     <use xlink:href="#DejaVuSans-41" x="77.490234"/>
     <use xlink:href="#DejaVuSans-55" x="145.898438"/>
     <use xlink:href="#DejaVuSans-53" x="219.091797"/>
     <use xlink:href="#DejaVuSans-53" x="282.568359"/>
     <use xlink:href="#DejaVuSans-49" x="346.044922"/>
     <use xlink:href="#DejaVuSans-41" x="375.537109"/>
     <use xlink:href="#DejaVuSans-4e" x="443.945312"/>
     <use xlink:href="#DejaVuSans-49" x="518.75"/>
     <use xlink:href="#DejaVuSans-5a" x="548.242188"/>
     <use xlink:href="#DejaVuSans-45" x="616.748047"/>
     <use xlink:href="#DejaVuSans-44" x="679.931641"/>
     <use xlink:href="#DejaVuSans-5f" x="756.933594"/>
     <use xlink:href="#DejaVuSans-66" x="806.933594"/>
     <use xlink:href="#DejaVuSans-65" x="842.138672"/>
     <use xlink:href="#DejaVuSans-61" x="903.662109"/>
     <use xlink:href="#DejaVuSans-74" x="964.941406"/>
     <use xlink:href="#DejaVuSans-75" x="1004.150391"/>
     <use xlink:href="#DejaVuSans-72" x="1067.529297"/>
     <use xlink:href="#DejaVuSans-65" x="1106.392578"/>
     <use xlink:href="#DejaVuSans-5f" x="1167.916016"/>
     <use xlink:href="#DejaVuSans-34" x="1217.916016"/>
    </g>
   </g>
   <g id="legend_1">
    <g id="patch_127">
     <path d="M 341.246563 78.82825 
L 407.72 78.82825 
Q 409.72 78.82825 409.72 76.82825 
L 409.72 48.472 
Q 409.72 46.472 407.72 46.472 
L 341.246563 46.472 
Q 339.246563 46.472 339.246563 48.472 
L 339.246563 76.82825 
Q 339.246563 78.82825 341.246563 78.82825 
z
" style="fill: #ffffff; opacity: 0.8; stroke: #cccccc; stroke-linejoin: miter"/>
    </g>
    <g id="patch_128">
     <path d="M 343.246563 58.070437 
L 363.246563 58.070437 
L 363.246563 51.070437 
L 343.246563 51.070437 
z
" style="fill: #ff0000; opacity: 0.4; stroke: #000000; stroke-linejoin: miter"/>
    </g>
    <g id="text_14">
     <!-- male -->
     <g transform="translate(371.246563 58.070437) scale(0.1 -0.1)">
      <defs>
       <path id="DejaVuSans-6d" d="M 3328 2828 
Q 3544 3216 3844 3400 
Q 4144 3584 4550 3584 
Q 5097 3584 5394 3201 
Q 5691 2819 5691 2113 
L 5691 0 
L 5113 0 
L 5113 2094 
Q 5113 2597 4934 2840 
Q 4756 3084 4391 3084 
Q 3944 3084 3684 2787 
Q 3425 2491 3425 1978 
L 3425 0 
L 2847 0 
L 2847 2094 
Q 2847 2600 2669 2842 
Q 2491 3084 2119 3084 
Q 1678 3084 1418 2786 
Q 1159 2488 1159 1978 
L 1159 0 
L 581 0 
L 581 3500 
L 1159 3500 
L 1159 2956 
Q 1356 3278 1631 3431 
Q 1906 3584 2284 3584 
Q 2666 3584 2933 3390 
Q 3200 3197 3328 2828 
z
" transform="scale(0.015625)"/>
       <path id="DejaVuSans-6c" d="M 603 4863 
L 1178 4863 
L 1178 0 
L 603 0 
L 603 4863 
z
" transform="scale(0.015625)"/>
      </defs>
      <use xlink:href="#DejaVuSans-6d"/>
      <use xlink:href="#DejaVuSans-61" x="97.412109"/>
      <use xlink:href="#DejaVuSans-6c" x="158.691406"/>
      <use xlink:href="#DejaVuSans-65" x="186.474609"/>
     </g>
    </g>
    <g id="patch_129">
     <path d="M 343.246563 72.748562 
L 363.246563 72.748562 
L 363.246563 65.748562 
L 343.246563 65.748562 
z
" style="fill: #0000ff; opacity: 0.4; stroke: #000000; stroke-linejoin: miter"/>
    </g>
    <g id="text_15">
     <!-- female -->
     <g transform="translate(371.246563 72.748562) scale(0.1 -0.1)">
      <use xlink:href="#DejaVuSans-66"/>
      <use xlink:href="#DejaVuSans-65" x="35.205078"/>
      <use xlink:href="#DejaVuSans-6d" x="96.728516"/>
      <use xlink:href="#DejaVuSans-61" x="194.140625"/>
      <use xlink:href="#DejaVuSans-6c" x="255.419922"/>
      <use xlink:href="#DejaVuSans-65" x="283.203125"/>
     </g>
    </g>
   </g>
  </g>
 </g>
 <defs>
  <clipPath id="p53c8b421ea">
   <rect x="57.6" y="41.472" width="357.12" height="266.112"/>
  </clipPath>
 </defs>
</svg>
