<?xml version="1.0" encoding="utf-8" standalone="no"?>
<!DOCTYPE svg PUBLIC "-//W3C//DTD SVG 1.1//EN"
  "http://www.w3.org/Graphics/SVG/1.1/DTD/svg11.dtd">
<svg xmlns:xlink="http://www.w3.org/1999/xlink" width="460.8pt" height="345.6pt" viewBox="0 0 460.8 345.6" xmlns="http://www.w3.org/2000/svg" version="1.1">
 <metadata>
  <rdf:RDF xmlns:dc="http://purl.org/dc/elements/1.1/" xmlns:cc="http://creativecommons.org/ns#" xmlns:rdf="http://www.w3.org/1999/02/22-rdf-syntax-ns#">
   <cc:Work>
    <dc:type rdf:resource="http://purl.org/dc/dcmitype/StillImage"/>
    <dc:date>2023-06-02T11:31:31.903553</dc:date>
    <dc:format>image/svg+xml</dc:format>
    <dc:creator>
     <cc:Agent>
      <dc:title>Matplotlib v3.7.0, https://matplotlib.org/</dc:title>
     </cc:Agent>
    </dc:creator>
   </cc:Work>
  </rdf:RDF>
 </metadata>
 <defs>
  <style type="text/css">*{stroke-linejoin: round; stroke-linecap: butt}</style>
 </defs>
 <g id="figure_1">
  <g id="patch_1">
   <path d="M 0 345.6 
L 460.8 345.6 
L 460.8 0 
L 0 0 
z
" style="fill: #ffffff"/>
  </g>
  <g id="axes_1">
   <g id="patch_2">
    <path d="M 57.6 307.584 
L 414.72 307.584 
L 414.72 41.472 
L 57.6 41.472 
z
" style="fill: #ffffff"/>
   </g>
   <g id="patch_3">
    <path d="M 73.832727 307.584 
L 78.990181 307.584 
L 78.990181 298.197333 
L 73.832727 298.197333 
z
" clip-path="url(#p67bcbb2637)" style="fill: #ff0000; opacity: 0.4; stroke: #000000; stroke-linejoin: miter"/>
   </g>
   <g id="patch_4">
    <path d="M 78.990181 307.584 
L 84.147634 307.584 
L 84.147634 307.584 
L 78.990181 307.584 
z
" clip-path="url(#p67bcbb2637)" style="fill: #ff0000; opacity: 0.4; stroke: #000000; stroke-linejoin: miter"/>
   </g>
   <g id="patch_5">
    <path d="M 84.147634 307.584 
L 89.305088 307.584 
L 89.305088 307.584 
L 84.147634 307.584 
z
" clip-path="url(#p67bcbb2637)" style="fill: #ff0000; opacity: 0.4; stroke: #000000; stroke-linejoin: miter"/>
   </g>
   <g id="patch_6">
    <path d="M 89.305088 307.584 
L 94.462542 307.584 
L 94.462542 288.810667 
L 89.305088 288.810667 
z
" clip-path="url(#p67bcbb2637)" style="fill: #ff0000; opacity: 0.4; stroke: #000000; stroke-linejoin: miter"/>
   </g>
   <g id="patch_7">
    <path d="M 94.462542 307.584 
L 99.619995 307.584 
L 99.619995 298.197333 
L 94.462542 298.197333 
z
" clip-path="url(#p67bcbb2637)" style="fill: #ff0000; opacity: 0.4; stroke: #000000; stroke-linejoin: miter"/>
   </g>
   <g id="patch_8">
    <path d="M 99.619995 307.584 
L 104.777449 307.584 
L 104.777449 288.810667 
L 99.619995 288.810667 
z
" clip-path="url(#p67bcbb2637)" style="fill: #ff0000; opacity: 0.4; stroke: #000000; stroke-linejoin: miter"/>
   </g>
   <g id="patch_9">
    <path d="M 104.777449 307.584 
L 109.934902 307.584 
L 109.934902 270.037333 
L 104.777449 270.037333 
z
" clip-path="url(#p67bcbb2637)" style="fill: #ff0000; opacity: 0.4; stroke: #000000; stroke-linejoin: miter"/>
   </g>
   <g id="patch_10">
    <path d="M 109.934902 307.584 
L 115.092356 307.584 
L 115.092356 251.264 
L 109.934902 251.264 
z
" clip-path="url(#p67bcbb2637)" style="fill: #ff0000; opacity: 0.4; stroke: #000000; stroke-linejoin: miter"/>
   </g>
   <g id="patch_11">
    <path d="M 115.092356 307.584 
L 120.24981 307.584 
L 120.24981 251.264 
L 115.092356 251.264 
z
" clip-path="url(#p67bcbb2637)" style="fill: #ff0000; opacity: 0.4; stroke: #000000; stroke-linejoin: miter"/>
   </g>
   <g id="patch_12">
    <path d="M 120.24981 307.584 
L 125.407263 307.584 
L 125.407263 176.170667 
L 120.24981 176.170667 
z
" clip-path="url(#p67bcbb2637)" style="fill: #ff0000; opacity: 0.4; stroke: #000000; stroke-linejoin: miter"/>
   </g>
   <g id="patch_13">
    <path d="M 125.407263 307.584 
L 130.564717 307.584 
L 130.564717 223.104 
L 125.407263 223.104 
z
" clip-path="url(#p67bcbb2637)" style="fill: #ff0000; opacity: 0.4; stroke: #000000; stroke-linejoin: miter"/>
   </g>
   <g id="patch_14">
    <path d="M 130.564717 307.584 
L 135.722171 307.584 
L 135.722171 138.624 
L 130.564717 138.624 
z
" clip-path="url(#p67bcbb2637)" style="fill: #ff0000; opacity: 0.4; stroke: #000000; stroke-linejoin: miter"/>
   </g>
   <g id="patch_15">
    <path d="M 135.722171 307.584 
L 140.879624 307.584 
L 140.879624 176.170667 
L 135.722171 176.170667 
z
" clip-path="url(#p67bcbb2637)" style="fill: #ff0000; opacity: 0.4; stroke: #000000; stroke-linejoin: miter"/>
   </g>
   <g id="patch_16">
    <path d="M 140.879624 307.584 
L 146.037078 307.584 
L 146.037078 176.170667 
L 140.879624 176.170667 
z
" clip-path="url(#p67bcbb2637)" style="fill: #ff0000; opacity: 0.4; stroke: #000000; stroke-linejoin: miter"/>
   </g>
   <g id="patch_17">
    <path d="M 146.037078 307.584 
L 151.194531 307.584 
L 151.194531 157.397333 
L 146.037078 157.397333 
z
" clip-path="url(#p67bcbb2637)" style="fill: #ff0000; opacity: 0.4; stroke: #000000; stroke-linejoin: miter"/>
   </g>
   <g id="patch_18">
    <path d="M 151.194531 307.584 
L 156.351985 307.584 
L 156.351985 138.624 
L 151.194531 138.624 
z
" clip-path="url(#p67bcbb2637)" style="fill: #ff0000; opacity: 0.4; stroke: #000000; stroke-linejoin: miter"/>
   </g>
   <g id="patch_19">
    <path d="M 156.351985 307.584 
L 161.509439 307.584 
L 161.509439 157.397333 
L 156.351985 157.397333 
z
" clip-path="url(#p67bcbb2637)" style="fill: #ff0000; opacity: 0.4; stroke: #000000; stroke-linejoin: miter"/>
   </g>
   <g id="patch_20">
    <path d="M 161.509439 307.584 
L 166.666892 307.584 
L 166.666892 185.557333 
L 161.509439 185.557333 
z
" clip-path="url(#p67bcbb2637)" style="fill: #ff0000; opacity: 0.4; stroke: #000000; stroke-linejoin: miter"/>
   </g>
   <g id="patch_21">
    <path d="M 166.666892 307.584 
L 171.824346 307.584 
L 171.824346 82.304 
L 166.666892 82.304 
z
" clip-path="url(#p67bcbb2637)" style="fill: #ff0000; opacity: 0.4; stroke: #000000; stroke-linejoin: miter"/>
   </g>
   <g id="patch_22">
    <path d="M 171.824346 307.584 
L 176.981799 307.584 
L 176.981799 148.010667 
L 171.824346 148.010667 
z
" clip-path="url(#p67bcbb2637)" style="fill: #ff0000; opacity: 0.4; stroke: #000000; stroke-linejoin: miter"/>
   </g>
   <g id="patch_23">
    <path d="M 176.981799 307.584 
L 182.139253 307.584 
L 182.139253 54.144 
L 176.981799 54.144 
z
" clip-path="url(#p67bcbb2637)" style="fill: #ff0000; opacity: 0.4; stroke: #000000; stroke-linejoin: miter"/>
   </g>
   <g id="patch_24">
    <path d="M 182.139253 307.584 
L 187.296707 307.584 
L 187.296707 157.397333 
L 182.139253 157.397333 
z
" clip-path="url(#p67bcbb2637)" style="fill: #ff0000; opacity: 0.4; stroke: #000000; stroke-linejoin: miter"/>
   </g>
   <g id="patch_25">
    <path d="M 187.296707 307.584 
L 192.45416 307.584 
L 192.45416 194.944 
L 187.296707 194.944 
z
" clip-path="url(#p67bcbb2637)" style="fill: #ff0000; opacity: 0.4; stroke: #000000; stroke-linejoin: miter"/>
   </g>
   <g id="patch_26">
    <path d="M 192.45416 307.584 
L 197.611614 307.584 
L 197.611614 279.424 
L 192.45416 279.424 
z
" clip-path="url(#p67bcbb2637)" style="fill: #ff0000; opacity: 0.4; stroke: #000000; stroke-linejoin: miter"/>
   </g>
   <g id="patch_27">
    <path d="M 197.611614 307.584 
L 202.769067 307.584 
L 202.769067 101.077333 
L 197.611614 101.077333 
z
" clip-path="url(#p67bcbb2637)" style="fill: #ff0000; opacity: 0.4; stroke: #000000; stroke-linejoin: miter"/>
   </g>
   <g id="patch_28">
    <path d="M 202.769067 307.584 
L 207.926521 307.584 
L 207.926521 176.170667 
L 202.769067 176.170667 
z
" clip-path="url(#p67bcbb2637)" style="fill: #ff0000; opacity: 0.4; stroke: #000000; stroke-linejoin: miter"/>
   </g>
   <g id="patch_29">
    <path d="M 207.926521 307.584 
L 213.083975 307.584 
L 213.083975 166.784 
L 207.926521 166.784 
z
" clip-path="url(#p67bcbb2637)" style="fill: #ff0000; opacity: 0.4; stroke: #000000; stroke-linejoin: miter"/>
   </g>
   <g id="patch_30">
    <path d="M 213.083975 307.584 
L 218.241428 307.584 
L 218.241428 241.877333 
L 213.083975 241.877333 
z
" clip-path="url(#p67bcbb2637)" style="fill: #ff0000; opacity: 0.4; stroke: #000000; stroke-linejoin: miter"/>
   </g>
   <g id="patch_31">
    <path d="M 218.241428 307.584 
L 223.398882 307.584 
L 223.398882 194.944 
L 218.241428 194.944 
z
" clip-path="url(#p67bcbb2637)" style="fill: #ff0000; opacity: 0.4; stroke: #000000; stroke-linejoin: miter"/>
   </g>
   <g id="patch_32">
    <path d="M 223.398882 307.584 
L 228.556335 307.584 
L 228.556335 119.850667 
L 223.398882 119.850667 
z
" clip-path="url(#p67bcbb2637)" style="fill: #ff0000; opacity: 0.4; stroke: #000000; stroke-linejoin: miter"/>
   </g>
   <g id="patch_33">
    <path d="M 228.556335 307.584 
L 233.713789 307.584 
L 233.713789 110.464 
L 228.556335 110.464 
z
" clip-path="url(#p67bcbb2637)" style="fill: #ff0000; opacity: 0.4; stroke: #000000; stroke-linejoin: miter"/>
   </g>
   <g id="patch_34">
    <path d="M 233.713789 307.584 
L 238.871243 307.584 
L 238.871243 251.264 
L 233.713789 251.264 
z
" clip-path="url(#p67bcbb2637)" style="fill: #ff0000; opacity: 0.4; stroke: #000000; stroke-linejoin: miter"/>
   </g>
   <g id="patch_35">
    <path d="M 238.871243 307.584 
L 244.028696 307.584 
L 244.028696 185.557333 
L 238.871243 185.557333 
z
" clip-path="url(#p67bcbb2637)" style="fill: #ff0000; opacity: 0.4; stroke: #000000; stroke-linejoin: miter"/>
   </g>
   <g id="patch_36">
    <path d="M 244.028696 307.584 
L 249.18615 307.584 
L 249.18615 72.917333 
L 244.028696 72.917333 
z
" clip-path="url(#p67bcbb2637)" style="fill: #ff0000; opacity: 0.4; stroke: #000000; stroke-linejoin: miter"/>
   </g>
   <g id="patch_37">
    <path d="M 249.18615 307.584 
L 254.343603 307.584 
L 254.343603 148.010667 
L 249.18615 148.010667 
z
" clip-path="url(#p67bcbb2637)" style="fill: #ff0000; opacity: 0.4; stroke: #000000; stroke-linejoin: miter"/>
   </g>
   <g id="patch_38">
    <path d="M 254.343603 307.584 
L 259.501057 307.584 
L 259.501057 176.170667 
L 254.343603 176.170667 
z
" clip-path="url(#p67bcbb2637)" style="fill: #ff0000; opacity: 0.4; stroke: #000000; stroke-linejoin: miter"/>
   </g>
   <g id="patch_39">
    <path d="M 259.501057 307.584 
L 264.658511 307.584 
L 264.658511 166.784 
L 259.501057 166.784 
z
" clip-path="url(#p67bcbb2637)" style="fill: #ff0000; opacity: 0.4; stroke: #000000; stroke-linejoin: miter"/>
   </g>
   <g id="patch_40">
    <path d="M 264.658511 307.584 
L 269.815964 307.584 
L 269.815964 148.010667 
L 264.658511 148.010667 
z
" clip-path="url(#p67bcbb2637)" style="fill: #ff0000; opacity: 0.4; stroke: #000000; stroke-linejoin: miter"/>
   </g>
   <g id="patch_41">
    <path d="M 269.815964 307.584 
L 274.973418 307.584 
L 274.973418 213.717333 
L 269.815964 213.717333 
z
" clip-path="url(#p67bcbb2637)" style="fill: #ff0000; opacity: 0.4; stroke: #000000; stroke-linejoin: miter"/>
   </g>
   <g id="patch_42">
    <path d="M 274.973418 307.584 
L 280.130871 307.584 
L 280.130871 176.170667 
L 274.973418 176.170667 
z
" clip-path="url(#p67bcbb2637)" style="fill: #ff0000; opacity: 0.4; stroke: #000000; stroke-linejoin: miter"/>
   </g>
   <g id="patch_43">
    <path d="M 280.130871 307.584 
L 285.288325 307.584 
L 285.288325 157.397333 
L 280.130871 157.397333 
z
" clip-path="url(#p67bcbb2637)" style="fill: #ff0000; opacity: 0.4; stroke: #000000; stroke-linejoin: miter"/>
   </g>
   <g id="patch_44">
    <path d="M 285.288325 307.584 
L 290.445779 307.584 
L 290.445779 148.010667 
L 285.288325 148.010667 
z
" clip-path="url(#p67bcbb2637)" style="fill: #ff0000; opacity: 0.4; stroke: #000000; stroke-linejoin: miter"/>
   </g>
   <g id="patch_45">
    <path d="M 290.445779 307.584 
L 295.603232 307.584 
L 295.603232 119.850667 
L 290.445779 119.850667 
z
" clip-path="url(#p67bcbb2637)" style="fill: #ff0000; opacity: 0.4; stroke: #000000; stroke-linejoin: miter"/>
   </g>
   <g id="patch_46">
    <path d="M 295.603232 307.584 
L 300.760686 307.584 
L 300.760686 110.464 
L 295.603232 110.464 
z
" clip-path="url(#p67bcbb2637)" style="fill: #ff0000; opacity: 0.4; stroke: #000000; stroke-linejoin: miter"/>
   </g>
   <g id="patch_47">
    <path d="M 300.760686 307.584 
L 305.918139 307.584 
L 305.918139 110.464 
L 300.760686 110.464 
z
" clip-path="url(#p67bcbb2637)" style="fill: #ff0000; opacity: 0.4; stroke: #000000; stroke-linejoin: miter"/>
   </g>
   <g id="patch_48">
    <path d="M 305.918139 307.584 
L 311.075593 307.584 
L 311.075593 110.464 
L 305.918139 110.464 
z
" clip-path="url(#p67bcbb2637)" style="fill: #ff0000; opacity: 0.4; stroke: #000000; stroke-linejoin: miter"/>
   </g>
   <g id="patch_49">
    <path d="M 311.075593 307.584 
L 316.233047 307.584 
L 316.233047 138.624 
L 311.075593 138.624 
z
" clip-path="url(#p67bcbb2637)" style="fill: #ff0000; opacity: 0.4; stroke: #000000; stroke-linejoin: miter"/>
   </g>
   <g id="patch_50">
    <path d="M 316.233047 307.584 
L 321.3905 307.584 
L 321.3905 204.330667 
L 316.233047 204.330667 
z
" clip-path="url(#p67bcbb2637)" style="fill: #ff0000; opacity: 0.4; stroke: #000000; stroke-linejoin: miter"/>
   </g>
   <g id="patch_51">
    <path d="M 321.3905 307.584 
L 326.547954 307.584 
L 326.547954 176.170667 
L 321.3905 176.170667 
z
" clip-path="url(#p67bcbb2637)" style="fill: #ff0000; opacity: 0.4; stroke: #000000; stroke-linejoin: miter"/>
   </g>
   <g id="patch_52">
    <path d="M 326.547954 307.584 
L 331.705407 307.584 
L 331.705407 148.010667 
L 326.547954 148.010667 
z
" clip-path="url(#p67bcbb2637)" style="fill: #ff0000; opacity: 0.4; stroke: #000000; stroke-linejoin: miter"/>
   </g>
   <g id="patch_53">
    <path d="M 331.705407 307.584 
L 336.862861 307.584 
L 336.862861 204.330667 
L 331.705407 204.330667 
z
" clip-path="url(#p67bcbb2637)" style="fill: #ff0000; opacity: 0.4; stroke: #000000; stroke-linejoin: miter"/>
   </g>
   <g id="patch_54">
    <path d="M 336.862861 307.584 
L 342.020315 307.584 
L 342.020315 194.944 
L 336.862861 194.944 
z
" clip-path="url(#p67bcbb2637)" style="fill: #ff0000; opacity: 0.4; stroke: #000000; stroke-linejoin: miter"/>
   </g>
   <g id="patch_55">
    <path d="M 342.020315 307.584 
L 347.177768 307.584 
L 347.177768 260.650667 
L 342.020315 260.650667 
z
" clip-path="url(#p67bcbb2637)" style="fill: #ff0000; opacity: 0.4; stroke: #000000; stroke-linejoin: miter"/>
   </g>
   <g id="patch_56">
    <path d="M 347.177768 307.584 
L 352.335222 307.584 
L 352.335222 213.717333 
L 347.177768 213.717333 
z
" clip-path="url(#p67bcbb2637)" style="fill: #ff0000; opacity: 0.4; stroke: #000000; stroke-linejoin: miter"/>
   </g>
   <g id="patch_57">
    <path d="M 352.335222 307.584 
L 357.492675 307.584 
L 357.492675 251.264 
L 352.335222 251.264 
z
" clip-path="url(#p67bcbb2637)" style="fill: #ff0000; opacity: 0.4; stroke: #000000; stroke-linejoin: miter"/>
   </g>
   <g id="patch_58">
    <path d="M 357.492675 307.584 
L 362.650129 307.584 
L 362.650129 288.810667 
L 357.492675 288.810667 
z
" clip-path="url(#p67bcbb2637)" style="fill: #ff0000; opacity: 0.4; stroke: #000000; stroke-linejoin: miter"/>
   </g>
   <g id="patch_59">
    <path d="M 362.650129 307.584 
L 367.807583 307.584 
L 367.807583 307.584 
L 362.650129 307.584 
z
" clip-path="url(#p67bcbb2637)" style="fill: #ff0000; opacity: 0.4; stroke: #000000; stroke-linejoin: miter"/>
   </g>
   <g id="patch_60">
    <path d="M 367.807583 307.584 
L 372.965036 307.584 
L 372.965036 298.197333 
L 367.807583 298.197333 
z
" clip-path="url(#p67bcbb2637)" style="fill: #ff0000; opacity: 0.4; stroke: #000000; stroke-linejoin: miter"/>
   </g>
   <g id="patch_61">
    <path d="M 372.965036 307.584 
L 378.12249 307.584 
L 378.12249 298.197333 
L 372.965036 298.197333 
z
" clip-path="url(#p67bcbb2637)" style="fill: #ff0000; opacity: 0.4; stroke: #000000; stroke-linejoin: miter"/>
   </g>
   <g id="patch_62">
    <path d="M 378.12249 307.584 
L 383.279943 307.584 
L 383.279943 298.197333 
L 378.12249 298.197333 
z
" clip-path="url(#p67bcbb2637)" style="fill: #ff0000; opacity: 0.4; stroke: #000000; stroke-linejoin: miter"/>
   </g>
   <g id="patch_63">
    <path d="M 87.982391 307.584 
L 93.157472 307.584 
L 93.157472 295.556537 
L 87.982391 295.556537 
z
" clip-path="url(#p67bcbb2637)" style="fill: #0000ff; opacity: 0.4; stroke: #000000; stroke-linejoin: miter"/>
   </g>
   <g id="patch_64">
    <path d="M 93.157472 307.584 
L 98.332553 307.584 
L 98.332553 283.529075 
L 93.157472 283.529075 
z
" clip-path="url(#p67bcbb2637)" style="fill: #0000ff; opacity: 0.4; stroke: #000000; stroke-linejoin: miter"/>
   </g>
   <g id="patch_65">
    <path d="M 98.332553 307.584 
L 103.507635 307.584 
L 103.507635 295.556537 
L 98.332553 295.556537 
z
" clip-path="url(#p67bcbb2637)" style="fill: #0000ff; opacity: 0.4; stroke: #000000; stroke-linejoin: miter"/>
   </g>
   <g id="patch_66">
    <path d="M 103.507635 307.584 
L 108.682716 307.584 
L 108.682716 283.529075 
L 103.507635 283.529075 
z
" clip-path="url(#p67bcbb2637)" style="fill: #0000ff; opacity: 0.4; stroke: #000000; stroke-linejoin: miter"/>
   </g>
   <g id="patch_67">
    <path d="M 108.682716 307.584 
L 113.857797 307.584 
L 113.857797 287.538229 
L 108.682716 287.538229 
z
" clip-path="url(#p67bcbb2637)" style="fill: #0000ff; opacity: 0.4; stroke: #000000; stroke-linejoin: miter"/>
   </g>
   <g id="patch_68">
    <path d="M 113.857797 307.584 
L 119.032879 307.584 
L 119.032879 271.501612 
L 113.857797 271.501612 
z
" clip-path="url(#p67bcbb2637)" style="fill: #0000ff; opacity: 0.4; stroke: #000000; stroke-linejoin: miter"/>
   </g>
   <g id="patch_69">
    <path d="M 119.032879 307.584 
L 124.20796 307.584 
L 124.20796 263.483304 
L 119.032879 263.483304 
z
" clip-path="url(#p67bcbb2637)" style="fill: #0000ff; opacity: 0.4; stroke: #000000; stroke-linejoin: miter"/>
   </g>
   <g id="patch_70">
    <path d="M 124.20796 307.584 
L 129.383041 307.584 
L 129.383041 235.419225 
L 124.20796 235.419225 
z
" clip-path="url(#p67bcbb2637)" style="fill: #0000ff; opacity: 0.4; stroke: #000000; stroke-linejoin: miter"/>
   </g>
   <g id="patch_71">
    <path d="M 129.383041 307.584 
L 134.558123 307.584 
L 134.558123 203.345992 
L 129.383041 203.345992 
z
" clip-path="url(#p67bcbb2637)" style="fill: #0000ff; opacity: 0.4; stroke: #000000; stroke-linejoin: miter"/>
   </g>
   <g id="patch_72">
    <path d="M 134.558123 307.584 
L 139.733204 307.584 
L 139.733204 195.327683 
L 134.558123 195.327683 
z
" clip-path="url(#p67bcbb2637)" style="fill: #0000ff; opacity: 0.4; stroke: #000000; stroke-linejoin: miter"/>
   </g>
   <g id="patch_73">
    <path d="M 139.733204 307.584 
L 144.908286 307.584 
L 144.908286 199.336837 
L 139.733204 199.336837 
z
" clip-path="url(#p67bcbb2637)" style="fill: #0000ff; opacity: 0.4; stroke: #000000; stroke-linejoin: miter"/>
   </g>
   <g id="patch_74">
    <path d="M 144.908286 307.584 
L 150.083367 307.584 
L 150.083367 175.281912 
L 144.908286 175.281912 
z
" clip-path="url(#p67bcbb2637)" style="fill: #0000ff; opacity: 0.4; stroke: #000000; stroke-linejoin: miter"/>
   </g>
   <g id="patch_75">
    <path d="M 150.083367 307.584 
L 155.258448 307.584 
L 155.258448 171.272758 
L 150.083367 171.272758 
z
" clip-path="url(#p67bcbb2637)" style="fill: #0000ff; opacity: 0.4; stroke: #000000; stroke-linejoin: miter"/>
   </g>
   <g id="patch_76">
    <path d="M 155.258448 307.584 
L 160.43353 307.584 
L 160.43353 111.135446 
L 155.258448 111.135446 
z
" clip-path="url(#p67bcbb2637)" style="fill: #0000ff; opacity: 0.4; stroke: #000000; stroke-linejoin: miter"/>
   </g>
   <g id="patch_77">
    <path d="M 160.43353 307.584 
L 165.608611 307.584 
L 165.608611 163.25445 
L 160.43353 163.25445 
z
" clip-path="url(#p67bcbb2637)" style="fill: #0000ff; opacity: 0.4; stroke: #000000; stroke-linejoin: miter"/>
   </g>
   <g id="patch_78">
    <path d="M 165.608611 307.584 
L 170.783692 307.584 
L 170.783692 139.199525 
L 165.608611 139.199525 
z
" clip-path="url(#p67bcbb2637)" style="fill: #0000ff; opacity: 0.4; stroke: #000000; stroke-linejoin: miter"/>
   </g>
   <g id="patch_79">
    <path d="M 170.783692 307.584 
L 175.958774 307.584 
L 175.958774 119.153754 
L 170.783692 119.153754 
z
" clip-path="url(#p67bcbb2637)" style="fill: #0000ff; opacity: 0.4; stroke: #000000; stroke-linejoin: miter"/>
   </g>
   <g id="patch_80">
    <path d="M 175.958774 307.584 
L 181.133855 307.584 
L 181.133855 179.291066 
L 175.958774 179.291066 
z
" clip-path="url(#p67bcbb2637)" style="fill: #0000ff; opacity: 0.4; stroke: #000000; stroke-linejoin: miter"/>
   </g>
   <g id="patch_81">
    <path d="M 181.133855 307.584 
L 186.308937 307.584 
L 186.308937 79.062212 
L 181.133855 79.062212 
z
" clip-path="url(#p67bcbb2637)" style="fill: #0000ff; opacity: 0.4; stroke: #000000; stroke-linejoin: miter"/>
   </g>
   <g id="patch_82">
    <path d="M 186.308937 307.584 
L 191.484018 307.584 
L 191.484018 183.300221 
L 186.308937 183.300221 
z
" clip-path="url(#p67bcbb2637)" style="fill: #0000ff; opacity: 0.4; stroke: #000000; stroke-linejoin: miter"/>
   </g>
   <g id="patch_83">
    <path d="M 191.484018 307.584 
L 196.659099 307.584 
L 196.659099 195.327683 
L 191.484018 195.327683 
z
" clip-path="url(#p67bcbb2637)" style="fill: #0000ff; opacity: 0.4; stroke: #000000; stroke-linejoin: miter"/>
   </g>
   <g id="patch_84">
    <path d="M 196.659099 307.584 
L 201.834181 307.584 
L 201.834181 191.318529 
L 196.659099 191.318529 
z
" clip-path="url(#p67bcbb2637)" style="fill: #0000ff; opacity: 0.4; stroke: #000000; stroke-linejoin: miter"/>
   </g>
   <g id="patch_85">
    <path d="M 201.834181 307.584 
L 207.009262 307.584 
L 207.009262 171.272758 
L 201.834181 171.272758 
z
" clip-path="url(#p67bcbb2637)" style="fill: #0000ff; opacity: 0.4; stroke: #000000; stroke-linejoin: miter"/>
   </g>
   <g id="patch_86">
    <path d="M 207.009262 307.584 
L 212.184343 307.584 
L 212.184343 179.291066 
L 207.009262 179.291066 
z
" clip-path="url(#p67bcbb2637)" style="fill: #0000ff; opacity: 0.4; stroke: #000000; stroke-linejoin: miter"/>
   </g>
   <g id="patch_87">
    <path d="M 212.184343 307.584 
L 217.359425 307.584 
L 217.359425 183.300221 
L 212.184343 183.300221 
z
" clip-path="url(#p67bcbb2637)" style="fill: #0000ff; opacity: 0.4; stroke: #000000; stroke-linejoin: miter"/>
   </g>
   <g id="patch_88">
    <path d="M 217.359425 307.584 
L 222.534506 307.584 
L 222.534506 119.153754 
L 217.359425 119.153754 
z
" clip-path="url(#p67bcbb2637)" style="fill: #0000ff; opacity: 0.4; stroke: #000000; stroke-linejoin: miter"/>
   </g>
   <g id="patch_89">
    <path d="M 222.534506 307.584 
L 227.709588 307.584 
L 227.709588 147.217833 
L 222.534506 147.217833 
z
" clip-path="url(#p67bcbb2637)" style="fill: #0000ff; opacity: 0.4; stroke: #000000; stroke-linejoin: miter"/>
   </g>
   <g id="patch_90">
    <path d="M 227.709588 307.584 
L 232.884669 307.584 
L 232.884669 155.236141 
L 227.709588 155.236141 
z
" clip-path="url(#p67bcbb2637)" style="fill: #0000ff; opacity: 0.4; stroke: #000000; stroke-linejoin: miter"/>
   </g>
   <g id="patch_91">
    <path d="M 232.884669 307.584 
L 238.05975 307.584 
L 238.05975 103.117137 
L 232.884669 103.117137 
z
" clip-path="url(#p67bcbb2637)" style="fill: #0000ff; opacity: 0.4; stroke: #000000; stroke-linejoin: miter"/>
   </g>
   <g id="patch_92">
    <path d="M 238.05975 307.584 
L 243.234832 307.584 
L 243.234832 103.117137 
L 238.05975 103.117137 
z
" clip-path="url(#p67bcbb2637)" style="fill: #0000ff; opacity: 0.4; stroke: #000000; stroke-linejoin: miter"/>
   </g>
   <g id="patch_93">
    <path d="M 243.234832 307.584 
L 248.409913 307.584 
L 248.409913 135.190371 
L 243.234832 135.190371 
z
" clip-path="url(#p67bcbb2637)" style="fill: #0000ff; opacity: 0.4; stroke: #000000; stroke-linejoin: miter"/>
   </g>
   <g id="patch_94">
    <path d="M 248.409913 307.584 
L 253.584994 307.584 
L 253.584994 175.281912 
L 248.409913 175.281912 
z
" clip-path="url(#p67bcbb2637)" style="fill: #0000ff; opacity: 0.4; stroke: #000000; stroke-linejoin: miter"/>
   </g>
   <g id="patch_95">
    <path d="M 253.584994 307.584 
L 258.760076 307.584 
L 258.760076 155.236141 
L 253.584994 155.236141 
z
" clip-path="url(#p67bcbb2637)" style="fill: #0000ff; opacity: 0.4; stroke: #000000; stroke-linejoin: miter"/>
   </g>
   <g id="patch_96">
    <path d="M 258.760076 307.584 
L 263.935157 307.584 
L 263.935157 207.355146 
L 258.760076 207.355146 
z
" clip-path="url(#p67bcbb2637)" style="fill: #0000ff; opacity: 0.4; stroke: #000000; stroke-linejoin: miter"/>
   </g>
   <g id="patch_97">
    <path d="M 263.935157 307.584 
L 269.110238 307.584 
L 269.110238 187.309375 
L 263.935157 187.309375 
z
" clip-path="url(#p67bcbb2637)" style="fill: #0000ff; opacity: 0.4; stroke: #000000; stroke-linejoin: miter"/>
   </g>
   <g id="patch_98">
    <path d="M 269.110238 307.584 
L 274.28532 307.584 
L 274.28532 187.309375 
L 269.110238 187.309375 
z
" clip-path="url(#p67bcbb2637)" style="fill: #0000ff; opacity: 0.4; stroke: #000000; stroke-linejoin: miter"/>
   </g>
   <g id="patch_99">
    <path d="M 274.28532 307.584 
L 279.460401 307.584 
L 279.460401 171.272758 
L 274.28532 171.272758 
z
" clip-path="url(#p67bcbb2637)" style="fill: #0000ff; opacity: 0.4; stroke: #000000; stroke-linejoin: miter"/>
   </g>
   <g id="patch_100">
    <path d="M 279.460401 307.584 
L 284.635483 307.584 
L 284.635483 167.263604 
L 279.460401 167.263604 
z
" clip-path="url(#p67bcbb2637)" style="fill: #0000ff; opacity: 0.4; stroke: #000000; stroke-linejoin: miter"/>
   </g>
   <g id="patch_101">
    <path d="M 284.635483 307.584 
L 289.810564 307.584 
L 289.810564 179.291066 
L 284.635483 179.291066 
z
" clip-path="url(#p67bcbb2637)" style="fill: #0000ff; opacity: 0.4; stroke: #000000; stroke-linejoin: miter"/>
   </g>
   <g id="patch_102">
    <path d="M 289.810564 307.584 
L 294.985645 307.584 
L 294.985645 143.208679 
L 289.810564 143.208679 
z
" clip-path="url(#p67bcbb2637)" style="fill: #0000ff; opacity: 0.4; stroke: #000000; stroke-linejoin: miter"/>
   </g>
   <g id="patch_103">
    <path d="M 294.985645 307.584 
L 300.160727 307.584 
L 300.160727 163.25445 
L 294.985645 163.25445 
z
" clip-path="url(#p67bcbb2637)" style="fill: #0000ff; opacity: 0.4; stroke: #000000; stroke-linejoin: miter"/>
   </g>
   <g id="patch_104">
    <path d="M 300.160727 307.584 
L 305.335808 307.584 
L 305.335808 111.135446 
L 300.160727 111.135446 
z
" clip-path="url(#p67bcbb2637)" style="fill: #0000ff; opacity: 0.4; stroke: #000000; stroke-linejoin: miter"/>
   </g>
   <g id="patch_105">
    <path d="M 305.335808 307.584 
L 310.510889 307.584 
L 310.510889 107.126291 
L 305.335808 107.126291 
z
" clip-path="url(#p67bcbb2637)" style="fill: #0000ff; opacity: 0.4; stroke: #000000; stroke-linejoin: miter"/>
   </g>
   <g id="patch_106">
    <path d="M 310.510889 307.584 
L 315.685971 307.584 
L 315.685971 143.208679 
L 310.510889 143.208679 
z
" clip-path="url(#p67bcbb2637)" style="fill: #0000ff; opacity: 0.4; stroke: #000000; stroke-linejoin: miter"/>
   </g>
   <g id="patch_107">
    <path d="M 315.685971 307.584 
L 320.861052 307.584 
L 320.861052 111.135446 
L 315.685971 111.135446 
z
" clip-path="url(#p67bcbb2637)" style="fill: #0000ff; opacity: 0.4; stroke: #000000; stroke-linejoin: miter"/>
   </g>
   <g id="patch_108">
    <path d="M 320.861052 307.584 
L 326.036134 307.584 
L 326.036134 183.300221 
L 320.861052 183.300221 
z
" clip-path="url(#p67bcbb2637)" style="fill: #0000ff; opacity: 0.4; stroke: #000000; stroke-linejoin: miter"/>
   </g>
   <g id="patch_109">
    <path d="M 326.036134 307.584 
L 331.211215 307.584 
L 331.211215 139.199525 
L 326.036134 139.199525 
z
" clip-path="url(#p67bcbb2637)" style="fill: #0000ff; opacity: 0.4; stroke: #000000; stroke-linejoin: miter"/>
   </g>
   <g id="patch_110">
    <path d="M 331.211215 307.584 
L 336.386296 307.584 
L 336.386296 179.291066 
L 331.211215 179.291066 
z
" clip-path="url(#p67bcbb2637)" style="fill: #0000ff; opacity: 0.4; stroke: #000000; stroke-linejoin: miter"/>
   </g>
   <g id="patch_111">
    <path d="M 336.386296 307.584 
L 341.561378 307.584 
L 341.561378 175.281912 
L 336.386296 175.281912 
z
" clip-path="url(#p67bcbb2637)" style="fill: #0000ff; opacity: 0.4; stroke: #000000; stroke-linejoin: miter"/>
   </g>
   <g id="patch_112">
    <path d="M 341.561378 307.584 
L 346.736459 307.584 
L 346.736459 227.400917 
L 341.561378 227.400917 
z
" clip-path="url(#p67bcbb2637)" style="fill: #0000ff; opacity: 0.4; stroke: #000000; stroke-linejoin: miter"/>
   </g>
   <g id="patch_113">
    <path d="M 346.736459 307.584 
L 351.91154 307.584 
L 351.91154 207.355146 
L 346.736459 207.355146 
z
" clip-path="url(#p67bcbb2637)" style="fill: #0000ff; opacity: 0.4; stroke: #000000; stroke-linejoin: miter"/>
   </g>
   <g id="patch_114">
    <path d="M 351.91154 307.584 
L 357.086622 307.584 
L 357.086622 243.437533 
L 351.91154 243.437533 
z
" clip-path="url(#p67bcbb2637)" style="fill: #0000ff; opacity: 0.4; stroke: #000000; stroke-linejoin: miter"/>
   </g>
   <g id="patch_115">
    <path d="M 357.086622 307.584 
L 362.261703 307.584 
L 362.261703 267.492458 
L 357.086622 267.492458 
z
" clip-path="url(#p67bcbb2637)" style="fill: #0000ff; opacity: 0.4; stroke: #000000; stroke-linejoin: miter"/>
   </g>
   <g id="patch_116">
    <path d="M 362.261703 307.584 
L 367.436785 307.584 
L 367.436785 271.501612 
L 362.261703 271.501612 
z
" clip-path="url(#p67bcbb2637)" style="fill: #0000ff; opacity: 0.4; stroke: #000000; stroke-linejoin: miter"/>
   </g>
   <g id="patch_117">
    <path d="M 367.436785 307.584 
L 372.611866 307.584 
L 372.611866 283.529075 
L 367.436785 283.529075 
z
" clip-path="url(#p67bcbb2637)" style="fill: #0000ff; opacity: 0.4; stroke: #000000; stroke-linejoin: miter"/>
   </g>
   <g id="patch_118">
    <path d="M 372.611866 307.584 
L 377.786947 307.584 
L 377.786947 291.547383 
L 372.611866 291.547383 
z
" clip-path="url(#p67bcbb2637)" style="fill: #0000ff; opacity: 0.4; stroke: #000000; stroke-linejoin: miter"/>
   </g>
   <g id="patch_119">
    <path d="M 377.786947 307.584 
L 382.962029 307.584 
L 382.962029 303.574846 
L 377.786947 303.574846 
z
" clip-path="url(#p67bcbb2637)" style="fill: #0000ff; opacity: 0.4; stroke: #000000; stroke-linejoin: miter"/>
   </g>
   <g id="patch_120">
    <path d="M 382.962029 307.584 
L 388.13711 307.584 
L 388.13711 307.584 
L 382.962029 307.584 
z
" clip-path="url(#p67bcbb2637)" style="fill: #0000ff; opacity: 0.4; stroke: #000000; stroke-linejoin: miter"/>
   </g>
   <g id="patch_121">
    <path d="M 388.13711 307.584 
L 393.312191 307.584 
L 393.312191 307.584 
L 388.13711 307.584 
z
" clip-path="url(#p67bcbb2637)" style="fill: #0000ff; opacity: 0.4; stroke: #000000; stroke-linejoin: miter"/>
   </g>
   <g id="patch_122">
    <path d="M 393.312191 307.584 
L 398.487273 307.584 
L 398.487273 303.574846 
L 393.312191 303.574846 
z
" clip-path="url(#p67bcbb2637)" style="fill: #0000ff; opacity: 0.4; stroke: #000000; stroke-linejoin: miter"/>
   </g>
   <g id="matplotlib.axis_1">
    <g id="xtick_1">
     <g id="line2d_1">
      <defs>
       <path id="mda983c0139" d="M 0 0 
L 0 3.5 
" style="stroke: #000000; stroke-width: 0.8"/>
      </defs>
      <g>
       <use xlink:href="#mda983c0139" x="111.025313" y="307.584" style="stroke: #000000; stroke-width: 0.8"/>
      </g>
     </g>
     <g id="text_1">
      <!-- −30 -->
      <g transform="translate(100.472969 322.182437) scale(0.1 -0.1)">
       <defs>
        <path id="DejaVuSans-2212" d="M 678 2272 
L 4684 2272 
L 4684 1741 
L 678 1741 
L 678 2272 
z
" transform="scale(0.015625)"/>
        <path id="DejaVuSans-33" d="M 2597 2516 
Q 3050 2419 3304 2112 
Q 3559 1806 3559 1356 
Q 3559 666 3084 287 
Q 2609 -91 1734 -91 
Q 1441 -91 1130 -33 
Q 819 25 488 141 
L 488 750 
Q 750 597 1062 519 
Q 1375 441 1716 441 
Q 2309 441 2620 675 
Q 2931 909 2931 1356 
Q 2931 1769 2642 2001 
Q 2353 2234 1838 2234 
L 1294 2234 
L 1294 2753 
L 1863 2753 
Q 2328 2753 2575 2939 
Q 2822 3125 2822 3475 
Q 2822 3834 2567 4026 
Q 2313 4219 1838 4219 
Q 1578 4219 1281 4162 
Q 984 4106 628 3988 
L 628 4550 
Q 988 4650 1302 4700 
Q 1616 4750 1894 4750 
Q 2613 4750 3031 4423 
Q 3450 4097 3450 3541 
Q 3450 3153 3228 2886 
Q 3006 2619 2597 2516 
z
" transform="scale(0.015625)"/>
        <path id="DejaVuSans-30" d="M 2034 4250 
Q 1547 4250 1301 3770 
Q 1056 3291 1056 2328 
Q 1056 1369 1301 889 
Q 1547 409 2034 409 
Q 2525 409 2770 889 
Q 3016 1369 3016 2328 
Q 3016 3291 2770 3770 
Q 2525 4250 2034 4250 
z
M 2034 4750 
Q 2819 4750 3233 4129 
Q 3647 3509 3647 2328 
Q 3647 1150 3233 529 
Q 2819 -91 2034 -91 
Q 1250 -91 836 529 
Q 422 1150 422 2328 
Q 422 3509 836 4129 
Q 1250 4750 2034 4750 
z
" transform="scale(0.015625)"/>
       </defs>
       <use xlink:href="#DejaVuSans-2212"/>
       <use xlink:href="#DejaVuSans-33" x="83.789062"/>
       <use xlink:href="#DejaVuSans-30" x="147.412109"/>
      </g>
     </g>
    </g>
    <g id="xtick_2">
     <g id="line2d_2">
      <g>
       <use xlink:href="#mda983c0139" x="175.600618" y="307.584" style="stroke: #000000; stroke-width: 0.8"/>
      </g>
     </g>
     <g id="text_2">
      <!-- −20 -->
      <g transform="translate(165.048274 322.182437) scale(0.1 -0.1)">
       <defs>
        <path id="DejaVuSans-32" d="M 1228 531 
L 3431 531 
L 3431 0 
L 469 0 
L 469 531 
Q 828 903 1448 1529 
Q 2069 2156 2228 2338 
Q 2531 2678 2651 2914 
Q 2772 3150 2772 3378 
Q 2772 3750 2511 3984 
Q 2250 4219 1831 4219 
Q 1534 4219 1204 4116 
Q 875 4013 500 3803 
L 500 4441 
Q 881 4594 1212 4672 
Q 1544 4750 1819 4750 
Q 2544 4750 2975 4387 
Q 3406 4025 3406 3419 
Q 3406 3131 3298 2873 
Q 3191 2616 2906 2266 
Q 2828 2175 2409 1742 
Q 1991 1309 1228 531 
z
" transform="scale(0.015625)"/>
       </defs>
       <use xlink:href="#DejaVuSans-2212"/>
       <use xlink:href="#DejaVuSans-32" x="83.789062"/>
       <use xlink:href="#DejaVuSans-30" x="147.412109"/>
      </g>
     </g>
    </g>
    <g id="xtick_3">
     <g id="line2d_3">
      <g>
       <use xlink:href="#mda983c0139" x="240.175922" y="307.584" style="stroke: #000000; stroke-width: 0.8"/>
      </g>
     </g>
     <g id="text_3">
      <!-- −10 -->
      <g transform="translate(229.623578 322.182437) scale(0.1 -0.1)">
       <defs>
        <path id="DejaVuSans-31" d="M 794 531 
L 1825 531 
L 1825 4091 
L 703 3866 
L 703 4441 
L 1819 4666 
L 2450 4666 
L 2450 531 
L 3481 531 
L 3481 0 
L 794 0 
L 794 531 
z
" transform="scale(0.015625)"/>
       </defs>
       <use xlink:href="#DejaVuSans-2212"/>
       <use xlink:href="#DejaVuSans-31" x="83.789062"/>
       <use xlink:href="#DejaVuSans-30" x="147.412109"/>
      </g>
     </g>
    </g>
    <g id="xtick_4">
     <g id="line2d_4">
      <g>
       <use xlink:href="#mda983c0139" x="304.751227" y="307.584" style="stroke: #000000; stroke-width: 0.8"/>
      </g>
     </g>
     <g id="text_4">
      <!-- 0 -->
      <g transform="translate(301.569977 322.182437) scale(0.1 -0.1)">
       <use xlink:href="#DejaVuSans-30"/>
      </g>
     </g>
    </g>
    <g id="xtick_5">
     <g id="line2d_5">
      <g>
       <use xlink:href="#mda983c0139" x="369.326531" y="307.584" style="stroke: #000000; stroke-width: 0.8"/>
      </g>
     </g>
     <g id="text_5">
      <!-- 10 -->
      <g transform="translate(362.964031 322.182437) scale(0.1 -0.1)">
       <use xlink:href="#DejaVuSans-31"/>
       <use xlink:href="#DejaVuSans-30" x="63.623047"/>
      </g>
     </g>
    </g>
   </g>
   <g id="matplotlib.axis_2">
    <g id="ytick_1">
     <g id="line2d_6">
      <defs>
       <path id="m5c6cd52e5c" d="M 0 0 
L -3.5 0 
" style="stroke: #000000; stroke-width: 0.8"/>
      </defs>
      <g>
       <use xlink:href="#m5c6cd52e5c" x="57.6" y="307.584" style="stroke: #000000; stroke-width: 0.8"/>
      </g>
     </g>
     <g id="text_6">
      <!-- 0.00 -->
      <g transform="translate(28.334375 311.383219) scale(0.1 -0.1)">
       <defs>
        <path id="DejaVuSans-2e" d="M 684 794 
L 1344 794 
L 1344 0 
L 684 0 
L 684 794 
z
" transform="scale(0.015625)"/>
       </defs>
       <use xlink:href="#DejaVuSans-30"/>
       <use xlink:href="#DejaVuSans-2e" x="63.623047"/>
       <use xlink:href="#DejaVuSans-30" x="95.410156"/>
       <use xlink:href="#DejaVuSans-30" x="159.033203"/>
      </g>
     </g>
    </g>
    <g id="ytick_2">
     <g id="line2d_7">
      <g>
       <use xlink:href="#m5c6cd52e5c" x="57.6" y="253.606501" style="stroke: #000000; stroke-width: 0.8"/>
      </g>
     </g>
     <g id="text_7">
      <!-- 0.01 -->
      <g transform="translate(28.334375 257.40572) scale(0.1 -0.1)">
       <use xlink:href="#DejaVuSans-30"/>
       <use xlink:href="#DejaVuSans-2e" x="63.623047"/>
       <use xlink:href="#DejaVuSans-30" x="95.410156"/>
       <use xlink:href="#DejaVuSans-31" x="159.033203"/>
      </g>
     </g>
    </g>
    <g id="ytick_3">
     <g id="line2d_8">
      <g>
       <use xlink:href="#m5c6cd52e5c" x="57.6" y="199.629002" style="stroke: #000000; stroke-width: 0.8"/>
      </g>
     </g>
     <g id="text_8">
      <!-- 0.02 -->
      <g transform="translate(28.334375 203.42822) scale(0.1 -0.1)">
       <use xlink:href="#DejaVuSans-30"/>
       <use xlink:href="#DejaVuSans-2e" x="63.623047"/>
       <use xlink:href="#DejaVuSans-30" x="95.410156"/>
       <use xlink:href="#DejaVuSans-32" x="159.033203"/>
      </g>
     </g>
    </g>
    <g id="ytick_4">
     <g id="line2d_9">
      <g>
       <use xlink:href="#m5c6cd52e5c" x="57.6" y="145.651503" style="stroke: #000000; stroke-width: 0.8"/>
      </g>
     </g>
     <g id="text_9">
      <!-- 0.03 -->
      <g transform="translate(28.334375 149.450721) scale(0.1 -0.1)">
       <use xlink:href="#DejaVuSans-30"/>
       <use xlink:href="#DejaVuSans-2e" x="63.623047"/>
       <use xlink:href="#DejaVuSans-30" x="95.410156"/>
       <use xlink:href="#DejaVuSans-33" x="159.033203"/>
      </g>
     </g>
    </g>
    <g id="ytick_5">
     <g id="line2d_10">
      <g>
       <use xlink:href="#m5c6cd52e5c" x="57.6" y="91.674003" style="stroke: #000000; stroke-width: 0.8"/>
      </g>
     </g>
     <g id="text_10">
      <!-- 0.04 -->
      <g transform="translate(28.334375 95.473222) scale(0.1 -0.1)">
       <defs>
        <path id="DejaVuSans-34" d="M 2419 4116 
L 825 1625 
L 2419 1625 
L 2419 4116 
z
M 2253 4666 
L 3047 4666 
L 3047 1625 
L 3713 1625 
L 3713 1100 
L 3047 1100 
L 3047 0 
L 2419 0 
L 2419 1100 
L 313 1100 
L 313 1709 
L 2253 4666 
z
" transform="scale(0.015625)"/>
       </defs>
       <use xlink:href="#DejaVuSans-30"/>
       <use xlink:href="#DejaVuSans-2e" x="63.623047"/>
       <use xlink:href="#DejaVuSans-30" x="95.410156"/>
       <use xlink:href="#DejaVuSans-34" x="159.033203"/>
      </g>
     </g>
    </g>
   </g>
   <g id="patch_123">
    <path d="M 57.6 307.584 
L 57.6 41.472 
" style="fill: none; stroke: #000000; stroke-width: 0.8; stroke-linejoin: miter; stroke-linecap: square"/>
   </g>
   <g id="patch_124">
    <path d="M 414.72 307.584 
L 414.72 41.472 
" style="fill: none; stroke: #000000; stroke-width: 0.8; stroke-linejoin: miter; stroke-linecap: square"/>
   </g>
   <g id="patch_125">
    <path d="M 57.6 307.584 
L 414.72 307.584 
" style="fill: none; stroke: #000000; stroke-width: 0.8; stroke-linejoin: miter; stroke-linecap: square"/>
   </g>
   <g id="patch_126">
    <path d="M 57.6 41.472 
L 414.72 41.472 
" style="fill: none; stroke: #000000; stroke-width: 0.8; stroke-linejoin: miter; stroke-linecap: square"/>
   </g>
   <g id="text_11">
    <!-- RAW_feature_2 -->
    <g transform="translate(191.0475 35.472) scale(0.12 -0.12)">
     <defs>
      <path id="DejaVuSans-52" d="M 2841 2188 
Q 3044 2119 3236 1894 
Q 3428 1669 3622 1275 
L 4263 0 
L 3584 0 
L 2988 1197 
Q 2756 1666 2539 1819 
Q 2322 1972 1947 1972 
L 1259 1972 
L 1259 0 
L 628 0 
L 628 4666 
L 2053 4666 
Q 2853 4666 3247 4331 
Q 3641 3997 3641 3322 
Q 3641 2881 3436 2590 
Q 3231 2300 2841 2188 
z
M 1259 4147 
L 1259 2491 
L 2053 2491 
Q 2509 2491 2742 2702 
Q 2975 2913 2975 3322 
Q 2975 3731 2742 3939 
Q 2509 4147 2053 4147 
L 1259 4147 
z
" transform="scale(0.015625)"/>
      <path id="DejaVuSans-41" d="M 2188 4044 
L 1331 1722 
L 3047 1722 
L 2188 4044 
z
M 1831 4666 
L 2547 4666 
L 4325 0 
L 3669 0 
L 3244 1197 
L 1141 1197 
L 716 0 
L 50 0 
L 1831 4666 
z
" transform="scale(0.015625)"/>
      <path id="DejaVuSans-57" d="M 213 4666 
L 850 4666 
L 1831 722 
L 2809 4666 
L 3519 4666 
L 4500 722 
L 5478 4666 
L 6119 4666 
L 4947 0 
L 4153 0 
L 3169 4050 
L 2175 0 
L 1381 0 
L 213 4666 
z
" transform="scale(0.015625)"/>
      <path id="DejaVuSans-5f" d="M 3263 -1063 
L 3263 -1509 
L -63 -1509 
L -63 -1063 
L 3263 -1063 
z
" transform="scale(0.015625)"/>
      <path id="DejaVuSans-66" d="M 2375 4863 
L 2375 4384 
L 1825 4384 
Q 1516 4384 1395 4259 
Q 1275 4134 1275 3809 
L 1275 3500 
L 2222 3500 
L 2222 3053 
L 1275 3053 
L 1275 0 
L 697 0 
L 697 3053 
L 147 3053 
L 147 3500 
L 697 3500 
L 697 3744 
Q 697 4328 969 4595 
Q 1241 4863 1831 4863 
L 2375 4863 
z
" transform="scale(0.015625)"/>
      <path id="DejaVuSans-65" d="M 3597 1894 
L 3597 1613 
L 953 1613 
Q 991 1019 1311 708 
Q 1631 397 2203 397 
Q 2534 397 2845 478 
Q 3156 559 3463 722 
L 3463 178 
Q 3153 47 2828 -22 
Q 2503 -91 2169 -91 
Q 1331 -91 842 396 
Q 353 884 353 1716 
Q 353 2575 817 3079 
Q 1281 3584 2069 3584 
Q 2775 3584 3186 3129 
Q 3597 2675 3597 1894 
z
M 3022 2063 
Q 3016 2534 2758 2815 
Q 2500 3097 2075 3097 
Q 1594 3097 1305 2825 
Q 1016 2553 972 2059 
L 3022 2063 
z
" transform="scale(0.015625)"/>
      <path id="DejaVuSans-61" d="M 2194 1759 
Q 1497 1759 1228 1600 
Q 959 1441 959 1056 
Q 959 750 1161 570 
Q 1363 391 1709 391 
Q 2188 391 2477 730 
Q 2766 1069 2766 1631 
L 2766 1759 
L 2194 1759 
z
M 3341 1997 
L 3341 0 
L 2766 0 
L 2766 531 
Q 2569 213 2275 61 
Q 1981 -91 1556 -91 
Q 1019 -91 701 211 
Q 384 513 384 1019 
Q 384 1609 779 1909 
Q 1175 2209 1959 2209 
L 2766 2209 
L 2766 2266 
Q 2766 2663 2505 2880 
Q 2244 3097 1772 3097 
Q 1472 3097 1187 3025 
Q 903 2953 641 2809 
L 641 3341 
Q 956 3463 1253 3523 
Q 1550 3584 1831 3584 
Q 2591 3584 2966 3190 
Q 3341 2797 3341 1997 
z
" transform="scale(0.015625)"/>
      <path id="DejaVuSans-74" d="M 1172 4494 
L 1172 3500 
L 2356 3500 
L 2356 3053 
L 1172 3053 
L 1172 1153 
Q 1172 725 1289 603 
Q 1406 481 1766 481 
L 2356 481 
L 2356 0 
L 1766 0 
Q 1100 0 847 248 
Q 594 497 594 1153 
L 594 3053 
L 172 3053 
L 172 3500 
L 594 3500 
L 594 4494 
L 1172 4494 
z
" transform="scale(0.015625)"/>
      <path id="DejaVuSans-75" d="M 544 1381 
L 544 3500 
L 1119 3500 
L 1119 1403 
Q 1119 906 1312 657 
Q 1506 409 1894 409 
Q 2359 409 2629 706 
Q 2900 1003 2900 1516 
L 2900 3500 
L 3475 3500 
L 3475 0 
L 2900 0 
L 2900 538 
Q 2691 219 2414 64 
Q 2138 -91 1772 -91 
Q 1169 -91 856 284 
Q 544 659 544 1381 
z
M 1991 3584 
L 1991 3584 
z
" transform="scale(0.015625)"/>
      <path id="DejaVuSans-72" d="M 2631 2963 
Q 2534 3019 2420 3045 
Q 2306 3072 2169 3072 
Q 1681 3072 1420 2755 
Q 1159 2438 1159 1844 
L 1159 0 
L 581 0 
L 581 3500 
L 1159 3500 
L 1159 2956 
Q 1341 3275 1631 3429 
Q 1922 3584 2338 3584 
Q 2397 3584 2469 3576 
Q 2541 3569 2628 3553 
L 2631 2963 
z
" transform="scale(0.015625)"/>
     </defs>
     <use xlink:href="#DejaVuSans-52"/>
     <use xlink:href="#DejaVuSans-41" x="65.482422"/>
     <use xlink:href="#DejaVuSans-57" x="128.390625"/>
     <use xlink:href="#DejaVuSans-5f" x="227.267578"/>
     <use xlink:href="#DejaVuSans-66" x="277.267578"/>
     <use xlink:href="#DejaVuSans-65" x="312.472656"/>
     <use xlink:href="#DejaVuSans-61" x="373.996094"/>
     <use xlink:href="#DejaVuSans-74" x="435.275391"/>
     <use xlink:href="#DejaVuSans-75" x="474.484375"/>
     <use xlink:href="#DejaVuSans-72" x="537.863281"/>
     <use xlink:href="#DejaVuSans-65" x="576.726562"/>
     <use xlink:href="#DejaVuSans-5f" x="638.25"/>
     <use xlink:href="#DejaVuSans-32" x="688.25"/>
    </g>
   </g>
   <g id="legend_1">
    <g id="patch_127">
     <path d="M 341.246563 78.82825 
L 407.72 78.82825 
Q 409.72 78.82825 409.72 76.82825 
L 409.72 48.472 
Q 409.72 46.472 407.72 46.472 
L 341.246563 46.472 
Q 339.246563 46.472 339.246563 48.472 
L 339.246563 76.82825 
Q 339.246563 78.82825 341.246563 78.82825 
z
" style="fill: #ffffff; opacity: 0.8; stroke: #cccccc; stroke-linejoin: miter"/>
    </g>
    <g id="patch_128">
     <path d="M 343.246563 58.070437 
L 363.246563 58.070437 
L 363.246563 51.070437 
L 343.246563 51.070437 
z
" style="fill: #ff0000; opacity: 0.4; stroke: #000000; stroke-linejoin: miter"/>
    </g>
    <g id="text_12">
     <!-- male -->
     <g transform="translate(371.246563 58.070437) scale(0.1 -0.1)">
      <defs>
       <path id="DejaVuSans-6d" d="M 3328 2828 
Q 3544 3216 3844 3400 
Q 4144 3584 4550 3584 
Q 5097 3584 5394 3201 
Q 5691 2819 5691 2113 
L 5691 0 
L 5113 0 
L 5113 2094 
Q 5113 2597 4934 2840 
Q 4756 3084 4391 3084 
Q 3944 3084 3684 2787 
Q 3425 2491 3425 1978 
L 3425 0 
L 2847 0 
L 2847 2094 
Q 2847 2600 2669 2842 
Q 2491 3084 2119 3084 
Q 1678 3084 1418 2786 
Q 1159 2488 1159 1978 
L 1159 0 
L 581 0 
L 581 3500 
L 1159 3500 
L 1159 2956 
Q 1356 3278 1631 3431 
Q 1906 3584 2284 3584 
Q 2666 3584 2933 3390 
Q 3200 3197 3328 2828 
z
" transform="scale(0.015625)"/>
       <path id="DejaVuSans-6c" d="M 603 4863 
L 1178 4863 
L 1178 0 
L 603 0 
L 603 4863 
z
" transform="scale(0.015625)"/>
      </defs>
      <use xlink:href="#DejaVuSans-6d"/>
      <use xlink:href="#DejaVuSans-61" x="97.412109"/>
      <use xlink:href="#DejaVuSans-6c" x="158.691406"/>
      <use xlink:href="#DejaVuSans-65" x="186.474609"/>
     </g>
    </g>
    <g id="patch_129">
     <path d="M 343.246563 72.748562 
L 363.246563 72.748562 
L 363.246563 65.748562 
L 343.246563 65.748562 
z
" style="fill: #0000ff; opacity: 0.4; stroke: #000000; stroke-linejoin: miter"/>
    </g>
    <g id="text_13">
     <!-- female -->
     <g transform="translate(371.246563 72.748562) scale(0.1 -0.1)">
      <use xlink:href="#DejaVuSans-66"/>
      <use xlink:href="#DejaVuSans-65" x="35.205078"/>
      <use xlink:href="#DejaVuSans-6d" x="96.728516"/>
      <use xlink:href="#DejaVuSans-61" x="194.140625"/>
      <use xlink:href="#DejaVuSans-6c" x="255.419922"/>
      <use xlink:href="#DejaVuSans-65" x="283.203125"/>
     </g>
    </g>
   </g>
  </g>
 </g>
 <defs>
  <clipPath id="p67bcbb2637">
   <rect x="57.6" y="41.472" width="357.12" height="266.112"/>
  </clipPath>
 </defs>
</svg>
