<?xml version="1.0" encoding="utf-8" standalone="no"?>
<!DOCTYPE svg PUBLIC "-//W3C//DTD SVG 1.1//EN"
  "http://www.w3.org/Graphics/SVG/1.1/DTD/svg11.dtd">
<svg xmlns:xlink="http://www.w3.org/1999/xlink" width="460.8pt" height="345.6pt" viewBox="0 0 460.8 345.6" xmlns="http://www.w3.org/2000/svg" version="1.1">
 <metadata>
  <rdf:RDF xmlns:dc="http://purl.org/dc/elements/1.1/" xmlns:cc="http://creativecommons.org/ns#" xmlns:rdf="http://www.w3.org/1999/02/22-rdf-syntax-ns#">
   <cc:Work>
    <dc:type rdf:resource="http://purl.org/dc/dcmitype/StillImage"/>
    <dc:date>2023-06-02T11:31:41.442376</dc:date>
    <dc:format>image/svg+xml</dc:format>
    <dc:creator>
     <cc:Agent>
      <dc:title>Matplotlib v3.7.0, https://matplotlib.org/</dc:title>
     </cc:Agent>
    </dc:creator>
   </cc:Work>
  </rdf:RDF>
 </metadata>
 <defs>
  <style type="text/css">*{stroke-linejoin: round; stroke-linecap: butt}</style>
 </defs>
 <g id="figure_1">
  <g id="patch_1">
   <path d="M 0 345.6 
L 460.8 345.6 
L 460.8 0 
L 0 0 
z
" style="fill: #ffffff"/>
  </g>
  <g id="axes_1">
   <g id="patch_2">
    <path d="M 57.6 307.584 
L 414.72 307.584 
L 414.72 41.472 
L 57.6 41.472 
z
" style="fill: #ffffff"/>
   </g>
   <g id="patch_3">
    <path d="M 73.832727 307.584 
L 78.521005 307.584 
L 78.521005 290.105379 
L 73.832727 290.105379 
z
" clip-path="url(#p51d9eb0c42)" style="fill: #ff0000; opacity: 0.4; stroke: #000000; stroke-linejoin: miter"/>
   </g>
   <g id="patch_4">
    <path d="M 78.521005 307.584 
L 83.209282 307.584 
L 83.209282 307.584 
L 78.521005 307.584 
z
" clip-path="url(#p51d9eb0c42)" style="fill: #ff0000; opacity: 0.4; stroke: #000000; stroke-linejoin: miter"/>
   </g>
   <g id="patch_5">
    <path d="M 83.209282 307.584 
L 87.897559 307.584 
L 87.897559 281.366069 
L 83.209282 281.366069 
z
" clip-path="url(#p51d9eb0c42)" style="fill: #ff0000; opacity: 0.4; stroke: #000000; stroke-linejoin: miter"/>
   </g>
   <g id="patch_6">
    <path d="M 87.897559 307.584 
L 92.585837 307.584 
L 92.585837 272.626759 
L 87.897559 272.626759 
z
" clip-path="url(#p51d9eb0c42)" style="fill: #ff0000; opacity: 0.4; stroke: #000000; stroke-linejoin: miter"/>
   </g>
   <g id="patch_7">
    <path d="M 92.585837 307.584 
L 97.274114 307.584 
L 97.274114 290.105379 
L 92.585837 290.105379 
z
" clip-path="url(#p51d9eb0c42)" style="fill: #ff0000; opacity: 0.4; stroke: #000000; stroke-linejoin: miter"/>
   </g>
   <g id="patch_8">
    <path d="M 97.274114 307.584 
L 101.962391 307.584 
L 101.962391 237.669517 
L 97.274114 237.669517 
z
" clip-path="url(#p51d9eb0c42)" style="fill: #ff0000; opacity: 0.4; stroke: #000000; stroke-linejoin: miter"/>
   </g>
   <g id="patch_9">
    <path d="M 101.962391 307.584 
L 106.650669 307.584 
L 106.650669 220.190897 
L 101.962391 220.190897 
z
" clip-path="url(#p51d9eb0c42)" style="fill: #ff0000; opacity: 0.4; stroke: #000000; stroke-linejoin: miter"/>
   </g>
   <g id="patch_10">
    <path d="M 106.650669 307.584 
L 111.338946 307.584 
L 111.338946 237.669517 
L 106.650669 237.669517 
z
" clip-path="url(#p51d9eb0c42)" style="fill: #ff0000; opacity: 0.4; stroke: #000000; stroke-linejoin: miter"/>
   </g>
   <g id="patch_11">
    <path d="M 111.338946 307.584 
L 116.027223 307.584 
L 116.027223 176.494345 
L 111.338946 176.494345 
z
" clip-path="url(#p51d9eb0c42)" style="fill: #ff0000; opacity: 0.4; stroke: #000000; stroke-linejoin: miter"/>
   </g>
   <g id="patch_12">
    <path d="M 116.027223 307.584 
L 120.715501 307.584 
L 120.715501 115.319172 
L 116.027223 115.319172 
z
" clip-path="url(#p51d9eb0c42)" style="fill: #ff0000; opacity: 0.4; stroke: #000000; stroke-linejoin: miter"/>
   </g>
   <g id="patch_13">
    <path d="M 120.715501 307.584 
L 125.403778 307.584 
L 125.403778 167.755034 
L 120.715501 167.755034 
z
" clip-path="url(#p51d9eb0c42)" style="fill: #ff0000; opacity: 0.4; stroke: #000000; stroke-linejoin: miter"/>
   </g>
   <g id="patch_14">
    <path d="M 125.403778 307.584 
L 130.092056 307.584 
L 130.092056 54.144 
L 125.403778 54.144 
z
" clip-path="url(#p51d9eb0c42)" style="fill: #ff0000; opacity: 0.4; stroke: #000000; stroke-linejoin: miter"/>
   </g>
   <g id="patch_15">
    <path d="M 130.092056 307.584 
L 134.780333 307.584 
L 134.780333 167.755034 
L 130.092056 167.755034 
z
" clip-path="url(#p51d9eb0c42)" style="fill: #ff0000; opacity: 0.4; stroke: #000000; stroke-linejoin: miter"/>
   </g>
   <g id="patch_16">
    <path d="M 134.780333 307.584 
L 139.46861 307.584 
L 139.46861 115.319172 
L 134.780333 115.319172 
z
" clip-path="url(#p51d9eb0c42)" style="fill: #ff0000; opacity: 0.4; stroke: #000000; stroke-linejoin: miter"/>
   </g>
   <g id="patch_17">
    <path d="M 139.46861 307.584 
L 144.156888 307.584 
L 144.156888 150.276414 
L 139.46861 150.276414 
z
" clip-path="url(#p51d9eb0c42)" style="fill: #ff0000; opacity: 0.4; stroke: #000000; stroke-linejoin: miter"/>
   </g>
   <g id="patch_18">
    <path d="M 144.156888 307.584 
L 148.845165 307.584 
L 148.845165 150.276414 
L 144.156888 150.276414 
z
" clip-path="url(#p51d9eb0c42)" style="fill: #ff0000; opacity: 0.4; stroke: #000000; stroke-linejoin: miter"/>
   </g>
   <g id="patch_19">
    <path d="M 148.845165 307.584 
L 153.533442 307.584 
L 153.533442 150.276414 
L 148.845165 150.276414 
z
" clip-path="url(#p51d9eb0c42)" style="fill: #ff0000; opacity: 0.4; stroke: #000000; stroke-linejoin: miter"/>
   </g>
   <g id="patch_20">
    <path d="M 153.533442 307.584 
L 158.22172 307.584 
L 158.22172 185.233655 
L 153.533442 185.233655 
z
" clip-path="url(#p51d9eb0c42)" style="fill: #ff0000; opacity: 0.4; stroke: #000000; stroke-linejoin: miter"/>
   </g>
   <g id="patch_21">
    <path d="M 158.22172 307.584 
L 162.909997 307.584 
L 162.909997 220.190897 
L 158.22172 220.190897 
z
" clip-path="url(#p51d9eb0c42)" style="fill: #ff0000; opacity: 0.4; stroke: #000000; stroke-linejoin: miter"/>
   </g>
   <g id="patch_22">
    <path d="M 162.909997 307.584 
L 167.598274 307.584 
L 167.598274 185.233655 
L 162.909997 185.233655 
z
" clip-path="url(#p51d9eb0c42)" style="fill: #ff0000; opacity: 0.4; stroke: #000000; stroke-linejoin: miter"/>
   </g>
   <g id="patch_23">
    <path d="M 167.598274 307.584 
L 172.286552 307.584 
L 172.286552 211.451586 
L 167.598274 211.451586 
z
" clip-path="url(#p51d9eb0c42)" style="fill: #ff0000; opacity: 0.4; stroke: #000000; stroke-linejoin: miter"/>
   </g>
   <g id="patch_24">
    <path d="M 172.286552 307.584 
L 176.974829 307.584 
L 176.974829 220.190897 
L 172.286552 220.190897 
z
" clip-path="url(#p51d9eb0c42)" style="fill: #ff0000; opacity: 0.4; stroke: #000000; stroke-linejoin: miter"/>
   </g>
   <g id="patch_25">
    <path d="M 176.974829 307.584 
L 181.663107 307.584 
L 181.663107 185.233655 
L 176.974829 185.233655 
z
" clip-path="url(#p51d9eb0c42)" style="fill: #ff0000; opacity: 0.4; stroke: #000000; stroke-linejoin: miter"/>
   </g>
   <g id="patch_26">
    <path d="M 181.663107 307.584 
L 186.351384 307.584 
L 186.351384 202.712276 
L 181.663107 202.712276 
z
" clip-path="url(#p51d9eb0c42)" style="fill: #ff0000; opacity: 0.4; stroke: #000000; stroke-linejoin: miter"/>
   </g>
   <g id="patch_27">
    <path d="M 186.351384 307.584 
L 191.039661 307.584 
L 191.039661 220.190897 
L 186.351384 220.190897 
z
" clip-path="url(#p51d9eb0c42)" style="fill: #ff0000; opacity: 0.4; stroke: #000000; stroke-linejoin: miter"/>
   </g>
   <g id="patch_28">
    <path d="M 191.039661 307.584 
L 195.727939 307.584 
L 195.727939 202.712276 
L 191.039661 202.712276 
z
" clip-path="url(#p51d9eb0c42)" style="fill: #ff0000; opacity: 0.4; stroke: #000000; stroke-linejoin: miter"/>
   </g>
   <g id="patch_29">
    <path d="M 195.727939 307.584 
L 200.416216 307.584 
L 200.416216 211.451586 
L 195.727939 211.451586 
z
" clip-path="url(#p51d9eb0c42)" style="fill: #ff0000; opacity: 0.4; stroke: #000000; stroke-linejoin: miter"/>
   </g>
   <g id="patch_30">
    <path d="M 200.416216 307.584 
L 205.104493 307.584 
L 205.104493 159.015724 
L 200.416216 159.015724 
z
" clip-path="url(#p51d9eb0c42)" style="fill: #ff0000; opacity: 0.4; stroke: #000000; stroke-linejoin: miter"/>
   </g>
   <g id="patch_31">
    <path d="M 205.104493 307.584 
L 209.792771 307.584 
L 209.792771 202.712276 
L 205.104493 202.712276 
z
" clip-path="url(#p51d9eb0c42)" style="fill: #ff0000; opacity: 0.4; stroke: #000000; stroke-linejoin: miter"/>
   </g>
   <g id="patch_32">
    <path d="M 209.792771 307.584 
L 214.481048 307.584 
L 214.481048 141.537103 
L 209.792771 141.537103 
z
" clip-path="url(#p51d9eb0c42)" style="fill: #ff0000; opacity: 0.4; stroke: #000000; stroke-linejoin: miter"/>
   </g>
   <g id="patch_33">
    <path d="M 214.481048 307.584 
L 219.169325 307.584 
L 219.169325 176.494345 
L 214.481048 176.494345 
z
" clip-path="url(#p51d9eb0c42)" style="fill: #ff0000; opacity: 0.4; stroke: #000000; stroke-linejoin: miter"/>
   </g>
   <g id="patch_34">
    <path d="M 219.169325 307.584 
L 223.857603 307.584 
L 223.857603 202.712276 
L 219.169325 202.712276 
z
" clip-path="url(#p51d9eb0c42)" style="fill: #ff0000; opacity: 0.4; stroke: #000000; stroke-linejoin: miter"/>
   </g>
   <g id="patch_35">
    <path d="M 223.857603 307.584 
L 228.54588 307.584 
L 228.54588 167.755034 
L 223.857603 167.755034 
z
" clip-path="url(#p51d9eb0c42)" style="fill: #ff0000; opacity: 0.4; stroke: #000000; stroke-linejoin: miter"/>
   </g>
   <g id="patch_36">
    <path d="M 228.54588 307.584 
L 233.234157 307.584 
L 233.234157 202.712276 
L 228.54588 202.712276 
z
" clip-path="url(#p51d9eb0c42)" style="fill: #ff0000; opacity: 0.4; stroke: #000000; stroke-linejoin: miter"/>
   </g>
   <g id="patch_37">
    <path d="M 233.234157 307.584 
L 237.922435 307.584 
L 237.922435 176.494345 
L 233.234157 176.494345 
z
" clip-path="url(#p51d9eb0c42)" style="fill: #ff0000; opacity: 0.4; stroke: #000000; stroke-linejoin: miter"/>
   </g>
   <g id="patch_38">
    <path d="M 237.922435 307.584 
L 242.610712 307.584 
L 242.610712 211.451586 
L 237.922435 211.451586 
z
" clip-path="url(#p51d9eb0c42)" style="fill: #ff0000; opacity: 0.4; stroke: #000000; stroke-linejoin: miter"/>
   </g>
   <g id="patch_39">
    <path d="M 242.610712 307.584 
L 247.29899 307.584 
L 247.29899 263.887448 
L 242.610712 263.887448 
z
" clip-path="url(#p51d9eb0c42)" style="fill: #ff0000; opacity: 0.4; stroke: #000000; stroke-linejoin: miter"/>
   </g>
   <g id="patch_40">
    <path d="M 247.29899 307.584 
L 251.987267 307.584 
L 251.987267 246.408828 
L 247.29899 246.408828 
z
" clip-path="url(#p51d9eb0c42)" style="fill: #ff0000; opacity: 0.4; stroke: #000000; stroke-linejoin: miter"/>
   </g>
   <g id="patch_41">
    <path d="M 251.987267 307.584 
L 256.675544 307.584 
L 256.675544 185.233655 
L 251.987267 185.233655 
z
" clip-path="url(#p51d9eb0c42)" style="fill: #ff0000; opacity: 0.4; stroke: #000000; stroke-linejoin: miter"/>
   </g>
   <g id="patch_42">
    <path d="M 256.675544 307.584 
L 261.363822 307.584 
L 261.363822 167.755034 
L 256.675544 167.755034 
z
" clip-path="url(#p51d9eb0c42)" style="fill: #ff0000; opacity: 0.4; stroke: #000000; stroke-linejoin: miter"/>
   </g>
   <g id="patch_43">
    <path d="M 261.363822 307.584 
L 266.052099 307.584 
L 266.052099 167.755034 
L 261.363822 167.755034 
z
" clip-path="url(#p51d9eb0c42)" style="fill: #ff0000; opacity: 0.4; stroke: #000000; stroke-linejoin: miter"/>
   </g>
   <g id="patch_44">
    <path d="M 266.052099 307.584 
L 270.740376 307.584 
L 270.740376 141.537103 
L 266.052099 141.537103 
z
" clip-path="url(#p51d9eb0c42)" style="fill: #ff0000; opacity: 0.4; stroke: #000000; stroke-linejoin: miter"/>
   </g>
   <g id="patch_45">
    <path d="M 270.740376 307.584 
L 275.428654 307.584 
L 275.428654 185.233655 
L 270.740376 185.233655 
z
" clip-path="url(#p51d9eb0c42)" style="fill: #ff0000; opacity: 0.4; stroke: #000000; stroke-linejoin: miter"/>
   </g>
   <g id="patch_46">
    <path d="M 275.428654 307.584 
L 280.116931 307.584 
L 280.116931 132.797793 
L 275.428654 132.797793 
z
" clip-path="url(#p51d9eb0c42)" style="fill: #ff0000; opacity: 0.4; stroke: #000000; stroke-linejoin: miter"/>
   </g>
   <g id="patch_47">
    <path d="M 280.116931 307.584 
L 284.805208 307.584 
L 284.805208 80.361931 
L 280.116931 80.361931 
z
" clip-path="url(#p51d9eb0c42)" style="fill: #ff0000; opacity: 0.4; stroke: #000000; stroke-linejoin: miter"/>
   </g>
   <g id="patch_48">
    <path d="M 284.805208 307.584 
L 289.493486 307.584 
L 289.493486 176.494345 
L 284.805208 176.494345 
z
" clip-path="url(#p51d9eb0c42)" style="fill: #ff0000; opacity: 0.4; stroke: #000000; stroke-linejoin: miter"/>
   </g>
   <g id="patch_49">
    <path d="M 289.493486 307.584 
L 294.181763 307.584 
L 294.181763 141.537103 
L 289.493486 141.537103 
z
" clip-path="url(#p51d9eb0c42)" style="fill: #ff0000; opacity: 0.4; stroke: #000000; stroke-linejoin: miter"/>
   </g>
   <g id="patch_50">
    <path d="M 294.181763 307.584 
L 298.87004 307.584 
L 298.87004 124.058483 
L 294.181763 124.058483 
z
" clip-path="url(#p51d9eb0c42)" style="fill: #ff0000; opacity: 0.4; stroke: #000000; stroke-linejoin: miter"/>
   </g>
   <g id="patch_51">
    <path d="M 298.87004 307.584 
L 303.558318 307.584 
L 303.558318 159.015724 
L 298.87004 159.015724 
z
" clip-path="url(#p51d9eb0c42)" style="fill: #ff0000; opacity: 0.4; stroke: #000000; stroke-linejoin: miter"/>
   </g>
   <g id="patch_52">
    <path d="M 303.558318 307.584 
L 308.246595 307.584 
L 308.246595 202.712276 
L 303.558318 202.712276 
z
" clip-path="url(#p51d9eb0c42)" style="fill: #ff0000; opacity: 0.4; stroke: #000000; stroke-linejoin: miter"/>
   </g>
   <g id="patch_53">
    <path d="M 308.246595 307.584 
L 312.934873 307.584 
L 312.934873 211.451586 
L 308.246595 211.451586 
z
" clip-path="url(#p51d9eb0c42)" style="fill: #ff0000; opacity: 0.4; stroke: #000000; stroke-linejoin: miter"/>
   </g>
   <g id="patch_54">
    <path d="M 312.934873 307.584 
L 317.62315 307.584 
L 317.62315 246.408828 
L 312.934873 246.408828 
z
" clip-path="url(#p51d9eb0c42)" style="fill: #ff0000; opacity: 0.4; stroke: #000000; stroke-linejoin: miter"/>
   </g>
   <g id="patch_55">
    <path d="M 317.62315 307.584 
L 322.311427 307.584 
L 322.311427 246.408828 
L 317.62315 246.408828 
z
" clip-path="url(#p51d9eb0c42)" style="fill: #ff0000; opacity: 0.4; stroke: #000000; stroke-linejoin: miter"/>
   </g>
   <g id="patch_56">
    <path d="M 322.311427 307.584 
L 326.999705 307.584 
L 326.999705 246.408828 
L 322.311427 246.408828 
z
" clip-path="url(#p51d9eb0c42)" style="fill: #ff0000; opacity: 0.4; stroke: #000000; stroke-linejoin: miter"/>
   </g>
   <g id="patch_57">
    <path d="M 326.999705 307.584 
L 331.687982 307.584 
L 331.687982 272.626759 
L 326.999705 272.626759 
z
" clip-path="url(#p51d9eb0c42)" style="fill: #ff0000; opacity: 0.4; stroke: #000000; stroke-linejoin: miter"/>
   </g>
   <g id="patch_58">
    <path d="M 331.687982 307.584 
L 336.376259 307.584 
L 336.376259 290.105379 
L 331.687982 290.105379 
z
" clip-path="url(#p51d9eb0c42)" style="fill: #ff0000; opacity: 0.4; stroke: #000000; stroke-linejoin: miter"/>
   </g>
   <g id="patch_59">
    <path d="M 336.376259 307.584 
L 341.064537 307.584 
L 341.064537 298.84469 
L 336.376259 298.84469 
z
" clip-path="url(#p51d9eb0c42)" style="fill: #ff0000; opacity: 0.4; stroke: #000000; stroke-linejoin: miter"/>
   </g>
   <g id="patch_60">
    <path d="M 341.064537 307.584 
L 345.752814 307.584 
L 345.752814 298.84469 
L 341.064537 298.84469 
z
" clip-path="url(#p51d9eb0c42)" style="fill: #ff0000; opacity: 0.4; stroke: #000000; stroke-linejoin: miter"/>
   </g>
   <g id="patch_61">
    <path d="M 345.752814 307.584 
L 350.441091 307.584 
L 350.441091 307.584 
L 345.752814 307.584 
z
" clip-path="url(#p51d9eb0c42)" style="fill: #ff0000; opacity: 0.4; stroke: #000000; stroke-linejoin: miter"/>
   </g>
   <g id="patch_62">
    <path d="M 350.441091 307.584 
L 355.129369 307.584 
L 355.129369 298.84469 
L 350.441091 298.84469 
z
" clip-path="url(#p51d9eb0c42)" style="fill: #ff0000; opacity: 0.4; stroke: #000000; stroke-linejoin: miter"/>
   </g>
   <g id="patch_63">
    <path d="M 95.100097 307.584 
L 100.15655 307.584 
L 100.15655 300.638593 
L 95.100097 300.638593 
z
" clip-path="url(#p51d9eb0c42)" style="fill: #0000ff; opacity: 0.4; stroke: #000000; stroke-linejoin: miter"/>
   </g>
   <g id="patch_64">
    <path d="M 100.15655 307.584 
L 105.213003 307.584 
L 105.213003 304.111296 
L 100.15655 304.111296 
z
" clip-path="url(#p51d9eb0c42)" style="fill: #0000ff; opacity: 0.4; stroke: #000000; stroke-linejoin: miter"/>
   </g>
   <g id="patch_65">
    <path d="M 105.213003 307.584 
L 110.269456 307.584 
L 110.269456 286.747779 
L 105.213003 286.747779 
z
" clip-path="url(#p51d9eb0c42)" style="fill: #0000ff; opacity: 0.4; stroke: #000000; stroke-linejoin: miter"/>
   </g>
   <g id="patch_66">
    <path d="M 110.269456 307.584 
L 115.325909 307.584 
L 115.325909 286.747779 
L 110.269456 286.747779 
z
" clip-path="url(#p51d9eb0c42)" style="fill: #0000ff; opacity: 0.4; stroke: #000000; stroke-linejoin: miter"/>
   </g>
   <g id="patch_67">
    <path d="M 115.325909 307.584 
L 120.382362 307.584 
L 120.382362 272.856965 
L 115.325909 272.856965 
z
" clip-path="url(#p51d9eb0c42)" style="fill: #0000ff; opacity: 0.4; stroke: #000000; stroke-linejoin: miter"/>
   </g>
   <g id="patch_68">
    <path d="M 120.382362 307.584 
L 125.438815 307.584 
L 125.438815 265.911558 
L 120.382362 265.911558 
z
" clip-path="url(#p51d9eb0c42)" style="fill: #0000ff; opacity: 0.4; stroke: #000000; stroke-linejoin: miter"/>
   </g>
   <g id="patch_69">
    <path d="M 125.438815 307.584 
L 130.495268 307.584 
L 130.495268 224.239116 
L 125.438815 224.239116 
z
" clip-path="url(#p51d9eb0c42)" style="fill: #0000ff; opacity: 0.4; stroke: #000000; stroke-linejoin: miter"/>
   </g>
   <g id="patch_70">
    <path d="M 130.495268 307.584 
L 135.551721 307.584 
L 135.551721 220.766412 
L 130.495268 220.766412 
z
" clip-path="url(#p51d9eb0c42)" style="fill: #0000ff; opacity: 0.4; stroke: #000000; stroke-linejoin: miter"/>
   </g>
   <g id="patch_71">
    <path d="M 135.551721 307.584 
L 140.608174 307.584 
L 140.608174 161.730453 
L 135.551721 161.730453 
z
" clip-path="url(#p51d9eb0c42)" style="fill: #0000ff; opacity: 0.4; stroke: #000000; stroke-linejoin: miter"/>
   </g>
   <g id="patch_72">
    <path d="M 140.608174 307.584 
L 145.664627 307.584 
L 145.664627 161.730453 
L 140.608174 161.730453 
z
" clip-path="url(#p51d9eb0c42)" style="fill: #0000ff; opacity: 0.4; stroke: #000000; stroke-linejoin: miter"/>
   </g>
   <g id="patch_73">
    <path d="M 145.664627 307.584 
L 150.72108 307.584 
L 150.72108 120.058011 
L 145.664627 120.058011 
z
" clip-path="url(#p51d9eb0c42)" style="fill: #0000ff; opacity: 0.4; stroke: #000000; stroke-linejoin: miter"/>
   </g>
   <g id="patch_74">
    <path d="M 150.72108 307.584 
L 155.777532 307.584 
L 155.777532 99.22179 
L 150.72108 99.22179 
z
" clip-path="url(#p51d9eb0c42)" style="fill: #0000ff; opacity: 0.4; stroke: #000000; stroke-linejoin: miter"/>
   </g>
   <g id="patch_75">
    <path d="M 155.777532 307.584 
L 160.833985 307.584 
L 160.833985 113.112604 
L 155.777532 113.112604 
z
" clip-path="url(#p51d9eb0c42)" style="fill: #0000ff; opacity: 0.4; stroke: #000000; stroke-linejoin: miter"/>
   </g>
   <g id="patch_76">
    <path d="M 160.833985 307.584 
L 165.890438 307.584 
L 165.890438 130.476121 
L 160.833985 130.476121 
z
" clip-path="url(#p51d9eb0c42)" style="fill: #0000ff; opacity: 0.4; stroke: #000000; stroke-linejoin: miter"/>
   </g>
   <g id="patch_77">
    <path d="M 165.890438 307.584 
L 170.946891 307.584 
L 170.946891 144.366935 
L 165.890438 144.366935 
z
" clip-path="url(#p51d9eb0c42)" style="fill: #0000ff; opacity: 0.4; stroke: #000000; stroke-linejoin: miter"/>
   </g>
   <g id="patch_78">
    <path d="M 170.946891 307.584 
L 176.003344 307.584 
L 176.003344 189.512081 
L 170.946891 189.512081 
z
" clip-path="url(#p51d9eb0c42)" style="fill: #0000ff; opacity: 0.4; stroke: #000000; stroke-linejoin: miter"/>
   </g>
   <g id="patch_79">
    <path d="M 176.003344 307.584 
L 181.059797 307.584 
L 181.059797 154.785046 
L 176.003344 154.785046 
z
" clip-path="url(#p51d9eb0c42)" style="fill: #0000ff; opacity: 0.4; stroke: #000000; stroke-linejoin: miter"/>
   </g>
   <g id="patch_80">
    <path d="M 181.059797 307.584 
L 186.11625 307.584 
L 186.11625 179.09397 
L 181.059797 179.09397 
z
" clip-path="url(#p51d9eb0c42)" style="fill: #0000ff; opacity: 0.4; stroke: #000000; stroke-linejoin: miter"/>
   </g>
   <g id="patch_81">
    <path d="M 186.11625 307.584 
L 191.172703 307.584 
L 191.172703 224.239116 
L 186.11625 224.239116 
z
" clip-path="url(#p51d9eb0c42)" style="fill: #0000ff; opacity: 0.4; stroke: #000000; stroke-linejoin: miter"/>
   </g>
   <g id="patch_82">
    <path d="M 191.172703 307.584 
L 196.229156 307.584 
L 196.229156 245.075337 
L 191.172703 245.075337 
z
" clip-path="url(#p51d9eb0c42)" style="fill: #0000ff; opacity: 0.4; stroke: #000000; stroke-linejoin: miter"/>
   </g>
   <g id="patch_83">
    <path d="M 196.229156 307.584 
L 201.285609 307.584 
L 201.285609 227.711819 
L 196.229156 227.711819 
z
" clip-path="url(#p51d9eb0c42)" style="fill: #0000ff; opacity: 0.4; stroke: #000000; stroke-linejoin: miter"/>
   </g>
   <g id="patch_84">
    <path d="M 201.285609 307.584 
L 206.342062 307.584 
L 206.342062 217.293709 
L 201.285609 217.293709 
z
" clip-path="url(#p51d9eb0c42)" style="fill: #0000ff; opacity: 0.4; stroke: #000000; stroke-linejoin: miter"/>
   </g>
   <g id="patch_85">
    <path d="M 206.342062 307.584 
L 211.398515 307.584 
L 211.398515 186.039377 
L 206.342062 186.039377 
z
" clip-path="url(#p51d9eb0c42)" style="fill: #0000ff; opacity: 0.4; stroke: #000000; stroke-linejoin: miter"/>
   </g>
   <g id="patch_86">
    <path d="M 211.398515 307.584 
L 216.454968 307.584 
L 216.454968 210.348302 
L 211.398515 210.348302 
z
" clip-path="url(#p51d9eb0c42)" style="fill: #0000ff; opacity: 0.4; stroke: #000000; stroke-linejoin: miter"/>
   </g>
   <g id="patch_87">
    <path d="M 216.454968 307.584 
L 221.51142 307.584 
L 221.51142 206.875598 
L 216.454968 206.875598 
z
" clip-path="url(#p51d9eb0c42)" style="fill: #0000ff; opacity: 0.4; stroke: #000000; stroke-linejoin: miter"/>
   </g>
   <g id="patch_88">
    <path d="M 221.51142 307.584 
L 226.567873 307.584 
L 226.567873 161.730453 
L 221.51142 161.730453 
z
" clip-path="url(#p51d9eb0c42)" style="fill: #0000ff; opacity: 0.4; stroke: #000000; stroke-linejoin: miter"/>
   </g>
   <g id="patch_89">
    <path d="M 226.567873 307.584 
L 231.624326 307.584 
L 231.624326 168.67586 
L 226.567873 168.67586 
z
" clip-path="url(#p51d9eb0c42)" style="fill: #0000ff; opacity: 0.4; stroke: #000000; stroke-linejoin: miter"/>
   </g>
   <g id="patch_90">
    <path d="M 231.624326 307.584 
L 236.680779 307.584 
L 236.680779 147.839639 
L 231.624326 147.839639 
z
" clip-path="url(#p51d9eb0c42)" style="fill: #0000ff; opacity: 0.4; stroke: #000000; stroke-linejoin: miter"/>
   </g>
   <g id="patch_91">
    <path d="M 236.680779 307.584 
L 241.737232 307.584 
L 241.737232 130.476121 
L 236.680779 130.476121 
z
" clip-path="url(#p51d9eb0c42)" style="fill: #0000ff; opacity: 0.4; stroke: #000000; stroke-linejoin: miter"/>
   </g>
   <g id="patch_92">
    <path d="M 241.737232 307.584 
L 246.793685 307.584 
L 246.793685 172.148563 
L 241.737232 172.148563 
z
" clip-path="url(#p51d9eb0c42)" style="fill: #0000ff; opacity: 0.4; stroke: #000000; stroke-linejoin: miter"/>
   </g>
   <g id="patch_93">
    <path d="M 246.793685 307.584 
L 251.850138 307.584 
L 251.850138 172.148563 
L 246.793685 172.148563 
z
" clip-path="url(#p51d9eb0c42)" style="fill: #0000ff; opacity: 0.4; stroke: #000000; stroke-linejoin: miter"/>
   </g>
   <g id="patch_94">
    <path d="M 251.850138 307.584 
L 256.906591 307.584 
L 256.906591 189.512081 
L 251.850138 189.512081 
z
" clip-path="url(#p51d9eb0c42)" style="fill: #0000ff; opacity: 0.4; stroke: #000000; stroke-linejoin: miter"/>
   </g>
   <g id="patch_95">
    <path d="M 256.906591 307.584 
L 261.963044 307.584 
L 261.963044 199.930191 
L 256.906591 199.930191 
z
" clip-path="url(#p51d9eb0c42)" style="fill: #0000ff; opacity: 0.4; stroke: #000000; stroke-linejoin: miter"/>
   </g>
   <g id="patch_96">
    <path d="M 261.963044 307.584 
L 267.019497 307.584 
L 267.019497 206.875598 
L 261.963044 206.875598 
z
" clip-path="url(#p51d9eb0c42)" style="fill: #0000ff; opacity: 0.4; stroke: #000000; stroke-linejoin: miter"/>
   </g>
   <g id="patch_97">
    <path d="M 267.019497 307.584 
L 272.07595 307.584 
L 272.07595 224.239116 
L 267.019497 224.239116 
z
" clip-path="url(#p51d9eb0c42)" style="fill: #0000ff; opacity: 0.4; stroke: #000000; stroke-linejoin: miter"/>
   </g>
   <g id="patch_98">
    <path d="M 272.07595 307.584 
L 277.132403 307.584 
L 277.132403 192.984784 
L 272.07595 192.984784 
z
" clip-path="url(#p51d9eb0c42)" style="fill: #0000ff; opacity: 0.4; stroke: #000000; stroke-linejoin: miter"/>
   </g>
   <g id="patch_99">
    <path d="M 277.132403 307.584 
L 282.188856 307.584 
L 282.188856 182.566674 
L 277.132403 182.566674 
z
" clip-path="url(#p51d9eb0c42)" style="fill: #0000ff; opacity: 0.4; stroke: #000000; stroke-linejoin: miter"/>
   </g>
   <g id="patch_100">
    <path d="M 282.188856 307.584 
L 287.245308 307.584 
L 287.245308 189.512081 
L 282.188856 189.512081 
z
" clip-path="url(#p51d9eb0c42)" style="fill: #0000ff; opacity: 0.4; stroke: #000000; stroke-linejoin: miter"/>
   </g>
   <g id="patch_101">
    <path d="M 287.245308 307.584 
L 292.301761 307.584 
L 292.301761 137.421528 
L 287.245308 137.421528 
z
" clip-path="url(#p51d9eb0c42)" style="fill: #0000ff; opacity: 0.4; stroke: #000000; stroke-linejoin: miter"/>
   </g>
   <g id="patch_102">
    <path d="M 292.301761 307.584 
L 297.358214 307.584 
L 297.358214 151.312342 
L 292.301761 151.312342 
z
" clip-path="url(#p51d9eb0c42)" style="fill: #0000ff; opacity: 0.4; stroke: #000000; stroke-linejoin: miter"/>
   </g>
   <g id="patch_103">
    <path d="M 297.358214 307.584 
L 302.414667 307.584 
L 302.414667 179.09397 
L 297.358214 179.09397 
z
" clip-path="url(#p51d9eb0c42)" style="fill: #0000ff; opacity: 0.4; stroke: #000000; stroke-linejoin: miter"/>
   </g>
   <g id="patch_104">
    <path d="M 302.414667 307.584 
L 307.47112 307.584 
L 307.47112 154.785046 
L 302.414667 154.785046 
z
" clip-path="url(#p51d9eb0c42)" style="fill: #0000ff; opacity: 0.4; stroke: #000000; stroke-linejoin: miter"/>
   </g>
   <g id="patch_105">
    <path d="M 307.47112 307.584 
L 312.527573 307.584 
L 312.527573 179.09397 
L 307.47112 179.09397 
z
" clip-path="url(#p51d9eb0c42)" style="fill: #0000ff; opacity: 0.4; stroke: #000000; stroke-linejoin: miter"/>
   </g>
   <g id="patch_106">
    <path d="M 312.527573 307.584 
L 317.584026 307.584 
L 317.584026 127.003418 
L 312.527573 127.003418 
z
" clip-path="url(#p51d9eb0c42)" style="fill: #0000ff; opacity: 0.4; stroke: #000000; stroke-linejoin: miter"/>
   </g>
   <g id="patch_107">
    <path d="M 317.584026 307.584 
L 322.640479 307.584 
L 322.640479 154.785046 
L 317.584026 154.785046 
z
" clip-path="url(#p51d9eb0c42)" style="fill: #0000ff; opacity: 0.4; stroke: #000000; stroke-linejoin: miter"/>
   </g>
   <g id="patch_108">
    <path d="M 322.640479 307.584 
L 327.696932 307.584 
L 327.696932 168.67586 
L 322.640479 168.67586 
z
" clip-path="url(#p51d9eb0c42)" style="fill: #0000ff; opacity: 0.4; stroke: #000000; stroke-linejoin: miter"/>
   </g>
   <g id="patch_109">
    <path d="M 327.696932 307.584 
L 332.753385 307.584 
L 332.753385 227.711819 
L 327.696932 227.711819 
z
" clip-path="url(#p51d9eb0c42)" style="fill: #0000ff; opacity: 0.4; stroke: #000000; stroke-linejoin: miter"/>
   </g>
   <g id="patch_110">
    <path d="M 332.753385 307.584 
L 337.809838 307.584 
L 337.809838 238.12993 
L 332.753385 238.12993 
z
" clip-path="url(#p51d9eb0c42)" style="fill: #0000ff; opacity: 0.4; stroke: #000000; stroke-linejoin: miter"/>
   </g>
   <g id="patch_111">
    <path d="M 337.809838 307.584 
L 342.866291 307.584 
L 342.866291 241.602633 
L 337.809838 241.602633 
z
" clip-path="url(#p51d9eb0c42)" style="fill: #0000ff; opacity: 0.4; stroke: #000000; stroke-linejoin: miter"/>
   </g>
   <g id="patch_112">
    <path d="M 342.866291 307.584 
L 347.922743 307.584 
L 347.922743 241.602633 
L 342.866291 241.602633 
z
" clip-path="url(#p51d9eb0c42)" style="fill: #0000ff; opacity: 0.4; stroke: #000000; stroke-linejoin: miter"/>
   </g>
   <g id="patch_113">
    <path d="M 347.922743 307.584 
L 352.979196 307.584 
L 352.979196 258.966151 
L 347.922743 258.966151 
z
" clip-path="url(#p51d9eb0c42)" style="fill: #0000ff; opacity: 0.4; stroke: #000000; stroke-linejoin: miter"/>
   </g>
   <g id="patch_114">
    <path d="M 352.979196 307.584 
L 358.035649 307.584 
L 358.035649 276.329668 
L 352.979196 276.329668 
z
" clip-path="url(#p51d9eb0c42)" style="fill: #0000ff; opacity: 0.4; stroke: #000000; stroke-linejoin: miter"/>
   </g>
   <g id="patch_115">
    <path d="M 358.035649 307.584 
L 363.092102 307.584 
L 363.092102 286.747779 
L 358.035649 286.747779 
z
" clip-path="url(#p51d9eb0c42)" style="fill: #0000ff; opacity: 0.4; stroke: #000000; stroke-linejoin: miter"/>
   </g>
   <g id="patch_116">
    <path d="M 363.092102 307.584 
L 368.148555 307.584 
L 368.148555 293.693186 
L 363.092102 293.693186 
z
" clip-path="url(#p51d9eb0c42)" style="fill: #0000ff; opacity: 0.4; stroke: #000000; stroke-linejoin: miter"/>
   </g>
   <g id="patch_117">
    <path d="M 368.148555 307.584 
L 373.205008 307.584 
L 373.205008 307.584 
L 368.148555 307.584 
z
" clip-path="url(#p51d9eb0c42)" style="fill: #0000ff; opacity: 0.4; stroke: #000000; stroke-linejoin: miter"/>
   </g>
   <g id="patch_118">
    <path d="M 373.205008 307.584 
L 378.261461 307.584 
L 378.261461 300.638593 
L 373.205008 300.638593 
z
" clip-path="url(#p51d9eb0c42)" style="fill: #0000ff; opacity: 0.4; stroke: #000000; stroke-linejoin: miter"/>
   </g>
   <g id="patch_119">
    <path d="M 378.261461 307.584 
L 383.317914 307.584 
L 383.317914 304.111296 
L 378.261461 304.111296 
z
" clip-path="url(#p51d9eb0c42)" style="fill: #0000ff; opacity: 0.4; stroke: #000000; stroke-linejoin: miter"/>
   </g>
   <g id="patch_120">
    <path d="M 383.317914 307.584 
L 388.374367 307.584 
L 388.374367 307.584 
L 383.317914 307.584 
z
" clip-path="url(#p51d9eb0c42)" style="fill: #0000ff; opacity: 0.4; stroke: #000000; stroke-linejoin: miter"/>
   </g>
   <g id="patch_121">
    <path d="M 388.374367 307.584 
L 393.43082 307.584 
L 393.43082 307.584 
L 388.374367 307.584 
z
" clip-path="url(#p51d9eb0c42)" style="fill: #0000ff; opacity: 0.4; stroke: #000000; stroke-linejoin: miter"/>
   </g>
   <g id="patch_122">
    <path d="M 393.43082 307.584 
L 398.487273 307.584 
L 398.487273 304.111296 
L 393.43082 304.111296 
z
" clip-path="url(#p51d9eb0c42)" style="fill: #0000ff; opacity: 0.4; stroke: #000000; stroke-linejoin: miter"/>
   </g>
   <g id="matplotlib.axis_1">
    <g id="xtick_1">
     <g id="line2d_1">
      <defs>
       <path id="m8b1721279c" d="M 0 0 
L 0 3.5 
" style="stroke: #000000; stroke-width: 0.8"/>
      </defs>
      <g>
       <use xlink:href="#m8b1721279c" x="69.953851" y="307.584" style="stroke: #000000; stroke-width: 0.8"/>
      </g>
     </g>
     <g id="text_1">
      <!-- −20 -->
      <g transform="translate(59.401508 322.182437) scale(0.1 -0.1)">
       <defs>
        <path id="DejaVuSans-2212" d="M 678 2272 
L 4684 2272 
L 4684 1741 
L 678 1741 
L 678 2272 
z
" transform="scale(0.015625)"/>
        <path id="DejaVuSans-32" d="M 1228 531 
L 3431 531 
L 3431 0 
L 469 0 
L 469 531 
Q 828 903 1448 1529 
Q 2069 2156 2228 2338 
Q 2531 2678 2651 2914 
Q 2772 3150 2772 3378 
Q 2772 3750 2511 3984 
Q 2250 4219 1831 4219 
Q 1534 4219 1204 4116 
Q 875 4013 500 3803 
L 500 4441 
Q 881 4594 1212 4672 
Q 1544 4750 1819 4750 
Q 2544 4750 2975 4387 
Q 3406 4025 3406 3419 
Q 3406 3131 3298 2873 
Q 3191 2616 2906 2266 
Q 2828 2175 2409 1742 
Q 1991 1309 1228 531 
z
" transform="scale(0.015625)"/>
        <path id="DejaVuSans-30" d="M 2034 4250 
Q 1547 4250 1301 3770 
Q 1056 3291 1056 2328 
Q 1056 1369 1301 889 
Q 1547 409 2034 409 
Q 2525 409 2770 889 
Q 3016 1369 3016 2328 
Q 3016 3291 2770 3770 
Q 2525 4250 2034 4250 
z
M 2034 4750 
Q 2819 4750 3233 4129 
Q 3647 3509 3647 2328 
Q 3647 1150 3233 529 
Q 2819 -91 2034 -91 
Q 1250 -91 836 529 
Q 422 1150 422 2328 
Q 422 3509 836 4129 
Q 1250 4750 2034 4750 
z
" transform="scale(0.015625)"/>
       </defs>
       <use xlink:href="#DejaVuSans-2212"/>
       <use xlink:href="#DejaVuSans-32" x="83.789062"/>
       <use xlink:href="#DejaVuSans-30" x="147.412109"/>
      </g>
     </g>
    </g>
    <g id="xtick_2">
     <g id="line2d_2">
      <g>
       <use xlink:href="#m8b1721279c" x="109.859406" y="307.584" style="stroke: #000000; stroke-width: 0.8"/>
      </g>
     </g>
     <g id="text_2">
      <!-- −15 -->
      <g transform="translate(99.307062 322.182437) scale(0.1 -0.1)">
       <defs>
        <path id="DejaVuSans-31" d="M 794 531 
L 1825 531 
L 1825 4091 
L 703 3866 
L 703 4441 
L 1819 4666 
L 2450 4666 
L 2450 531 
L 3481 531 
L 3481 0 
L 794 0 
L 794 531 
z
" transform="scale(0.015625)"/>
        <path id="DejaVuSans-35" d="M 691 4666 
L 3169 4666 
L 3169 4134 
L 1269 4134 
L 1269 2991 
Q 1406 3038 1543 3061 
Q 1681 3084 1819 3084 
Q 2600 3084 3056 2656 
Q 3513 2228 3513 1497 
Q 3513 744 3044 326 
Q 2575 -91 1722 -91 
Q 1428 -91 1123 -41 
Q 819 9 494 109 
L 494 744 
Q 775 591 1075 516 
Q 1375 441 1709 441 
Q 2250 441 2565 725 
Q 2881 1009 2881 1497 
Q 2881 1984 2565 2268 
Q 2250 2553 1709 2553 
Q 1456 2553 1204 2497 
Q 953 2441 691 2322 
L 691 4666 
z
" transform="scale(0.015625)"/>
       </defs>
       <use xlink:href="#DejaVuSans-2212"/>
       <use xlink:href="#DejaVuSans-31" x="83.789062"/>
       <use xlink:href="#DejaVuSans-35" x="147.412109"/>
      </g>
     </g>
    </g>
    <g id="xtick_3">
     <g id="line2d_3">
      <g>
       <use xlink:href="#m8b1721279c" x="149.764961" y="307.584" style="stroke: #000000; stroke-width: 0.8"/>
      </g>
     </g>
     <g id="text_3">
      <!-- −10 -->
      <g transform="translate(139.212617 322.182437) scale(0.1 -0.1)">
       <use xlink:href="#DejaVuSans-2212"/>
       <use xlink:href="#DejaVuSans-31" x="83.789062"/>
       <use xlink:href="#DejaVuSans-30" x="147.412109"/>
      </g>
     </g>
    </g>
    <g id="xtick_4">
     <g id="line2d_4">
      <g>
       <use xlink:href="#m8b1721279c" x="189.670516" y="307.584" style="stroke: #000000; stroke-width: 0.8"/>
      </g>
     </g>
     <g id="text_4">
      <!-- −5 -->
      <g transform="translate(182.299422 322.182437) scale(0.1 -0.1)">
       <use xlink:href="#DejaVuSans-2212"/>
       <use xlink:href="#DejaVuSans-35" x="83.789062"/>
      </g>
     </g>
    </g>
    <g id="xtick_5">
     <g id="line2d_5">
      <g>
       <use xlink:href="#m8b1721279c" x="229.57607" y="307.584" style="stroke: #000000; stroke-width: 0.8"/>
      </g>
     </g>
     <g id="text_5">
      <!-- 0 -->
      <g transform="translate(226.39482 322.182437) scale(0.1 -0.1)">
       <use xlink:href="#DejaVuSans-30"/>
      </g>
     </g>
    </g>
    <g id="xtick_6">
     <g id="line2d_6">
      <g>
       <use xlink:href="#m8b1721279c" x="269.481625" y="307.584" style="stroke: #000000; stroke-width: 0.8"/>
      </g>
     </g>
     <g id="text_6">
      <!-- 5 -->
      <g transform="translate(266.300375 322.182437) scale(0.1 -0.1)">
       <use xlink:href="#DejaVuSans-35"/>
      </g>
     </g>
    </g>
    <g id="xtick_7">
     <g id="line2d_7">
      <g>
       <use xlink:href="#m8b1721279c" x="309.38718" y="307.584" style="stroke: #000000; stroke-width: 0.8"/>
      </g>
     </g>
     <g id="text_7">
      <!-- 10 -->
      <g transform="translate(303.02468 322.182437) scale(0.1 -0.1)">
       <use xlink:href="#DejaVuSans-31"/>
       <use xlink:href="#DejaVuSans-30" x="63.623047"/>
      </g>
     </g>
    </g>
    <g id="xtick_8">
     <g id="line2d_8">
      <g>
       <use xlink:href="#m8b1721279c" x="349.292734" y="307.584" style="stroke: #000000; stroke-width: 0.8"/>
      </g>
     </g>
     <g id="text_8">
      <!-- 15 -->
      <g transform="translate(342.930234 322.182437) scale(0.1 -0.1)">
       <use xlink:href="#DejaVuSans-31"/>
       <use xlink:href="#DejaVuSans-35" x="63.623047"/>
      </g>
     </g>
    </g>
    <g id="xtick_9">
     <g id="line2d_9">
      <g>
       <use xlink:href="#m8b1721279c" x="389.198289" y="307.584" style="stroke: #000000; stroke-width: 0.8"/>
      </g>
     </g>
     <g id="text_9">
      <!-- 20 -->
      <g transform="translate(382.835789 322.182437) scale(0.1 -0.1)">
       <use xlink:href="#DejaVuSans-32"/>
       <use xlink:href="#DejaVuSans-30" x="63.623047"/>
      </g>
     </g>
    </g>
   </g>
   <g id="matplotlib.axis_2">
    <g id="ytick_1">
     <g id="line2d_10">
      <defs>
       <path id="m4706ba4833" d="M 0 0 
L -3.5 0 
" style="stroke: #000000; stroke-width: 0.8"/>
      </defs>
      <g>
       <use xlink:href="#m4706ba4833" x="57.6" y="307.584" style="stroke: #000000; stroke-width: 0.8"/>
      </g>
     </g>
     <g id="text_10">
      <!-- 0.00 -->
      <g transform="translate(28.334375 311.383219) scale(0.1 -0.1)">
       <defs>
        <path id="DejaVuSans-2e" d="M 684 794 
L 1344 794 
L 1344 0 
L 684 0 
L 684 794 
z
" transform="scale(0.015625)"/>
       </defs>
       <use xlink:href="#DejaVuSans-30"/>
       <use xlink:href="#DejaVuSans-2e" x="63.623047"/>
       <use xlink:href="#DejaVuSans-30" x="95.410156"/>
       <use xlink:href="#DejaVuSans-30" x="159.033203"/>
      </g>
     </g>
    </g>
    <g id="ytick_2">
     <g id="line2d_11">
      <g>
       <use xlink:href="#m4706ba4833" x="57.6" y="270.621647" style="stroke: #000000; stroke-width: 0.8"/>
      </g>
     </g>
     <g id="text_11">
      <!-- 0.01 -->
      <g transform="translate(28.334375 274.420866) scale(0.1 -0.1)">
       <use xlink:href="#DejaVuSans-30"/>
       <use xlink:href="#DejaVuSans-2e" x="63.623047"/>
       <use xlink:href="#DejaVuSans-30" x="95.410156"/>
       <use xlink:href="#DejaVuSans-31" x="159.033203"/>
      </g>
     </g>
    </g>
    <g id="ytick_3">
     <g id="line2d_12">
      <g>
       <use xlink:href="#m4706ba4833" x="57.6" y="233.659295" style="stroke: #000000; stroke-width: 0.8"/>
      </g>
     </g>
     <g id="text_12">
      <!-- 0.02 -->
      <g transform="translate(28.334375 237.458513) scale(0.1 -0.1)">
       <use xlink:href="#DejaVuSans-30"/>
       <use xlink:href="#DejaVuSans-2e" x="63.623047"/>
       <use xlink:href="#DejaVuSans-30" x="95.410156"/>
       <use xlink:href="#DejaVuSans-32" x="159.033203"/>
      </g>
     </g>
    </g>
    <g id="ytick_4">
     <g id="line2d_13">
      <g>
       <use xlink:href="#m4706ba4833" x="57.6" y="196.696942" style="stroke: #000000; stroke-width: 0.8"/>
      </g>
     </g>
     <g id="text_13">
      <!-- 0.03 -->
      <g transform="translate(28.334375 200.496161) scale(0.1 -0.1)">
       <defs>
        <path id="DejaVuSans-33" d="M 2597 2516 
Q 3050 2419 3304 2112 
Q 3559 1806 3559 1356 
Q 3559 666 3084 287 
Q 2609 -91 1734 -91 
Q 1441 -91 1130 -33 
Q 819 25 488 141 
L 488 750 
Q 750 597 1062 519 
Q 1375 441 1716 441 
Q 2309 441 2620 675 
Q 2931 909 2931 1356 
Q 2931 1769 2642 2001 
Q 2353 2234 1838 2234 
L 1294 2234 
L 1294 2753 
L 1863 2753 
Q 2328 2753 2575 2939 
Q 2822 3125 2822 3475 
Q 2822 3834 2567 4026 
Q 2313 4219 1838 4219 
Q 1578 4219 1281 4162 
Q 984 4106 628 3988 
L 628 4550 
Q 988 4650 1302 4700 
Q 1616 4750 1894 4750 
Q 2613 4750 3031 4423 
Q 3450 4097 3450 3541 
Q 3450 3153 3228 2886 
Q 3006 2619 2597 2516 
z
" transform="scale(0.015625)"/>
       </defs>
       <use xlink:href="#DejaVuSans-30"/>
       <use xlink:href="#DejaVuSans-2e" x="63.623047"/>
       <use xlink:href="#DejaVuSans-30" x="95.410156"/>
       <use xlink:href="#DejaVuSans-33" x="159.033203"/>
      </g>
     </g>
    </g>
    <g id="ytick_5">
     <g id="line2d_14">
      <g>
       <use xlink:href="#m4706ba4833" x="57.6" y="159.734589" style="stroke: #000000; stroke-width: 0.8"/>
      </g>
     </g>
     <g id="text_14">
      <!-- 0.04 -->
      <g transform="translate(28.334375 163.533808) scale(0.1 -0.1)">
       <defs>
        <path id="DejaVuSans-34" d="M 2419 4116 
L 825 1625 
L 2419 1625 
L 2419 4116 
z
M 2253 4666 
L 3047 4666 
L 3047 1625 
L 3713 1625 
L 3713 1100 
L 3047 1100 
L 3047 0 
L 2419 0 
L 2419 1100 
L 313 1100 
L 313 1709 
L 2253 4666 
z
" transform="scale(0.015625)"/>
       </defs>
       <use xlink:href="#DejaVuSans-30"/>
       <use xlink:href="#DejaVuSans-2e" x="63.623047"/>
       <use xlink:href="#DejaVuSans-30" x="95.410156"/>
       <use xlink:href="#DejaVuSans-34" x="159.033203"/>
      </g>
     </g>
    </g>
    <g id="ytick_6">
     <g id="line2d_15">
      <g>
       <use xlink:href="#m4706ba4833" x="57.6" y="122.772236" style="stroke: #000000; stroke-width: 0.8"/>
      </g>
     </g>
     <g id="text_15">
      <!-- 0.05 -->
      <g transform="translate(28.334375 126.571455) scale(0.1 -0.1)">
       <use xlink:href="#DejaVuSans-30"/>
       <use xlink:href="#DejaVuSans-2e" x="63.623047"/>
       <use xlink:href="#DejaVuSans-30" x="95.410156"/>
       <use xlink:href="#DejaVuSans-35" x="159.033203"/>
      </g>
     </g>
    </g>
    <g id="ytick_7">
     <g id="line2d_16">
      <g>
       <use xlink:href="#m4706ba4833" x="57.6" y="85.809884" style="stroke: #000000; stroke-width: 0.8"/>
      </g>
     </g>
     <g id="text_16">
      <!-- 0.06 -->
      <g transform="translate(28.334375 89.609102) scale(0.1 -0.1)">
       <defs>
        <path id="DejaVuSans-36" d="M 2113 2584 
Q 1688 2584 1439 2293 
Q 1191 2003 1191 1497 
Q 1191 994 1439 701 
Q 1688 409 2113 409 
Q 2538 409 2786 701 
Q 3034 994 3034 1497 
Q 3034 2003 2786 2293 
Q 2538 2584 2113 2584 
z
M 3366 4563 
L 3366 3988 
Q 3128 4100 2886 4159 
Q 2644 4219 2406 4219 
Q 1781 4219 1451 3797 
Q 1122 3375 1075 2522 
Q 1259 2794 1537 2939 
Q 1816 3084 2150 3084 
Q 2853 3084 3261 2657 
Q 3669 2231 3669 1497 
Q 3669 778 3244 343 
Q 2819 -91 2113 -91 
Q 1303 -91 875 529 
Q 447 1150 447 2328 
Q 447 3434 972 4092 
Q 1497 4750 2381 4750 
Q 2619 4750 2861 4703 
Q 3103 4656 3366 4563 
z
" transform="scale(0.015625)"/>
       </defs>
       <use xlink:href="#DejaVuSans-30"/>
       <use xlink:href="#DejaVuSans-2e" x="63.623047"/>
       <use xlink:href="#DejaVuSans-30" x="95.410156"/>
       <use xlink:href="#DejaVuSans-36" x="159.033203"/>
      </g>
     </g>
    </g>
    <g id="ytick_8">
     <g id="line2d_17">
      <g>
       <use xlink:href="#m4706ba4833" x="57.6" y="48.847531" style="stroke: #000000; stroke-width: 0.8"/>
      </g>
     </g>
     <g id="text_17">
      <!-- 0.07 -->
      <g transform="translate(28.334375 52.64675) scale(0.1 -0.1)">
       <defs>
        <path id="DejaVuSans-37" d="M 525 4666 
L 3525 4666 
L 3525 4397 
L 1831 0 
L 1172 0 
L 2766 4134 
L 525 4134 
L 525 4666 
z
" transform="scale(0.015625)"/>
       </defs>
       <use xlink:href="#DejaVuSans-30"/>
       <use xlink:href="#DejaVuSans-2e" x="63.623047"/>
       <use xlink:href="#DejaVuSans-30" x="95.410156"/>
       <use xlink:href="#DejaVuSans-37" x="159.033203"/>
      </g>
     </g>
    </g>
   </g>
   <g id="patch_123">
    <path d="M 57.6 307.584 
L 57.6 41.472 
" style="fill: none; stroke: #000000; stroke-width: 0.8; stroke-linejoin: miter; stroke-linecap: square"/>
   </g>
   <g id="patch_124">
    <path d="M 414.72 307.584 
L 414.72 41.472 
" style="fill: none; stroke: #000000; stroke-width: 0.8; stroke-linejoin: miter; stroke-linecap: square"/>
   </g>
   <g id="patch_125">
    <path d="M 57.6 307.584 
L 414.72 307.584 
" style="fill: none; stroke: #000000; stroke-width: 0.8; stroke-linejoin: miter; stroke-linecap: square"/>
   </g>
   <g id="patch_126">
    <path d="M 57.6 41.472 
L 414.72 41.472 
" style="fill: none; stroke: #000000; stroke-width: 0.8; stroke-linejoin: miter; stroke-linecap: square"/>
   </g>
   <g id="text_18">
    <!-- RAW_feature_5 -->
    <g transform="translate(191.0475 35.472) scale(0.12 -0.12)">
     <defs>
      <path id="DejaVuSans-52" d="M 2841 2188 
Q 3044 2119 3236 1894 
Q 3428 1669 3622 1275 
L 4263 0 
L 3584 0 
L 2988 1197 
Q 2756 1666 2539 1819 
Q 2322 1972 1947 1972 
L 1259 1972 
L 1259 0 
L 628 0 
L 628 4666 
L 2053 4666 
Q 2853 4666 3247 4331 
Q 3641 3997 3641 3322 
Q 3641 2881 3436 2590 
Q 3231 2300 2841 2188 
z
M 1259 4147 
L 1259 2491 
L 2053 2491 
Q 2509 2491 2742 2702 
Q 2975 2913 2975 3322 
Q 2975 3731 2742 3939 
Q 2509 4147 2053 4147 
L 1259 4147 
z
" transform="scale(0.015625)"/>
      <path id="DejaVuSans-41" d="M 2188 4044 
L 1331 1722 
L 3047 1722 
L 2188 4044 
z
M 1831 4666 
L 2547 4666 
L 4325 0 
L 3669 0 
L 3244 1197 
L 1141 1197 
L 716 0 
L 50 0 
L 1831 4666 
z
" transform="scale(0.015625)"/>
      <path id="DejaVuSans-57" d="M 213 4666 
L 850 4666 
L 1831 722 
L 2809 4666 
L 3519 4666 
L 4500 722 
L 5478 4666 
L 6119 4666 
L 4947 0 
L 4153 0 
L 3169 4050 
L 2175 0 
L 1381 0 
L 213 4666 
z
" transform="scale(0.015625)"/>
      <path id="DejaVuSans-5f" d="M 3263 -1063 
L 3263 -1509 
L -63 -1509 
L -63 -1063 
L 3263 -1063 
z
" transform="scale(0.015625)"/>
      <path id="DejaVuSans-66" d="M 2375 4863 
L 2375 4384 
L 1825 4384 
Q 1516 4384 1395 4259 
Q 1275 4134 1275 3809 
L 1275 3500 
L 2222 3500 
L 2222 3053 
L 1275 3053 
L 1275 0 
L 697 0 
L 697 3053 
L 147 3053 
L 147 3500 
L 697 3500 
L 697 3744 
Q 697 4328 969 4595 
Q 1241 4863 1831 4863 
L 2375 4863 
z
" transform="scale(0.015625)"/>
      <path id="DejaVuSans-65" d="M 3597 1894 
L 3597 1613 
L 953 1613 
Q 991 1019 1311 708 
Q 1631 397 2203 397 
Q 2534 397 2845 478 
Q 3156 559 3463 722 
L 3463 178 
Q 3153 47 2828 -22 
Q 2503 -91 2169 -91 
Q 1331 -91 842 396 
Q 353 884 353 1716 
Q 353 2575 817 3079 
Q 1281 3584 2069 3584 
Q 2775 3584 3186 3129 
Q 3597 2675 3597 1894 
z
M 3022 2063 
Q 3016 2534 2758 2815 
Q 2500 3097 2075 3097 
Q 1594 3097 1305 2825 
Q 1016 2553 972 2059 
L 3022 2063 
z
" transform="scale(0.015625)"/>
      <path id="DejaVuSans-61" d="M 2194 1759 
Q 1497 1759 1228 1600 
Q 959 1441 959 1056 
Q 959 750 1161 570 
Q 1363 391 1709 391 
Q 2188 391 2477 730 
Q 2766 1069 2766 1631 
L 2766 1759 
L 2194 1759 
z
M 3341 1997 
L 3341 0 
L 2766 0 
L 2766 531 
Q 2569 213 2275 61 
Q 1981 -91 1556 -91 
Q 1019 -91 701 211 
Q 384 513 384 1019 
Q 384 1609 779 1909 
Q 1175 2209 1959 2209 
L 2766 2209 
L 2766 2266 
Q 2766 2663 2505 2880 
Q 2244 3097 1772 3097 
Q 1472 3097 1187 3025 
Q 903 2953 641 2809 
L 641 3341 
Q 956 3463 1253 3523 
Q 1550 3584 1831 3584 
Q 2591 3584 2966 3190 
Q 3341 2797 3341 1997 
z
" transform="scale(0.015625)"/>
      <path id="DejaVuSans-74" d="M 1172 4494 
L 1172 3500 
L 2356 3500 
L 2356 3053 
L 1172 3053 
L 1172 1153 
Q 1172 725 1289 603 
Q 1406 481 1766 481 
L 2356 481 
L 2356 0 
L 1766 0 
Q 1100 0 847 248 
Q 594 497 594 1153 
L 594 3053 
L 172 3053 
L 172 3500 
L 594 3500 
L 594 4494 
L 1172 4494 
z
" transform="scale(0.015625)"/>
      <path id="DejaVuSans-75" d="M 544 1381 
L 544 3500 
L 1119 3500 
L 1119 1403 
Q 1119 906 1312 657 
Q 1506 409 1894 409 
Q 2359 409 2629 706 
Q 2900 1003 2900 1516 
L 2900 3500 
L 3475 3500 
L 3475 0 
L 2900 0 
L 2900 538 
Q 2691 219 2414 64 
Q 2138 -91 1772 -91 
Q 1169 -91 856 284 
Q 544 659 544 1381 
z
M 1991 3584 
L 1991 3584 
z
" transform="scale(0.015625)"/>
      <path id="DejaVuSans-72" d="M 2631 2963 
Q 2534 3019 2420 3045 
Q 2306 3072 2169 3072 
Q 1681 3072 1420 2755 
Q 1159 2438 1159 1844 
L 1159 0 
L 581 0 
L 581 3500 
L 1159 3500 
L 1159 2956 
Q 1341 3275 1631 3429 
Q 1922 3584 2338 3584 
Q 2397 3584 2469 3576 
Q 2541 3569 2628 3553 
L 2631 2963 
z
" transform="scale(0.015625)"/>
     </defs>
     <use xlink:href="#DejaVuSans-52"/>
     <use xlink:href="#DejaVuSans-41" x="65.482422"/>
     <use xlink:href="#DejaVuSans-57" x="128.390625"/>
     <use xlink:href="#DejaVuSans-5f" x="227.267578"/>
     <use xlink:href="#DejaVuSans-66" x="277.267578"/>
     <use xlink:href="#DejaVuSans-65" x="312.472656"/>
     <use xlink:href="#DejaVuSans-61" x="373.996094"/>
     <use xlink:href="#DejaVuSans-74" x="435.275391"/>
     <use xlink:href="#DejaVuSans-75" x="474.484375"/>
     <use xlink:href="#DejaVuSans-72" x="537.863281"/>
     <use xlink:href="#DejaVuSans-65" x="576.726562"/>
     <use xlink:href="#DejaVuSans-5f" x="638.25"/>
     <use xlink:href="#DejaVuSans-35" x="688.25"/>
    </g>
   </g>
   <g id="legend_1">
    <g id="patch_127">
     <path d="M 341.246563 78.82825 
L 407.72 78.82825 
Q 409.72 78.82825 409.72 76.82825 
L 409.72 48.472 
Q 409.72 46.472 407.72 46.472 
L 341.246563 46.472 
Q 339.246563 46.472 339.246563 48.472 
L 339.246563 76.82825 
Q 339.246563 78.82825 341.246563 78.82825 
z
" style="fill: #ffffff; opacity: 0.8; stroke: #cccccc; stroke-linejoin: miter"/>
    </g>
    <g id="patch_128">
     <path d="M 343.246563 58.070437 
L 363.246563 58.070437 
L 363.246563 51.070437 
L 343.246563 51.070437 
z
" style="fill: #ff0000; opacity: 0.4; stroke: #000000; stroke-linejoin: miter"/>
    </g>
    <g id="text_19">
     <!-- male -->
     <g transform="translate(371.246563 58.070437) scale(0.1 -0.1)">
      <defs>
       <path id="DejaVuSans-6d" d="M 3328 2828 
Q 3544 3216 3844 3400 
Q 4144 3584 4550 3584 
Q 5097 3584 5394 3201 
Q 5691 2819 5691 2113 
L 5691 0 
L 5113 0 
L 5113 2094 
Q 5113 2597 4934 2840 
Q 4756 3084 4391 3084 
Q 3944 3084 3684 2787 
Q 3425 2491 3425 1978 
L 3425 0 
L 2847 0 
L 2847 2094 
Q 2847 2600 2669 2842 
Q 2491 3084 2119 3084 
Q 1678 3084 1418 2786 
Q 1159 2488 1159 1978 
L 1159 0 
L 581 0 
L 581 3500 
L 1159 3500 
L 1159 2956 
Q 1356 3278 1631 3431 
Q 1906 3584 2284 3584 
Q 2666 3584 2933 3390 
Q 3200 3197 3328 2828 
z
" transform="scale(0.015625)"/>
       <path id="DejaVuSans-6c" d="M 603 4863 
L 1178 4863 
L 1178 0 
L 603 0 
L 603 4863 
z
" transform="scale(0.015625)"/>
      </defs>
      <use xlink:href="#DejaVuSans-6d"/>
      <use xlink:href="#DejaVuSans-61" x="97.412109"/>
      <use xlink:href="#DejaVuSans-6c" x="158.691406"/>
      <use xlink:href="#DejaVuSans-65" x="186.474609"/>
     </g>
    </g>
    <g id="patch_129">
     <path d="M 343.246563 72.748562 
L 363.246563 72.748562 
L 363.246563 65.748562 
L 343.246563 65.748562 
z
" style="fill: #0000ff; opacity: 0.4; stroke: #000000; stroke-linejoin: miter"/>
    </g>
    <g id="text_20">
     <!-- female -->
     <g transform="translate(371.246563 72.748562) scale(0.1 -0.1)">
      <use xlink:href="#DejaVuSans-66"/>
      <use xlink:href="#DejaVuSans-65" x="35.205078"/>
      <use xlink:href="#DejaVuSans-6d" x="96.728516"/>
      <use xlink:href="#DejaVuSans-61" x="194.140625"/>
      <use xlink:href="#DejaVuSans-6c" x="255.419922"/>
      <use xlink:href="#DejaVuSans-65" x="283.203125"/>
     </g>
    </g>
   </g>
  </g>
 </g>
 <defs>
  <clipPath id="p51d9eb0c42">
   <rect x="57.6" y="41.472" width="357.12" height="266.112"/>
  </clipPath>
 </defs>
</svg>
