<?xml version="1.0" encoding="utf-8" standalone="no"?>
<!DOCTYPE svg PUBLIC "-//W3C//DTD SVG 1.1//EN"
  "http://www.w3.org/Graphics/SVG/1.1/DTD/svg11.dtd">
<svg xmlns:xlink="http://www.w3.org/1999/xlink" width="460.8pt" height="345.6pt" viewBox="0 0 460.8 345.6" xmlns="http://www.w3.org/2000/svg" version="1.1">
 <metadata>
  <rdf:RDF xmlns:dc="http://purl.org/dc/elements/1.1/" xmlns:cc="http://creativecommons.org/ns#" xmlns:rdf="http://www.w3.org/1999/02/22-rdf-syntax-ns#">
   <cc:Work>
    <dc:type rdf:resource="http://purl.org/dc/dcmitype/StillImage"/>
    <dc:date>2023-06-02T11:46:56.880379</dc:date>
    <dc:format>image/svg+xml</dc:format>
    <dc:creator>
     <cc:Agent>
      <dc:title>Matplotlib v3.7.0, https://matplotlib.org/</dc:title>
     </cc:Agent>
    </dc:creator>
   </cc:Work>
  </rdf:RDF>
 </metadata>
 <defs>
  <style type="text/css">*{stroke-linejoin: round; stroke-linecap: butt}</style>
 </defs>
 <g id="figure_1">
  <g id="patch_1">
   <path d="M 0 345.6 
L 460.8 345.6 
L 460.8 0 
L 0 0 
z
" style="fill: #ffffff"/>
  </g>
  <g id="axes_1">
   <g id="patch_2">
    <path d="M 57.6 307.584 
L 414.72 307.584 
L 414.72 41.472 
L 57.6 41.472 
z
" style="fill: #ffffff"/>
   </g>
   <g id="patch_3">
    <path d="M 83.71793 307.584 
L 88.73158 307.584 
L 88.73158 300.342857 
L 83.71793 300.342857 
z
" clip-path="url(#pbdd74f0db5)" style="fill: #ff0000; opacity: 0.4; stroke: #000000; stroke-linejoin: miter"/>
   </g>
   <g id="patch_4">
    <path d="M 88.73158 307.584 
L 93.745229 307.584 
L 93.745229 307.584 
L 88.73158 307.584 
z
" clip-path="url(#pbdd74f0db5)" style="fill: #ff0000; opacity: 0.4; stroke: #000000; stroke-linejoin: miter"/>
   </g>
   <g id="patch_5">
    <path d="M 93.745229 307.584 
L 98.758879 307.584 
L 98.758879 307.584 
L 93.745229 307.584 
z
" clip-path="url(#pbdd74f0db5)" style="fill: #ff0000; opacity: 0.4; stroke: #000000; stroke-linejoin: miter"/>
   </g>
   <g id="patch_6">
    <path d="M 98.758879 307.584 
L 103.772528 307.584 
L 103.772528 293.101714 
L 98.758879 293.101714 
z
" clip-path="url(#pbdd74f0db5)" style="fill: #ff0000; opacity: 0.4; stroke: #000000; stroke-linejoin: miter"/>
   </g>
   <g id="patch_7">
    <path d="M 103.772528 307.584 
L 108.786177 307.584 
L 108.786177 307.584 
L 103.772528 307.584 
z
" clip-path="url(#pbdd74f0db5)" style="fill: #ff0000; opacity: 0.4; stroke: #000000; stroke-linejoin: miter"/>
   </g>
   <g id="patch_8">
    <path d="M 108.786177 307.584 
L 113.799827 307.584 
L 113.799827 285.860571 
L 108.786177 285.860571 
z
" clip-path="url(#pbdd74f0db5)" style="fill: #ff0000; opacity: 0.4; stroke: #000000; stroke-linejoin: miter"/>
   </g>
   <g id="patch_9">
    <path d="M 113.799827 307.584 
L 118.813476 307.584 
L 118.813476 293.101714 
L 113.799827 293.101714 
z
" clip-path="url(#pbdd74f0db5)" style="fill: #ff0000; opacity: 0.4; stroke: #000000; stroke-linejoin: miter"/>
   </g>
   <g id="patch_10">
    <path d="M 118.813476 307.584 
L 123.827126 307.584 
L 123.827126 307.584 
L 118.813476 307.584 
z
" clip-path="url(#pbdd74f0db5)" style="fill: #ff0000; opacity: 0.4; stroke: #000000; stroke-linejoin: miter"/>
   </g>
   <g id="patch_11">
    <path d="M 123.827126 307.584 
L 128.840775 307.584 
L 128.840775 293.101714 
L 123.827126 293.101714 
z
" clip-path="url(#pbdd74f0db5)" style="fill: #ff0000; opacity: 0.4; stroke: #000000; stroke-linejoin: miter"/>
   </g>
   <g id="patch_12">
    <path d="M 128.840775 307.584 
L 133.854424 307.584 
L 133.854424 278.619429 
L 128.840775 278.619429 
z
" clip-path="url(#pbdd74f0db5)" style="fill: #ff0000; opacity: 0.4; stroke: #000000; stroke-linejoin: miter"/>
   </g>
   <g id="patch_13">
    <path d="M 133.854424 307.584 
L 138.868074 307.584 
L 138.868074 285.860571 
L 133.854424 285.860571 
z
" clip-path="url(#pbdd74f0db5)" style="fill: #ff0000; opacity: 0.4; stroke: #000000; stroke-linejoin: miter"/>
   </g>
   <g id="patch_14">
    <path d="M 138.868074 307.584 
L 143.881723 307.584 
L 143.881723 271.378286 
L 138.868074 271.378286 
z
" clip-path="url(#pbdd74f0db5)" style="fill: #ff0000; opacity: 0.4; stroke: #000000; stroke-linejoin: miter"/>
   </g>
   <g id="patch_15">
    <path d="M 143.881723 307.584 
L 148.895373 307.584 
L 148.895373 256.896 
L 143.881723 256.896 
z
" clip-path="url(#pbdd74f0db5)" style="fill: #ff0000; opacity: 0.4; stroke: #000000; stroke-linejoin: miter"/>
   </g>
   <g id="patch_16">
    <path d="M 148.895373 307.584 
L 153.909022 307.584 
L 153.909022 235.172571 
L 148.895373 235.172571 
z
" clip-path="url(#pbdd74f0db5)" style="fill: #ff0000; opacity: 0.4; stroke: #000000; stroke-linejoin: miter"/>
   </g>
   <g id="patch_17">
    <path d="M 153.909022 307.584 
L 158.922671 307.584 
L 158.922671 256.896 
L 153.909022 256.896 
z
" clip-path="url(#pbdd74f0db5)" style="fill: #ff0000; opacity: 0.4; stroke: #000000; stroke-linejoin: miter"/>
   </g>
   <g id="patch_18">
    <path d="M 158.922671 307.584 
L 163.936321 307.584 
L 163.936321 256.896 
L 158.922671 256.896 
z
" clip-path="url(#pbdd74f0db5)" style="fill: #ff0000; opacity: 0.4; stroke: #000000; stroke-linejoin: miter"/>
   </g>
   <g id="patch_19">
    <path d="M 163.936321 307.584 
L 168.94997 307.584 
L 168.94997 227.931429 
L 163.936321 227.931429 
z
" clip-path="url(#pbdd74f0db5)" style="fill: #ff0000; opacity: 0.4; stroke: #000000; stroke-linejoin: miter"/>
   </g>
   <g id="patch_20">
    <path d="M 168.94997 307.584 
L 173.963619 307.584 
L 173.963619 249.654857 
L 168.94997 249.654857 
z
" clip-path="url(#pbdd74f0db5)" style="fill: #ff0000; opacity: 0.4; stroke: #000000; stroke-linejoin: miter"/>
   </g>
   <g id="patch_21">
    <path d="M 173.963619 307.584 
L 178.977269 307.584 
L 178.977269 220.690286 
L 173.963619 220.690286 
z
" clip-path="url(#pbdd74f0db5)" style="fill: #ff0000; opacity: 0.4; stroke: #000000; stroke-linejoin: miter"/>
   </g>
   <g id="patch_22">
    <path d="M 178.977269 307.584 
L 183.990918 307.584 
L 183.990918 206.208 
L 178.977269 206.208 
z
" clip-path="url(#pbdd74f0db5)" style="fill: #ff0000; opacity: 0.4; stroke: #000000; stroke-linejoin: miter"/>
   </g>
   <g id="patch_23">
    <path d="M 183.990918 307.584 
L 189.004568 307.584 
L 189.004568 177.243429 
L 183.990918 177.243429 
z
" clip-path="url(#pbdd74f0db5)" style="fill: #ff0000; opacity: 0.4; stroke: #000000; stroke-linejoin: miter"/>
   </g>
   <g id="patch_24">
    <path d="M 189.004568 307.584 
L 194.018217 307.584 
L 194.018217 177.243429 
L 189.004568 177.243429 
z
" clip-path="url(#pbdd74f0db5)" style="fill: #ff0000; opacity: 0.4; stroke: #000000; stroke-linejoin: miter"/>
   </g>
   <g id="patch_25">
    <path d="M 194.018217 307.584 
L 199.031866 307.584 
L 199.031866 126.555429 
L 194.018217 126.555429 
z
" clip-path="url(#pbdd74f0db5)" style="fill: #ff0000; opacity: 0.4; stroke: #000000; stroke-linejoin: miter"/>
   </g>
   <g id="patch_26">
    <path d="M 199.031866 307.584 
L 204.045516 307.584 
L 204.045516 162.761143 
L 199.031866 162.761143 
z
" clip-path="url(#pbdd74f0db5)" style="fill: #ff0000; opacity: 0.4; stroke: #000000; stroke-linejoin: miter"/>
   </g>
   <g id="patch_27">
    <path d="M 204.045516 307.584 
L 209.059165 307.584 
L 209.059165 141.037714 
L 204.045516 141.037714 
z
" clip-path="url(#pbdd74f0db5)" style="fill: #ff0000; opacity: 0.4; stroke: #000000; stroke-linejoin: miter"/>
   </g>
   <g id="patch_28">
    <path d="M 209.059165 307.584 
L 214.072815 307.584 
L 214.072815 177.243429 
L 209.059165 177.243429 
z
" clip-path="url(#pbdd74f0db5)" style="fill: #ff0000; opacity: 0.4; stroke: #000000; stroke-linejoin: miter"/>
   </g>
   <g id="patch_29">
    <path d="M 214.072815 307.584 
L 219.086464 307.584 
L 219.086464 83.108571 
L 214.072815 83.108571 
z
" clip-path="url(#pbdd74f0db5)" style="fill: #ff0000; opacity: 0.4; stroke: #000000; stroke-linejoin: miter"/>
   </g>
   <g id="patch_30">
    <path d="M 219.086464 307.584 
L 224.100113 307.584 
L 224.100113 141.037714 
L 219.086464 141.037714 
z
" clip-path="url(#pbdd74f0db5)" style="fill: #ff0000; opacity: 0.4; stroke: #000000; stroke-linejoin: miter"/>
   </g>
   <g id="patch_31">
    <path d="M 224.100113 307.584 
L 229.113763 307.584 
L 229.113763 54.144 
L 224.100113 54.144 
z
" clip-path="url(#pbdd74f0db5)" style="fill: #ff0000; opacity: 0.4; stroke: #000000; stroke-linejoin: miter"/>
   </g>
   <g id="patch_32">
    <path d="M 229.113763 307.584 
L 234.127412 307.584 
L 234.127412 170.002286 
L 229.113763 170.002286 
z
" clip-path="url(#pbdd74f0db5)" style="fill: #ff0000; opacity: 0.4; stroke: #000000; stroke-linejoin: miter"/>
   </g>
   <g id="patch_33">
    <path d="M 234.127412 307.584 
L 239.141062 307.584 
L 239.141062 97.590857 
L 234.127412 97.590857 
z
" clip-path="url(#pbdd74f0db5)" style="fill: #ff0000; opacity: 0.4; stroke: #000000; stroke-linejoin: miter"/>
   </g>
   <g id="patch_34">
    <path d="M 239.141062 307.584 
L 244.154711 307.584 
L 244.154711 97.590857 
L 239.141062 97.590857 
z
" clip-path="url(#pbdd74f0db5)" style="fill: #ff0000; opacity: 0.4; stroke: #000000; stroke-linejoin: miter"/>
   </g>
   <g id="patch_35">
    <path d="M 244.154711 307.584 
L 249.16836 307.584 
L 249.16836 112.073143 
L 244.154711 112.073143 
z
" clip-path="url(#pbdd74f0db5)" style="fill: #ff0000; opacity: 0.4; stroke: #000000; stroke-linejoin: miter"/>
   </g>
   <g id="patch_36">
    <path d="M 249.16836 307.584 
L 254.18201 307.584 
L 254.18201 133.796571 
L 249.16836 133.796571 
z
" clip-path="url(#pbdd74f0db5)" style="fill: #ff0000; opacity: 0.4; stroke: #000000; stroke-linejoin: miter"/>
   </g>
   <g id="patch_37">
    <path d="M 254.18201 307.584 
L 259.195659 307.584 
L 259.195659 97.590857 
L 254.18201 97.590857 
z
" clip-path="url(#pbdd74f0db5)" style="fill: #ff0000; opacity: 0.4; stroke: #000000; stroke-linejoin: miter"/>
   </g>
   <g id="patch_38">
    <path d="M 259.195659 307.584 
L 264.209309 307.584 
L 264.209309 83.108571 
L 259.195659 83.108571 
z
" clip-path="url(#pbdd74f0db5)" style="fill: #ff0000; opacity: 0.4; stroke: #000000; stroke-linejoin: miter"/>
   </g>
   <g id="patch_39">
    <path d="M 264.209309 307.584 
L 269.222958 307.584 
L 269.222958 133.796571 
L 264.209309 133.796571 
z
" clip-path="url(#pbdd74f0db5)" style="fill: #ff0000; opacity: 0.4; stroke: #000000; stroke-linejoin: miter"/>
   </g>
   <g id="patch_40">
    <path d="M 269.222958 307.584 
L 274.236607 307.584 
L 274.236607 177.243429 
L 269.222958 177.243429 
z
" clip-path="url(#pbdd74f0db5)" style="fill: #ff0000; opacity: 0.4; stroke: #000000; stroke-linejoin: miter"/>
   </g>
   <g id="patch_41">
    <path d="M 274.236607 307.584 
L 279.250257 307.584 
L 279.250257 119.314286 
L 274.236607 119.314286 
z
" clip-path="url(#pbdd74f0db5)" style="fill: #ff0000; opacity: 0.4; stroke: #000000; stroke-linejoin: miter"/>
   </g>
   <g id="patch_42">
    <path d="M 279.250257 307.584 
L 284.263906 307.584 
L 284.263906 133.796571 
L 279.250257 133.796571 
z
" clip-path="url(#pbdd74f0db5)" style="fill: #ff0000; opacity: 0.4; stroke: #000000; stroke-linejoin: miter"/>
   </g>
   <g id="patch_43">
    <path d="M 284.263906 307.584 
L 289.277555 307.584 
L 289.277555 170.002286 
L 284.263906 170.002286 
z
" clip-path="url(#pbdd74f0db5)" style="fill: #ff0000; opacity: 0.4; stroke: #000000; stroke-linejoin: miter"/>
   </g>
   <g id="patch_44">
    <path d="M 289.277555 307.584 
L 294.291205 307.584 
L 294.291205 170.002286 
L 289.277555 170.002286 
z
" clip-path="url(#pbdd74f0db5)" style="fill: #ff0000; opacity: 0.4; stroke: #000000; stroke-linejoin: miter"/>
   </g>
   <g id="patch_45">
    <path d="M 294.291205 307.584 
L 299.304854 307.584 
L 299.304854 191.725714 
L 294.291205 191.725714 
z
" clip-path="url(#pbdd74f0db5)" style="fill: #ff0000; opacity: 0.4; stroke: #000000; stroke-linejoin: miter"/>
   </g>
   <g id="patch_46">
    <path d="M 299.304854 307.584 
L 304.318504 307.584 
L 304.318504 264.137143 
L 299.304854 264.137143 
z
" clip-path="url(#pbdd74f0db5)" style="fill: #ff0000; opacity: 0.4; stroke: #000000; stroke-linejoin: miter"/>
   </g>
   <g id="patch_47">
    <path d="M 304.318504 307.584 
L 309.332153 307.584 
L 309.332153 256.896 
L 304.318504 256.896 
z
" clip-path="url(#pbdd74f0db5)" style="fill: #ff0000; opacity: 0.4; stroke: #000000; stroke-linejoin: miter"/>
   </g>
   <g id="patch_48">
    <path d="M 309.332153 307.584 
L 314.345802 307.584 
L 314.345802 177.243429 
L 309.332153 177.243429 
z
" clip-path="url(#pbdd74f0db5)" style="fill: #ff0000; opacity: 0.4; stroke: #000000; stroke-linejoin: miter"/>
   </g>
   <g id="patch_49">
    <path d="M 314.345802 307.584 
L 319.359452 307.584 
L 319.359452 256.896 
L 314.345802 256.896 
z
" clip-path="url(#pbdd74f0db5)" style="fill: #ff0000; opacity: 0.4; stroke: #000000; stroke-linejoin: miter"/>
   </g>
   <g id="patch_50">
    <path d="M 319.359452 307.584 
L 324.373101 307.584 
L 324.373101 198.966857 
L 319.359452 198.966857 
z
" clip-path="url(#pbdd74f0db5)" style="fill: #ff0000; opacity: 0.4; stroke: #000000; stroke-linejoin: miter"/>
   </g>
   <g id="patch_51">
    <path d="M 324.373101 307.584 
L 329.386751 307.584 
L 329.386751 285.860571 
L 324.373101 285.860571 
z
" clip-path="url(#pbdd74f0db5)" style="fill: #ff0000; opacity: 0.4; stroke: #000000; stroke-linejoin: miter"/>
   </g>
   <g id="patch_52">
    <path d="M 329.386751 307.584 
L 334.4004 307.584 
L 334.4004 278.619429 
L 329.386751 278.619429 
z
" clip-path="url(#pbdd74f0db5)" style="fill: #ff0000; opacity: 0.4; stroke: #000000; stroke-linejoin: miter"/>
   </g>
   <g id="patch_53">
    <path d="M 334.4004 307.584 
L 339.414049 307.584 
L 339.414049 285.860571 
L 334.4004 285.860571 
z
" clip-path="url(#pbdd74f0db5)" style="fill: #ff0000; opacity: 0.4; stroke: #000000; stroke-linejoin: miter"/>
   </g>
   <g id="patch_54">
    <path d="M 339.414049 307.584 
L 344.427699 307.584 
L 344.427699 300.342857 
L 339.414049 300.342857 
z
" clip-path="url(#pbdd74f0db5)" style="fill: #ff0000; opacity: 0.4; stroke: #000000; stroke-linejoin: miter"/>
   </g>
   <g id="patch_55">
    <path d="M 344.427699 307.584 
L 349.441348 307.584 
L 349.441348 285.860571 
L 344.427699 285.860571 
z
" clip-path="url(#pbdd74f0db5)" style="fill: #ff0000; opacity: 0.4; stroke: #000000; stroke-linejoin: miter"/>
   </g>
   <g id="patch_56">
    <path d="M 349.441348 307.584 
L 354.454998 307.584 
L 354.454998 293.101714 
L 349.441348 293.101714 
z
" clip-path="url(#pbdd74f0db5)" style="fill: #ff0000; opacity: 0.4; stroke: #000000; stroke-linejoin: miter"/>
   </g>
   <g id="patch_57">
    <path d="M 354.454998 307.584 
L 359.468647 307.584 
L 359.468647 293.101714 
L 354.454998 293.101714 
z
" clip-path="url(#pbdd74f0db5)" style="fill: #ff0000; opacity: 0.4; stroke: #000000; stroke-linejoin: miter"/>
   </g>
   <g id="patch_58">
    <path d="M 359.468647 307.584 
L 364.482296 307.584 
L 364.482296 300.342857 
L 359.468647 300.342857 
z
" clip-path="url(#pbdd74f0db5)" style="fill: #ff0000; opacity: 0.4; stroke: #000000; stroke-linejoin: miter"/>
   </g>
   <g id="patch_59">
    <path d="M 364.482296 307.584 
L 369.495946 307.584 
L 369.495946 300.342857 
L 364.482296 300.342857 
z
" clip-path="url(#pbdd74f0db5)" style="fill: #ff0000; opacity: 0.4; stroke: #000000; stroke-linejoin: miter"/>
   </g>
   <g id="patch_60">
    <path d="M 369.495946 307.584 
L 374.509595 307.584 
L 374.509595 300.342857 
L 369.495946 300.342857 
z
" clip-path="url(#pbdd74f0db5)" style="fill: #ff0000; opacity: 0.4; stroke: #000000; stroke-linejoin: miter"/>
   </g>
   <g id="patch_61">
    <path d="M 374.509595 307.584 
L 379.523245 307.584 
L 379.523245 293.101714 
L 374.509595 293.101714 
z
" clip-path="url(#pbdd74f0db5)" style="fill: #ff0000; opacity: 0.4; stroke: #000000; stroke-linejoin: miter"/>
   </g>
   <g id="patch_62">
    <path d="M 379.523245 307.584 
L 384.536894 307.584 
L 384.536894 300.342857 
L 379.523245 300.342857 
z
" clip-path="url(#pbdd74f0db5)" style="fill: #ff0000; opacity: 0.4; stroke: #000000; stroke-linejoin: miter"/>
   </g>
   <g id="patch_63">
    <path d="M 73.832727 307.584 
L 79.243636 307.584 
L 79.243636 304.708495 
L 73.832727 304.708495 
z
" clip-path="url(#pbdd74f0db5)" style="fill: #0000ff; opacity: 0.4; stroke: #000000; stroke-linejoin: miter"/>
   </g>
   <g id="patch_64">
    <path d="M 79.243636 307.584 
L 84.654545 307.584 
L 84.654545 307.584 
L 79.243636 307.584 
z
" clip-path="url(#pbdd74f0db5)" style="fill: #0000ff; opacity: 0.4; stroke: #000000; stroke-linejoin: miter"/>
   </g>
   <g id="patch_65">
    <path d="M 84.654545 307.584 
L 90.065455 307.584 
L 90.065455 304.708495 
L 84.654545 304.708495 
z
" clip-path="url(#pbdd74f0db5)" style="fill: #0000ff; opacity: 0.4; stroke: #000000; stroke-linejoin: miter"/>
   </g>
   <g id="patch_66">
    <path d="M 90.065455 307.584 
L 95.476364 307.584 
L 95.476364 304.708495 
L 90.065455 304.708495 
z
" clip-path="url(#pbdd74f0db5)" style="fill: #0000ff; opacity: 0.4; stroke: #000000; stroke-linejoin: miter"/>
   </g>
   <g id="patch_67">
    <path d="M 95.476364 307.584 
L 100.887273 307.584 
L 100.887273 304.708495 
L 95.476364 304.708495 
z
" clip-path="url(#pbdd74f0db5)" style="fill: #0000ff; opacity: 0.4; stroke: #000000; stroke-linejoin: miter"/>
   </g>
   <g id="patch_68">
    <path d="M 100.887273 307.584 
L 106.298182 307.584 
L 106.298182 304.708495 
L 100.887273 304.708495 
z
" clip-path="url(#pbdd74f0db5)" style="fill: #0000ff; opacity: 0.4; stroke: #000000; stroke-linejoin: miter"/>
   </g>
   <g id="patch_69">
    <path d="M 106.298182 307.584 
L 111.709091 307.584 
L 111.709091 304.708495 
L 106.298182 304.708495 
z
" clip-path="url(#pbdd74f0db5)" style="fill: #0000ff; opacity: 0.4; stroke: #000000; stroke-linejoin: miter"/>
   </g>
   <g id="patch_70">
    <path d="M 111.709091 307.584 
L 117.12 307.584 
L 117.12 301.832991 
L 111.709091 301.832991 
z
" clip-path="url(#pbdd74f0db5)" style="fill: #0000ff; opacity: 0.4; stroke: #000000; stroke-linejoin: miter"/>
   </g>
   <g id="patch_71">
    <path d="M 117.12 307.584 
L 122.530909 307.584 
L 122.530909 293.206477 
L 117.12 293.206477 
z
" clip-path="url(#pbdd74f0db5)" style="fill: #0000ff; opacity: 0.4; stroke: #000000; stroke-linejoin: miter"/>
   </g>
   <g id="patch_72">
    <path d="M 122.530909 307.584 
L 127.941818 307.584 
L 127.941818 293.206477 
L 122.530909 293.206477 
z
" clip-path="url(#pbdd74f0db5)" style="fill: #0000ff; opacity: 0.4; stroke: #000000; stroke-linejoin: miter"/>
   </g>
   <g id="patch_73">
    <path d="M 127.941818 307.584 
L 133.352727 307.584 
L 133.352727 290.330973 
L 127.941818 290.330973 
z
" clip-path="url(#pbdd74f0db5)" style="fill: #0000ff; opacity: 0.4; stroke: #000000; stroke-linejoin: miter"/>
   </g>
   <g id="patch_74">
    <path d="M 133.352727 307.584 
L 138.763636 307.584 
L 138.763636 284.579964 
L 133.352727 284.579964 
z
" clip-path="url(#pbdd74f0db5)" style="fill: #0000ff; opacity: 0.4; stroke: #000000; stroke-linejoin: miter"/>
   </g>
   <g id="patch_75">
    <path d="M 138.763636 307.584 
L 144.174545 307.584 
L 144.174545 281.704459 
L 138.763636 281.704459 
z
" clip-path="url(#pbdd74f0db5)" style="fill: #0000ff; opacity: 0.4; stroke: #000000; stroke-linejoin: miter"/>
   </g>
   <g id="patch_76">
    <path d="M 144.174545 307.584 
L 149.585455 307.584 
L 149.585455 284.579964 
L 144.174545 284.579964 
z
" clip-path="url(#pbdd74f0db5)" style="fill: #0000ff; opacity: 0.4; stroke: #000000; stroke-linejoin: miter"/>
   </g>
   <g id="patch_77">
    <path d="M 149.585455 307.584 
L 154.996364 307.584 
L 154.996364 273.077946 
L 149.585455 273.077946 
z
" clip-path="url(#pbdd74f0db5)" style="fill: #0000ff; opacity: 0.4; stroke: #000000; stroke-linejoin: miter"/>
   </g>
   <g id="patch_78">
    <path d="M 154.996364 307.584 
L 160.407273 307.584 
L 160.407273 252.949414 
L 154.996364 252.949414 
z
" clip-path="url(#pbdd74f0db5)" style="fill: #0000ff; opacity: 0.4; stroke: #000000; stroke-linejoin: miter"/>
   </g>
   <g id="patch_79">
    <path d="M 160.407273 307.584 
L 165.818182 307.584 
L 165.818182 241.447396 
L 160.407273 241.447396 
z
" clip-path="url(#pbdd74f0db5)" style="fill: #0000ff; opacity: 0.4; stroke: #000000; stroke-linejoin: miter"/>
   </g>
   <g id="patch_80">
    <path d="M 165.818182 307.584 
L 171.229091 307.584 
L 171.229091 241.447396 
L 165.818182 241.447396 
z
" clip-path="url(#pbdd74f0db5)" style="fill: #0000ff; opacity: 0.4; stroke: #000000; stroke-linejoin: miter"/>
   </g>
   <g id="patch_81">
    <path d="M 171.229091 307.584 
L 176.64 307.584 
L 176.64 206.941342 
L 171.229091 206.941342 
z
" clip-path="url(#pbdd74f0db5)" style="fill: #0000ff; opacity: 0.4; stroke: #000000; stroke-linejoin: miter"/>
   </g>
   <g id="patch_82">
    <path d="M 176.64 307.584 
L 182.050909 307.584 
L 182.050909 218.44336 
L 176.64 218.44336 
z
" clip-path="url(#pbdd74f0db5)" style="fill: #0000ff; opacity: 0.4; stroke: #000000; stroke-linejoin: miter"/>
   </g>
   <g id="patch_83">
    <path d="M 182.050909 307.584 
L 187.461818 307.584 
L 187.461818 195.439324 
L 182.050909 195.439324 
z
" clip-path="url(#pbdd74f0db5)" style="fill: #0000ff; opacity: 0.4; stroke: #000000; stroke-linejoin: miter"/>
   </g>
   <g id="patch_84">
    <path d="M 187.461818 307.584 
L 192.872727 307.584 
L 192.872727 186.812811 
L 187.461818 186.812811 
z
" clip-path="url(#pbdd74f0db5)" style="fill: #0000ff; opacity: 0.4; stroke: #000000; stroke-linejoin: miter"/>
   </g>
   <g id="patch_85">
    <path d="M 192.872727 307.584 
L 198.283636 307.584 
L 198.283636 183.937306 
L 192.872727 183.937306 
z
" clip-path="url(#pbdd74f0db5)" style="fill: #0000ff; opacity: 0.4; stroke: #000000; stroke-linejoin: miter"/>
   </g>
   <g id="patch_86">
    <path d="M 198.283636 307.584 
L 203.694545 307.584 
L 203.694545 155.182261 
L 198.283636 155.182261 
z
" clip-path="url(#pbdd74f0db5)" style="fill: #0000ff; opacity: 0.4; stroke: #000000; stroke-linejoin: miter"/>
   </g>
   <g id="patch_87">
    <path d="M 203.694545 307.584 
L 209.105455 307.584 
L 209.105455 146.555747 
L 203.694545 146.555747 
z
" clip-path="url(#pbdd74f0db5)" style="fill: #0000ff; opacity: 0.4; stroke: #000000; stroke-linejoin: miter"/>
   </g>
   <g id="patch_88">
    <path d="M 209.105455 307.584 
L 214.516364 307.584 
L 214.516364 112.049693 
L 209.105455 112.049693 
z
" clip-path="url(#pbdd74f0db5)" style="fill: #0000ff; opacity: 0.4; stroke: #000000; stroke-linejoin: miter"/>
   </g>
   <g id="patch_89">
    <path d="M 214.516364 307.584 
L 219.927273 307.584 
L 219.927273 135.053729 
L 214.516364 135.053729 
z
" clip-path="url(#pbdd74f0db5)" style="fill: #0000ff; opacity: 0.4; stroke: #000000; stroke-linejoin: miter"/>
   </g>
   <g id="patch_90">
    <path d="M 219.927273 307.584 
L 225.338182 307.584 
L 225.338182 103.42318 
L 219.927273 103.42318 
z
" clip-path="url(#pbdd74f0db5)" style="fill: #0000ff; opacity: 0.4; stroke: #000000; stroke-linejoin: miter"/>
   </g>
   <g id="patch_91">
    <path d="M 225.338182 307.584 
L 230.749091 307.584 
L 230.749091 120.676207 
L 225.338182 120.676207 
z
" clip-path="url(#pbdd74f0db5)" style="fill: #0000ff; opacity: 0.4; stroke: #000000; stroke-linejoin: miter"/>
   </g>
   <g id="patch_92">
    <path d="M 230.749091 307.584 
L 236.16 307.584 
L 236.16 83.294648 
L 230.749091 83.294648 
z
" clip-path="url(#pbdd74f0db5)" style="fill: #0000ff; opacity: 0.4; stroke: #000000; stroke-linejoin: miter"/>
   </g>
   <g id="patch_93">
    <path d="M 236.16 307.584 
L 241.570909 307.584 
L 241.570909 89.045657 
L 236.16 89.045657 
z
" clip-path="url(#pbdd74f0db5)" style="fill: #0000ff; opacity: 0.4; stroke: #000000; stroke-linejoin: miter"/>
   </g>
   <g id="patch_94">
    <path d="M 241.570909 307.584 
L 246.981818 307.584 
L 246.981818 112.049693 
L 241.570909 112.049693 
z
" clip-path="url(#pbdd74f0db5)" style="fill: #0000ff; opacity: 0.4; stroke: #000000; stroke-linejoin: miter"/>
   </g>
   <g id="patch_95">
    <path d="M 246.981818 307.584 
L 252.392727 307.584 
L 252.392727 86.170153 
L 246.981818 86.170153 
z
" clip-path="url(#pbdd74f0db5)" style="fill: #0000ff; opacity: 0.4; stroke: #000000; stroke-linejoin: miter"/>
   </g>
   <g id="patch_96">
    <path d="M 252.392727 307.584 
L 257.803636 307.584 
L 257.803636 109.174189 
L 252.392727 109.174189 
z
" clip-path="url(#pbdd74f0db5)" style="fill: #0000ff; opacity: 0.4; stroke: #000000; stroke-linejoin: miter"/>
   </g>
   <g id="patch_97">
    <path d="M 257.803636 307.584 
L 263.214545 307.584 
L 263.214545 126.427216 
L 257.803636 126.427216 
z
" clip-path="url(#pbdd74f0db5)" style="fill: #0000ff; opacity: 0.4; stroke: #000000; stroke-linejoin: miter"/>
   </g>
   <g id="patch_98">
    <path d="M 263.214545 307.584 
L 268.625455 307.584 
L 268.625455 123.551711 
L 263.214545 123.551711 
z
" clip-path="url(#pbdd74f0db5)" style="fill: #0000ff; opacity: 0.4; stroke: #000000; stroke-linejoin: miter"/>
   </g>
   <g id="patch_99">
    <path d="M 268.625455 307.584 
L 274.036364 307.584 
L 274.036364 117.800702 
L 268.625455 117.800702 
z
" clip-path="url(#pbdd74f0db5)" style="fill: #0000ff; opacity: 0.4; stroke: #000000; stroke-linejoin: miter"/>
   </g>
   <g id="patch_100">
    <path d="M 274.036364 307.584 
L 279.447273 307.584 
L 279.447273 155.182261 
L 274.036364 155.182261 
z
" clip-path="url(#pbdd74f0db5)" style="fill: #0000ff; opacity: 0.4; stroke: #000000; stroke-linejoin: miter"/>
   </g>
   <g id="patch_101">
    <path d="M 279.447273 307.584 
L 284.858182 307.584 
L 284.858182 160.93327 
L 279.447273 160.93327 
z
" clip-path="url(#pbdd74f0db5)" style="fill: #0000ff; opacity: 0.4; stroke: #000000; stroke-linejoin: miter"/>
   </g>
   <g id="patch_102">
    <path d="M 284.858182 307.584 
L 290.269091 307.584 
L 290.269091 178.186297 
L 284.858182 178.186297 
z
" clip-path="url(#pbdd74f0db5)" style="fill: #0000ff; opacity: 0.4; stroke: #000000; stroke-linejoin: miter"/>
   </g>
   <g id="patch_103">
    <path d="M 290.269091 307.584 
L 295.68 307.584 
L 295.68 192.56382 
L 290.269091 192.56382 
z
" clip-path="url(#pbdd74f0db5)" style="fill: #0000ff; opacity: 0.4; stroke: #000000; stroke-linejoin: miter"/>
   </g>
   <g id="patch_104">
    <path d="M 295.68 307.584 
L 301.090909 307.584 
L 301.090909 195.439324 
L 295.68 195.439324 
z
" clip-path="url(#pbdd74f0db5)" style="fill: #0000ff; opacity: 0.4; stroke: #000000; stroke-linejoin: miter"/>
   </g>
   <g id="patch_105">
    <path d="M 301.090909 307.584 
L 306.501818 307.584 
L 306.501818 189.688315 
L 301.090909 189.688315 
z
" clip-path="url(#pbdd74f0db5)" style="fill: #0000ff; opacity: 0.4; stroke: #000000; stroke-linejoin: miter"/>
   </g>
   <g id="patch_106">
    <path d="M 306.501818 307.584 
L 311.912727 307.584 
L 311.912727 227.069874 
L 306.501818 227.069874 
z
" clip-path="url(#pbdd74f0db5)" style="fill: #0000ff; opacity: 0.4; stroke: #000000; stroke-linejoin: miter"/>
   </g>
   <g id="patch_107">
    <path d="M 311.912727 307.584 
L 317.323636 307.584 
L 317.323636 241.447396 
L 311.912727 241.447396 
z
" clip-path="url(#pbdd74f0db5)" style="fill: #0000ff; opacity: 0.4; stroke: #000000; stroke-linejoin: miter"/>
   </g>
   <g id="patch_108">
    <path d="M 317.323636 307.584 
L 322.734545 307.584 
L 322.734545 255.824919 
L 317.323636 255.824919 
z
" clip-path="url(#pbdd74f0db5)" style="fill: #0000ff; opacity: 0.4; stroke: #000000; stroke-linejoin: miter"/>
   </g>
   <g id="patch_109">
    <path d="M 322.734545 307.584 
L 328.145455 307.584 
L 328.145455 258.700423 
L 322.734545 258.700423 
z
" clip-path="url(#pbdd74f0db5)" style="fill: #0000ff; opacity: 0.4; stroke: #000000; stroke-linejoin: miter"/>
   </g>
   <g id="patch_110">
    <path d="M 328.145455 307.584 
L 333.556364 307.584 
L 333.556364 258.700423 
L 328.145455 258.700423 
z
" clip-path="url(#pbdd74f0db5)" style="fill: #0000ff; opacity: 0.4; stroke: #000000; stroke-linejoin: miter"/>
   </g>
   <g id="patch_111">
    <path d="M 333.556364 307.584 
L 338.967273 307.584 
L 338.967273 270.202441 
L 333.556364 270.202441 
z
" clip-path="url(#pbdd74f0db5)" style="fill: #0000ff; opacity: 0.4; stroke: #000000; stroke-linejoin: miter"/>
   </g>
   <g id="patch_112">
    <path d="M 338.967273 307.584 
L 344.378182 307.584 
L 344.378182 270.202441 
L 338.967273 270.202441 
z
" clip-path="url(#pbdd74f0db5)" style="fill: #0000ff; opacity: 0.4; stroke: #000000; stroke-linejoin: miter"/>
   </g>
   <g id="patch_113">
    <path d="M 344.378182 307.584 
L 349.789091 307.584 
L 349.789091 284.579964 
L 344.378182 284.579964 
z
" clip-path="url(#pbdd74f0db5)" style="fill: #0000ff; opacity: 0.4; stroke: #000000; stroke-linejoin: miter"/>
   </g>
   <g id="patch_114">
    <path d="M 349.789091 307.584 
L 355.2 307.584 
L 355.2 293.206477 
L 349.789091 293.206477 
z
" clip-path="url(#pbdd74f0db5)" style="fill: #0000ff; opacity: 0.4; stroke: #000000; stroke-linejoin: miter"/>
   </g>
   <g id="patch_115">
    <path d="M 355.2 307.584 
L 360.610909 307.584 
L 360.610909 293.206477 
L 355.2 293.206477 
z
" clip-path="url(#pbdd74f0db5)" style="fill: #0000ff; opacity: 0.4; stroke: #000000; stroke-linejoin: miter"/>
   </g>
   <g id="patch_116">
    <path d="M 360.610909 307.584 
L 366.021818 307.584 
L 366.021818 293.206477 
L 360.610909 293.206477 
z
" clip-path="url(#pbdd74f0db5)" style="fill: #0000ff; opacity: 0.4; stroke: #000000; stroke-linejoin: miter"/>
   </g>
   <g id="patch_117">
    <path d="M 366.021818 307.584 
L 371.432727 307.584 
L 371.432727 301.832991 
L 366.021818 301.832991 
z
" clip-path="url(#pbdd74f0db5)" style="fill: #0000ff; opacity: 0.4; stroke: #000000; stroke-linejoin: miter"/>
   </g>
   <g id="patch_118">
    <path d="M 371.432727 307.584 
L 376.843636 307.584 
L 376.843636 301.832991 
L 371.432727 301.832991 
z
" clip-path="url(#pbdd74f0db5)" style="fill: #0000ff; opacity: 0.4; stroke: #000000; stroke-linejoin: miter"/>
   </g>
   <g id="patch_119">
    <path d="M 376.843636 307.584 
L 382.254545 307.584 
L 382.254545 301.832991 
L 376.843636 301.832991 
z
" clip-path="url(#pbdd74f0db5)" style="fill: #0000ff; opacity: 0.4; stroke: #000000; stroke-linejoin: miter"/>
   </g>
   <g id="patch_120">
    <path d="M 382.254545 307.584 
L 387.665455 307.584 
L 387.665455 307.584 
L 382.254545 307.584 
z
" clip-path="url(#pbdd74f0db5)" style="fill: #0000ff; opacity: 0.4; stroke: #000000; stroke-linejoin: miter"/>
   </g>
   <g id="patch_121">
    <path d="M 387.665455 307.584 
L 393.076364 307.584 
L 393.076364 301.832991 
L 387.665455 301.832991 
z
" clip-path="url(#pbdd74f0db5)" style="fill: #0000ff; opacity: 0.4; stroke: #000000; stroke-linejoin: miter"/>
   </g>
   <g id="patch_122">
    <path d="M 393.076364 307.584 
L 398.487273 307.584 
L 398.487273 304.708495 
L 393.076364 304.708495 
z
" clip-path="url(#pbdd74f0db5)" style="fill: #0000ff; opacity: 0.4; stroke: #000000; stroke-linejoin: miter"/>
   </g>
   <g id="matplotlib.axis_1">
    <g id="xtick_1">
     <g id="line2d_1">
      <defs>
       <path id="m7e729ce0cb" d="M 0 0 
L 0 3.5 
" style="stroke: #000000; stroke-width: 0.8"/>
      </defs>
      <g>
       <use xlink:href="#m7e729ce0cb" x="90.937089" y="307.584" style="stroke: #000000; stroke-width: 0.8"/>
      </g>
     </g>
     <g id="text_1">
      <!-- −3 -->
      <g transform="translate(83.565996 322.182437) scale(0.1 -0.1)">
       <defs>
        <path id="DejaVuSans-2212" d="M 678 2272 
L 4684 2272 
L 4684 1741 
L 678 1741 
L 678 2272 
z
" transform="scale(0.015625)"/>
        <path id="DejaVuSans-33" d="M 2597 2516 
Q 3050 2419 3304 2112 
Q 3559 1806 3559 1356 
Q 3559 666 3084 287 
Q 2609 -91 1734 -91 
Q 1441 -91 1130 -33 
Q 819 25 488 141 
L 488 750 
Q 750 597 1062 519 
Q 1375 441 1716 441 
Q 2309 441 2620 675 
Q 2931 909 2931 1356 
Q 2931 1769 2642 2001 
Q 2353 2234 1838 2234 
L 1294 2234 
L 1294 2753 
L 1863 2753 
Q 2328 2753 2575 2939 
Q 2822 3125 2822 3475 
Q 2822 3834 2567 4026 
Q 2313 4219 1838 4219 
Q 1578 4219 1281 4162 
Q 984 4106 628 3988 
L 628 4550 
Q 988 4650 1302 4700 
Q 1616 4750 1894 4750 
Q 2613 4750 3031 4423 
Q 3450 4097 3450 3541 
Q 3450 3153 3228 2886 
Q 3006 2619 2597 2516 
z
" transform="scale(0.015625)"/>
       </defs>
       <use xlink:href="#DejaVuSans-2212"/>
       <use xlink:href="#DejaVuSans-33" x="83.789062"/>
      </g>
     </g>
    </g>
    <g id="xtick_2">
     <g id="line2d_2">
      <g>
       <use xlink:href="#m7e729ce0cb" x="140.99226" y="307.584" style="stroke: #000000; stroke-width: 0.8"/>
      </g>
     </g>
     <g id="text_2">
      <!-- −2 -->
      <g transform="translate(133.621166 322.182437) scale(0.1 -0.1)">
       <defs>
        <path id="DejaVuSans-32" d="M 1228 531 
L 3431 531 
L 3431 0 
L 469 0 
L 469 531 
Q 828 903 1448 1529 
Q 2069 2156 2228 2338 
Q 2531 2678 2651 2914 
Q 2772 3150 2772 3378 
Q 2772 3750 2511 3984 
Q 2250 4219 1831 4219 
Q 1534 4219 1204 4116 
Q 875 4013 500 3803 
L 500 4441 
Q 881 4594 1212 4672 
Q 1544 4750 1819 4750 
Q 2544 4750 2975 4387 
Q 3406 4025 3406 3419 
Q 3406 3131 3298 2873 
Q 3191 2616 2906 2266 
Q 2828 2175 2409 1742 
Q 1991 1309 1228 531 
z
" transform="scale(0.015625)"/>
       </defs>
       <use xlink:href="#DejaVuSans-2212"/>
       <use xlink:href="#DejaVuSans-32" x="83.789062"/>
      </g>
     </g>
    </g>
    <g id="xtick_3">
     <g id="line2d_3">
      <g>
       <use xlink:href="#m7e729ce0cb" x="191.047431" y="307.584" style="stroke: #000000; stroke-width: 0.8"/>
      </g>
     </g>
     <g id="text_3">
      <!-- −1 -->
      <g transform="translate(183.676337 322.182437) scale(0.1 -0.1)">
       <defs>
        <path id="DejaVuSans-31" d="M 794 531 
L 1825 531 
L 1825 4091 
L 703 3866 
L 703 4441 
L 1819 4666 
L 2450 4666 
L 2450 531 
L 3481 531 
L 3481 0 
L 794 0 
L 794 531 
z
" transform="scale(0.015625)"/>
       </defs>
       <use xlink:href="#DejaVuSans-2212"/>
       <use xlink:href="#DejaVuSans-31" x="83.789062"/>
      </g>
     </g>
    </g>
    <g id="xtick_4">
     <g id="line2d_4">
      <g>
       <use xlink:href="#m7e729ce0cb" x="241.102602" y="307.584" style="stroke: #000000; stroke-width: 0.8"/>
      </g>
     </g>
     <g id="text_4">
      <!-- 0 -->
      <g transform="translate(237.921352 322.182437) scale(0.1 -0.1)">
       <defs>
        <path id="DejaVuSans-30" d="M 2034 4250 
Q 1547 4250 1301 3770 
Q 1056 3291 1056 2328 
Q 1056 1369 1301 889 
Q 1547 409 2034 409 
Q 2525 409 2770 889 
Q 3016 1369 3016 2328 
Q 3016 3291 2770 3770 
Q 2525 4250 2034 4250 
z
M 2034 4750 
Q 2819 4750 3233 4129 
Q 3647 3509 3647 2328 
Q 3647 1150 3233 529 
Q 2819 -91 2034 -91 
Q 1250 -91 836 529 
Q 422 1150 422 2328 
Q 422 3509 836 4129 
Q 1250 4750 2034 4750 
z
" transform="scale(0.015625)"/>
       </defs>
       <use xlink:href="#DejaVuSans-30"/>
      </g>
     </g>
    </g>
    <g id="xtick_5">
     <g id="line2d_5">
      <g>
       <use xlink:href="#m7e729ce0cb" x="291.157772" y="307.584" style="stroke: #000000; stroke-width: 0.8"/>
      </g>
     </g>
     <g id="text_5">
      <!-- 1 -->
      <g transform="translate(287.976522 322.182437) scale(0.1 -0.1)">
       <use xlink:href="#DejaVuSans-31"/>
      </g>
     </g>
    </g>
    <g id="xtick_6">
     <g id="line2d_6">
      <g>
       <use xlink:href="#m7e729ce0cb" x="341.212943" y="307.584" style="stroke: #000000; stroke-width: 0.8"/>
      </g>
     </g>
     <g id="text_6">
      <!-- 2 -->
      <g transform="translate(338.031693 322.182437) scale(0.1 -0.1)">
       <use xlink:href="#DejaVuSans-32"/>
      </g>
     </g>
    </g>
    <g id="xtick_7">
     <g id="line2d_7">
      <g>
       <use xlink:href="#m7e729ce0cb" x="391.268114" y="307.584" style="stroke: #000000; stroke-width: 0.8"/>
      </g>
     </g>
     <g id="text_7">
      <!-- 3 -->
      <g transform="translate(388.086864 322.182437) scale(0.1 -0.1)">
       <use xlink:href="#DejaVuSans-33"/>
      </g>
     </g>
    </g>
   </g>
   <g id="matplotlib.axis_2">
    <g id="ytick_1">
     <g id="line2d_8">
      <defs>
       <path id="m0a8bcc7126" d="M 0 0 
L -3.5 0 
" style="stroke: #000000; stroke-width: 0.8"/>
      </defs>
      <g>
       <use xlink:href="#m0a8bcc7126" x="57.6" y="307.584" style="stroke: #000000; stroke-width: 0.8"/>
      </g>
     </g>
     <g id="text_8">
      <!-- 0.0 -->
      <g transform="translate(34.696875 311.383219) scale(0.1 -0.1)">
       <defs>
        <path id="DejaVuSans-2e" d="M 684 794 
L 1344 794 
L 1344 0 
L 684 0 
L 684 794 
z
" transform="scale(0.015625)"/>
       </defs>
       <use xlink:href="#DejaVuSans-30"/>
       <use xlink:href="#DejaVuSans-2e" x="63.623047"/>
       <use xlink:href="#DejaVuSans-30" x="95.410156"/>
      </g>
     </g>
    </g>
    <g id="ytick_2">
     <g id="line2d_9">
      <g>
       <use xlink:href="#m0a8bcc7126" x="57.6" y="255.363067" style="stroke: #000000; stroke-width: 0.8"/>
      </g>
     </g>
     <g id="text_9">
      <!-- 0.1 -->
      <g transform="translate(34.696875 259.162286) scale(0.1 -0.1)">
       <use xlink:href="#DejaVuSans-30"/>
       <use xlink:href="#DejaVuSans-2e" x="63.623047"/>
       <use xlink:href="#DejaVuSans-31" x="95.410156"/>
      </g>
     </g>
    </g>
    <g id="ytick_3">
     <g id="line2d_10">
      <g>
       <use xlink:href="#m0a8bcc7126" x="57.6" y="203.142134" style="stroke: #000000; stroke-width: 0.8"/>
      </g>
     </g>
     <g id="text_10">
      <!-- 0.2 -->
      <g transform="translate(34.696875 206.941353) scale(0.1 -0.1)">
       <use xlink:href="#DejaVuSans-30"/>
       <use xlink:href="#DejaVuSans-2e" x="63.623047"/>
       <use xlink:href="#DejaVuSans-32" x="95.410156"/>
      </g>
     </g>
    </g>
    <g id="ytick_4">
     <g id="line2d_11">
      <g>
       <use xlink:href="#m0a8bcc7126" x="57.6" y="150.921202" style="stroke: #000000; stroke-width: 0.8"/>
      </g>
     </g>
     <g id="text_11">
      <!-- 0.3 -->
      <g transform="translate(34.696875 154.72042) scale(0.1 -0.1)">
       <use xlink:href="#DejaVuSans-30"/>
       <use xlink:href="#DejaVuSans-2e" x="63.623047"/>
       <use xlink:href="#DejaVuSans-33" x="95.410156"/>
      </g>
     </g>
    </g>
    <g id="ytick_5">
     <g id="line2d_12">
      <g>
       <use xlink:href="#m0a8bcc7126" x="57.6" y="98.700269" style="stroke: #000000; stroke-width: 0.8"/>
      </g>
     </g>
     <g id="text_12">
      <!-- 0.4 -->
      <g transform="translate(34.696875 102.499488) scale(0.1 -0.1)">
       <defs>
        <path id="DejaVuSans-34" d="M 2419 4116 
L 825 1625 
L 2419 1625 
L 2419 4116 
z
M 2253 4666 
L 3047 4666 
L 3047 1625 
L 3713 1625 
L 3713 1100 
L 3047 1100 
L 3047 0 
L 2419 0 
L 2419 1100 
L 313 1100 
L 313 1709 
L 2253 4666 
z
" transform="scale(0.015625)"/>
       </defs>
       <use xlink:href="#DejaVuSans-30"/>
       <use xlink:href="#DejaVuSans-2e" x="63.623047"/>
       <use xlink:href="#DejaVuSans-34" x="95.410156"/>
      </g>
     </g>
    </g>
    <g id="ytick_6">
     <g id="line2d_13">
      <g>
       <use xlink:href="#m0a8bcc7126" x="57.6" y="46.479336" style="stroke: #000000; stroke-width: 0.8"/>
      </g>
     </g>
     <g id="text_13">
      <!-- 0.5 -->
      <g transform="translate(34.696875 50.278555) scale(0.1 -0.1)">
       <defs>
        <path id="DejaVuSans-35" d="M 691 4666 
L 3169 4666 
L 3169 4134 
L 1269 4134 
L 1269 2991 
Q 1406 3038 1543 3061 
Q 1681 3084 1819 3084 
Q 2600 3084 3056 2656 
Q 3513 2228 3513 1497 
Q 3513 744 3044 326 
Q 2575 -91 1722 -91 
Q 1428 -91 1123 -41 
Q 819 9 494 109 
L 494 744 
Q 775 591 1075 516 
Q 1375 441 1709 441 
Q 2250 441 2565 725 
Q 2881 1009 2881 1497 
Q 2881 1984 2565 2268 
Q 2250 2553 1709 2553 
Q 1456 2553 1204 2497 
Q 953 2441 691 2322 
L 691 4666 
z
" transform="scale(0.015625)"/>
       </defs>
       <use xlink:href="#DejaVuSans-30"/>
       <use xlink:href="#DejaVuSans-2e" x="63.623047"/>
       <use xlink:href="#DejaVuSans-35" x="95.410156"/>
      </g>
     </g>
    </g>
   </g>
   <g id="patch_123">
    <path d="M 57.6 307.584 
L 57.6 41.472 
" style="fill: none; stroke: #000000; stroke-width: 0.8; stroke-linejoin: miter; stroke-linecap: square"/>
   </g>
   <g id="patch_124">
    <path d="M 414.72 307.584 
L 414.72 41.472 
" style="fill: none; stroke: #000000; stroke-width: 0.8; stroke-linejoin: miter; stroke-linecap: square"/>
   </g>
   <g id="patch_125">
    <path d="M 57.6 307.584 
L 414.72 307.584 
" style="fill: none; stroke: #000000; stroke-width: 0.8; stroke-linejoin: miter; stroke-linecap: square"/>
   </g>
   <g id="patch_126">
    <path d="M 57.6 41.472 
L 414.72 41.472 
" style="fill: none; stroke: #000000; stroke-width: 0.8; stroke-linejoin: miter; stroke-linecap: square"/>
   </g>
   <g id="text_14">
    <!-- GAUSSIANIZED_feature_6 -->
    <g transform="translate(159.26625 35.472) scale(0.12 -0.12)">
     <defs>
      <path id="DejaVuSans-47" d="M 3809 666 
L 3809 1919 
L 2778 1919 
L 2778 2438 
L 4434 2438 
L 4434 434 
Q 4069 175 3628 42 
Q 3188 -91 2688 -91 
Q 1594 -91 976 548 
Q 359 1188 359 2328 
Q 359 3472 976 4111 
Q 1594 4750 2688 4750 
Q 3144 4750 3555 4637 
Q 3966 4525 4313 4306 
L 4313 3634 
Q 3963 3931 3569 4081 
Q 3175 4231 2741 4231 
Q 1884 4231 1454 3753 
Q 1025 3275 1025 2328 
Q 1025 1384 1454 906 
Q 1884 428 2741 428 
Q 3075 428 3337 486 
Q 3600 544 3809 666 
z
" transform="scale(0.015625)"/>
      <path id="DejaVuSans-41" d="M 2188 4044 
L 1331 1722 
L 3047 1722 
L 2188 4044 
z
M 1831 4666 
L 2547 4666 
L 4325 0 
L 3669 0 
L 3244 1197 
L 1141 1197 
L 716 0 
L 50 0 
L 1831 4666 
z
" transform="scale(0.015625)"/>
      <path id="DejaVuSans-55" d="M 556 4666 
L 1191 4666 
L 1191 1831 
Q 1191 1081 1462 751 
Q 1734 422 2344 422 
Q 2950 422 3222 751 
Q 3494 1081 3494 1831 
L 3494 4666 
L 4128 4666 
L 4128 1753 
Q 4128 841 3676 375 
Q 3225 -91 2344 -91 
Q 1459 -91 1007 375 
Q 556 841 556 1753 
L 556 4666 
z
" transform="scale(0.015625)"/>
      <path id="DejaVuSans-53" d="M 3425 4513 
L 3425 3897 
Q 3066 4069 2747 4153 
Q 2428 4238 2131 4238 
Q 1616 4238 1336 4038 
Q 1056 3838 1056 3469 
Q 1056 3159 1242 3001 
Q 1428 2844 1947 2747 
L 2328 2669 
Q 3034 2534 3370 2195 
Q 3706 1856 3706 1288 
Q 3706 609 3251 259 
Q 2797 -91 1919 -91 
Q 1588 -91 1214 -16 
Q 841 59 441 206 
L 441 856 
Q 825 641 1194 531 
Q 1563 422 1919 422 
Q 2459 422 2753 634 
Q 3047 847 3047 1241 
Q 3047 1584 2836 1778 
Q 2625 1972 2144 2069 
L 1759 2144 
Q 1053 2284 737 2584 
Q 422 2884 422 3419 
Q 422 4038 858 4394 
Q 1294 4750 2059 4750 
Q 2388 4750 2728 4690 
Q 3069 4631 3425 4513 
z
" transform="scale(0.015625)"/>
      <path id="DejaVuSans-49" d="M 628 4666 
L 1259 4666 
L 1259 0 
L 628 0 
L 628 4666 
z
" transform="scale(0.015625)"/>
      <path id="DejaVuSans-4e" d="M 628 4666 
L 1478 4666 
L 3547 763 
L 3547 4666 
L 4159 4666 
L 4159 0 
L 3309 0 
L 1241 3903 
L 1241 0 
L 628 0 
L 628 4666 
z
" transform="scale(0.015625)"/>
      <path id="DejaVuSans-5a" d="M 359 4666 
L 4025 4666 
L 4025 4184 
L 1075 531 
L 4097 531 
L 4097 0 
L 288 0 
L 288 481 
L 3238 4134 
L 359 4134 
L 359 4666 
z
" transform="scale(0.015625)"/>
      <path id="DejaVuSans-45" d="M 628 4666 
L 3578 4666 
L 3578 4134 
L 1259 4134 
L 1259 2753 
L 3481 2753 
L 3481 2222 
L 1259 2222 
L 1259 531 
L 3634 531 
L 3634 0 
L 628 0 
L 628 4666 
z
" transform="scale(0.015625)"/>
      <path id="DejaVuSans-44" d="M 1259 4147 
L 1259 519 
L 2022 519 
Q 2988 519 3436 956 
Q 3884 1394 3884 2338 
Q 3884 3275 3436 3711 
Q 2988 4147 2022 4147 
L 1259 4147 
z
M 628 4666 
L 1925 4666 
Q 3281 4666 3915 4102 
Q 4550 3538 4550 2338 
Q 4550 1131 3912 565 
Q 3275 0 1925 0 
L 628 0 
L 628 4666 
z
" transform="scale(0.015625)"/>
      <path id="DejaVuSans-5f" d="M 3263 -1063 
L 3263 -1509 
L -63 -1509 
L -63 -1063 
L 3263 -1063 
z
" transform="scale(0.015625)"/>
      <path id="DejaVuSans-66" d="M 2375 4863 
L 2375 4384 
L 1825 4384 
Q 1516 4384 1395 4259 
Q 1275 4134 1275 3809 
L 1275 3500 
L 2222 3500 
L 2222 3053 
L 1275 3053 
L 1275 0 
L 697 0 
L 697 3053 
L 147 3053 
L 147 3500 
L 697 3500 
L 697 3744 
Q 697 4328 969 4595 
Q 1241 4863 1831 4863 
L 2375 4863 
z
" transform="scale(0.015625)"/>
      <path id="DejaVuSans-65" d="M 3597 1894 
L 3597 1613 
L 953 1613 
Q 991 1019 1311 708 
Q 1631 397 2203 397 
Q 2534 397 2845 478 
Q 3156 559 3463 722 
L 3463 178 
Q 3153 47 2828 -22 
Q 2503 -91 2169 -91 
Q 1331 -91 842 396 
Q 353 884 353 1716 
Q 353 2575 817 3079 
Q 1281 3584 2069 3584 
Q 2775 3584 3186 3129 
Q 3597 2675 3597 1894 
z
M 3022 2063 
Q 3016 2534 2758 2815 
Q 2500 3097 2075 3097 
Q 1594 3097 1305 2825 
Q 1016 2553 972 2059 
L 3022 2063 
z
" transform="scale(0.015625)"/>
      <path id="DejaVuSans-61" d="M 2194 1759 
Q 1497 1759 1228 1600 
Q 959 1441 959 1056 
Q 959 750 1161 570 
Q 1363 391 1709 391 
Q 2188 391 2477 730 
Q 2766 1069 2766 1631 
L 2766 1759 
L 2194 1759 
z
M 3341 1997 
L 3341 0 
L 2766 0 
L 2766 531 
Q 2569 213 2275 61 
Q 1981 -91 1556 -91 
Q 1019 -91 701 211 
Q 384 513 384 1019 
Q 384 1609 779 1909 
Q 1175 2209 1959 2209 
L 2766 2209 
L 2766 2266 
Q 2766 2663 2505 2880 
Q 2244 3097 1772 3097 
Q 1472 3097 1187 3025 
Q 903 2953 641 2809 
L 641 3341 
Q 956 3463 1253 3523 
Q 1550 3584 1831 3584 
Q 2591 3584 2966 3190 
Q 3341 2797 3341 1997 
z
" transform="scale(0.015625)"/>
      <path id="DejaVuSans-74" d="M 1172 4494 
L 1172 3500 
L 2356 3500 
L 2356 3053 
L 1172 3053 
L 1172 1153 
Q 1172 725 1289 603 
Q 1406 481 1766 481 
L 2356 481 
L 2356 0 
L 1766 0 
Q 1100 0 847 248 
Q 594 497 594 1153 
L 594 3053 
L 172 3053 
L 172 3500 
L 594 3500 
L 594 4494 
L 1172 4494 
z
" transform="scale(0.015625)"/>
      <path id="DejaVuSans-75" d="M 544 1381 
L 544 3500 
L 1119 3500 
L 1119 1403 
Q 1119 906 1312 657 
Q 1506 409 1894 409 
Q 2359 409 2629 706 
Q 2900 1003 2900 1516 
L 2900 3500 
L 3475 3500 
L 3475 0 
L 2900 0 
L 2900 538 
Q 2691 219 2414 64 
Q 2138 -91 1772 -91 
Q 1169 -91 856 284 
Q 544 659 544 1381 
z
M 1991 3584 
L 1991 3584 
z
" transform="scale(0.015625)"/>
      <path id="DejaVuSans-72" d="M 2631 2963 
Q 2534 3019 2420 3045 
Q 2306 3072 2169 3072 
Q 1681 3072 1420 2755 
Q 1159 2438 1159 1844 
L 1159 0 
L 581 0 
L 581 3500 
L 1159 3500 
L 1159 2956 
Q 1341 3275 1631 3429 
Q 1922 3584 2338 3584 
Q 2397 3584 2469 3576 
Q 2541 3569 2628 3553 
L 2631 2963 
z
" transform="scale(0.015625)"/>
      <path id="DejaVuSans-36" d="M 2113 2584 
Q 1688 2584 1439 2293 
Q 1191 2003 1191 1497 
Q 1191 994 1439 701 
Q 1688 409 2113 409 
Q 2538 409 2786 701 
Q 3034 994 3034 1497 
Q 3034 2003 2786 2293 
Q 2538 2584 2113 2584 
z
M 3366 4563 
L 3366 3988 
Q 3128 4100 2886 4159 
Q 2644 4219 2406 4219 
Q 1781 4219 1451 3797 
Q 1122 3375 1075 2522 
Q 1259 2794 1537 2939 
Q 1816 3084 2150 3084 
Q 2853 3084 3261 2657 
Q 3669 2231 3669 1497 
Q 3669 778 3244 343 
Q 2819 -91 2113 -91 
Q 1303 -91 875 529 
Q 447 1150 447 2328 
Q 447 3434 972 4092 
Q 1497 4750 2381 4750 
Q 2619 4750 2861 4703 
Q 3103 4656 3366 4563 
z
" transform="scale(0.015625)"/>
     </defs>
     <use xlink:href="#DejaVuSans-47"/>
     <use xlink:href="#DejaVuSans-41" x="77.490234"/>
     <use xlink:href="#DejaVuSans-55" x="145.898438"/>
     <use xlink:href="#DejaVuSans-53" x="219.091797"/>
     <use xlink:href="#DejaVuSans-53" x="282.568359"/>
     <use xlink:href="#DejaVuSans-49" x="346.044922"/>
     <use xlink:href="#DejaVuSans-41" x="375.537109"/>
     <use xlink:href="#DejaVuSans-4e" x="443.945312"/>
     <use xlink:href="#DejaVuSans-49" x="518.75"/>
     <use xlink:href="#DejaVuSans-5a" x="548.242188"/>
     <use xlink:href="#DejaVuSans-45" x="616.748047"/>
     <use xlink:href="#DejaVuSans-44" x="679.931641"/>
     <use xlink:href="#DejaVuSans-5f" x="756.933594"/>
     <use xlink:href="#DejaVuSans-66" x="806.933594"/>
     <use xlink:href="#DejaVuSans-65" x="842.138672"/>
     <use xlink:href="#DejaVuSans-61" x="903.662109"/>
     <use xlink:href="#DejaVuSans-74" x="964.941406"/>
     <use xlink:href="#DejaVuSans-75" x="1004.150391"/>
     <use xlink:href="#DejaVuSans-72" x="1067.529297"/>
     <use xlink:href="#DejaVuSans-65" x="1106.392578"/>
     <use xlink:href="#DejaVuSans-5f" x="1167.916016"/>
     <use xlink:href="#DejaVuSans-36" x="1217.916016"/>
    </g>
   </g>
   <g id="legend_1">
    <g id="patch_127">
     <path d="M 341.246563 78.82825 
L 407.72 78.82825 
Q 409.72 78.82825 409.72 76.82825 
L 409.72 48.472 
Q 409.72 46.472 407.72 46.472 
L 341.246563 46.472 
Q 339.246563 46.472 339.246563 48.472 
L 339.246563 76.82825 
Q 339.246563 78.82825 341.246563 78.82825 
z
" style="fill: #ffffff; opacity: 0.8; stroke: #cccccc; stroke-linejoin: miter"/>
    </g>
    <g id="patch_128">
     <path d="M 343.246563 58.070437 
L 363.246563 58.070437 
L 363.246563 51.070437 
L 343.246563 51.070437 
z
" style="fill: #ff0000; opacity: 0.4; stroke: #000000; stroke-linejoin: miter"/>
    </g>
    <g id="text_15">
     <!-- male -->
     <g transform="translate(371.246563 58.070437) scale(0.1 -0.1)">
      <defs>
       <path id="DejaVuSans-6d" d="M 3328 2828 
Q 3544 3216 3844 3400 
Q 4144 3584 4550 3584 
Q 5097 3584 5394 3201 
Q 5691 2819 5691 2113 
L 5691 0 
L 5113 0 
L 5113 2094 
Q 5113 2597 4934 2840 
Q 4756 3084 4391 3084 
Q 3944 3084 3684 2787 
Q 3425 2491 3425 1978 
L 3425 0 
L 2847 0 
L 2847 2094 
Q 2847 2600 2669 2842 
Q 2491 3084 2119 3084 
Q 1678 3084 1418 2786 
Q 1159 2488 1159 1978 
L 1159 0 
L 581 0 
L 581 3500 
L 1159 3500 
L 1159 2956 
Q 1356 3278 1631 3431 
Q 1906 3584 2284 3584 
Q 2666 3584 2933 3390 
Q 3200 3197 3328 2828 
z
" transform="scale(0.015625)"/>
       <path id="DejaVuSans-6c" d="M 603 4863 
L 1178 4863 
L 1178 0 
L 603 0 
L 603 4863 
z
" transform="scale(0.015625)"/>
      </defs>
      <use xlink:href="#DejaVuSans-6d"/>
      <use xlink:href="#DejaVuSans-61" x="97.412109"/>
      <use xlink:href="#DejaVuSans-6c" x="158.691406"/>
      <use xlink:href="#DejaVuSans-65" x="186.474609"/>
     </g>
    </g>
    <g id="patch_129">
     <path d="M 343.246563 72.748562 
L 363.246563 72.748562 
L 363.246563 65.748562 
L 343.246563 65.748562 
z
" style="fill: #0000ff; opacity: 0.4; stroke: #000000; stroke-linejoin: miter"/>
    </g>
    <g id="text_16">
     <!-- female -->
     <g transform="translate(371.246563 72.748562) scale(0.1 -0.1)">
      <use xlink:href="#DejaVuSans-66"/>
      <use xlink:href="#DejaVuSans-65" x="35.205078"/>
      <use xlink:href="#DejaVuSans-6d" x="96.728516"/>
      <use xlink:href="#DejaVuSans-61" x="194.140625"/>
      <use xlink:href="#DejaVuSans-6c" x="255.419922"/>
      <use xlink:href="#DejaVuSans-65" x="283.203125"/>
     </g>
    </g>
   </g>
  </g>
 </g>
 <defs>
  <clipPath id="pbdd74f0db5">
   <rect x="57.6" y="41.472" width="357.12" height="266.112"/>
  </clipPath>
 </defs>
</svg>
