<?xml version="1.0" encoding="utf-8" standalone="no"?>
<!DOCTYPE svg PUBLIC "-//W3C//DTD SVG 1.1//EN"
  "http://www.w3.org/Graphics/SVG/1.1/DTD/svg11.dtd">
<svg xmlns:xlink="http://www.w3.org/1999/xlink" width="460.8pt" height="345.6pt" viewBox="0 0 460.8 345.6" xmlns="http://www.w3.org/2000/svg" version="1.1">
 <metadata>
  <rdf:RDF xmlns:dc="http://purl.org/dc/elements/1.1/" xmlns:cc="http://creativecommons.org/ns#" xmlns:rdf="http://www.w3.org/1999/02/22-rdf-syntax-ns#">
   <cc:Work>
    <dc:type rdf:resource="http://purl.org/dc/dcmitype/StillImage"/>
    <dc:date>2023-06-02T11:31:57.496481</dc:date>
    <dc:format>image/svg+xml</dc:format>
    <dc:creator>
     <cc:Agent>
      <dc:title>Matplotlib v3.7.0, https://matplotlib.org/</dc:title>
     </cc:Agent>
    </dc:creator>
   </cc:Work>
  </rdf:RDF>
 </metadata>
 <defs>
  <style type="text/css">*{stroke-linejoin: round; stroke-linecap: butt}</style>
 </defs>
 <g id="figure_1">
  <g id="patch_1">
   <path d="M 0 345.6 
L 460.8 345.6 
L 460.8 0 
L 0 0 
z
" style="fill: #ffffff"/>
  </g>
  <g id="axes_1">
   <g id="patch_2">
    <path d="M 57.6 307.584 
L 414.72 307.584 
L 414.72 41.472 
L 57.6 41.472 
z
" style="fill: #ffffff"/>
   </g>
   <g id="patch_3">
    <path d="M 73.832727 307.584 
L 77.48038 307.584 
L 77.48038 300.914526 
L 73.832727 300.914526 
z
" clip-path="url(#pa944f41697)" style="fill: #ff0000; opacity: 0.4; stroke: #000000; stroke-linejoin: miter"/>
   </g>
   <g id="patch_4">
    <path d="M 77.48038 307.584 
L 81.128033 307.584 
L 81.128033 287.575579 
L 77.48038 287.575579 
z
" clip-path="url(#pa944f41697)" style="fill: #ff0000; opacity: 0.4; stroke: #000000; stroke-linejoin: miter"/>
   </g>
   <g id="patch_5">
    <path d="M 81.128033 307.584 
L 84.775687 307.584 
L 84.775687 307.584 
L 81.128033 307.584 
z
" clip-path="url(#pa944f41697)" style="fill: #ff0000; opacity: 0.4; stroke: #000000; stroke-linejoin: miter"/>
   </g>
   <g id="patch_6">
    <path d="M 84.775687 307.584 
L 88.42334 307.584 
L 88.42334 300.914526 
L 84.775687 300.914526 
z
" clip-path="url(#pa944f41697)" style="fill: #ff0000; opacity: 0.4; stroke: #000000; stroke-linejoin: miter"/>
   </g>
   <g id="patch_7">
    <path d="M 88.42334 307.584 
L 92.070993 307.584 
L 92.070993 294.245053 
L 88.42334 294.245053 
z
" clip-path="url(#pa944f41697)" style="fill: #ff0000; opacity: 0.4; stroke: #000000; stroke-linejoin: miter"/>
   </g>
   <g id="patch_8">
    <path d="M 92.070993 307.584 
L 95.718646 307.584 
L 95.718646 307.584 
L 92.070993 307.584 
z
" clip-path="url(#pa944f41697)" style="fill: #ff0000; opacity: 0.4; stroke: #000000; stroke-linejoin: miter"/>
   </g>
   <g id="patch_9">
    <path d="M 95.718646 307.584 
L 99.366299 307.584 
L 99.366299 280.906105 
L 95.718646 280.906105 
z
" clip-path="url(#pa944f41697)" style="fill: #ff0000; opacity: 0.4; stroke: #000000; stroke-linejoin: miter"/>
   </g>
   <g id="patch_10">
    <path d="M 99.366299 307.584 
L 103.013952 307.584 
L 103.013952 307.584 
L 99.366299 307.584 
z
" clip-path="url(#pa944f41697)" style="fill: #ff0000; opacity: 0.4; stroke: #000000; stroke-linejoin: miter"/>
   </g>
   <g id="patch_11">
    <path d="M 103.013952 307.584 
L 106.661605 307.584 
L 106.661605 294.245053 
L 103.013952 294.245053 
z
" clip-path="url(#pa944f41697)" style="fill: #ff0000; opacity: 0.4; stroke: #000000; stroke-linejoin: miter"/>
   </g>
   <g id="patch_12">
    <path d="M 106.661605 307.584 
L 110.309258 307.584 
L 110.309258 280.906105 
L 106.661605 280.906105 
z
" clip-path="url(#pa944f41697)" style="fill: #ff0000; opacity: 0.4; stroke: #000000; stroke-linejoin: miter"/>
   </g>
   <g id="patch_13">
    <path d="M 110.309258 307.584 
L 113.956911 307.584 
L 113.956911 280.906105 
L 110.309258 280.906105 
z
" clip-path="url(#pa944f41697)" style="fill: #ff0000; opacity: 0.4; stroke: #000000; stroke-linejoin: miter"/>
   </g>
   <g id="patch_14">
    <path d="M 113.956911 307.584 
L 117.604564 307.584 
L 117.604564 280.906105 
L 113.956911 280.906105 
z
" clip-path="url(#pa944f41697)" style="fill: #ff0000; opacity: 0.4; stroke: #000000; stroke-linejoin: miter"/>
   </g>
   <g id="patch_15">
    <path d="M 117.604564 307.584 
L 121.252218 307.584 
L 121.252218 267.567158 
L 117.604564 267.567158 
z
" clip-path="url(#pa944f41697)" style="fill: #ff0000; opacity: 0.4; stroke: #000000; stroke-linejoin: miter"/>
   </g>
   <g id="patch_16">
    <path d="M 121.252218 307.584 
L 124.899871 307.584 
L 124.899871 294.245053 
L 121.252218 294.245053 
z
" clip-path="url(#pa944f41697)" style="fill: #ff0000; opacity: 0.4; stroke: #000000; stroke-linejoin: miter"/>
   </g>
   <g id="patch_17">
    <path d="M 124.899871 307.584 
L 128.547524 307.584 
L 128.547524 260.897684 
L 124.899871 260.897684 
z
" clip-path="url(#pa944f41697)" style="fill: #ff0000; opacity: 0.4; stroke: #000000; stroke-linejoin: miter"/>
   </g>
   <g id="patch_18">
    <path d="M 128.547524 307.584 
L 132.195177 307.584 
L 132.195177 280.906105 
L 128.547524 280.906105 
z
" clip-path="url(#pa944f41697)" style="fill: #ff0000; opacity: 0.4; stroke: #000000; stroke-linejoin: miter"/>
   </g>
   <g id="patch_19">
    <path d="M 132.195177 307.584 
L 135.84283 307.584 
L 135.84283 240.889263 
L 132.195177 240.889263 
z
" clip-path="url(#pa944f41697)" style="fill: #ff0000; opacity: 0.4; stroke: #000000; stroke-linejoin: miter"/>
   </g>
   <g id="patch_20">
    <path d="M 135.84283 307.584 
L 139.490483 307.584 
L 139.490483 220.880842 
L 135.84283 220.880842 
z
" clip-path="url(#pa944f41697)" style="fill: #ff0000; opacity: 0.4; stroke: #000000; stroke-linejoin: miter"/>
   </g>
   <g id="patch_21">
    <path d="M 139.490483 307.584 
L 143.138136 307.584 
L 143.138136 234.219789 
L 139.490483 234.219789 
z
" clip-path="url(#pa944f41697)" style="fill: #ff0000; opacity: 0.4; stroke: #000000; stroke-linejoin: miter"/>
   </g>
   <g id="patch_22">
    <path d="M 143.138136 307.584 
L 146.785789 307.584 
L 146.785789 260.897684 
L 143.138136 260.897684 
z
" clip-path="url(#pa944f41697)" style="fill: #ff0000; opacity: 0.4; stroke: #000000; stroke-linejoin: miter"/>
   </g>
   <g id="patch_23">
    <path d="M 146.785789 307.584 
L 150.433442 307.584 
L 150.433442 214.211368 
L 146.785789 214.211368 
z
" clip-path="url(#pa944f41697)" style="fill: #ff0000; opacity: 0.4; stroke: #000000; stroke-linejoin: miter"/>
   </g>
   <g id="patch_24">
    <path d="M 150.433442 307.584 
L 154.081095 307.584 
L 154.081095 234.219789 
L 150.433442 234.219789 
z
" clip-path="url(#pa944f41697)" style="fill: #ff0000; opacity: 0.4; stroke: #000000; stroke-linejoin: miter"/>
   </g>
   <g id="patch_25">
    <path d="M 154.081095 307.584 
L 157.728749 307.584 
L 157.728749 187.533474 
L 154.081095 187.533474 
z
" clip-path="url(#pa944f41697)" style="fill: #ff0000; opacity: 0.4; stroke: #000000; stroke-linejoin: miter"/>
   </g>
   <g id="patch_26">
    <path d="M 157.728749 307.584 
L 161.376402 307.584 
L 161.376402 160.855579 
L 157.728749 160.855579 
z
" clip-path="url(#pa944f41697)" style="fill: #ff0000; opacity: 0.4; stroke: #000000; stroke-linejoin: miter"/>
   </g>
   <g id="patch_27">
    <path d="M 161.376402 307.584 
L 165.024055 307.584 
L 165.024055 154.186105 
L 161.376402 154.186105 
z
" clip-path="url(#pa944f41697)" style="fill: #ff0000; opacity: 0.4; stroke: #000000; stroke-linejoin: miter"/>
   </g>
   <g id="patch_28">
    <path d="M 165.024055 307.584 
L 168.671708 307.584 
L 168.671708 154.186105 
L 165.024055 154.186105 
z
" clip-path="url(#pa944f41697)" style="fill: #ff0000; opacity: 0.4; stroke: #000000; stroke-linejoin: miter"/>
   </g>
   <g id="patch_29">
    <path d="M 168.671708 307.584 
L 172.319361 307.584 
L 172.319361 214.211368 
L 168.671708 214.211368 
z
" clip-path="url(#pa944f41697)" style="fill: #ff0000; opacity: 0.4; stroke: #000000; stroke-linejoin: miter"/>
   </g>
   <g id="patch_30">
    <path d="M 172.319361 307.584 
L 175.967014 307.584 
L 175.967014 100.830316 
L 172.319361 100.830316 
z
" clip-path="url(#pa944f41697)" style="fill: #ff0000; opacity: 0.4; stroke: #000000; stroke-linejoin: miter"/>
   </g>
   <g id="patch_31">
    <path d="M 175.967014 307.584 
L 179.614667 307.584 
L 179.614667 80.821895 
L 175.967014 80.821895 
z
" clip-path="url(#pa944f41697)" style="fill: #ff0000; opacity: 0.4; stroke: #000000; stroke-linejoin: miter"/>
   </g>
   <g id="patch_32">
    <path d="M 179.614667 307.584 
L 183.26232 307.584 
L 183.26232 54.144 
L 179.614667 54.144 
z
" clip-path="url(#pa944f41697)" style="fill: #ff0000; opacity: 0.4; stroke: #000000; stroke-linejoin: miter"/>
   </g>
   <g id="patch_33">
    <path d="M 183.26232 307.584 
L 186.909973 307.584 
L 186.909973 140.847158 
L 183.26232 140.847158 
z
" clip-path="url(#pa944f41697)" style="fill: #ff0000; opacity: 0.4; stroke: #000000; stroke-linejoin: miter"/>
   </g>
   <g id="patch_34">
    <path d="M 186.909973 307.584 
L 190.557626 307.584 
L 190.557626 147.516632 
L 186.909973 147.516632 
z
" clip-path="url(#pa944f41697)" style="fill: #ff0000; opacity: 0.4; stroke: #000000; stroke-linejoin: miter"/>
   </g>
   <g id="patch_35">
    <path d="M 190.557626 307.584 
L 194.20528 307.584 
L 194.20528 154.186105 
L 190.557626 154.186105 
z
" clip-path="url(#pa944f41697)" style="fill: #ff0000; opacity: 0.4; stroke: #000000; stroke-linejoin: miter"/>
   </g>
   <g id="patch_36">
    <path d="M 194.20528 307.584 
L 197.852933 307.584 
L 197.852933 180.864 
L 194.20528 180.864 
z
" clip-path="url(#pa944f41697)" style="fill: #ff0000; opacity: 0.4; stroke: #000000; stroke-linejoin: miter"/>
   </g>
   <g id="patch_37">
    <path d="M 197.852933 307.584 
L 201.500586 307.584 
L 201.500586 154.186105 
L 197.852933 154.186105 
z
" clip-path="url(#pa944f41697)" style="fill: #ff0000; opacity: 0.4; stroke: #000000; stroke-linejoin: miter"/>
   </g>
   <g id="patch_38">
    <path d="M 201.500586 307.584 
L 205.148239 307.584 
L 205.148239 100.830316 
L 201.500586 100.830316 
z
" clip-path="url(#pa944f41697)" style="fill: #ff0000; opacity: 0.4; stroke: #000000; stroke-linejoin: miter"/>
   </g>
   <g id="patch_39">
    <path d="M 205.148239 307.584 
L 208.795892 307.584 
L 208.795892 167.525053 
L 205.148239 167.525053 
z
" clip-path="url(#pa944f41697)" style="fill: #ff0000; opacity: 0.4; stroke: #000000; stroke-linejoin: miter"/>
   </g>
   <g id="patch_40">
    <path d="M 208.795892 307.584 
L 212.443545 307.584 
L 212.443545 167.525053 
L 208.795892 167.525053 
z
" clip-path="url(#pa944f41697)" style="fill: #ff0000; opacity: 0.4; stroke: #000000; stroke-linejoin: miter"/>
   </g>
   <g id="patch_41">
    <path d="M 212.443545 307.584 
L 216.091198 307.584 
L 216.091198 67.482947 
L 212.443545 67.482947 
z
" clip-path="url(#pa944f41697)" style="fill: #ff0000; opacity: 0.4; stroke: #000000; stroke-linejoin: miter"/>
   </g>
   <g id="patch_42">
    <path d="M 216.091198 307.584 
L 219.738851 307.584 
L 219.738851 120.838737 
L 216.091198 120.838737 
z
" clip-path="url(#pa944f41697)" style="fill: #ff0000; opacity: 0.4; stroke: #000000; stroke-linejoin: miter"/>
   </g>
   <g id="patch_43">
    <path d="M 219.738851 307.584 
L 223.386504 307.584 
L 223.386504 174.194526 
L 219.738851 174.194526 
z
" clip-path="url(#pa944f41697)" style="fill: #ff0000; opacity: 0.4; stroke: #000000; stroke-linejoin: miter"/>
   </g>
   <g id="patch_44">
    <path d="M 223.386504 307.584 
L 227.034157 307.584 
L 227.034157 187.533474 
L 223.386504 187.533474 
z
" clip-path="url(#pa944f41697)" style="fill: #ff0000; opacity: 0.4; stroke: #000000; stroke-linejoin: miter"/>
   </g>
   <g id="patch_45">
    <path d="M 227.034157 307.584 
L 230.681811 307.584 
L 230.681811 200.872421 
L 227.034157 200.872421 
z
" clip-path="url(#pa944f41697)" style="fill: #ff0000; opacity: 0.4; stroke: #000000; stroke-linejoin: miter"/>
   </g>
   <g id="patch_46">
    <path d="M 230.681811 307.584 
L 234.329464 307.584 
L 234.329464 234.219789 
L 230.681811 234.219789 
z
" clip-path="url(#pa944f41697)" style="fill: #ff0000; opacity: 0.4; stroke: #000000; stroke-linejoin: miter"/>
   </g>
   <g id="patch_47">
    <path d="M 234.329464 307.584 
L 237.977117 307.584 
L 237.977117 167.525053 
L 234.329464 167.525053 
z
" clip-path="url(#pa944f41697)" style="fill: #ff0000; opacity: 0.4; stroke: #000000; stroke-linejoin: miter"/>
   </g>
   <g id="patch_48">
    <path d="M 237.977117 307.584 
L 241.62477 307.584 
L 241.62477 227.550316 
L 237.977117 227.550316 
z
" clip-path="url(#pa944f41697)" style="fill: #ff0000; opacity: 0.4; stroke: #000000; stroke-linejoin: miter"/>
   </g>
   <g id="patch_49">
    <path d="M 241.62477 307.584 
L 245.272423 307.584 
L 245.272423 220.880842 
L 241.62477 220.880842 
z
" clip-path="url(#pa944f41697)" style="fill: #ff0000; opacity: 0.4; stroke: #000000; stroke-linejoin: miter"/>
   </g>
   <g id="patch_50">
    <path d="M 245.272423 307.584 
L 248.920076 307.584 
L 248.920076 254.228211 
L 245.272423 254.228211 
z
" clip-path="url(#pa944f41697)" style="fill: #ff0000; opacity: 0.4; stroke: #000000; stroke-linejoin: miter"/>
   </g>
   <g id="patch_51">
    <path d="M 248.920076 307.584 
L 252.567729 307.584 
L 252.567729 274.236632 
L 248.920076 274.236632 
z
" clip-path="url(#pa944f41697)" style="fill: #ff0000; opacity: 0.4; stroke: #000000; stroke-linejoin: miter"/>
   </g>
   <g id="patch_52">
    <path d="M 252.567729 307.584 
L 256.215382 307.584 
L 256.215382 267.567158 
L 252.567729 267.567158 
z
" clip-path="url(#pa944f41697)" style="fill: #ff0000; opacity: 0.4; stroke: #000000; stroke-linejoin: miter"/>
   </g>
   <g id="patch_53">
    <path d="M 256.215382 307.584 
L 259.863035 307.584 
L 259.863035 260.897684 
L 256.215382 260.897684 
z
" clip-path="url(#pa944f41697)" style="fill: #ff0000; opacity: 0.4; stroke: #000000; stroke-linejoin: miter"/>
   </g>
   <g id="patch_54">
    <path d="M 259.863035 307.584 
L 263.510688 307.584 
L 263.510688 287.575579 
L 259.863035 287.575579 
z
" clip-path="url(#pa944f41697)" style="fill: #ff0000; opacity: 0.4; stroke: #000000; stroke-linejoin: miter"/>
   </g>
   <g id="patch_55">
    <path d="M 263.510688 307.584 
L 267.158342 307.584 
L 267.158342 274.236632 
L 263.510688 274.236632 
z
" clip-path="url(#pa944f41697)" style="fill: #ff0000; opacity: 0.4; stroke: #000000; stroke-linejoin: miter"/>
   </g>
   <g id="patch_56">
    <path d="M 267.158342 307.584 
L 270.805995 307.584 
L 270.805995 294.245053 
L 267.158342 294.245053 
z
" clip-path="url(#pa944f41697)" style="fill: #ff0000; opacity: 0.4; stroke: #000000; stroke-linejoin: miter"/>
   </g>
   <g id="patch_57">
    <path d="M 270.805995 307.584 
L 274.453648 307.584 
L 274.453648 294.245053 
L 270.805995 294.245053 
z
" clip-path="url(#pa944f41697)" style="fill: #ff0000; opacity: 0.4; stroke: #000000; stroke-linejoin: miter"/>
   </g>
   <g id="patch_58">
    <path d="M 274.453648 307.584 
L 278.101301 307.584 
L 278.101301 300.914526 
L 274.453648 300.914526 
z
" clip-path="url(#pa944f41697)" style="fill: #ff0000; opacity: 0.4; stroke: #000000; stroke-linejoin: miter"/>
   </g>
   <g id="patch_59">
    <path d="M 278.101301 307.584 
L 281.748954 307.584 
L 281.748954 294.245053 
L 278.101301 294.245053 
z
" clip-path="url(#pa944f41697)" style="fill: #ff0000; opacity: 0.4; stroke: #000000; stroke-linejoin: miter"/>
   </g>
   <g id="patch_60">
    <path d="M 281.748954 307.584 
L 285.396607 307.584 
L 285.396607 300.914526 
L 281.748954 300.914526 
z
" clip-path="url(#pa944f41697)" style="fill: #ff0000; opacity: 0.4; stroke: #000000; stroke-linejoin: miter"/>
   </g>
   <g id="patch_61">
    <path d="M 285.396607 307.584 
L 289.04426 307.584 
L 289.04426 307.584 
L 285.396607 307.584 
z
" clip-path="url(#pa944f41697)" style="fill: #ff0000; opacity: 0.4; stroke: #000000; stroke-linejoin: miter"/>
   </g>
   <g id="patch_62">
    <path d="M 289.04426 307.584 
L 292.691913 307.584 
L 292.691913 287.575579 
L 289.04426 287.575579 
z
" clip-path="url(#pa944f41697)" style="fill: #ff0000; opacity: 0.4; stroke: #000000; stroke-linejoin: miter"/>
   </g>
   <g id="patch_63">
    <path d="M 112.464086 307.584 
L 117.231139 307.584 
L 117.231139 305.396851 
L 112.464086 305.396851 
z
" clip-path="url(#pa944f41697)" style="fill: #0000ff; opacity: 0.4; stroke: #000000; stroke-linejoin: miter"/>
   </g>
   <g id="patch_64">
    <path d="M 117.231139 307.584 
L 121.998192 307.584 
L 121.998192 307.584 
L 117.231139 307.584 
z
" clip-path="url(#pa944f41697)" style="fill: #0000ff; opacity: 0.4; stroke: #000000; stroke-linejoin: miter"/>
   </g>
   <g id="patch_65">
    <path d="M 121.998192 307.584 
L 126.765245 307.584 
L 126.765245 307.584 
L 121.998192 307.584 
z
" clip-path="url(#pa944f41697)" style="fill: #0000ff; opacity: 0.4; stroke: #000000; stroke-linejoin: miter"/>
   </g>
   <g id="patch_66">
    <path d="M 126.765245 307.584 
L 131.532298 307.584 
L 131.532298 305.396851 
L 126.765245 305.396851 
z
" clip-path="url(#pa944f41697)" style="fill: #0000ff; opacity: 0.4; stroke: #000000; stroke-linejoin: miter"/>
   </g>
   <g id="patch_67">
    <path d="M 131.532298 307.584 
L 136.299352 307.584 
L 136.299352 303.209703 
L 131.532298 303.209703 
z
" clip-path="url(#pa944f41697)" style="fill: #0000ff; opacity: 0.4; stroke: #000000; stroke-linejoin: miter"/>
   </g>
   <g id="patch_68">
    <path d="M 136.299352 307.584 
L 141.066405 307.584 
L 141.066405 292.273959 
L 136.299352 292.273959 
z
" clip-path="url(#pa944f41697)" style="fill: #0000ff; opacity: 0.4; stroke: #000000; stroke-linejoin: miter"/>
   </g>
   <g id="patch_69">
    <path d="M 141.066405 307.584 
L 145.833458 307.584 
L 145.833458 305.396851 
L 141.066405 305.396851 
z
" clip-path="url(#pa944f41697)" style="fill: #0000ff; opacity: 0.4; stroke: #000000; stroke-linejoin: miter"/>
   </g>
   <g id="patch_70">
    <path d="M 145.833458 307.584 
L 150.600511 307.584 
L 150.600511 290.08681 
L 145.833458 290.08681 
z
" clip-path="url(#pa944f41697)" style="fill: #0000ff; opacity: 0.4; stroke: #000000; stroke-linejoin: miter"/>
   </g>
   <g id="patch_71">
    <path d="M 150.600511 307.584 
L 155.367564 307.584 
L 155.367564 301.022554 
L 150.600511 301.022554 
z
" clip-path="url(#pa944f41697)" style="fill: #0000ff; opacity: 0.4; stroke: #000000; stroke-linejoin: miter"/>
   </g>
   <g id="patch_72">
    <path d="M 155.367564 307.584 
L 160.134617 307.584 
L 160.134617 301.022554 
L 155.367564 301.022554 
z
" clip-path="url(#pa944f41697)" style="fill: #0000ff; opacity: 0.4; stroke: #000000; stroke-linejoin: miter"/>
   </g>
   <g id="patch_73">
    <path d="M 160.134617 307.584 
L 164.90167 307.584 
L 164.90167 301.022554 
L 160.134617 301.022554 
z
" clip-path="url(#pa944f41697)" style="fill: #0000ff; opacity: 0.4; stroke: #000000; stroke-linejoin: miter"/>
   </g>
   <g id="patch_74">
    <path d="M 164.90167 307.584 
L 169.668723 307.584 
L 169.668723 287.899661 
L 164.90167 287.899661 
z
" clip-path="url(#pa944f41697)" style="fill: #0000ff; opacity: 0.4; stroke: #000000; stroke-linejoin: miter"/>
   </g>
   <g id="patch_75">
    <path d="M 169.668723 307.584 
L 174.435776 307.584 
L 174.435776 279.151067 
L 169.668723 279.151067 
z
" clip-path="url(#pa944f41697)" style="fill: #0000ff; opacity: 0.4; stroke: #000000; stroke-linejoin: miter"/>
   </g>
   <g id="patch_76">
    <path d="M 174.435776 307.584 
L 179.20283 307.584 
L 179.20283 272.58962 
L 174.435776 272.58962 
z
" clip-path="url(#pa944f41697)" style="fill: #0000ff; opacity: 0.4; stroke: #000000; stroke-linejoin: miter"/>
   </g>
   <g id="patch_77">
    <path d="M 179.20283 307.584 
L 183.969883 307.584 
L 183.969883 268.215323 
L 179.20283 268.215323 
z
" clip-path="url(#pa944f41697)" style="fill: #0000ff; opacity: 0.4; stroke: #000000; stroke-linejoin: miter"/>
   </g>
   <g id="patch_78">
    <path d="M 183.969883 307.584 
L 188.736936 307.584 
L 188.736936 268.215323 
L 183.969883 268.215323 
z
" clip-path="url(#pa944f41697)" style="fill: #0000ff; opacity: 0.4; stroke: #000000; stroke-linejoin: miter"/>
   </g>
   <g id="patch_79">
    <path d="M 188.736936 307.584 
L 193.503989 307.584 
L 193.503989 259.466728 
L 188.736936 259.466728 
z
" clip-path="url(#pa944f41697)" style="fill: #0000ff; opacity: 0.4; stroke: #000000; stroke-linejoin: miter"/>
   </g>
   <g id="patch_80">
    <path d="M 193.503989 307.584 
L 198.271042 307.584 
L 198.271042 246.343836 
L 193.503989 246.343836 
z
" clip-path="url(#pa944f41697)" style="fill: #0000ff; opacity: 0.4; stroke: #000000; stroke-linejoin: miter"/>
   </g>
   <g id="patch_81">
    <path d="M 198.271042 307.584 
L 203.038095 307.584 
L 203.038095 215.723753 
L 198.271042 215.723753 
z
" clip-path="url(#pa944f41697)" style="fill: #0000ff; opacity: 0.4; stroke: #000000; stroke-linejoin: miter"/>
   </g>
   <g id="patch_82">
    <path d="M 203.038095 307.584 
L 207.805148 307.584 
L 207.805148 235.408092 
L 203.038095 235.408092 
z
" clip-path="url(#pa944f41697)" style="fill: #0000ff; opacity: 0.4; stroke: #000000; stroke-linejoin: miter"/>
   </g>
   <g id="patch_83">
    <path d="M 207.805148 307.584 
L 212.572201 307.584 
L 212.572201 196.039415 
L 207.805148 196.039415 
z
" clip-path="url(#pa944f41697)" style="fill: #0000ff; opacity: 0.4; stroke: #000000; stroke-linejoin: miter"/>
   </g>
   <g id="patch_84">
    <path d="M 212.572201 307.584 
L 217.339254 307.584 
L 217.339254 220.098051 
L 212.572201 220.098051 
z
" clip-path="url(#pa944f41697)" style="fill: #0000ff; opacity: 0.4; stroke: #000000; stroke-linejoin: miter"/>
   </g>
   <g id="patch_85">
    <path d="M 217.339254 307.584 
L 222.106308 307.584 
L 222.106308 169.79363 
L 217.339254 169.79363 
z
" clip-path="url(#pa944f41697)" style="fill: #0000ff; opacity: 0.4; stroke: #000000; stroke-linejoin: miter"/>
   </g>
   <g id="patch_86">
    <path d="M 222.106308 307.584 
L 226.873361 307.584 
L 226.873361 134.79925 
L 222.106308 134.79925 
z
" clip-path="url(#pa944f41697)" style="fill: #0000ff; opacity: 0.4; stroke: #000000; stroke-linejoin: miter"/>
   </g>
   <g id="patch_87">
    <path d="M 226.873361 307.584 
L 231.640414 307.584 
L 231.640414 132.612102 
L 226.873361 132.612102 
z
" clip-path="url(#pa944f41697)" style="fill: #0000ff; opacity: 0.4; stroke: #000000; stroke-linejoin: miter"/>
   </g>
   <g id="patch_88">
    <path d="M 231.640414 307.584 
L 236.407467 307.584 
L 236.407467 141.360697 
L 231.640414 141.360697 
z
" clip-path="url(#pa944f41697)" style="fill: #0000ff; opacity: 0.4; stroke: #000000; stroke-linejoin: miter"/>
   </g>
   <g id="patch_89">
    <path d="M 236.407467 307.584 
L 241.17452 307.584 
L 241.17452 134.79925 
L 236.407467 134.79925 
z
" clip-path="url(#pa944f41697)" style="fill: #0000ff; opacity: 0.4; stroke: #000000; stroke-linejoin: miter"/>
   </g>
   <g id="patch_90">
    <path d="M 241.17452 307.584 
L 245.941573 307.584 
L 245.941573 145.734994 
L 241.17452 145.734994 
z
" clip-path="url(#pa944f41697)" style="fill: #0000ff; opacity: 0.4; stroke: #000000; stroke-linejoin: miter"/>
   </g>
   <g id="patch_91">
    <path d="M 245.941573 307.584 
L 250.708626 307.584 
L 250.708626 128.237804 
L 245.941573 128.237804 
z
" clip-path="url(#pa944f41697)" style="fill: #0000ff; opacity: 0.4; stroke: #000000; stroke-linejoin: miter"/>
   </g>
   <g id="patch_92">
    <path d="M 250.708626 307.584 
L 255.475679 307.584 
L 255.475679 97.617722 
L 250.708626 97.617722 
z
" clip-path="url(#pa944f41697)" style="fill: #0000ff; opacity: 0.4; stroke: #000000; stroke-linejoin: miter"/>
   </g>
   <g id="patch_93">
    <path d="M 255.475679 307.584 
L 260.242732 307.584 
L 260.242732 117.302061 
L 255.475679 117.302061 
z
" clip-path="url(#pa944f41697)" style="fill: #0000ff; opacity: 0.4; stroke: #000000; stroke-linejoin: miter"/>
   </g>
   <g id="patch_94">
    <path d="M 260.242732 307.584 
L 265.009786 307.584 
L 265.009786 130.424953 
L 260.242732 130.424953 
z
" clip-path="url(#pa944f41697)" style="fill: #0000ff; opacity: 0.4; stroke: #000000; stroke-linejoin: miter"/>
   </g>
   <g id="patch_95">
    <path d="M 265.009786 307.584 
L 269.776839 307.584 
L 269.776839 126.050656 
L 265.009786 126.050656 
z
" clip-path="url(#pa944f41697)" style="fill: #0000ff; opacity: 0.4; stroke: #000000; stroke-linejoin: miter"/>
   </g>
   <g id="patch_96">
    <path d="M 269.776839 307.584 
L 274.543892 307.584 
L 274.543892 165.419333 
L 269.776839 165.419333 
z
" clip-path="url(#pa944f41697)" style="fill: #0000ff; opacity: 0.4; stroke: #000000; stroke-linejoin: miter"/>
   </g>
   <g id="patch_97">
    <path d="M 274.543892 307.584 
L 279.310945 307.584 
L 279.310945 130.424953 
L 274.543892 130.424953 
z
" clip-path="url(#pa944f41697)" style="fill: #0000ff; opacity: 0.4; stroke: #000000; stroke-linejoin: miter"/>
   </g>
   <g id="patch_98">
    <path d="M 279.310945 307.584 
L 284.077998 307.584 
L 284.077998 187.29082 
L 279.310945 187.29082 
z
" clip-path="url(#pa944f41697)" style="fill: #0000ff; opacity: 0.4; stroke: #000000; stroke-linejoin: miter"/>
   </g>
   <g id="patch_99">
    <path d="M 284.077998 307.584 
L 288.845051 307.584 
L 288.845051 222.2852 
L 284.077998 222.2852 
z
" clip-path="url(#pa944f41697)" style="fill: #0000ff; opacity: 0.4; stroke: #000000; stroke-linejoin: miter"/>
   </g>
   <g id="patch_100">
    <path d="M 288.845051 307.584 
L 293.612104 307.584 
L 293.612104 222.2852 
L 288.845051 222.2852 
z
" clip-path="url(#pa944f41697)" style="fill: #0000ff; opacity: 0.4; stroke: #000000; stroke-linejoin: miter"/>
   </g>
   <g id="patch_101">
    <path d="M 293.612104 307.584 
L 298.379157 307.584 
L 298.379157 213.536605 
L 293.612104 213.536605 
z
" clip-path="url(#pa944f41697)" style="fill: #0000ff; opacity: 0.4; stroke: #000000; stroke-linejoin: miter"/>
   </g>
   <g id="patch_102">
    <path d="M 298.379157 307.584 
L 303.14621 307.584 
L 303.14621 270.402472 
L 298.379157 270.402472 
z
" clip-path="url(#pa944f41697)" style="fill: #0000ff; opacity: 0.4; stroke: #000000; stroke-linejoin: miter"/>
   </g>
   <g id="patch_103">
    <path d="M 303.14621 307.584 
L 307.913264 307.584 
L 307.913264 233.220943 
L 303.14621 233.220943 
z
" clip-path="url(#pa944f41697)" style="fill: #0000ff; opacity: 0.4; stroke: #000000; stroke-linejoin: miter"/>
   </g>
   <g id="patch_104">
    <path d="M 307.913264 307.584 
L 312.680317 307.584 
L 312.680317 250.718133 
L 307.913264 250.718133 
z
" clip-path="url(#pa944f41697)" style="fill: #0000ff; opacity: 0.4; stroke: #000000; stroke-linejoin: miter"/>
   </g>
   <g id="patch_105">
    <path d="M 312.680317 307.584 
L 317.44737 307.584 
L 317.44737 257.279579 
L 312.680317 257.279579 
z
" clip-path="url(#pa944f41697)" style="fill: #0000ff; opacity: 0.4; stroke: #000000; stroke-linejoin: miter"/>
   </g>
   <g id="patch_106">
    <path d="M 317.44737 307.584 
L 322.214423 307.584 
L 322.214423 281.338215 
L 317.44737 281.338215 
z
" clip-path="url(#pa944f41697)" style="fill: #0000ff; opacity: 0.4; stroke: #000000; stroke-linejoin: miter"/>
   </g>
   <g id="patch_107">
    <path d="M 322.214423 307.584 
L 326.981476 307.584 
L 326.981476 276.963918 
L 322.214423 276.963918 
z
" clip-path="url(#pa944f41697)" style="fill: #0000ff; opacity: 0.4; stroke: #000000; stroke-linejoin: miter"/>
   </g>
   <g id="patch_108">
    <path d="M 326.981476 307.584 
L 331.748529 307.584 
L 331.748529 294.461108 
L 326.981476 294.461108 
z
" clip-path="url(#pa944f41697)" style="fill: #0000ff; opacity: 0.4; stroke: #000000; stroke-linejoin: miter"/>
   </g>
   <g id="patch_109">
    <path d="M 331.748529 307.584 
L 336.515582 307.584 
L 336.515582 296.648256 
L 331.748529 296.648256 
z
" clip-path="url(#pa944f41697)" style="fill: #0000ff; opacity: 0.4; stroke: #000000; stroke-linejoin: miter"/>
   </g>
   <g id="patch_110">
    <path d="M 336.515582 307.584 
L 341.282635 307.584 
L 341.282635 290.08681 
L 336.515582 290.08681 
z
" clip-path="url(#pa944f41697)" style="fill: #0000ff; opacity: 0.4; stroke: #000000; stroke-linejoin: miter"/>
   </g>
   <g id="patch_111">
    <path d="M 341.282635 307.584 
L 346.049688 307.584 
L 346.049688 301.022554 
L 341.282635 301.022554 
z
" clip-path="url(#pa944f41697)" style="fill: #0000ff; opacity: 0.4; stroke: #000000; stroke-linejoin: miter"/>
   </g>
   <g id="patch_112">
    <path d="M 346.049688 307.584 
L 350.816742 307.584 
L 350.816742 303.209703 
L 346.049688 303.209703 
z
" clip-path="url(#pa944f41697)" style="fill: #0000ff; opacity: 0.4; stroke: #000000; stroke-linejoin: miter"/>
   </g>
   <g id="patch_113">
    <path d="M 350.816742 307.584 
L 355.583795 307.584 
L 355.583795 301.022554 
L 350.816742 301.022554 
z
" clip-path="url(#pa944f41697)" style="fill: #0000ff; opacity: 0.4; stroke: #000000; stroke-linejoin: miter"/>
   </g>
   <g id="patch_114">
    <path d="M 355.583795 307.584 
L 360.350848 307.584 
L 360.350848 303.209703 
L 355.583795 303.209703 
z
" clip-path="url(#pa944f41697)" style="fill: #0000ff; opacity: 0.4; stroke: #000000; stroke-linejoin: miter"/>
   </g>
   <g id="patch_115">
    <path d="M 360.350848 307.584 
L 365.117901 307.584 
L 365.117901 305.396851 
L 360.350848 305.396851 
z
" clip-path="url(#pa944f41697)" style="fill: #0000ff; opacity: 0.4; stroke: #000000; stroke-linejoin: miter"/>
   </g>
   <g id="patch_116">
    <path d="M 365.117901 307.584 
L 369.884954 307.584 
L 369.884954 305.396851 
L 365.117901 305.396851 
z
" clip-path="url(#pa944f41697)" style="fill: #0000ff; opacity: 0.4; stroke: #000000; stroke-linejoin: miter"/>
   </g>
   <g id="patch_117">
    <path d="M 369.884954 307.584 
L 374.652007 307.584 
L 374.652007 307.584 
L 369.884954 307.584 
z
" clip-path="url(#pa944f41697)" style="fill: #0000ff; opacity: 0.4; stroke: #000000; stroke-linejoin: miter"/>
   </g>
   <g id="patch_118">
    <path d="M 374.652007 307.584 
L 379.41906 307.584 
L 379.41906 307.584 
L 374.652007 307.584 
z
" clip-path="url(#pa944f41697)" style="fill: #0000ff; opacity: 0.4; stroke: #000000; stroke-linejoin: miter"/>
   </g>
   <g id="patch_119">
    <path d="M 379.41906 307.584 
L 384.186113 307.584 
L 384.186113 305.396851 
L 379.41906 305.396851 
z
" clip-path="url(#pa944f41697)" style="fill: #0000ff; opacity: 0.4; stroke: #000000; stroke-linejoin: miter"/>
   </g>
   <g id="patch_120">
    <path d="M 384.186113 307.584 
L 388.953167 307.584 
L 388.953167 307.584 
L 384.186113 307.584 
z
" clip-path="url(#pa944f41697)" style="fill: #0000ff; opacity: 0.4; stroke: #000000; stroke-linejoin: miter"/>
   </g>
   <g id="patch_121">
    <path d="M 388.953167 307.584 
L 393.72022 307.584 
L 393.72022 307.584 
L 388.953167 307.584 
z
" clip-path="url(#pa944f41697)" style="fill: #0000ff; opacity: 0.4; stroke: #000000; stroke-linejoin: miter"/>
   </g>
   <g id="patch_122">
    <path d="M 393.72022 307.584 
L 398.487273 307.584 
L 398.487273 305.396851 
L 393.72022 305.396851 
z
" clip-path="url(#pa944f41697)" style="fill: #0000ff; opacity: 0.4; stroke: #000000; stroke-linejoin: miter"/>
   </g>
   <g id="matplotlib.axis_1">
    <g id="xtick_1">
     <g id="line2d_1">
      <defs>
       <path id="m4ac56d0828" d="M 0 0 
L 0 3.5 
" style="stroke: #000000; stroke-width: 0.8"/>
      </defs>
      <g>
       <use xlink:href="#m4ac56d0828" x="68.63899" y="307.584" style="stroke: #000000; stroke-width: 0.8"/>
      </g>
     </g>
     <g id="text_1">
      <!-- −10 -->
      <g transform="translate(58.086646 322.182437) scale(0.1 -0.1)">
       <defs>
        <path id="DejaVuSans-2212" d="M 678 2272 
L 4684 2272 
L 4684 1741 
L 678 1741 
L 678 2272 
z
" transform="scale(0.015625)"/>
        <path id="DejaVuSans-31" d="M 794 531 
L 1825 531 
L 1825 4091 
L 703 3866 
L 703 4441 
L 1819 4666 
L 2450 4666 
L 2450 531 
L 3481 531 
L 3481 0 
L 794 0 
L 794 531 
z
" transform="scale(0.015625)"/>
        <path id="DejaVuSans-30" d="M 2034 4250 
Q 1547 4250 1301 3770 
Q 1056 3291 1056 2328 
Q 1056 1369 1301 889 
Q 1547 409 2034 409 
Q 2525 409 2770 889 
Q 3016 1369 3016 2328 
Q 3016 3291 2770 3770 
Q 2525 4250 2034 4250 
z
M 2034 4750 
Q 2819 4750 3233 4129 
Q 3647 3509 3647 2328 
Q 3647 1150 3233 529 
Q 2819 -91 2034 -91 
Q 1250 -91 836 529 
Q 422 1150 422 2328 
Q 422 3509 836 4129 
Q 1250 4750 2034 4750 
z
" transform="scale(0.015625)"/>
       </defs>
       <use xlink:href="#DejaVuSans-2212"/>
       <use xlink:href="#DejaVuSans-31" x="83.789062"/>
       <use xlink:href="#DejaVuSans-30" x="147.412109"/>
      </g>
     </g>
    </g>
    <g id="xtick_2">
     <g id="line2d_2">
      <g>
       <use xlink:href="#m4ac56d0828" x="122.66108" y="307.584" style="stroke: #000000; stroke-width: 0.8"/>
      </g>
     </g>
     <g id="text_2">
      <!-- −5 -->
      <g transform="translate(115.289986 322.182437) scale(0.1 -0.1)">
       <defs>
        <path id="DejaVuSans-35" d="M 691 4666 
L 3169 4666 
L 3169 4134 
L 1269 4134 
L 1269 2991 
Q 1406 3038 1543 3061 
Q 1681 3084 1819 3084 
Q 2600 3084 3056 2656 
Q 3513 2228 3513 1497 
Q 3513 744 3044 326 
Q 2575 -91 1722 -91 
Q 1428 -91 1123 -41 
Q 819 9 494 109 
L 494 744 
Q 775 591 1075 516 
Q 1375 441 1709 441 
Q 2250 441 2565 725 
Q 2881 1009 2881 1497 
Q 2881 1984 2565 2268 
Q 2250 2553 1709 2553 
Q 1456 2553 1204 2497 
Q 953 2441 691 2322 
L 691 4666 
z
" transform="scale(0.015625)"/>
       </defs>
       <use xlink:href="#DejaVuSans-2212"/>
       <use xlink:href="#DejaVuSans-35" x="83.789062"/>
      </g>
     </g>
    </g>
    <g id="xtick_3">
     <g id="line2d_3">
      <g>
       <use xlink:href="#m4ac56d0828" x="176.68317" y="307.584" style="stroke: #000000; stroke-width: 0.8"/>
      </g>
     </g>
     <g id="text_3">
      <!-- 0 -->
      <g transform="translate(173.50192 322.182437) scale(0.1 -0.1)">
       <use xlink:href="#DejaVuSans-30"/>
      </g>
     </g>
    </g>
    <g id="xtick_4">
     <g id="line2d_4">
      <g>
       <use xlink:href="#m4ac56d0828" x="230.70526" y="307.584" style="stroke: #000000; stroke-width: 0.8"/>
      </g>
     </g>
     <g id="text_4">
      <!-- 5 -->
      <g transform="translate(227.52401 322.182437) scale(0.1 -0.1)">
       <use xlink:href="#DejaVuSans-35"/>
      </g>
     </g>
    </g>
    <g id="xtick_5">
     <g id="line2d_5">
      <g>
       <use xlink:href="#m4ac56d0828" x="284.72735" y="307.584" style="stroke: #000000; stroke-width: 0.8"/>
      </g>
     </g>
     <g id="text_5">
      <!-- 10 -->
      <g transform="translate(278.36485 322.182437) scale(0.1 -0.1)">
       <use xlink:href="#DejaVuSans-31"/>
       <use xlink:href="#DejaVuSans-30" x="63.623047"/>
      </g>
     </g>
    </g>
    <g id="xtick_6">
     <g id="line2d_6">
      <g>
       <use xlink:href="#m4ac56d0828" x="338.74944" y="307.584" style="stroke: #000000; stroke-width: 0.8"/>
      </g>
     </g>
     <g id="text_6">
      <!-- 15 -->
      <g transform="translate(332.38694 322.182437) scale(0.1 -0.1)">
       <use xlink:href="#DejaVuSans-31"/>
       <use xlink:href="#DejaVuSans-35" x="63.623047"/>
      </g>
     </g>
    </g>
    <g id="xtick_7">
     <g id="line2d_7">
      <g>
       <use xlink:href="#m4ac56d0828" x="392.77153" y="307.584" style="stroke: #000000; stroke-width: 0.8"/>
      </g>
     </g>
     <g id="text_7">
      <!-- 20 -->
      <g transform="translate(386.40903 322.182437) scale(0.1 -0.1)">
       <defs>
        <path id="DejaVuSans-32" d="M 1228 531 
L 3431 531 
L 3431 0 
L 469 0 
L 469 531 
Q 828 903 1448 1529 
Q 2069 2156 2228 2338 
Q 2531 2678 2651 2914 
Q 2772 3150 2772 3378 
Q 2772 3750 2511 3984 
Q 2250 4219 1831 4219 
Q 1534 4219 1204 4116 
Q 875 4013 500 3803 
L 500 4441 
Q 881 4594 1212 4672 
Q 1544 4750 1819 4750 
Q 2544 4750 2975 4387 
Q 3406 4025 3406 3419 
Q 3406 3131 3298 2873 
Q 3191 2616 2906 2266 
Q 2828 2175 2409 1742 
Q 1991 1309 1228 531 
z
" transform="scale(0.015625)"/>
       </defs>
       <use xlink:href="#DejaVuSans-32"/>
       <use xlink:href="#DejaVuSans-30" x="63.623047"/>
      </g>
     </g>
    </g>
   </g>
   <g id="matplotlib.axis_2">
    <g id="ytick_1">
     <g id="line2d_8">
      <defs>
       <path id="m50829ec1e7" d="M 0 0 
L -3.5 0 
" style="stroke: #000000; stroke-width: 0.8"/>
      </defs>
      <g>
       <use xlink:href="#m50829ec1e7" x="57.6" y="307.584" style="stroke: #000000; stroke-width: 0.8"/>
      </g>
     </g>
     <g id="text_8">
      <!-- 0.00 -->
      <g transform="translate(28.334375 311.383219) scale(0.1 -0.1)">
       <defs>
        <path id="DejaVuSans-2e" d="M 684 794 
L 1344 794 
L 1344 0 
L 684 0 
L 684 794 
z
" transform="scale(0.015625)"/>
       </defs>
       <use xlink:href="#DejaVuSans-30"/>
       <use xlink:href="#DejaVuSans-2e" x="63.623047"/>
       <use xlink:href="#DejaVuSans-30" x="95.410156"/>
       <use xlink:href="#DejaVuSans-30" x="159.033203"/>
      </g>
     </g>
    </g>
    <g id="ytick_2">
     <g id="line2d_9">
      <g>
       <use xlink:href="#m50829ec1e7" x="57.6" y="275.160029" style="stroke: #000000; stroke-width: 0.8"/>
      </g>
     </g>
     <g id="text_9">
      <!-- 0.02 -->
      <g transform="translate(28.334375 278.959247) scale(0.1 -0.1)">
       <use xlink:href="#DejaVuSans-30"/>
       <use xlink:href="#DejaVuSans-2e" x="63.623047"/>
       <use xlink:href="#DejaVuSans-30" x="95.410156"/>
       <use xlink:href="#DejaVuSans-32" x="159.033203"/>
      </g>
     </g>
    </g>
    <g id="ytick_3">
     <g id="line2d_10">
      <g>
       <use xlink:href="#m50829ec1e7" x="57.6" y="242.736057" style="stroke: #000000; stroke-width: 0.8"/>
      </g>
     </g>
     <g id="text_10">
      <!-- 0.04 -->
      <g transform="translate(28.334375 246.535276) scale(0.1 -0.1)">
       <defs>
        <path id="DejaVuSans-34" d="M 2419 4116 
L 825 1625 
L 2419 1625 
L 2419 4116 
z
M 2253 4666 
L 3047 4666 
L 3047 1625 
L 3713 1625 
L 3713 1100 
L 3047 1100 
L 3047 0 
L 2419 0 
L 2419 1100 
L 313 1100 
L 313 1709 
L 2253 4666 
z
" transform="scale(0.015625)"/>
       </defs>
       <use xlink:href="#DejaVuSans-30"/>
       <use xlink:href="#DejaVuSans-2e" x="63.623047"/>
       <use xlink:href="#DejaVuSans-30" x="95.410156"/>
       <use xlink:href="#DejaVuSans-34" x="159.033203"/>
      </g>
     </g>
    </g>
    <g id="ytick_4">
     <g id="line2d_11">
      <g>
       <use xlink:href="#m50829ec1e7" x="57.6" y="210.312086" style="stroke: #000000; stroke-width: 0.8"/>
      </g>
     </g>
     <g id="text_11">
      <!-- 0.06 -->
      <g transform="translate(28.334375 214.111305) scale(0.1 -0.1)">
       <defs>
        <path id="DejaVuSans-36" d="M 2113 2584 
Q 1688 2584 1439 2293 
Q 1191 2003 1191 1497 
Q 1191 994 1439 701 
Q 1688 409 2113 409 
Q 2538 409 2786 701 
Q 3034 994 3034 1497 
Q 3034 2003 2786 2293 
Q 2538 2584 2113 2584 
z
M 3366 4563 
L 3366 3988 
Q 3128 4100 2886 4159 
Q 2644 4219 2406 4219 
Q 1781 4219 1451 3797 
Q 1122 3375 1075 2522 
Q 1259 2794 1537 2939 
Q 1816 3084 2150 3084 
Q 2853 3084 3261 2657 
Q 3669 2231 3669 1497 
Q 3669 778 3244 343 
Q 2819 -91 2113 -91 
Q 1303 -91 875 529 
Q 447 1150 447 2328 
Q 447 3434 972 4092 
Q 1497 4750 2381 4750 
Q 2619 4750 2861 4703 
Q 3103 4656 3366 4563 
z
" transform="scale(0.015625)"/>
       </defs>
       <use xlink:href="#DejaVuSans-30"/>
       <use xlink:href="#DejaVuSans-2e" x="63.623047"/>
       <use xlink:href="#DejaVuSans-30" x="95.410156"/>
       <use xlink:href="#DejaVuSans-36" x="159.033203"/>
      </g>
     </g>
    </g>
    <g id="ytick_5">
     <g id="line2d_12">
      <g>
       <use xlink:href="#m50829ec1e7" x="57.6" y="177.888115" style="stroke: #000000; stroke-width: 0.8"/>
      </g>
     </g>
     <g id="text_12">
      <!-- 0.08 -->
      <g transform="translate(28.334375 181.687334) scale(0.1 -0.1)">
       <defs>
        <path id="DejaVuSans-38" d="M 2034 2216 
Q 1584 2216 1326 1975 
Q 1069 1734 1069 1313 
Q 1069 891 1326 650 
Q 1584 409 2034 409 
Q 2484 409 2743 651 
Q 3003 894 3003 1313 
Q 3003 1734 2745 1975 
Q 2488 2216 2034 2216 
z
M 1403 2484 
Q 997 2584 770 2862 
Q 544 3141 544 3541 
Q 544 4100 942 4425 
Q 1341 4750 2034 4750 
Q 2731 4750 3128 4425 
Q 3525 4100 3525 3541 
Q 3525 3141 3298 2862 
Q 3072 2584 2669 2484 
Q 3125 2378 3379 2068 
Q 3634 1759 3634 1313 
Q 3634 634 3220 271 
Q 2806 -91 2034 -91 
Q 1263 -91 848 271 
Q 434 634 434 1313 
Q 434 1759 690 2068 
Q 947 2378 1403 2484 
z
M 1172 3481 
Q 1172 3119 1398 2916 
Q 1625 2713 2034 2713 
Q 2441 2713 2670 2916 
Q 2900 3119 2900 3481 
Q 2900 3844 2670 4047 
Q 2441 4250 2034 4250 
Q 1625 4250 1398 4047 
Q 1172 3844 1172 3481 
z
" transform="scale(0.015625)"/>
       </defs>
       <use xlink:href="#DejaVuSans-30"/>
       <use xlink:href="#DejaVuSans-2e" x="63.623047"/>
       <use xlink:href="#DejaVuSans-30" x="95.410156"/>
       <use xlink:href="#DejaVuSans-38" x="159.033203"/>
      </g>
     </g>
    </g>
    <g id="ytick_6">
     <g id="line2d_13">
      <g>
       <use xlink:href="#m50829ec1e7" x="57.6" y="145.464144" style="stroke: #000000; stroke-width: 0.8"/>
      </g>
     </g>
     <g id="text_13">
      <!-- 0.10 -->
      <g transform="translate(28.334375 149.263362) scale(0.1 -0.1)">
       <use xlink:href="#DejaVuSans-30"/>
       <use xlink:href="#DejaVuSans-2e" x="63.623047"/>
       <use xlink:href="#DejaVuSans-31" x="95.410156"/>
       <use xlink:href="#DejaVuSans-30" x="159.033203"/>
      </g>
     </g>
    </g>
    <g id="ytick_7">
     <g id="line2d_14">
      <g>
       <use xlink:href="#m50829ec1e7" x="57.6" y="113.040172" style="stroke: #000000; stroke-width: 0.8"/>
      </g>
     </g>
     <g id="text_14">
      <!-- 0.12 -->
      <g transform="translate(28.334375 116.839391) scale(0.1 -0.1)">
       <use xlink:href="#DejaVuSans-30"/>
       <use xlink:href="#DejaVuSans-2e" x="63.623047"/>
       <use xlink:href="#DejaVuSans-31" x="95.410156"/>
       <use xlink:href="#DejaVuSans-32" x="159.033203"/>
      </g>
     </g>
    </g>
    <g id="ytick_8">
     <g id="line2d_15">
      <g>
       <use xlink:href="#m50829ec1e7" x="57.6" y="80.616201" style="stroke: #000000; stroke-width: 0.8"/>
      </g>
     </g>
     <g id="text_15">
      <!-- 0.14 -->
      <g transform="translate(28.334375 84.41542) scale(0.1 -0.1)">
       <use xlink:href="#DejaVuSans-30"/>
       <use xlink:href="#DejaVuSans-2e" x="63.623047"/>
       <use xlink:href="#DejaVuSans-31" x="95.410156"/>
       <use xlink:href="#DejaVuSans-34" x="159.033203"/>
      </g>
     </g>
    </g>
    <g id="ytick_9">
     <g id="line2d_16">
      <g>
       <use xlink:href="#m50829ec1e7" x="57.6" y="48.19223" style="stroke: #000000; stroke-width: 0.8"/>
      </g>
     </g>
     <g id="text_16">
      <!-- 0.16 -->
      <g transform="translate(28.334375 51.991449) scale(0.1 -0.1)">
       <use xlink:href="#DejaVuSans-30"/>
       <use xlink:href="#DejaVuSans-2e" x="63.623047"/>
       <use xlink:href="#DejaVuSans-31" x="95.410156"/>
       <use xlink:href="#DejaVuSans-36" x="159.033203"/>
      </g>
     </g>
    </g>
   </g>
   <g id="patch_123">
    <path d="M 57.6 307.584 
L 57.6 41.472 
" style="fill: none; stroke: #000000; stroke-width: 0.8; stroke-linejoin: miter; stroke-linecap: square"/>
   </g>
   <g id="patch_124">
    <path d="M 414.72 307.584 
L 414.72 41.472 
" style="fill: none; stroke: #000000; stroke-width: 0.8; stroke-linejoin: miter; stroke-linecap: square"/>
   </g>
   <g id="patch_125">
    <path d="M 57.6 307.584 
L 414.72 307.584 
" style="fill: none; stroke: #000000; stroke-width: 0.8; stroke-linejoin: miter; stroke-linecap: square"/>
   </g>
   <g id="patch_126">
    <path d="M 57.6 41.472 
L 414.72 41.472 
" style="fill: none; stroke: #000000; stroke-width: 0.8; stroke-linejoin: miter; stroke-linecap: square"/>
   </g>
   <g id="text_17">
    <!-- RAW_feature_10 -->
    <g transform="translate(187.23 35.472) scale(0.12 -0.12)">
     <defs>
      <path id="DejaVuSans-52" d="M 2841 2188 
Q 3044 2119 3236 1894 
Q 3428 1669 3622 1275 
L 4263 0 
L 3584 0 
L 2988 1197 
Q 2756 1666 2539 1819 
Q 2322 1972 1947 1972 
L 1259 1972 
L 1259 0 
L 628 0 
L 628 4666 
L 2053 4666 
Q 2853 4666 3247 4331 
Q 3641 3997 3641 3322 
Q 3641 2881 3436 2590 
Q 3231 2300 2841 2188 
z
M 1259 4147 
L 1259 2491 
L 2053 2491 
Q 2509 2491 2742 2702 
Q 2975 2913 2975 3322 
Q 2975 3731 2742 3939 
Q 2509 4147 2053 4147 
L 1259 4147 
z
" transform="scale(0.015625)"/>
      <path id="DejaVuSans-41" d="M 2188 4044 
L 1331 1722 
L 3047 1722 
L 2188 4044 
z
M 1831 4666 
L 2547 4666 
L 4325 0 
L 3669 0 
L 3244 1197 
L 1141 1197 
L 716 0 
L 50 0 
L 1831 4666 
z
" transform="scale(0.015625)"/>
      <path id="DejaVuSans-57" d="M 213 4666 
L 850 4666 
L 1831 722 
L 2809 4666 
L 3519 4666 
L 4500 722 
L 5478 4666 
L 6119 4666 
L 4947 0 
L 4153 0 
L 3169 4050 
L 2175 0 
L 1381 0 
L 213 4666 
z
" transform="scale(0.015625)"/>
      <path id="DejaVuSans-5f" d="M 3263 -1063 
L 3263 -1509 
L -63 -1509 
L -63 -1063 
L 3263 -1063 
z
" transform="scale(0.015625)"/>
      <path id="DejaVuSans-66" d="M 2375 4863 
L 2375 4384 
L 1825 4384 
Q 1516 4384 1395 4259 
Q 1275 4134 1275 3809 
L 1275 3500 
L 2222 3500 
L 2222 3053 
L 1275 3053 
L 1275 0 
L 697 0 
L 697 3053 
L 147 3053 
L 147 3500 
L 697 3500 
L 697 3744 
Q 697 4328 969 4595 
Q 1241 4863 1831 4863 
L 2375 4863 
z
" transform="scale(0.015625)"/>
      <path id="DejaVuSans-65" d="M 3597 1894 
L 3597 1613 
L 953 1613 
Q 991 1019 1311 708 
Q 1631 397 2203 397 
Q 2534 397 2845 478 
Q 3156 559 3463 722 
L 3463 178 
Q 3153 47 2828 -22 
Q 2503 -91 2169 -91 
Q 1331 -91 842 396 
Q 353 884 353 1716 
Q 353 2575 817 3079 
Q 1281 3584 2069 3584 
Q 2775 3584 3186 3129 
Q 3597 2675 3597 1894 
z
M 3022 2063 
Q 3016 2534 2758 2815 
Q 2500 3097 2075 3097 
Q 1594 3097 1305 2825 
Q 1016 2553 972 2059 
L 3022 2063 
z
" transform="scale(0.015625)"/>
      <path id="DejaVuSans-61" d="M 2194 1759 
Q 1497 1759 1228 1600 
Q 959 1441 959 1056 
Q 959 750 1161 570 
Q 1363 391 1709 391 
Q 2188 391 2477 730 
Q 2766 1069 2766 1631 
L 2766 1759 
L 2194 1759 
z
M 3341 1997 
L 3341 0 
L 2766 0 
L 2766 531 
Q 2569 213 2275 61 
Q 1981 -91 1556 -91 
Q 1019 -91 701 211 
Q 384 513 384 1019 
Q 384 1609 779 1909 
Q 1175 2209 1959 2209 
L 2766 2209 
L 2766 2266 
Q 2766 2663 2505 2880 
Q 2244 3097 1772 3097 
Q 1472 3097 1187 3025 
Q 903 2953 641 2809 
L 641 3341 
Q 956 3463 1253 3523 
Q 1550 3584 1831 3584 
Q 2591 3584 2966 3190 
Q 3341 2797 3341 1997 
z
" transform="scale(0.015625)"/>
      <path id="DejaVuSans-74" d="M 1172 4494 
L 1172 3500 
L 2356 3500 
L 2356 3053 
L 1172 3053 
L 1172 1153 
Q 1172 725 1289 603 
Q 1406 481 1766 481 
L 2356 481 
L 2356 0 
L 1766 0 
Q 1100 0 847 248 
Q 594 497 594 1153 
L 594 3053 
L 172 3053 
L 172 3500 
L 594 3500 
L 594 4494 
L 1172 4494 
z
" transform="scale(0.015625)"/>
      <path id="DejaVuSans-75" d="M 544 1381 
L 544 3500 
L 1119 3500 
L 1119 1403 
Q 1119 906 1312 657 
Q 1506 409 1894 409 
Q 2359 409 2629 706 
Q 2900 1003 2900 1516 
L 2900 3500 
L 3475 3500 
L 3475 0 
L 2900 0 
L 2900 538 
Q 2691 219 2414 64 
Q 2138 -91 1772 -91 
Q 1169 -91 856 284 
Q 544 659 544 1381 
z
M 1991 3584 
L 1991 3584 
z
" transform="scale(0.015625)"/>
      <path id="DejaVuSans-72" d="M 2631 2963 
Q 2534 3019 2420 3045 
Q 2306 3072 2169 3072 
Q 1681 3072 1420 2755 
Q 1159 2438 1159 1844 
L 1159 0 
L 581 0 
L 581 3500 
L 1159 3500 
L 1159 2956 
Q 1341 3275 1631 3429 
Q 1922 3584 2338 3584 
Q 2397 3584 2469 3576 
Q 2541 3569 2628 3553 
L 2631 2963 
z
" transform="scale(0.015625)"/>
     </defs>
     <use xlink:href="#DejaVuSans-52"/>
     <use xlink:href="#DejaVuSans-41" x="65.482422"/>
     <use xlink:href="#DejaVuSans-57" x="128.390625"/>
     <use xlink:href="#DejaVuSans-5f" x="227.267578"/>
     <use xlink:href="#DejaVuSans-66" x="277.267578"/>
     <use xlink:href="#DejaVuSans-65" x="312.472656"/>
     <use xlink:href="#DejaVuSans-61" x="373.996094"/>
     <use xlink:href="#DejaVuSans-74" x="435.275391"/>
     <use xlink:href="#DejaVuSans-75" x="474.484375"/>
     <use xlink:href="#DejaVuSans-72" x="537.863281"/>
     <use xlink:href="#DejaVuSans-65" x="576.726562"/>
     <use xlink:href="#DejaVuSans-5f" x="638.25"/>
     <use xlink:href="#DejaVuSans-31" x="688.25"/>
     <use xlink:href="#DejaVuSans-30" x="751.873047"/>
    </g>
   </g>
   <g id="legend_1">
    <g id="patch_127">
     <path d="M 341.246563 78.82825 
L 407.72 78.82825 
Q 409.72 78.82825 409.72 76.82825 
L 409.72 48.472 
Q 409.72 46.472 407.72 46.472 
L 341.246563 46.472 
Q 339.246563 46.472 339.246563 48.472 
L 339.246563 76.82825 
Q 339.246563 78.82825 341.246563 78.82825 
z
" style="fill: #ffffff; opacity: 0.8; stroke: #cccccc; stroke-linejoin: miter"/>
    </g>
    <g id="patch_128">
     <path d="M 343.246563 58.070437 
L 363.246563 58.070437 
L 363.246563 51.070437 
L 343.246563 51.070437 
z
" style="fill: #ff0000; opacity: 0.4; stroke: #000000; stroke-linejoin: miter"/>
    </g>
    <g id="text_18">
     <!-- male -->
     <g transform="translate(371.246563 58.070437) scale(0.1 -0.1)">
      <defs>
       <path id="DejaVuSans-6d" d="M 3328 2828 
Q 3544 3216 3844 3400 
Q 4144 3584 4550 3584 
Q 5097 3584 5394 3201 
Q 5691 2819 5691 2113 
L 5691 0 
L 5113 0 
L 5113 2094 
Q 5113 2597 4934 2840 
Q 4756 3084 4391 3084 
Q 3944 3084 3684 2787 
Q 3425 2491 3425 1978 
L 3425 0 
L 2847 0 
L 2847 2094 
Q 2847 2600 2669 2842 
Q 2491 3084 2119 3084 
Q 1678 3084 1418 2786 
Q 1159 2488 1159 1978 
L 1159 0 
L 581 0 
L 581 3500 
L 1159 3500 
L 1159 2956 
Q 1356 3278 1631 3431 
Q 1906 3584 2284 3584 
Q 2666 3584 2933 3390 
Q 3200 3197 3328 2828 
z
" transform="scale(0.015625)"/>
       <path id="DejaVuSans-6c" d="M 603 4863 
L 1178 4863 
L 1178 0 
L 603 0 
L 603 4863 
z
" transform="scale(0.015625)"/>
      </defs>
      <use xlink:href="#DejaVuSans-6d"/>
      <use xlink:href="#DejaVuSans-61" x="97.412109"/>
      <use xlink:href="#DejaVuSans-6c" x="158.691406"/>
      <use xlink:href="#DejaVuSans-65" x="186.474609"/>
     </g>
    </g>
    <g id="patch_129">
     <path d="M 343.246563 72.748562 
L 363.246563 72.748562 
L 363.246563 65.748562 
L 343.246563 65.748562 
z
" style="fill: #0000ff; opacity: 0.4; stroke: #000000; stroke-linejoin: miter"/>
    </g>
    <g id="text_19">
     <!-- female -->
     <g transform="translate(371.246563 72.748562) scale(0.1 -0.1)">
      <use xlink:href="#DejaVuSans-66"/>
      <use xlink:href="#DejaVuSans-65" x="35.205078"/>
      <use xlink:href="#DejaVuSans-6d" x="96.728516"/>
      <use xlink:href="#DejaVuSans-61" x="194.140625"/>
      <use xlink:href="#DejaVuSans-6c" x="255.419922"/>
      <use xlink:href="#DejaVuSans-65" x="283.203125"/>
     </g>
    </g>
   </g>
  </g>
 </g>
 <defs>
  <clipPath id="pa944f41697">
   <rect x="57.6" y="41.472" width="357.12" height="266.112"/>
  </clipPath>
 </defs>
</svg>
