<?xml version="1.0" encoding="utf-8" standalone="no"?>
<!DOCTYPE svg PUBLIC "-//W3C//DTD SVG 1.1//EN"
  "http://www.w3.org/Graphics/SVG/1.1/DTD/svg11.dtd">
<svg xmlns:xlink="http://www.w3.org/1999/xlink" width="460.8pt" height="345.6pt" viewBox="0 0 460.8 345.6" xmlns="http://www.w3.org/2000/svg" version="1.1">
 <metadata>
  <rdf:RDF xmlns:dc="http://purl.org/dc/elements/1.1/" xmlns:cc="http://creativecommons.org/ns#" xmlns:rdf="http://www.w3.org/1999/02/22-rdf-syntax-ns#">
   <cc:Work>
    <dc:type rdf:resource="http://purl.org/dc/dcmitype/StillImage"/>
    <dc:date>2023-06-02T11:31:52.012868</dc:date>
    <dc:format>image/svg+xml</dc:format>
    <dc:creator>
     <cc:Agent>
      <dc:title>Matplotlib v3.7.0, https://matplotlib.org/</dc:title>
     </cc:Agent>
    </dc:creator>
   </cc:Work>
  </rdf:RDF>
 </metadata>
 <defs>
  <style type="text/css">*{stroke-linejoin: round; stroke-linecap: butt}</style>
 </defs>
 <g id="figure_1">
  <g id="patch_1">
   <path d="M 0 345.6 
L 460.8 345.6 
L 460.8 0 
L 0 0 
z
" style="fill: #ffffff"/>
  </g>
  <g id="axes_1">
   <g id="patch_2">
    <path d="M 57.6 307.584 
L 414.72 307.584 
L 414.72 41.472 
L 57.6 41.472 
z
" style="fill: #ffffff"/>
   </g>
   <g id="patch_3">
    <path d="M 73.832727 307.584 
L 78.551163 307.584 
L 78.551163 299.136 
L 73.832727 299.136 
z
" clip-path="url(#pd1b73f405e)" style="fill: #ff0000; opacity: 0.4; stroke: #000000; stroke-linejoin: miter"/>
   </g>
   <g id="patch_4">
    <path d="M 78.551163 307.584 
L 83.269598 307.584 
L 83.269598 290.688 
L 78.551163 290.688 
z
" clip-path="url(#pd1b73f405e)" style="fill: #ff0000; opacity: 0.4; stroke: #000000; stroke-linejoin: miter"/>
   </g>
   <g id="patch_5">
    <path d="M 83.269598 307.584 
L 87.988034 307.584 
L 87.988034 307.584 
L 83.269598 307.584 
z
" clip-path="url(#pd1b73f405e)" style="fill: #ff0000; opacity: 0.4; stroke: #000000; stroke-linejoin: miter"/>
   </g>
   <g id="patch_6">
    <path d="M 87.988034 307.584 
L 92.706469 307.584 
L 92.706469 307.584 
L 87.988034 307.584 
z
" clip-path="url(#pd1b73f405e)" style="fill: #ff0000; opacity: 0.4; stroke: #000000; stroke-linejoin: miter"/>
   </g>
   <g id="patch_7">
    <path d="M 92.706469 307.584 
L 97.424905 307.584 
L 97.424905 282.24 
L 92.706469 282.24 
z
" clip-path="url(#pd1b73f405e)" style="fill: #ff0000; opacity: 0.4; stroke: #000000; stroke-linejoin: miter"/>
   </g>
   <g id="patch_8">
    <path d="M 97.424905 307.584 
L 102.143341 307.584 
L 102.143341 282.24 
L 97.424905 282.24 
z
" clip-path="url(#pd1b73f405e)" style="fill: #ff0000; opacity: 0.4; stroke: #000000; stroke-linejoin: miter"/>
   </g>
   <g id="patch_9">
    <path d="M 102.143341 307.584 
L 106.861776 307.584 
L 106.861776 290.688 
L 102.143341 290.688 
z
" clip-path="url(#pd1b73f405e)" style="fill: #ff0000; opacity: 0.4; stroke: #000000; stroke-linejoin: miter"/>
   </g>
   <g id="patch_10">
    <path d="M 106.861776 307.584 
L 111.580212 307.584 
L 111.580212 282.24 
L 106.861776 282.24 
z
" clip-path="url(#pd1b73f405e)" style="fill: #ff0000; opacity: 0.4; stroke: #000000; stroke-linejoin: miter"/>
   </g>
   <g id="patch_11">
    <path d="M 111.580212 307.584 
L 116.298647 307.584 
L 116.298647 256.896 
L 111.580212 256.896 
z
" clip-path="url(#pd1b73f405e)" style="fill: #ff0000; opacity: 0.4; stroke: #000000; stroke-linejoin: miter"/>
   </g>
   <g id="patch_12">
    <path d="M 116.298647 307.584 
L 121.017083 307.584 
L 121.017083 265.344 
L 116.298647 265.344 
z
" clip-path="url(#pd1b73f405e)" style="fill: #ff0000; opacity: 0.4; stroke: #000000; stroke-linejoin: miter"/>
   </g>
   <g id="patch_13">
    <path d="M 121.017083 307.584 
L 125.735518 307.584 
L 125.735518 223.104 
L 121.017083 223.104 
z
" clip-path="url(#pd1b73f405e)" style="fill: #ff0000; opacity: 0.4; stroke: #000000; stroke-linejoin: miter"/>
   </g>
   <g id="patch_14">
    <path d="M 125.735518 307.584 
L 130.453954 307.584 
L 130.453954 223.104 
L 125.735518 223.104 
z
" clip-path="url(#pd1b73f405e)" style="fill: #ff0000; opacity: 0.4; stroke: #000000; stroke-linejoin: miter"/>
   </g>
   <g id="patch_15">
    <path d="M 130.453954 307.584 
L 135.172389 307.584 
L 135.172389 206.208 
L 130.453954 206.208 
z
" clip-path="url(#pd1b73f405e)" style="fill: #ff0000; opacity: 0.4; stroke: #000000; stroke-linejoin: miter"/>
   </g>
   <g id="patch_16">
    <path d="M 135.172389 307.584 
L 139.890825 307.584 
L 139.890825 231.552 
L 135.172389 231.552 
z
" clip-path="url(#pd1b73f405e)" style="fill: #ff0000; opacity: 0.4; stroke: #000000; stroke-linejoin: miter"/>
   </g>
   <g id="patch_17">
    <path d="M 139.890825 307.584 
L 144.60926 307.584 
L 144.60926 189.312 
L 139.890825 189.312 
z
" clip-path="url(#pd1b73f405e)" style="fill: #ff0000; opacity: 0.4; stroke: #000000; stroke-linejoin: miter"/>
   </g>
   <g id="patch_18">
    <path d="M 144.60926 307.584 
L 149.327696 307.584 
L 149.327696 189.312 
L 144.60926 189.312 
z
" clip-path="url(#pd1b73f405e)" style="fill: #ff0000; opacity: 0.4; stroke: #000000; stroke-linejoin: miter"/>
   </g>
   <g id="patch_19">
    <path d="M 149.327696 307.584 
L 154.046132 307.584 
L 154.046132 121.728 
L 149.327696 121.728 
z
" clip-path="url(#pd1b73f405e)" style="fill: #ff0000; opacity: 0.4; stroke: #000000; stroke-linejoin: miter"/>
   </g>
   <g id="patch_20">
    <path d="M 154.046132 307.584 
L 158.764567 307.584 
L 158.764567 163.968 
L 154.046132 163.968 
z
" clip-path="url(#pd1b73f405e)" style="fill: #ff0000; opacity: 0.4; stroke: #000000; stroke-linejoin: miter"/>
   </g>
   <g id="patch_21">
    <path d="M 158.764567 307.584 
L 163.483003 307.584 
L 163.483003 96.384 
L 158.764567 96.384 
z
" clip-path="url(#pd1b73f405e)" style="fill: #ff0000; opacity: 0.4; stroke: #000000; stroke-linejoin: miter"/>
   </g>
   <g id="patch_22">
    <path d="M 163.483003 307.584 
L 168.201438 307.584 
L 168.201438 104.832 
L 163.483003 104.832 
z
" clip-path="url(#pd1b73f405e)" style="fill: #ff0000; opacity: 0.4; stroke: #000000; stroke-linejoin: miter"/>
   </g>
   <g id="patch_23">
    <path d="M 168.201438 307.584 
L 172.919874 307.584 
L 172.919874 130.176 
L 168.201438 130.176 
z
" clip-path="url(#pd1b73f405e)" style="fill: #ff0000; opacity: 0.4; stroke: #000000; stroke-linejoin: miter"/>
   </g>
   <g id="patch_24">
    <path d="M 172.919874 307.584 
L 177.638309 307.584 
L 177.638309 130.176 
L 172.919874 130.176 
z
" clip-path="url(#pd1b73f405e)" style="fill: #ff0000; opacity: 0.4; stroke: #000000; stroke-linejoin: miter"/>
   </g>
   <g id="patch_25">
    <path d="M 177.638309 307.584 
L 182.356745 307.584 
L 182.356745 87.936 
L 177.638309 87.936 
z
" clip-path="url(#pd1b73f405e)" style="fill: #ff0000; opacity: 0.4; stroke: #000000; stroke-linejoin: miter"/>
   </g>
   <g id="patch_26">
    <path d="M 182.356745 307.584 
L 187.07518 307.584 
L 187.07518 54.144 
L 182.356745 54.144 
z
" clip-path="url(#pd1b73f405e)" style="fill: #ff0000; opacity: 0.4; stroke: #000000; stroke-linejoin: miter"/>
   </g>
   <g id="patch_27">
    <path d="M 187.07518 307.584 
L 191.793616 307.584 
L 191.793616 197.76 
L 187.07518 197.76 
z
" clip-path="url(#pd1b73f405e)" style="fill: #ff0000; opacity: 0.4; stroke: #000000; stroke-linejoin: miter"/>
   </g>
   <g id="patch_28">
    <path d="M 191.793616 307.584 
L 196.512051 307.584 
L 196.512051 54.144 
L 191.793616 54.144 
z
" clip-path="url(#pd1b73f405e)" style="fill: #ff0000; opacity: 0.4; stroke: #000000; stroke-linejoin: miter"/>
   </g>
   <g id="patch_29">
    <path d="M 196.512051 307.584 
L 201.230487 307.584 
L 201.230487 87.936 
L 196.512051 87.936 
z
" clip-path="url(#pd1b73f405e)" style="fill: #ff0000; opacity: 0.4; stroke: #000000; stroke-linejoin: miter"/>
   </g>
   <g id="patch_30">
    <path d="M 201.230487 307.584 
L 205.948923 307.584 
L 205.948923 113.28 
L 201.230487 113.28 
z
" clip-path="url(#pd1b73f405e)" style="fill: #ff0000; opacity: 0.4; stroke: #000000; stroke-linejoin: miter"/>
   </g>
   <g id="patch_31">
    <path d="M 205.948923 307.584 
L 210.667358 307.584 
L 210.667358 231.552 
L 205.948923 231.552 
z
" clip-path="url(#pd1b73f405e)" style="fill: #ff0000; opacity: 0.4; stroke: #000000; stroke-linejoin: miter"/>
   </g>
   <g id="patch_32">
    <path d="M 210.667358 307.584 
L 215.385794 307.584 
L 215.385794 147.072 
L 210.667358 147.072 
z
" clip-path="url(#pd1b73f405e)" style="fill: #ff0000; opacity: 0.4; stroke: #000000; stroke-linejoin: miter"/>
   </g>
   <g id="patch_33">
    <path d="M 215.385794 307.584 
L 220.104229 307.584 
L 220.104229 223.104 
L 215.385794 223.104 
z
" clip-path="url(#pd1b73f405e)" style="fill: #ff0000; opacity: 0.4; stroke: #000000; stroke-linejoin: miter"/>
   </g>
   <g id="patch_34">
    <path d="M 220.104229 307.584 
L 224.822665 307.584 
L 224.822665 206.208 
L 220.104229 206.208 
z
" clip-path="url(#pd1b73f405e)" style="fill: #ff0000; opacity: 0.4; stroke: #000000; stroke-linejoin: miter"/>
   </g>
   <g id="patch_35">
    <path d="M 224.822665 307.584 
L 229.5411 307.584 
L 229.5411 240 
L 224.822665 240 
z
" clip-path="url(#pd1b73f405e)" style="fill: #ff0000; opacity: 0.4; stroke: #000000; stroke-linejoin: miter"/>
   </g>
   <g id="patch_36">
    <path d="M 229.5411 307.584 
L 234.259536 307.584 
L 234.259536 206.208 
L 229.5411 206.208 
z
" clip-path="url(#pd1b73f405e)" style="fill: #ff0000; opacity: 0.4; stroke: #000000; stroke-linejoin: miter"/>
   </g>
   <g id="patch_37">
    <path d="M 234.259536 307.584 
L 238.977971 307.584 
L 238.977971 189.312 
L 234.259536 189.312 
z
" clip-path="url(#pd1b73f405e)" style="fill: #ff0000; opacity: 0.4; stroke: #000000; stroke-linejoin: miter"/>
   </g>
   <g id="patch_38">
    <path d="M 238.977971 307.584 
L 243.696407 307.584 
L 243.696407 240 
L 238.977971 240 
z
" clip-path="url(#pd1b73f405e)" style="fill: #ff0000; opacity: 0.4; stroke: #000000; stroke-linejoin: miter"/>
   </g>
   <g id="patch_39">
    <path d="M 243.696407 307.584 
L 248.414843 307.584 
L 248.414843 214.656 
L 243.696407 214.656 
z
" clip-path="url(#pd1b73f405e)" style="fill: #ff0000; opacity: 0.4; stroke: #000000; stroke-linejoin: miter"/>
   </g>
   <g id="patch_40">
    <path d="M 248.414843 307.584 
L 253.133278 307.584 
L 253.133278 223.104 
L 248.414843 223.104 
z
" clip-path="url(#pd1b73f405e)" style="fill: #ff0000; opacity: 0.4; stroke: #000000; stroke-linejoin: miter"/>
   </g>
   <g id="patch_41">
    <path d="M 253.133278 307.584 
L 257.851714 307.584 
L 257.851714 214.656 
L 253.133278 214.656 
z
" clip-path="url(#pd1b73f405e)" style="fill: #ff0000; opacity: 0.4; stroke: #000000; stroke-linejoin: miter"/>
   </g>
   <g id="patch_42">
    <path d="M 257.851714 307.584 
L 262.570149 307.584 
L 262.570149 147.072 
L 257.851714 147.072 
z
" clip-path="url(#pd1b73f405e)" style="fill: #ff0000; opacity: 0.4; stroke: #000000; stroke-linejoin: miter"/>
   </g>
   <g id="patch_43">
    <path d="M 262.570149 307.584 
L 267.288585 307.584 
L 267.288585 155.52 
L 262.570149 155.52 
z
" clip-path="url(#pd1b73f405e)" style="fill: #ff0000; opacity: 0.4; stroke: #000000; stroke-linejoin: miter"/>
   </g>
   <g id="patch_44">
    <path d="M 267.288585 307.584 
L 272.00702 307.584 
L 272.00702 155.52 
L 267.288585 155.52 
z
" clip-path="url(#pd1b73f405e)" style="fill: #ff0000; opacity: 0.4; stroke: #000000; stroke-linejoin: miter"/>
   </g>
   <g id="patch_45">
    <path d="M 272.00702 307.584 
L 276.725456 307.584 
L 276.725456 155.52 
L 272.00702 155.52 
z
" clip-path="url(#pd1b73f405e)" style="fill: #ff0000; opacity: 0.4; stroke: #000000; stroke-linejoin: miter"/>
   </g>
   <g id="patch_46">
    <path d="M 276.725456 307.584 
L 281.443891 307.584 
L 281.443891 197.76 
L 276.725456 197.76 
z
" clip-path="url(#pd1b73f405e)" style="fill: #ff0000; opacity: 0.4; stroke: #000000; stroke-linejoin: miter"/>
   </g>
   <g id="patch_47">
    <path d="M 281.443891 307.584 
L 286.162327 307.584 
L 286.162327 214.656 
L 281.443891 214.656 
z
" clip-path="url(#pd1b73f405e)" style="fill: #ff0000; opacity: 0.4; stroke: #000000; stroke-linejoin: miter"/>
   </g>
   <g id="patch_48">
    <path d="M 286.162327 307.584 
L 290.880762 307.584 
L 290.880762 189.312 
L 286.162327 189.312 
z
" clip-path="url(#pd1b73f405e)" style="fill: #ff0000; opacity: 0.4; stroke: #000000; stroke-linejoin: miter"/>
   </g>
   <g id="patch_49">
    <path d="M 290.880762 307.584 
L 295.599198 307.584 
L 295.599198 130.176 
L 290.880762 130.176 
z
" clip-path="url(#pd1b73f405e)" style="fill: #ff0000; opacity: 0.4; stroke: #000000; stroke-linejoin: miter"/>
   </g>
   <g id="patch_50">
    <path d="M 295.599198 307.584 
L 300.317634 307.584 
L 300.317634 130.176 
L 295.599198 130.176 
z
" clip-path="url(#pd1b73f405e)" style="fill: #ff0000; opacity: 0.4; stroke: #000000; stroke-linejoin: miter"/>
   </g>
   <g id="patch_51">
    <path d="M 300.317634 307.584 
L 305.036069 307.584 
L 305.036069 189.312 
L 300.317634 189.312 
z
" clip-path="url(#pd1b73f405e)" style="fill: #ff0000; opacity: 0.4; stroke: #000000; stroke-linejoin: miter"/>
   </g>
   <g id="patch_52">
    <path d="M 305.036069 307.584 
L 309.754505 307.584 
L 309.754505 197.76 
L 305.036069 197.76 
z
" clip-path="url(#pd1b73f405e)" style="fill: #ff0000; opacity: 0.4; stroke: #000000; stroke-linejoin: miter"/>
   </g>
   <g id="patch_53">
    <path d="M 309.754505 307.584 
L 314.47294 307.584 
L 314.47294 240 
L 309.754505 240 
z
" clip-path="url(#pd1b73f405e)" style="fill: #ff0000; opacity: 0.4; stroke: #000000; stroke-linejoin: miter"/>
   </g>
   <g id="patch_54">
    <path d="M 314.47294 307.584 
L 319.191376 307.584 
L 319.191376 189.312 
L 314.47294 189.312 
z
" clip-path="url(#pd1b73f405e)" style="fill: #ff0000; opacity: 0.4; stroke: #000000; stroke-linejoin: miter"/>
   </g>
   <g id="patch_55">
    <path d="M 319.191376 307.584 
L 323.909811 307.584 
L 323.909811 214.656 
L 319.191376 214.656 
z
" clip-path="url(#pd1b73f405e)" style="fill: #ff0000; opacity: 0.4; stroke: #000000; stroke-linejoin: miter"/>
   </g>
   <g id="patch_56">
    <path d="M 323.909811 307.584 
L 328.628247 307.584 
L 328.628247 265.344 
L 323.909811 265.344 
z
" clip-path="url(#pd1b73f405e)" style="fill: #ff0000; opacity: 0.4; stroke: #000000; stroke-linejoin: miter"/>
   </g>
   <g id="patch_57">
    <path d="M 328.628247 307.584 
L 333.346682 307.584 
L 333.346682 299.136 
L 328.628247 299.136 
z
" clip-path="url(#pd1b73f405e)" style="fill: #ff0000; opacity: 0.4; stroke: #000000; stroke-linejoin: miter"/>
   </g>
   <g id="patch_58">
    <path d="M 333.346682 307.584 
L 338.065118 307.584 
L 338.065118 299.136 
L 333.346682 299.136 
z
" clip-path="url(#pd1b73f405e)" style="fill: #ff0000; opacity: 0.4; stroke: #000000; stroke-linejoin: miter"/>
   </g>
   <g id="patch_59">
    <path d="M 338.065118 307.584 
L 342.783553 307.584 
L 342.783553 290.688 
L 338.065118 290.688 
z
" clip-path="url(#pd1b73f405e)" style="fill: #ff0000; opacity: 0.4; stroke: #000000; stroke-linejoin: miter"/>
   </g>
   <g id="patch_60">
    <path d="M 342.783553 307.584 
L 347.501989 307.584 
L 347.501989 299.136 
L 342.783553 299.136 
z
" clip-path="url(#pd1b73f405e)" style="fill: #ff0000; opacity: 0.4; stroke: #000000; stroke-linejoin: miter"/>
   </g>
   <g id="patch_61">
    <path d="M 347.501989 307.584 
L 352.220425 307.584 
L 352.220425 307.584 
L 347.501989 307.584 
z
" clip-path="url(#pd1b73f405e)" style="fill: #ff0000; opacity: 0.4; stroke: #000000; stroke-linejoin: miter"/>
   </g>
   <g id="patch_62">
    <path d="M 352.220425 307.584 
L 356.93886 307.584 
L 356.93886 299.136 
L 352.220425 299.136 
z
" clip-path="url(#pd1b73f405e)" style="fill: #ff0000; opacity: 0.4; stroke: #000000; stroke-linejoin: miter"/>
   </g>
   <g id="patch_63">
    <path d="M 108.456706 307.584 
L 113.290549 307.584 
L 113.290549 300.515738 
L 108.456706 300.515738 
z
" clip-path="url(#pd1b73f405e)" style="fill: #0000ff; opacity: 0.4; stroke: #000000; stroke-linejoin: miter"/>
   </g>
   <g id="patch_64">
    <path d="M 113.290549 307.584 
L 118.124392 307.584 
L 118.124392 304.049869 
L 113.290549 304.049869 
z
" clip-path="url(#pd1b73f405e)" style="fill: #0000ff; opacity: 0.4; stroke: #000000; stroke-linejoin: miter"/>
   </g>
   <g id="patch_65">
    <path d="M 118.124392 307.584 
L 122.958235 307.584 
L 122.958235 300.515738 
L 118.124392 300.515738 
z
" clip-path="url(#pd1b73f405e)" style="fill: #0000ff; opacity: 0.4; stroke: #000000; stroke-linejoin: miter"/>
   </g>
   <g id="patch_66">
    <path d="M 122.958235 307.584 
L 127.792077 307.584 
L 127.792077 293.447477 
L 122.958235 293.447477 
z
" clip-path="url(#pd1b73f405e)" style="fill: #0000ff; opacity: 0.4; stroke: #000000; stroke-linejoin: miter"/>
   </g>
   <g id="patch_67">
    <path d="M 127.792077 307.584 
L 132.62592 307.584 
L 132.62592 304.049869 
L 127.792077 304.049869 
z
" clip-path="url(#pd1b73f405e)" style="fill: #0000ff; opacity: 0.4; stroke: #000000; stroke-linejoin: miter"/>
   </g>
   <g id="patch_68">
    <path d="M 132.62592 307.584 
L 137.459763 307.584 
L 137.459763 286.379215 
L 132.62592 286.379215 
z
" clip-path="url(#pd1b73f405e)" style="fill: #0000ff; opacity: 0.4; stroke: #000000; stroke-linejoin: miter"/>
   </g>
   <g id="patch_69">
    <path d="M 137.459763 307.584 
L 142.293606 307.584 
L 142.293606 293.447477 
L 137.459763 293.447477 
z
" clip-path="url(#pd1b73f405e)" style="fill: #0000ff; opacity: 0.4; stroke: #000000; stroke-linejoin: miter"/>
   </g>
   <g id="patch_70">
    <path d="M 142.293606 307.584 
L 147.127448 307.584 
L 147.127448 265.17443 
L 142.293606 265.17443 
z
" clip-path="url(#pd1b73f405e)" style="fill: #0000ff; opacity: 0.4; stroke: #000000; stroke-linejoin: miter"/>
   </g>
   <g id="patch_71">
    <path d="M 147.127448 307.584 
L 151.961291 307.584 
L 151.961291 265.17443 
L 147.127448 265.17443 
z
" clip-path="url(#pd1b73f405e)" style="fill: #0000ff; opacity: 0.4; stroke: #000000; stroke-linejoin: miter"/>
   </g>
   <g id="patch_72">
    <path d="M 151.961291 307.584 
L 156.795134 307.584 
L 156.795134 247.503775 
L 151.961291 247.503775 
z
" clip-path="url(#pd1b73f405e)" style="fill: #0000ff; opacity: 0.4; stroke: #000000; stroke-linejoin: miter"/>
   </g>
   <g id="patch_73">
    <path d="M 156.795134 307.584 
L 161.628977 307.584 
L 161.628977 233.367252 
L 156.795134 233.367252 
z
" clip-path="url(#pd1b73f405e)" style="fill: #0000ff; opacity: 0.4; stroke: #000000; stroke-linejoin: miter"/>
   </g>
   <g id="patch_74">
    <path d="M 161.628977 307.584 
L 166.46282 307.584 
L 166.46282 212.162467 
L 161.628977 212.162467 
z
" clip-path="url(#pd1b73f405e)" style="fill: #0000ff; opacity: 0.4; stroke: #000000; stroke-linejoin: miter"/>
   </g>
   <g id="patch_75">
    <path d="M 166.46282 307.584 
L 171.296662 307.584 
L 171.296662 173.287027 
L 166.46282 173.287027 
z
" clip-path="url(#pd1b73f405e)" style="fill: #0000ff; opacity: 0.4; stroke: #000000; stroke-linejoin: miter"/>
   </g>
   <g id="patch_76">
    <path d="M 171.296662 307.584 
L 176.130505 307.584 
L 176.130505 141.47985 
L 171.296662 141.47985 
z
" clip-path="url(#pd1b73f405e)" style="fill: #0000ff; opacity: 0.4; stroke: #000000; stroke-linejoin: miter"/>
   </g>
   <g id="patch_77">
    <path d="M 176.130505 307.584 
L 180.964348 307.584 
L 180.964348 201.560074 
L 176.130505 201.560074 
z
" clip-path="url(#pd1b73f405e)" style="fill: #0000ff; opacity: 0.4; stroke: #000000; stroke-linejoin: miter"/>
   </g>
   <g id="patch_78">
    <path d="M 180.964348 307.584 
L 185.798191 307.584 
L 185.798191 148.548111 
L 180.964348 148.548111 
z
" clip-path="url(#pd1b73f405e)" style="fill: #0000ff; opacity: 0.4; stroke: #000000; stroke-linejoin: miter"/>
   </g>
   <g id="patch_79">
    <path d="M 185.798191 307.584 
L 190.632033 307.584 
L 190.632033 152.082242 
L 185.798191 152.082242 
z
" clip-path="url(#pd1b73f405e)" style="fill: #0000ff; opacity: 0.4; stroke: #000000; stroke-linejoin: miter"/>
   </g>
   <g id="patch_80">
    <path d="M 190.632033 307.584 
L 195.465876 307.584 
L 195.465876 120.275064 
L 190.632033 120.275064 
z
" clip-path="url(#pd1b73f405e)" style="fill: #0000ff; opacity: 0.4; stroke: #000000; stroke-linejoin: miter"/>
   </g>
   <g id="patch_81">
    <path d="M 195.465876 307.584 
L 200.299719 307.584 
L 200.299719 99.070279 
L 195.465876 99.070279 
z
" clip-path="url(#pd1b73f405e)" style="fill: #0000ff; opacity: 0.4; stroke: #000000; stroke-linejoin: miter"/>
   </g>
   <g id="patch_82">
    <path d="M 200.299719 307.584 
L 205.133562 307.584 
L 205.133562 109.672672 
L 200.299719 109.672672 
z
" clip-path="url(#pd1b73f405e)" style="fill: #0000ff; opacity: 0.4; stroke: #000000; stroke-linejoin: miter"/>
   </g>
   <g id="patch_83">
    <path d="M 205.133562 307.584 
L 209.967405 307.584 
L 209.967405 194.491812 
L 205.133562 194.491812 
z
" clip-path="url(#pd1b73f405e)" style="fill: #0000ff; opacity: 0.4; stroke: #000000; stroke-linejoin: miter"/>
   </g>
   <g id="patch_84">
    <path d="M 209.967405 307.584 
L 214.801247 307.584 
L 214.801247 99.070279 
L 209.967405 99.070279 
z
" clip-path="url(#pd1b73f405e)" style="fill: #0000ff; opacity: 0.4; stroke: #000000; stroke-linejoin: miter"/>
   </g>
   <g id="patch_85">
    <path d="M 214.801247 307.584 
L 219.63509 307.584 
L 219.63509 70.797232 
L 214.801247 70.797232 
z
" clip-path="url(#pd1b73f405e)" style="fill: #0000ff; opacity: 0.4; stroke: #000000; stroke-linejoin: miter"/>
   </g>
   <g id="patch_86">
    <path d="M 219.63509 307.584 
L 224.468933 307.584 
L 224.468933 102.60441 
L 219.63509 102.60441 
z
" clip-path="url(#pd1b73f405e)" style="fill: #0000ff; opacity: 0.4; stroke: #000000; stroke-linejoin: miter"/>
   </g>
   <g id="patch_87">
    <path d="M 224.468933 307.584 
L 229.302776 307.584 
L 229.302776 155.616373 
L 224.468933 155.616373 
z
" clip-path="url(#pd1b73f405e)" style="fill: #0000ff; opacity: 0.4; stroke: #000000; stroke-linejoin: miter"/>
   </g>
   <g id="patch_88">
    <path d="M 229.302776 307.584 
L 234.136618 307.584 
L 234.136618 166.218766 
L 229.302776 166.218766 
z
" clip-path="url(#pd1b73f405e)" style="fill: #0000ff; opacity: 0.4; stroke: #000000; stroke-linejoin: miter"/>
   </g>
   <g id="patch_89">
    <path d="M 234.136618 307.584 
L 238.970461 307.584 
L 238.970461 134.411588 
L 234.136618 134.411588 
z
" clip-path="url(#pd1b73f405e)" style="fill: #0000ff; opacity: 0.4; stroke: #000000; stroke-linejoin: miter"/>
   </g>
   <g id="patch_90">
    <path d="M 238.970461 307.584 
L 243.804304 307.584 
L 243.804304 152.082242 
L 238.970461 152.082242 
z
" clip-path="url(#pd1b73f405e)" style="fill: #0000ff; opacity: 0.4; stroke: #000000; stroke-linejoin: miter"/>
   </g>
   <g id="patch_91">
    <path d="M 243.804304 307.584 
L 248.638147 307.584 
L 248.638147 169.752896 
L 243.804304 169.752896 
z
" clip-path="url(#pd1b73f405e)" style="fill: #0000ff; opacity: 0.4; stroke: #000000; stroke-linejoin: miter"/>
   </g>
   <g id="patch_92">
    <path d="M 248.638147 307.584 
L 253.471989 307.584 
L 253.471989 187.423551 
L 248.638147 187.423551 
z
" clip-path="url(#pd1b73f405e)" style="fill: #0000ff; opacity: 0.4; stroke: #000000; stroke-linejoin: miter"/>
   </g>
   <g id="patch_93">
    <path d="M 253.471989 307.584 
L 258.305832 307.584 
L 258.305832 194.491812 
L 253.471989 194.491812 
z
" clip-path="url(#pd1b73f405e)" style="fill: #0000ff; opacity: 0.4; stroke: #000000; stroke-linejoin: miter"/>
   </g>
   <g id="patch_94">
    <path d="M 258.305832 307.584 
L 263.139675 307.584 
L 263.139675 173.287027 
L 258.305832 173.287027 
z
" clip-path="url(#pd1b73f405e)" style="fill: #0000ff; opacity: 0.4; stroke: #000000; stroke-linejoin: miter"/>
   </g>
   <g id="patch_95">
    <path d="M 263.139675 307.584 
L 267.973518 307.584 
L 267.973518 205.094205 
L 263.139675 205.094205 
z
" clip-path="url(#pd1b73f405e)" style="fill: #0000ff; opacity: 0.4; stroke: #000000; stroke-linejoin: miter"/>
   </g>
   <g id="patch_96">
    <path d="M 267.973518 307.584 
L 272.807361 307.584 
L 272.807361 173.287027 
L 267.973518 173.287027 
z
" clip-path="url(#pd1b73f405e)" style="fill: #0000ff; opacity: 0.4; stroke: #000000; stroke-linejoin: miter"/>
   </g>
   <g id="patch_97">
    <path d="M 272.807361 307.584 
L 277.641203 307.584 
L 277.641203 219.230728 
L 272.807361 219.230728 
z
" clip-path="url(#pd1b73f405e)" style="fill: #0000ff; opacity: 0.4; stroke: #000000; stroke-linejoin: miter"/>
   </g>
   <g id="patch_98">
    <path d="M 277.641203 307.584 
L 282.475046 307.584 
L 282.475046 219.230728 
L 277.641203 219.230728 
z
" clip-path="url(#pd1b73f405e)" style="fill: #0000ff; opacity: 0.4; stroke: #000000; stroke-linejoin: miter"/>
   </g>
   <g id="patch_99">
    <path d="M 282.475046 307.584 
L 287.308889 307.584 
L 287.308889 187.423551 
L 282.475046 187.423551 
z
" clip-path="url(#pd1b73f405e)" style="fill: #0000ff; opacity: 0.4; stroke: #000000; stroke-linejoin: miter"/>
   </g>
   <g id="patch_100">
    <path d="M 287.308889 307.584 
L 292.142732 307.584 
L 292.142732 222.764859 
L 287.308889 222.764859 
z
" clip-path="url(#pd1b73f405e)" style="fill: #0000ff; opacity: 0.4; stroke: #000000; stroke-linejoin: miter"/>
   </g>
   <g id="patch_101">
    <path d="M 292.142732 307.584 
L 296.976574 307.584 
L 296.976574 190.957682 
L 292.142732 190.957682 
z
" clip-path="url(#pd1b73f405e)" style="fill: #0000ff; opacity: 0.4; stroke: #000000; stroke-linejoin: miter"/>
   </g>
   <g id="patch_102">
    <path d="M 296.976574 307.584 
L 301.810417 307.584 
L 301.810417 166.218766 
L 296.976574 166.218766 
z
" clip-path="url(#pd1b73f405e)" style="fill: #0000ff; opacity: 0.4; stroke: #000000; stroke-linejoin: miter"/>
   </g>
   <g id="patch_103">
    <path d="M 301.810417 307.584 
L 306.64426 307.584 
L 306.64426 155.616373 
L 301.810417 155.616373 
z
" clip-path="url(#pd1b73f405e)" style="fill: #0000ff; opacity: 0.4; stroke: #000000; stroke-linejoin: miter"/>
   </g>
   <g id="patch_104">
    <path d="M 306.64426 307.584 
L 311.478103 307.584 
L 311.478103 173.287027 
L 306.64426 173.287027 
z
" clip-path="url(#pd1b73f405e)" style="fill: #0000ff; opacity: 0.4; stroke: #000000; stroke-linejoin: miter"/>
   </g>
   <g id="patch_105">
    <path d="M 311.478103 307.584 
L 316.311946 307.584 
L 316.311946 113.206803 
L 311.478103 113.206803 
z
" clip-path="url(#pd1b73f405e)" style="fill: #0000ff; opacity: 0.4; stroke: #000000; stroke-linejoin: miter"/>
   </g>
   <g id="patch_106">
    <path d="M 316.311946 307.584 
L 321.145788 307.584 
L 321.145788 145.01398 
L 316.311946 145.01398 
z
" clip-path="url(#pd1b73f405e)" style="fill: #0000ff; opacity: 0.4; stroke: #000000; stroke-linejoin: miter"/>
   </g>
   <g id="patch_107">
    <path d="M 321.145788 307.584 
L 325.979631 307.584 
L 325.979631 176.821158 
L 321.145788 176.821158 
z
" clip-path="url(#pd1b73f405e)" style="fill: #0000ff; opacity: 0.4; stroke: #000000; stroke-linejoin: miter"/>
   </g>
   <g id="patch_108">
    <path d="M 325.979631 307.584 
L 330.813474 307.584 
L 330.813474 190.957682 
L 325.979631 190.957682 
z
" clip-path="url(#pd1b73f405e)" style="fill: #0000ff; opacity: 0.4; stroke: #000000; stroke-linejoin: miter"/>
   </g>
   <g id="patch_109">
    <path d="M 330.813474 307.584 
L 335.647317 307.584 
L 335.647317 187.423551 
L 330.813474 187.423551 
z
" clip-path="url(#pd1b73f405e)" style="fill: #0000ff; opacity: 0.4; stroke: #000000; stroke-linejoin: miter"/>
   </g>
   <g id="patch_110">
    <path d="M 335.647317 307.584 
L 340.481159 307.584 
L 340.481159 190.957682 
L 335.647317 190.957682 
z
" clip-path="url(#pd1b73f405e)" style="fill: #0000ff; opacity: 0.4; stroke: #000000; stroke-linejoin: miter"/>
   </g>
   <g id="patch_111">
    <path d="M 340.481159 307.584 
L 345.315002 307.584 
L 345.315002 166.218766 
L 340.481159 166.218766 
z
" clip-path="url(#pd1b73f405e)" style="fill: #0000ff; opacity: 0.4; stroke: #000000; stroke-linejoin: miter"/>
   </g>
   <g id="patch_112">
    <path d="M 345.315002 307.584 
L 350.148845 307.584 
L 350.148845 247.503775 
L 345.315002 247.503775 
z
" clip-path="url(#pd1b73f405e)" style="fill: #0000ff; opacity: 0.4; stroke: #000000; stroke-linejoin: miter"/>
   </g>
   <g id="patch_113">
    <path d="M 350.148845 307.584 
L 354.982688 307.584 
L 354.982688 258.106168 
L 350.148845 258.106168 
z
" clip-path="url(#pd1b73f405e)" style="fill: #0000ff; opacity: 0.4; stroke: #000000; stroke-linejoin: miter"/>
   </g>
   <g id="patch_114">
    <path d="M 354.982688 307.584 
L 359.816531 307.584 
L 359.816531 272.242691 
L 354.982688 272.242691 
z
" clip-path="url(#pd1b73f405e)" style="fill: #0000ff; opacity: 0.4; stroke: #000000; stroke-linejoin: miter"/>
   </g>
   <g id="patch_115">
    <path d="M 359.816531 307.584 
L 364.650373 307.584 
L 364.650373 286.379215 
L 359.816531 286.379215 
z
" clip-path="url(#pd1b73f405e)" style="fill: #0000ff; opacity: 0.4; stroke: #000000; stroke-linejoin: miter"/>
   </g>
   <g id="patch_116">
    <path d="M 364.650373 307.584 
L 369.484216 307.584 
L 369.484216 296.981607 
L 364.650373 296.981607 
z
" clip-path="url(#pd1b73f405e)" style="fill: #0000ff; opacity: 0.4; stroke: #000000; stroke-linejoin: miter"/>
   </g>
   <g id="patch_117">
    <path d="M 369.484216 307.584 
L 374.318059 307.584 
L 374.318059 300.515738 
L 369.484216 300.515738 
z
" clip-path="url(#pd1b73f405e)" style="fill: #0000ff; opacity: 0.4; stroke: #000000; stroke-linejoin: miter"/>
   </g>
   <g id="patch_118">
    <path d="M 374.318059 307.584 
L 379.151902 307.584 
L 379.151902 300.515738 
L 374.318059 300.515738 
z
" clip-path="url(#pd1b73f405e)" style="fill: #0000ff; opacity: 0.4; stroke: #000000; stroke-linejoin: miter"/>
   </g>
   <g id="patch_119">
    <path d="M 379.151902 307.584 
L 383.985744 307.584 
L 383.985744 300.515738 
L 379.151902 300.515738 
z
" clip-path="url(#pd1b73f405e)" style="fill: #0000ff; opacity: 0.4; stroke: #000000; stroke-linejoin: miter"/>
   </g>
   <g id="patch_120">
    <path d="M 383.985744 307.584 
L 388.819587 307.584 
L 388.819587 307.584 
L 383.985744 307.584 
z
" clip-path="url(#pd1b73f405e)" style="fill: #0000ff; opacity: 0.4; stroke: #000000; stroke-linejoin: miter"/>
   </g>
   <g id="patch_121">
    <path d="M 388.819587 307.584 
L 393.65343 307.584 
L 393.65343 307.584 
L 388.819587 307.584 
z
" clip-path="url(#pd1b73f405e)" style="fill: #0000ff; opacity: 0.4; stroke: #000000; stroke-linejoin: miter"/>
   </g>
   <g id="patch_122">
    <path d="M 393.65343 307.584 
L 398.487273 307.584 
L 398.487273 304.049869 
L 393.65343 304.049869 
z
" clip-path="url(#pd1b73f405e)" style="fill: #0000ff; opacity: 0.4; stroke: #000000; stroke-linejoin: miter"/>
   </g>
   <g id="matplotlib.axis_1">
    <g id="xtick_1">
     <g id="line2d_1">
      <defs>
       <path id="m8fd72aa96c" d="M 0 0 
L 0 3.5 
" style="stroke: #000000; stroke-width: 0.8"/>
      </defs>
      <g>
       <use xlink:href="#m8fd72aa96c" x="79.569861" y="307.584" style="stroke: #000000; stroke-width: 0.8"/>
      </g>
     </g>
     <g id="text_1">
      <!-- −30 -->
      <g transform="translate(69.017517 322.182437) scale(0.1 -0.1)">
       <defs>
        <path id="DejaVuSans-2212" d="M 678 2272 
L 4684 2272 
L 4684 1741 
L 678 1741 
L 678 2272 
z
" transform="scale(0.015625)"/>
        <path id="DejaVuSans-33" d="M 2597 2516 
Q 3050 2419 3304 2112 
Q 3559 1806 3559 1356 
Q 3559 666 3084 287 
Q 2609 -91 1734 -91 
Q 1441 -91 1130 -33 
Q 819 25 488 141 
L 488 750 
Q 750 597 1062 519 
Q 1375 441 1716 441 
Q 2309 441 2620 675 
Q 2931 909 2931 1356 
Q 2931 1769 2642 2001 
Q 2353 2234 1838 2234 
L 1294 2234 
L 1294 2753 
L 1863 2753 
Q 2328 2753 2575 2939 
Q 2822 3125 2822 3475 
Q 2822 3834 2567 4026 
Q 2313 4219 1838 4219 
Q 1578 4219 1281 4162 
Q 984 4106 628 3988 
L 628 4550 
Q 988 4650 1302 4700 
Q 1616 4750 1894 4750 
Q 2613 4750 3031 4423 
Q 3450 4097 3450 3541 
Q 3450 3153 3228 2886 
Q 3006 2619 2597 2516 
z
" transform="scale(0.015625)"/>
        <path id="DejaVuSans-30" d="M 2034 4250 
Q 1547 4250 1301 3770 
Q 1056 3291 1056 2328 
Q 1056 1369 1301 889 
Q 1547 409 2034 409 
Q 2525 409 2770 889 
Q 3016 1369 3016 2328 
Q 3016 3291 2770 3770 
Q 2525 4250 2034 4250 
z
M 2034 4750 
Q 2819 4750 3233 4129 
Q 3647 3509 3647 2328 
Q 3647 1150 3233 529 
Q 2819 -91 2034 -91 
Q 1250 -91 836 529 
Q 422 1150 422 2328 
Q 422 3509 836 4129 
Q 1250 4750 2034 4750 
z
" transform="scale(0.015625)"/>
       </defs>
       <use xlink:href="#DejaVuSans-2212"/>
       <use xlink:href="#DejaVuSans-33" x="83.789062"/>
       <use xlink:href="#DejaVuSans-30" x="147.412109"/>
      </g>
     </g>
    </g>
    <g id="xtick_2">
     <g id="line2d_2">
      <g>
       <use xlink:href="#m8fd72aa96c" x="138.360763" y="307.584" style="stroke: #000000; stroke-width: 0.8"/>
      </g>
     </g>
     <g id="text_2">
      <!-- −20 -->
      <g transform="translate(127.80842 322.182437) scale(0.1 -0.1)">
       <defs>
        <path id="DejaVuSans-32" d="M 1228 531 
L 3431 531 
L 3431 0 
L 469 0 
L 469 531 
Q 828 903 1448 1529 
Q 2069 2156 2228 2338 
Q 2531 2678 2651 2914 
Q 2772 3150 2772 3378 
Q 2772 3750 2511 3984 
Q 2250 4219 1831 4219 
Q 1534 4219 1204 4116 
Q 875 4013 500 3803 
L 500 4441 
Q 881 4594 1212 4672 
Q 1544 4750 1819 4750 
Q 2544 4750 2975 4387 
Q 3406 4025 3406 3419 
Q 3406 3131 3298 2873 
Q 3191 2616 2906 2266 
Q 2828 2175 2409 1742 
Q 1991 1309 1228 531 
z
" transform="scale(0.015625)"/>
       </defs>
       <use xlink:href="#DejaVuSans-2212"/>
       <use xlink:href="#DejaVuSans-32" x="83.789062"/>
       <use xlink:href="#DejaVuSans-30" x="147.412109"/>
      </g>
     </g>
    </g>
    <g id="xtick_3">
     <g id="line2d_3">
      <g>
       <use xlink:href="#m8fd72aa96c" x="197.151666" y="307.584" style="stroke: #000000; stroke-width: 0.8"/>
      </g>
     </g>
     <g id="text_3">
      <!-- −10 -->
      <g transform="translate(186.599322 322.182437) scale(0.1 -0.1)">
       <defs>
        <path id="DejaVuSans-31" d="M 794 531 
L 1825 531 
L 1825 4091 
L 703 3866 
L 703 4441 
L 1819 4666 
L 2450 4666 
L 2450 531 
L 3481 531 
L 3481 0 
L 794 0 
L 794 531 
z
" transform="scale(0.015625)"/>
       </defs>
       <use xlink:href="#DejaVuSans-2212"/>
       <use xlink:href="#DejaVuSans-31" x="83.789062"/>
       <use xlink:href="#DejaVuSans-30" x="147.412109"/>
      </g>
     </g>
    </g>
    <g id="xtick_4">
     <g id="line2d_4">
      <g>
       <use xlink:href="#m8fd72aa96c" x="255.942568" y="307.584" style="stroke: #000000; stroke-width: 0.8"/>
      </g>
     </g>
     <g id="text_4">
      <!-- 0 -->
      <g transform="translate(252.761318 322.182437) scale(0.1 -0.1)">
       <use xlink:href="#DejaVuSans-30"/>
      </g>
     </g>
    </g>
    <g id="xtick_5">
     <g id="line2d_5">
      <g>
       <use xlink:href="#m8fd72aa96c" x="314.733471" y="307.584" style="stroke: #000000; stroke-width: 0.8"/>
      </g>
     </g>
     <g id="text_5">
      <!-- 10 -->
      <g transform="translate(308.370971 322.182437) scale(0.1 -0.1)">
       <use xlink:href="#DejaVuSans-31"/>
       <use xlink:href="#DejaVuSans-30" x="63.623047"/>
      </g>
     </g>
    </g>
    <g id="xtick_6">
     <g id="line2d_6">
      <g>
       <use xlink:href="#m8fd72aa96c" x="373.524373" y="307.584" style="stroke: #000000; stroke-width: 0.8"/>
      </g>
     </g>
     <g id="text_6">
      <!-- 20 -->
      <g transform="translate(367.161873 322.182437) scale(0.1 -0.1)">
       <use xlink:href="#DejaVuSans-32"/>
       <use xlink:href="#DejaVuSans-30" x="63.623047"/>
      </g>
     </g>
    </g>
   </g>
   <g id="matplotlib.axis_2">
    <g id="ytick_1">
     <g id="line2d_7">
      <defs>
       <path id="m2938b65241" d="M 0 0 
L -3.5 0 
" style="stroke: #000000; stroke-width: 0.8"/>
      </defs>
      <g>
       <use xlink:href="#m2938b65241" x="57.6" y="307.584" style="stroke: #000000; stroke-width: 0.8"/>
      </g>
     </g>
     <g id="text_7">
      <!-- 0.00 -->
      <g transform="translate(28.334375 311.383219) scale(0.1 -0.1)">
       <defs>
        <path id="DejaVuSans-2e" d="M 684 794 
L 1344 794 
L 1344 0 
L 684 0 
L 684 794 
z
" transform="scale(0.015625)"/>
       </defs>
       <use xlink:href="#DejaVuSans-30"/>
       <use xlink:href="#DejaVuSans-2e" x="63.623047"/>
       <use xlink:href="#DejaVuSans-30" x="95.410156"/>
       <use xlink:href="#DejaVuSans-30" x="159.033203"/>
      </g>
     </g>
    </g>
    <g id="ytick_2">
     <g id="line2d_8">
      <g>
       <use xlink:href="#m2938b65241" x="57.6" y="258.766639" style="stroke: #000000; stroke-width: 0.8"/>
      </g>
     </g>
     <g id="text_8">
      <!-- 0.01 -->
      <g transform="translate(28.334375 262.565857) scale(0.1 -0.1)">
       <use xlink:href="#DejaVuSans-30"/>
       <use xlink:href="#DejaVuSans-2e" x="63.623047"/>
       <use xlink:href="#DejaVuSans-30" x="95.410156"/>
       <use xlink:href="#DejaVuSans-31" x="159.033203"/>
      </g>
     </g>
    </g>
    <g id="ytick_3">
     <g id="line2d_9">
      <g>
       <use xlink:href="#m2938b65241" x="57.6" y="209.949277" style="stroke: #000000; stroke-width: 0.8"/>
      </g>
     </g>
     <g id="text_9">
      <!-- 0.02 -->
      <g transform="translate(28.334375 213.748496) scale(0.1 -0.1)">
       <use xlink:href="#DejaVuSans-30"/>
       <use xlink:href="#DejaVuSans-2e" x="63.623047"/>
       <use xlink:href="#DejaVuSans-30" x="95.410156"/>
       <use xlink:href="#DejaVuSans-32" x="159.033203"/>
      </g>
     </g>
    </g>
    <g id="ytick_4">
     <g id="line2d_10">
      <g>
       <use xlink:href="#m2938b65241" x="57.6" y="161.131916" style="stroke: #000000; stroke-width: 0.8"/>
      </g>
     </g>
     <g id="text_10">
      <!-- 0.03 -->
      <g transform="translate(28.334375 164.931135) scale(0.1 -0.1)">
       <use xlink:href="#DejaVuSans-30"/>
       <use xlink:href="#DejaVuSans-2e" x="63.623047"/>
       <use xlink:href="#DejaVuSans-30" x="95.410156"/>
       <use xlink:href="#DejaVuSans-33" x="159.033203"/>
      </g>
     </g>
    </g>
    <g id="ytick_5">
     <g id="line2d_11">
      <g>
       <use xlink:href="#m2938b65241" x="57.6" y="112.314554" style="stroke: #000000; stroke-width: 0.8"/>
      </g>
     </g>
     <g id="text_11">
      <!-- 0.04 -->
      <g transform="translate(28.334375 116.113773) scale(0.1 -0.1)">
       <defs>
        <path id="DejaVuSans-34" d="M 2419 4116 
L 825 1625 
L 2419 1625 
L 2419 4116 
z
M 2253 4666 
L 3047 4666 
L 3047 1625 
L 3713 1625 
L 3713 1100 
L 3047 1100 
L 3047 0 
L 2419 0 
L 2419 1100 
L 313 1100 
L 313 1709 
L 2253 4666 
z
" transform="scale(0.015625)"/>
       </defs>
       <use xlink:href="#DejaVuSans-30"/>
       <use xlink:href="#DejaVuSans-2e" x="63.623047"/>
       <use xlink:href="#DejaVuSans-30" x="95.410156"/>
       <use xlink:href="#DejaVuSans-34" x="159.033203"/>
      </g>
     </g>
    </g>
    <g id="ytick_6">
     <g id="line2d_12">
      <g>
       <use xlink:href="#m2938b65241" x="57.6" y="63.497193" style="stroke: #000000; stroke-width: 0.8"/>
      </g>
     </g>
     <g id="text_12">
      <!-- 0.05 -->
      <g transform="translate(28.334375 67.296412) scale(0.1 -0.1)">
       <defs>
        <path id="DejaVuSans-35" d="M 691 4666 
L 3169 4666 
L 3169 4134 
L 1269 4134 
L 1269 2991 
Q 1406 3038 1543 3061 
Q 1681 3084 1819 3084 
Q 2600 3084 3056 2656 
Q 3513 2228 3513 1497 
Q 3513 744 3044 326 
Q 2575 -91 1722 -91 
Q 1428 -91 1123 -41 
Q 819 9 494 109 
L 494 744 
Q 775 591 1075 516 
Q 1375 441 1709 441 
Q 2250 441 2565 725 
Q 2881 1009 2881 1497 
Q 2881 1984 2565 2268 
Q 2250 2553 1709 2553 
Q 1456 2553 1204 2497 
Q 953 2441 691 2322 
L 691 4666 
z
" transform="scale(0.015625)"/>
       </defs>
       <use xlink:href="#DejaVuSans-30"/>
       <use xlink:href="#DejaVuSans-2e" x="63.623047"/>
       <use xlink:href="#DejaVuSans-30" x="95.410156"/>
       <use xlink:href="#DejaVuSans-35" x="159.033203"/>
      </g>
     </g>
    </g>
   </g>
   <g id="patch_123">
    <path d="M 57.6 307.584 
L 57.6 41.472 
" style="fill: none; stroke: #000000; stroke-width: 0.8; stroke-linejoin: miter; stroke-linecap: square"/>
   </g>
   <g id="patch_124">
    <path d="M 414.72 307.584 
L 414.72 41.472 
" style="fill: none; stroke: #000000; stroke-width: 0.8; stroke-linejoin: miter; stroke-linecap: square"/>
   </g>
   <g id="patch_125">
    <path d="M 57.6 307.584 
L 414.72 307.584 
" style="fill: none; stroke: #000000; stroke-width: 0.8; stroke-linejoin: miter; stroke-linecap: square"/>
   </g>
   <g id="patch_126">
    <path d="M 57.6 41.472 
L 414.72 41.472 
" style="fill: none; stroke: #000000; stroke-width: 0.8; stroke-linejoin: miter; stroke-linecap: square"/>
   </g>
   <g id="text_13">
    <!-- RAW_feature_9 -->
    <g transform="translate(191.0475 35.472) scale(0.12 -0.12)">
     <defs>
      <path id="DejaVuSans-52" d="M 2841 2188 
Q 3044 2119 3236 1894 
Q 3428 1669 3622 1275 
L 4263 0 
L 3584 0 
L 2988 1197 
Q 2756 1666 2539 1819 
Q 2322 1972 1947 1972 
L 1259 1972 
L 1259 0 
L 628 0 
L 628 4666 
L 2053 4666 
Q 2853 4666 3247 4331 
Q 3641 3997 3641 3322 
Q 3641 2881 3436 2590 
Q 3231 2300 2841 2188 
z
M 1259 4147 
L 1259 2491 
L 2053 2491 
Q 2509 2491 2742 2702 
Q 2975 2913 2975 3322 
Q 2975 3731 2742 3939 
Q 2509 4147 2053 4147 
L 1259 4147 
z
" transform="scale(0.015625)"/>
      <path id="DejaVuSans-41" d="M 2188 4044 
L 1331 1722 
L 3047 1722 
L 2188 4044 
z
M 1831 4666 
L 2547 4666 
L 4325 0 
L 3669 0 
L 3244 1197 
L 1141 1197 
L 716 0 
L 50 0 
L 1831 4666 
z
" transform="scale(0.015625)"/>
      <path id="DejaVuSans-57" d="M 213 4666 
L 850 4666 
L 1831 722 
L 2809 4666 
L 3519 4666 
L 4500 722 
L 5478 4666 
L 6119 4666 
L 4947 0 
L 4153 0 
L 3169 4050 
L 2175 0 
L 1381 0 
L 213 4666 
z
" transform="scale(0.015625)"/>
      <path id="DejaVuSans-5f" d="M 3263 -1063 
L 3263 -1509 
L -63 -1509 
L -63 -1063 
L 3263 -1063 
z
" transform="scale(0.015625)"/>
      <path id="DejaVuSans-66" d="M 2375 4863 
L 2375 4384 
L 1825 4384 
Q 1516 4384 1395 4259 
Q 1275 4134 1275 3809 
L 1275 3500 
L 2222 3500 
L 2222 3053 
L 1275 3053 
L 1275 0 
L 697 0 
L 697 3053 
L 147 3053 
L 147 3500 
L 697 3500 
L 697 3744 
Q 697 4328 969 4595 
Q 1241 4863 1831 4863 
L 2375 4863 
z
" transform="scale(0.015625)"/>
      <path id="DejaVuSans-65" d="M 3597 1894 
L 3597 1613 
L 953 1613 
Q 991 1019 1311 708 
Q 1631 397 2203 397 
Q 2534 397 2845 478 
Q 3156 559 3463 722 
L 3463 178 
Q 3153 47 2828 -22 
Q 2503 -91 2169 -91 
Q 1331 -91 842 396 
Q 353 884 353 1716 
Q 353 2575 817 3079 
Q 1281 3584 2069 3584 
Q 2775 3584 3186 3129 
Q 3597 2675 3597 1894 
z
M 3022 2063 
Q 3016 2534 2758 2815 
Q 2500 3097 2075 3097 
Q 1594 3097 1305 2825 
Q 1016 2553 972 2059 
L 3022 2063 
z
" transform="scale(0.015625)"/>
      <path id="DejaVuSans-61" d="M 2194 1759 
Q 1497 1759 1228 1600 
Q 959 1441 959 1056 
Q 959 750 1161 570 
Q 1363 391 1709 391 
Q 2188 391 2477 730 
Q 2766 1069 2766 1631 
L 2766 1759 
L 2194 1759 
z
M 3341 1997 
L 3341 0 
L 2766 0 
L 2766 531 
Q 2569 213 2275 61 
Q 1981 -91 1556 -91 
Q 1019 -91 701 211 
Q 384 513 384 1019 
Q 384 1609 779 1909 
Q 1175 2209 1959 2209 
L 2766 2209 
L 2766 2266 
Q 2766 2663 2505 2880 
Q 2244 3097 1772 3097 
Q 1472 3097 1187 3025 
Q 903 2953 641 2809 
L 641 3341 
Q 956 3463 1253 3523 
Q 1550 3584 1831 3584 
Q 2591 3584 2966 3190 
Q 3341 2797 3341 1997 
z
" transform="scale(0.015625)"/>
      <path id="DejaVuSans-74" d="M 1172 4494 
L 1172 3500 
L 2356 3500 
L 2356 3053 
L 1172 3053 
L 1172 1153 
Q 1172 725 1289 603 
Q 1406 481 1766 481 
L 2356 481 
L 2356 0 
L 1766 0 
Q 1100 0 847 248 
Q 594 497 594 1153 
L 594 3053 
L 172 3053 
L 172 3500 
L 594 3500 
L 594 4494 
L 1172 4494 
z
" transform="scale(0.015625)"/>
      <path id="DejaVuSans-75" d="M 544 1381 
L 544 3500 
L 1119 3500 
L 1119 1403 
Q 1119 906 1312 657 
Q 1506 409 1894 409 
Q 2359 409 2629 706 
Q 2900 1003 2900 1516 
L 2900 3500 
L 3475 3500 
L 3475 0 
L 2900 0 
L 2900 538 
Q 2691 219 2414 64 
Q 2138 -91 1772 -91 
Q 1169 -91 856 284 
Q 544 659 544 1381 
z
M 1991 3584 
L 1991 3584 
z
" transform="scale(0.015625)"/>
      <path id="DejaVuSans-72" d="M 2631 2963 
Q 2534 3019 2420 3045 
Q 2306 3072 2169 3072 
Q 1681 3072 1420 2755 
Q 1159 2438 1159 1844 
L 1159 0 
L 581 0 
L 581 3500 
L 1159 3500 
L 1159 2956 
Q 1341 3275 1631 3429 
Q 1922 3584 2338 3584 
Q 2397 3584 2469 3576 
Q 2541 3569 2628 3553 
L 2631 2963 
z
" transform="scale(0.015625)"/>
      <path id="DejaVuSans-39" d="M 703 97 
L 703 672 
Q 941 559 1184 500 
Q 1428 441 1663 441 
Q 2288 441 2617 861 
Q 2947 1281 2994 2138 
Q 2813 1869 2534 1725 
Q 2256 1581 1919 1581 
Q 1219 1581 811 2004 
Q 403 2428 403 3163 
Q 403 3881 828 4315 
Q 1253 4750 1959 4750 
Q 2769 4750 3195 4129 
Q 3622 3509 3622 2328 
Q 3622 1225 3098 567 
Q 2575 -91 1691 -91 
Q 1453 -91 1209 -44 
Q 966 3 703 97 
z
M 1959 2075 
Q 2384 2075 2632 2365 
Q 2881 2656 2881 3163 
Q 2881 3666 2632 3958 
Q 2384 4250 1959 4250 
Q 1534 4250 1286 3958 
Q 1038 3666 1038 3163 
Q 1038 2656 1286 2365 
Q 1534 2075 1959 2075 
z
" transform="scale(0.015625)"/>
     </defs>
     <use xlink:href="#DejaVuSans-52"/>
     <use xlink:href="#DejaVuSans-41" x="65.482422"/>
     <use xlink:href="#DejaVuSans-57" x="128.390625"/>
     <use xlink:href="#DejaVuSans-5f" x="227.267578"/>
     <use xlink:href="#DejaVuSans-66" x="277.267578"/>
     <use xlink:href="#DejaVuSans-65" x="312.472656"/>
     <use xlink:href="#DejaVuSans-61" x="373.996094"/>
     <use xlink:href="#DejaVuSans-74" x="435.275391"/>
     <use xlink:href="#DejaVuSans-75" x="474.484375"/>
     <use xlink:href="#DejaVuSans-72" x="537.863281"/>
     <use xlink:href="#DejaVuSans-65" x="576.726562"/>
     <use xlink:href="#DejaVuSans-5f" x="638.25"/>
     <use xlink:href="#DejaVuSans-39" x="688.25"/>
    </g>
   </g>
   <g id="legend_1">
    <g id="patch_127">
     <path d="M 341.246563 78.82825 
L 407.72 78.82825 
Q 409.72 78.82825 409.72 76.82825 
L 409.72 48.472 
Q 409.72 46.472 407.72 46.472 
L 341.246563 46.472 
Q 339.246563 46.472 339.246563 48.472 
L 339.246563 76.82825 
Q 339.246563 78.82825 341.246563 78.82825 
z
" style="fill: #ffffff; opacity: 0.8; stroke: #cccccc; stroke-linejoin: miter"/>
    </g>
    <g id="patch_128">
     <path d="M 343.246563 58.070437 
L 363.246563 58.070437 
L 363.246563 51.070437 
L 343.246563 51.070437 
z
" style="fill: #ff0000; opacity: 0.4; stroke: #000000; stroke-linejoin: miter"/>
    </g>
    <g id="text_14">
     <!-- male -->
     <g transform="translate(371.246563 58.070437) scale(0.1 -0.1)">
      <defs>
       <path id="DejaVuSans-6d" d="M 3328 2828 
Q 3544 3216 3844 3400 
Q 4144 3584 4550 3584 
Q 5097 3584 5394 3201 
Q 5691 2819 5691 2113 
L 5691 0 
L 5113 0 
L 5113 2094 
Q 5113 2597 4934 2840 
Q 4756 3084 4391 3084 
Q 3944 3084 3684 2787 
Q 3425 2491 3425 1978 
L 3425 0 
L 2847 0 
L 2847 2094 
Q 2847 2600 2669 2842 
Q 2491 3084 2119 3084 
Q 1678 3084 1418 2786 
Q 1159 2488 1159 1978 
L 1159 0 
L 581 0 
L 581 3500 
L 1159 3500 
L 1159 2956 
Q 1356 3278 1631 3431 
Q 1906 3584 2284 3584 
Q 2666 3584 2933 3390 
Q 3200 3197 3328 2828 
z
" transform="scale(0.015625)"/>
       <path id="DejaVuSans-6c" d="M 603 4863 
L 1178 4863 
L 1178 0 
L 603 0 
L 603 4863 
z
" transform="scale(0.015625)"/>
      </defs>
      <use xlink:href="#DejaVuSans-6d"/>
      <use xlink:href="#DejaVuSans-61" x="97.412109"/>
      <use xlink:href="#DejaVuSans-6c" x="158.691406"/>
      <use xlink:href="#DejaVuSans-65" x="186.474609"/>
     </g>
    </g>
    <g id="patch_129">
     <path d="M 343.246563 72.748562 
L 363.246563 72.748562 
L 363.246563 65.748562 
L 343.246563 65.748562 
z
" style="fill: #0000ff; opacity: 0.4; stroke: #000000; stroke-linejoin: miter"/>
    </g>
    <g id="text_15">
     <!-- female -->
     <g transform="translate(371.246563 72.748562) scale(0.1 -0.1)">
      <use xlink:href="#DejaVuSans-66"/>
      <use xlink:href="#DejaVuSans-65" x="35.205078"/>
      <use xlink:href="#DejaVuSans-6d" x="96.728516"/>
      <use xlink:href="#DejaVuSans-61" x="194.140625"/>
      <use xlink:href="#DejaVuSans-6c" x="255.419922"/>
      <use xlink:href="#DejaVuSans-65" x="283.203125"/>
     </g>
    </g>
   </g>
  </g>
 </g>
 <defs>
  <clipPath id="pd1b73f405e">
   <rect x="57.6" y="41.472" width="357.12" height="266.112"/>
  </clipPath>
 </defs>
</svg>
